<svg width="20" height="20" viewBox="0 0 20 20" fill="none" xmlns="http://www.w3.org/2000/svg">
<path d="M2.66406 9.33305C2.66406 6.38769 5.05175 4 7.99711 4H11.9977C14.943 4 17.3307 6.38769 17.3307 9.33304V15.9987H2.66406V9.33305Z" fill="#FD3B31"/>
<rect x="2.66406" y="14.6641" width="14.6667" height="1.33319" fill="#D75558"/>
<rect x="2.66406" y="15.9922" width="14.6667" height="1.33319" fill="#DBB8C0"/>
<rect x="1.33594" y="17.3359" width="17.3333" height="1.33319" fill="#105BAB"/>
<rect y="18.6641" width="20" height="1.33319" fill="#105BAB"/>
<path d="M9.32812 0.666667C9.32812 0.298478 9.6266 0 9.99479 0C10.363 0 10.6615 0.298477 10.6615 0.666667V4.66609C10.6615 5.03428 10.363 5.33275 9.99479 5.33275C9.6266 5.33275 9.32812 5.03428 9.32812 4.66609V0.666667Z" fill="#FD3B31"/>
<rect width="1.33326" height="5.33304" rx="0.666631" transform="matrix(0.707145 0.707068 -0.707145 0.707068 17.1016 2.66406)" fill="#FD3B31"/>
<rect width="1.2015" height="4.80602" rx="0.600752" transform="matrix(0.707145 0.707068 -0.707145 0.707068 19.1484 5.32812)" fill="#FD3B31"/>
<rect width="1.33326" height="5.33304" rx="0.666631" transform="matrix(0.707145 -0.707068 0.707145 0.707068 2.66406 3.60156)" fill="#FD3B31"/>
<rect width="1.2015" height="4.80602" rx="0.600752" transform="matrix(0.707145 -0.707068 0.707145 0.707068 0 6.1875)" fill="#FD3B31"/>
</svg>
