<svg width="24" height="24" viewBox="0 0 24 24" fill="none" xmlns="http://www.w3.org/2000/svg">
<path d="M11 4V0H13V4H11ZM6.575 5.425L3.575 2.425L5 1L8 4L6.575 5.425ZM6 18H9C9.28333 18 9.521 17.904 9.713 17.712C9.905 17.52 10.0007 17.2827 10 17C10 16.7167 9.904 16.4793 9.712 16.288C9.52 16.0967 9.28267 16.0007 9 16H6V18ZM15 18H18V16H15C14.7167 16 14.4793 16.096 14.288 16.288C14.0967 16.48 14.0007 16.7173 14 17C14 17.2833 14.096 17.521 14.288 17.713C14.48 17.905 14.7173 18.0007 15 18ZM17.275 11.25L20.75 7.8L19.7 6.75L17.275 9.125L16.3 8.15L15.25 9.225L17.275 11.25ZM18 14C16.6167 14 15.4377 13.5123 14.463 12.537C13.4883 11.5617 13.0007 10.3827 13 9C13 7.61667 13.4877 6.43767 14.463 5.463C15.4383 4.48833 16.6173 4.00067 18 4C19.3833 4 20.5627 4.48767 21.538 5.463C22.5133 6.43833 23.0007 7.61733 23 9C23 10.3833 22.5123 11.5627 21.537 12.538C20.5617 13.5133 19.3827 14.0007 18 14ZM4 23C3.71667 23 3.47933 22.904 3.288 22.712C3.09667 22.52 3.00067 22.2827 3 22V14L5.1 8C5.2 7.7 5.37933 7.45833 5.638 7.275C5.89667 7.09167 6.184 7 6.5 7H9V5H12.275C11.875 5.56667 11.5627 6.18767 11.338 6.863C11.1133 7.53833 11.0007 8.25067 11 9H6.85L5.375 13H12.275C12.9417 13.95 13.775 14.6877 14.775 15.213C15.775 15.7383 16.85 16.0007 18 16C18.5333 16 19.046 15.946 19.538 15.838C20.03 15.73 20.5173 15.559 21 15.325V22C21 22.2833 20.904 22.521 20.712 22.713C20.52 22.905 20.2827 23.0007 20 23H19C18.7167 23 18.4793 22.904 18.288 22.712C18.0967 22.52 18.0007 22.2827 18 22V21H6V22C6 22.2833 5.904 22.521 5.712 22.713C5.52 22.905 5.28267 23.0007 5 23H4Z" fill="#13ADE1"/>
</svg>
