<svg width="193" height="57" viewBox="0 0 193 57" fill="none" xmlns="http://www.w3.org/2000/svg">
<path d="M185.521 56.5H7.3157C3.39697 56.5 0.1875 53.3665 0.1875 49.5404V7.78308C0.1875 3.95706 3.39697 0.823523 7.3157 0.823523H185.521C189.439 0.823523 192.649 3.95706 192.649 7.78308V49.5404C192.649 53.3665 189.439 56.5 185.521 56.5Z" fill="black"/>
<path d="M185.521 1.93879C188.821 1.93879 191.507 4.56081 191.507 7.78308V49.5404C191.507 52.7627 188.821 55.3847 185.521 55.3847H7.3157C4.01534 55.3847 1.32979 52.7627 1.32979 49.5404V7.78308C1.32979 4.56081 4.01534 1.93879 7.3157 1.93879H185.521ZM185.521 0.823523H7.3157C3.39697 0.823523 0.1875 3.95706 0.1875 7.78308V49.5404C0.1875 53.3665 3.39697 56.5 7.3157 56.5H185.521C189.439 56.5 192.649 53.3665 192.649 49.5404V7.78308C192.649 3.95706 189.439 0.823523 185.521 0.823523Z" fill="#9B9B9B"/>
<path d="M67.7871 15.0779C67.7871 16.2402 67.4307 17.171 66.7286 17.8652C65.9213 18.6882 64.8699 19.1023 63.5815 19.1023C62.3501 19.1023 61.2987 18.6812 60.4362 17.8513C59.5719 17.0092 59.1406 15.9757 59.1406 14.7386C59.1406 13.5016 59.5719 12.4681 60.4362 11.6329C61.2987 10.7961 62.3501 10.375 63.5815 10.375C64.1945 10.375 64.779 10.4985 65.3368 10.7282C65.8928 10.9596 66.3454 11.2728 66.6733 11.659L65.9284 12.3933C65.3564 11.7339 64.5777 11.4085 63.5815 11.4085C62.6833 11.4085 61.9046 11.7147 61.2434 12.3324C60.5894 12.9518 60.2615 13.7539 60.2615 14.7386C60.2615 15.7234 60.5894 16.5325 61.2434 17.1519C61.9046 17.7626 62.6833 18.0758 63.5815 18.0758C64.5349 18.0758 65.3368 17.7626 65.9694 17.1449C66.3864 16.736 66.6235 16.1723 66.6858 15.452H63.5815V14.4463H67.723C67.7729 14.6638 67.7871 14.8744 67.7871 15.0779Z" fill="white"/>
<path fill-rule="evenodd" clip-rule="evenodd" d="M63.5837 10.4862C62.381 10.4862 61.3578 10.8963 60.5166 11.7126C59.6746 12.5262 59.2544 13.531 59.2544 14.7396C59.2544 15.9479 59.6743 16.9527 60.5165 17.7734C61.3578 18.5828 62.3811 18.9929 63.5837 18.9929C64.8455 18.9929 65.8668 18.5885 66.6507 17.7894L66.6519 17.7882C67.3295 17.1182 67.6778 16.2173 67.6778 15.0788C67.6778 14.9079 67.6674 14.7345 67.6343 14.5576H63.6953V15.3426H66.8096L66.7992 15.4623C66.7352 16.2018 66.4905 16.7925 66.0503 17.2241C65.3952 17.8637 64.5642 18.187 63.5837 18.187C62.6563 18.187 61.8506 17.8625 61.1695 17.2334C60.4911 16.5909 60.1522 15.7509 60.1522 14.7396C60.1522 13.728 60.4902 12.896 61.1685 12.2537C61.8502 11.6168 62.6568 11.2991 63.5837 11.2991C64.5624 11.2991 65.3472 11.6061 65.9354 12.2337L66.5229 11.6547C66.2146 11.3188 65.8011 11.0411 65.2959 10.8308C64.7509 10.6065 64.181 10.4862 63.5837 10.4862ZM60.3603 11.5551C61.2441 10.6976 62.3237 10.2656 63.5837 10.2656C64.2124 10.2656 64.8114 10.3924 65.3819 10.6273C65.9509 10.8641 66.4196 11.1869 66.7611 11.5891L66.8269 11.6666L65.9243 12.5563L65.846 12.466C65.2982 11.8346 64.5524 11.5197 63.5837 11.5197C62.7144 11.5197 61.9631 11.8149 61.3226 12.4132C60.693 13.0096 60.3753 13.7817 60.3753 14.7396C60.3753 15.6975 60.6931 16.4765 61.3224 17.0727C61.9635 17.6646 62.715 17.9664 63.5837 17.9664C64.51 17.9664 65.2831 17.6631 65.8932 17.0674C66.2642 16.7035 66.4892 16.206 66.5647 15.5632H63.4721V14.337H67.8143L67.834 14.4229C67.8864 14.651 67.9009 14.8702 67.9009 15.0788C67.9009 16.2646 67.5366 17.2251 66.8103 17.9435C65.9797 18.7899 64.8984 19.2135 63.5837 19.2135C62.3237 19.2135 61.2442 18.7815 60.3605 17.9313C59.4743 17.0678 59.0312 16.0052 59.0312 14.7396C59.0312 13.474 59.4737 12.4118 60.3603 11.5551Z" fill="white"/>
<path d="M74.3587 11.5951H70.4685V14.2397H73.9756V15.2454H70.4685V17.89H74.3587V18.9148H69.3672V10.5703H74.3587V11.5951Z" fill="white"/>
<path fill-rule="evenodd" clip-rule="evenodd" d="M69.2578 10.4609H74.4725V11.7063H70.5823V14.1304H74.0894V15.3566H70.5823V17.7807H74.4725V19.026H69.2578V10.4609ZM69.481 10.6815V18.8054H74.2493V18.0012H70.3591V15.136H73.8662V14.351H70.3591V11.4857H74.2493V10.6815H69.481Z" fill="white"/>
<path d="M78.9953 18.9148H77.894V11.5951H75.5078V10.5703H81.3832V11.5951H78.9953V18.9148Z" fill="white"/>
<path fill-rule="evenodd" clip-rule="evenodd" d="M75.3984 10.4609H81.497V11.7063H79.1091V18.9157H78.9975V19.026H77.7846V11.7063H75.3984V10.4609ZM78.8859 18.8054V11.4857H81.2739V10.6815H75.6216V11.4857H78.0078V18.8054H78.8859Z" fill="white"/>
<path d="M85.6328 18.9148V10.5703H86.7323V18.9148H85.6328Z" fill="white"/>
<path fill-rule="evenodd" clip-rule="evenodd" d="M85.5234 10.4609H86.8462V19.026H85.5234V10.4609ZM85.7466 10.6815V18.8054H86.623V10.6815H85.7466Z" fill="white"/>
<path d="M91.6046 18.9148H90.5123V11.5951H88.1172V10.5703H93.9997V11.5951H91.6046V18.9148Z" fill="white"/>
<path fill-rule="evenodd" clip-rule="evenodd" d="M88.0078 10.4609H94.1135V11.7063H91.7185V19.026H90.4029V11.7063H88.0078V10.4609ZM88.231 10.6815V11.4857H90.6261V18.8054H91.4953V11.4857H93.8903V10.6815H88.231Z" fill="white"/>
<path d="M105.126 17.8374C104.284 18.6812 103.239 19.1023 101.994 19.1023C100.741 19.1023 99.6966 18.6812 98.8537 17.8374C98.0125 16.9953 97.5938 15.9618 97.5938 14.7386C97.5938 13.5155 98.0125 12.482 98.8537 11.6399C99.6966 10.7961 100.741 10.375 101.994 10.375C103.232 10.375 104.276 10.7961 105.119 11.6469C105.968 12.4959 106.386 13.5225 106.386 14.7386C106.386 15.9618 105.968 16.9953 105.126 17.8374ZM99.6681 17.138C100.302 17.7626 101.074 18.0758 101.994 18.0758C102.906 18.0758 103.685 17.7626 104.312 17.138C104.945 16.5133 105.265 15.7112 105.265 14.7386C105.265 13.766 104.945 12.964 104.312 12.3393C103.685 11.7147 102.906 11.4015 101.994 11.4015C101.074 11.4015 100.302 11.7147 99.6681 12.3393C99.0354 12.964 98.7147 13.766 98.7147 14.7386C98.7147 15.7112 99.0354 16.5133 99.6681 17.138Z" fill="white"/>
<path fill-rule="evenodd" clip-rule="evenodd" d="M101.996 10.4862C100.771 10.4862 99.7562 10.8964 98.9353 11.7183L98.8559 11.6408L98.9353 11.7183C98.1156 12.5389 97.7076 13.5442 97.7076 14.7396C97.7076 15.9349 98.1156 16.9402 98.9353 17.7608C99.7562 18.5827 100.771 18.9929 101.996 18.9929C103.213 18.9929 104.228 18.5828 105.049 17.7608C105.869 16.9402 106.277 15.9349 106.277 14.7396C106.277 13.5516 105.869 12.5531 105.042 11.7253L105.042 11.7249C104.221 10.8963 103.206 10.4862 101.996 10.4862ZM98.7765 11.5633C99.6413 10.6975 100.715 10.2656 101.996 10.2656C103.263 10.2656 104.336 10.6976 105.201 11.5704C106.07 12.4407 106.5 13.4953 106.5 14.7396C106.5 15.9905 106.071 17.0522 105.208 17.9158L105.129 17.8383L105.208 17.9158C104.343 18.7816 103.27 19.2135 101.996 19.2135C100.715 19.2135 99.6413 18.7816 98.7765 17.9158L98.8559 17.8383L98.7765 17.9158C97.9139 17.0522 97.4844 15.9905 97.4844 14.7396C97.4844 13.4886 97.9139 12.4269 98.7765 11.5633L98.7765 11.5633ZM99.5915 12.2621C100.247 11.6165 101.047 11.2922 101.996 11.2922C102.937 11.2922 103.744 11.6163 104.393 12.2624C105.049 12.9097 105.379 13.7407 105.379 14.7396C105.379 15.7384 105.049 16.5695 104.393 17.2168C103.744 17.8629 102.937 18.187 101.996 18.187C101.047 18.187 100.247 17.8626 99.5915 17.217L99.5914 17.2169C98.9358 16.5696 98.6053 15.7385 98.6053 14.7396C98.6053 13.7407 98.9358 12.9095 99.5914 12.2622L99.5915 12.2621ZM99.7491 12.4184C99.1395 13.0203 98.8285 13.7933 98.8285 14.7396C98.8285 15.6858 99.1395 16.4588 99.749 17.0607C100.362 17.6643 101.105 17.9664 101.996 17.9664C102.88 17.9664 103.63 17.6642 104.235 17.0612L104.235 17.0608C104.845 16.4589 105.156 15.6858 105.156 14.7396C105.156 13.7933 104.845 13.0202 104.235 12.4183L104.235 12.418C103.63 11.8149 102.88 11.5128 101.996 11.5128C101.105 11.5128 100.362 11.8148 99.7491 12.4184Z" fill="white"/>
<path d="M107.93 18.9148V10.5703H109.266L113.422 17.0601H113.47L113.422 15.4559V10.5703H114.521V18.9148H113.374L109.022 12.1049H108.974L109.022 13.716V18.9148H107.93Z" fill="white"/>
<path fill-rule="evenodd" clip-rule="evenodd" d="M107.82 10.4609H109.33L113.351 16.7406L113.313 15.4568L113.313 10.4609H114.635V19.026H113.315L109.097 12.4268L109.136 13.717L109.136 19.026H107.82V10.4609ZM108.043 10.6815V18.8054H108.913V13.7186L108.861 11.9955H109.086L113.438 18.8054H114.412V10.6815H113.536V15.4552L113.587 17.1713H113.363L109.207 10.6815H108.043Z" fill="white"/>
<path d="M97.323 31.1025C93.9745 31.1025 91.2391 33.5905 91.2391 37.0233C91.2391 40.4283 93.9745 42.9425 97.323 42.9425C100.679 42.9425 103.414 40.4283 103.414 37.0233C103.414 33.5905 100.679 31.1025 97.323 31.1025ZM97.323 40.611C95.4857 40.611 93.905 39.1304 93.905 37.0233C93.905 34.8885 95.4857 33.434 97.323 33.434C99.1603 33.434 100.748 34.8885 100.748 37.0233C100.748 39.1304 99.1603 40.611 97.323 40.611ZM84.0485 31.1025C80.6929 31.1025 77.9646 33.5905 77.9646 37.0233C77.9646 40.4283 80.6929 42.9425 84.0485 42.9425C87.4023 42.9425 90.1324 40.4283 90.1324 37.0233C90.1324 33.5905 87.4023 31.1025 84.0485 31.1025ZM84.0485 40.611C82.2095 40.611 80.6234 39.1304 80.6234 37.0233C80.6234 34.8885 82.2095 33.434 84.0485 33.434C85.8858 33.434 87.4665 34.8885 87.4665 37.0233C87.4665 39.1304 85.8858 40.611 84.0485 40.611ZM68.2524 32.9172V35.4331H74.4059C74.2259 36.8389 73.7447 37.8724 73.0069 38.5927C72.1088 39.4627 70.7099 40.4283 68.2524 40.4283C64.4656 40.4283 61.5003 37.4444 61.5003 33.7471C61.5003 30.0499 64.4656 27.066 68.2524 27.066C70.3 27.066 71.7898 27.8472 72.8893 28.8598L74.7052 27.0868C73.1673 25.6532 71.1215 24.5518 68.2524 24.5518C63.0595 24.5518 58.6953 28.6771 58.6953 33.7471C58.6953 38.8172 63.0595 42.9425 68.2524 42.9425C71.0592 42.9425 73.1673 42.0447 74.8246 40.3605C76.5229 38.7023 77.0522 36.3709 77.0522 34.4883C77.0522 33.9037 77.0023 33.3661 76.9132 32.9172H68.2524ZM132.845 34.8676C132.344 33.5436 130.799 31.1025 127.652 31.1025C124.533 31.1025 121.937 33.5018 121.937 37.0233C121.937 40.3396 124.506 42.9425 127.951 42.9425C130.736 42.9425 132.344 41.2843 133.005 40.3187L130.938 38.9738C130.248 39.9585 129.309 40.611 127.951 40.611C126.602 40.611 125.634 40.0073 125.014 38.8172L133.124 35.541L132.845 34.8676ZM124.576 36.8389C124.506 34.5562 126.392 33.387 127.743 33.387C128.801 33.387 129.699 33.9037 129.999 34.6432L124.576 36.8389ZM117.984 42.5823H120.65V25.1834H117.984V42.5823ZM113.618 32.4213H113.529C112.93 31.7289 111.788 31.1025 110.341 31.1025C107.304 31.1025 104.528 33.7054 104.528 37.0425C104.528 40.3605 107.304 42.9425 110.341 42.9425C111.788 42.9425 112.93 42.3109 113.529 41.5975H113.618V42.4466C113.618 44.7102 112.38 45.9264 110.382 45.9264C108.753 45.9264 107.743 44.778 107.326 43.8124L105.007 44.7572C105.675 46.3265 107.445 48.2578 110.382 48.2578C113.508 48.2578 116.145 46.4622 116.145 42.0934V31.4627H113.618V32.4213ZM110.569 40.611C108.732 40.611 107.194 39.1095 107.194 37.0425C107.194 34.9564 108.732 33.434 110.569 33.434C112.38 33.434 113.807 34.9564 113.807 37.0425C113.807 39.1095 112.38 40.611 110.569 40.611ZM145.326 25.1834H138.95V42.5823H141.609V35.9899H145.326C148.279 35.9899 151.175 33.9037 151.175 30.5858C151.175 27.2695 148.272 25.1834 145.326 25.1834ZM145.396 33.5697H141.609V27.6036H145.396C147.381 27.6036 148.514 29.213 148.514 30.5858C148.514 31.9324 147.381 33.5697 145.396 33.5697ZM161.831 31.0694C159.91 31.0694 157.913 31.8976 157.091 33.7332L159.451 34.6989C159.959 33.7332 160.892 33.42 161.88 33.42C163.259 33.42 164.658 34.2291 164.679 35.6575V35.8402C164.198 35.5688 163.168 35.1669 161.901 35.1669C159.36 35.1669 156.77 36.5327 156.77 39.0816C156.77 41.4131 158.852 42.9146 161.192 42.9146C162.981 42.9146 163.968 42.1264 164.588 41.2095H164.679V42.5545H167.247V35.8802C167.247 32.7954 164.888 31.0694 161.831 31.0694ZM161.511 40.604C160.641 40.604 159.429 40.183 159.429 39.1304C159.429 37.7837 160.94 37.2669 162.248 37.2669C163.419 37.2669 163.968 37.5192 164.679 37.8515C164.471 39.4627 163.05 40.604 161.511 40.604ZM176.603 31.4505L173.547 38.9929H173.456L170.296 31.4505H167.429L172.176 41.9907L169.468 47.8559H172.246L179.561 31.4505H176.603ZM152.636 42.5823H155.302V25.1834H152.636V42.5823Z" fill="white"/>
<path d="M15.0674 11.3185C14.6486 11.7465 14.4062 12.4129 14.4062 13.2759V44.058C14.4062 44.921 14.6486 45.5874 15.0674 46.0154L15.1707 46.1094L32.838 28.8671V28.4599L15.1707 11.2176L15.0674 11.3185Z" fill="url(#paint0_linear_6676_11634)"/>
<path d="M38.7185 34.6172L32.8359 28.8669V28.4597L38.7256 22.7094L38.8575 22.7842L45.8324 26.6589C47.823 27.7585 47.823 29.568 45.8324 30.6746L38.8575 34.5424L38.7185 34.6172Z" fill="url(#paint1_linear_6676_11634)"/>
<path d="M38.8546 34.538L32.8331 28.6589L15.0625 46.0109C15.7236 46.6894 16.8018 46.7712 18.0278 46.0926L38.8546 34.538Z" fill="url(#paint2_linear_6676_11634)"/>
<path d="M38.4484 22.8631L17.6216 11.3085C16.3955 10.6369 15.3174 10.7187 14.6562 11.3972L32.4269 28.7422L38.4484 22.8631Z" fill="url(#paint3_linear_6676_11634)"/>
<defs>
<linearGradient id="paint0_linear_6676_11634" x1="31.2694" y1="44.3786" x2="7.91642" y2="20.4598" gradientUnits="userSpaceOnUse">
<stop stop-color="#00A0FF"/>
<stop offset="0.0066" stop-color="#00A1FF"/>
<stop offset="0.2601" stop-color="#00BEFF"/>
<stop offset="0.5122" stop-color="#00D2FF"/>
<stop offset="0.7604" stop-color="#00DFFF"/>
<stop offset="1" stop-color="#00E3FF"/>
</linearGradient>
<linearGradient id="paint1_linear_6676_11634" x1="48.4245" y1="28.6613" x2="13.9284" y2="28.6613" gradientUnits="userSpaceOnUse">
<stop stop-color="#FFE000"/>
<stop offset="0.4087" stop-color="#FFBD00"/>
<stop offset="0.7754" stop-color="#FFA500"/>
<stop offset="1" stop-color="#FF9C00"/>
</linearGradient>
<linearGradient id="paint2_linear_6676_11634" x1="35.5803" y1="25.463" x2="3.91183" y2="-6.97288" gradientUnits="userSpaceOnUse">
<stop stop-color="#FF3A44"/>
<stop offset="1" stop-color="#C31162"/>
</linearGradient>
<linearGradient id="paint3_linear_6676_11634" x1="10.183" y1="56.3352" x2="24.3244" y2="41.8513" gradientUnits="userSpaceOnUse">
<stop stop-color="#32A071"/>
<stop offset="0.0685" stop-color="#2DA771"/>
<stop offset="0.4762" stop-color="#15CF74"/>
<stop offset="0.8009" stop-color="#06E775"/>
<stop offset="1" stop-color="#00F076"/>
</linearGradient>
</defs>
</svg>
