<svg width="234" height="223" viewBox="0 0 234 223" fill="none" xmlns="http://www.w3.org/2000/svg">
<path d="M131.944 221.417C122.885 217.129 119.275 206.935 117.998 197.44C117.783 195.864 117.331 194.224 117.846 192.711C118.361 191.198 119.948 189.963 121.472 190.389C122.738 190.741 123.479 192.012 124.325 193.016C125.45 194.37 126.937 195.376 128.613 195.916C129.706 196.269 131.004 196.379 131.902 195.664C133.132 194.682 132.953 192.779 132.701 191.214C132.186 188.309 131.681 185.405 131.188 182.501C130.831 180.952 130.727 179.355 130.877 177.772C131.109 176.196 131.955 174.619 133.373 173.968C134.792 173.316 136.784 173.847 137.356 175.329C137.525 175.966 137.652 176.614 137.735 177.268C137.887 177.914 138.313 178.581 138.959 178.66C139.605 178.739 140.168 178.187 140.562 177.646C141.907 175.791 142.664 173.568 143.347 171.367C144.03 169.165 144.671 166.921 145.848 164.946C147.025 162.97 148.822 161.267 151.045 160.742C153.268 160.216 155.895 161.215 156.825 163.322C157.755 165.429 156.856 167.893 155.774 169.922C154.13 172.925 152.061 175.675 149.631 178.087C149.147 178.474 148.797 179.003 148.633 179.601C148.47 180.704 149.637 181.577 150.735 181.745C151.964 181.934 153.215 181.598 154.46 181.535C155.706 181.471 157.119 181.787 157.781 182.864C158.69 184.356 157.634 186.264 156.504 187.593C154.235 190.242 151.528 192.481 148.502 194.214C147.419 194.829 146.268 195.407 145.475 196.374C144.681 197.34 144.361 198.843 145.107 199.852C145.853 200.861 147.361 200.971 148.528 200.541C149.694 200.11 150.666 199.274 151.744 198.649C153.761 197.472 156.567 197.146 158.265 198.775C158.794 199.345 159.184 200.029 159.404 200.775C159.623 201.521 159.667 202.308 159.531 203.073C159.252 204.598 158.667 206.051 157.813 207.345C155.091 212.023 151.179 215.896 146.473 218.569C141.77 221.144 137.22 222.4 131.949 221.423" fill="#F5F5F5"/>
<path d="M133.379 215.08C134.076 209.672 135.083 204.309 136.395 199.017L137.404 194.85C137.735 193.478 138.066 192.123 138.455 190.819C139.24 188.318 140.163 185.862 141.219 183.463C142.212 181.161 143.236 179.007 144.209 177.005C145.181 175.003 146.132 173.153 147.067 171.509C148.527 168.9 150.193 166.412 152.048 164.068C152.705 163.238 153.236 162.612 153.599 162.192C153.772 161.992 153.914 161.835 154.014 161.714C154.114 161.593 154.161 161.556 154.166 161.562C154.128 161.622 154.086 161.68 154.04 161.735L153.641 162.229C153.294 162.66 152.779 163.28 152.138 164.136C150.323 166.503 148.687 169.003 147.246 171.614C146.326 173.264 145.391 175.113 144.424 177.115C143.457 179.117 142.448 181.272 141.466 183.573C140.419 185.973 139.507 188.429 138.733 190.93C138.329 192.228 138.003 193.557 137.682 194.944L136.673 199.116C135.364 204.398 134.352 209.748 133.641 215.143" fill="#E0E0E0"/>
<path d="M138.544 190.799C138.43 190.594 138.34 190.377 138.276 190.152C138.118 189.737 137.913 189.101 137.672 188.36C137.188 186.837 136.589 184.708 135.938 182.365C135.286 180.021 134.661 177.904 134.151 176.396C133.899 175.639 133.689 175.024 133.542 174.609C133.453 174.393 133.385 174.17 133.337 173.942C133.463 174.138 133.567 174.347 133.647 174.567C133.831 174.972 134.067 175.576 134.346 176.322C134.908 177.825 135.565 179.932 136.221 182.286C136.878 184.64 137.43 186.7 137.871 188.297C138.076 189.022 138.245 189.632 138.397 190.121C138.466 190.342 138.515 190.569 138.544 190.799Z" fill="#E0E0E0"/>
<path d="M158.065 183.621C157.811 183.727 157.547 183.806 157.277 183.857C156.751 183.988 156.031 184.178 155.128 184.44C153.315 184.966 150.84 185.743 148.144 186.742C145.449 187.74 143.047 188.754 141.313 189.532C140.451 189.916 139.763 190.247 139.285 190.473C139.045 190.603 138.793 190.713 138.534 190.798C138.751 190.631 138.985 190.487 139.232 190.368C139.695 190.11 140.373 189.753 141.224 189.317C142.921 188.486 145.317 187.441 148.018 186.437C150.323 185.575 152.672 184.833 155.054 184.214C155.968 183.973 156.715 183.815 157.235 183.715C157.508 183.658 157.786 183.626 158.065 183.621Z" fill="#E0E0E0"/>
<path d="M133.563 214.676C133.495 214.607 133.435 214.531 133.384 214.45L132.916 213.782C132.512 213.194 131.949 212.337 131.272 211.265C129.905 209.122 128.119 206.1 126.19 202.737C124.262 199.374 122.512 196.342 121.183 194.177L119.606 191.608L119.186 190.909C119.13 190.832 119.086 190.747 119.055 190.657C119.055 190.657 119.123 190.725 119.233 190.877C119.344 191.03 119.517 191.277 119.701 191.55C120.105 192.133 120.668 192.99 121.351 194.067C122.712 196.211 124.504 199.227 126.432 202.59C128.361 205.953 130.11 208.985 131.435 211.155L133.011 213.719C133.179 213.998 133.321 214.245 133.431 214.418C133.488 214.497 133.532 214.584 133.563 214.676Z" fill="#E0E0E0"/>
<path d="M158.88 201.513C158.806 201.577 158.722 201.631 158.633 201.67L157.902 202.059L155.191 203.473C152.9 204.671 149.757 206.357 146.289 208.202C142.821 210.046 139.663 211.733 137.356 212.878C136.2 213.451 135.255 213.929 134.603 214.208L133.815 214.555C133.728 214.601 133.637 214.636 133.542 214.66C133.617 214.597 133.7 214.544 133.789 214.502L134.524 214.113L137.236 212.695C139.521 211.502 142.664 209.815 146.132 207.965C149.6 206.116 152.763 204.44 155.065 203.294C156.221 202.721 157.167 202.243 157.818 201.965L158.575 201.618C158.67 201.567 158.773 201.532 158.88 201.513Z" fill="#E0E0E0"/>
<path d="M66.2401 108.626C66.2401 108.626 59.9976 109.493 63.5024 123.166C67.0073 136.838 69.9814 143.89 69.9814 143.89C69.9814 143.89 70.4491 146.985 67.9531 146.891C65.4571 146.796 60.3654 144.789 58.6366 147.463C56.85 150.259 58.4159 153.622 62.3149 157.148C66.2138 160.674 74.5267 168.708 75.2728 169.438C76.019 170.169 76.5655 171.672 74.8525 171.876C73.1394 172.081 60.9907 170.657 60.6649 176.464C60.3391 182.27 72.8609 190.299 74.2114 191.203C75.5618 192.107 75.7878 192.811 75.4725 193.599C75.1572 194.387 71.1322 193.52 67.6588 193.252C64.1855 192.984 60.1079 193.294 60.1972 196.657C60.2866 200.02 66.8654 208.533 86.0449 214.859L95.1301 217.208L101.84 210.598C115.345 195.575 116.821 184.924 115.229 181.96C113.637 178.996 109.975 180.757 107.063 182.712C104.152 184.666 101.105 187.441 100.453 186.915C99.8015 186.39 99.6334 185.665 100.359 184.209C101.084 182.754 107.962 169.564 104.788 164.688C101.614 159.812 91.7777 167.074 90.2013 167.741C88.6249 168.408 88.3411 166.821 88.6249 165.834C88.9086 164.846 92.114 153.748 93.7639 148.73C95.4139 143.712 95.0986 140.023 92.156 138.488C89.3185 137.012 85.9082 141.3 83.7854 142.624C81.6625 143.948 80.538 141.047 80.538 141.047C80.538 141.047 79.6132 133.454 75.8614 119.845C72.1095 106.235 66.1245 108.674 66.1245 108.674" fill="#EBEBEB"/>
<path d="M95.1248 219.468C92.4082 209.484 87.8734 191.618 83.9062 176.28C79.9389 160.942 76.3342 147.111 73.6649 137.096C72.3302 132.094 71.2477 128.047 70.5121 125.236C70.1443 123.844 69.8553 122.756 69.6556 122.01L69.4349 121.169C69.3876 120.98 69.3718 120.88 69.3718 120.88C69.3718 120.88 69.4086 120.969 69.4664 121.159C69.5242 121.348 69.603 121.637 69.7081 121.994C69.9236 122.74 70.2336 123.817 70.6224 125.205C71.4106 127.995 72.5246 132.036 73.8803 137.038C76.597 147.022 80.2384 160.9 84.2057 176.206C88.173 191.513 92.6709 209.395 95.3403 219.41" fill="#E0E0E0"/>
<path d="M65.6464 150.585C65.8563 150.671 66.0569 150.779 66.2454 150.905C66.6185 151.126 67.1544 151.462 67.8218 151.883C69.1302 152.729 70.9115 153.942 72.8505 155.314L77.8004 158.845L79.3084 159.896C79.4986 160.014 79.6749 160.153 79.8339 160.311C79.6219 160.225 79.4194 160.118 79.2296 159.991C78.8565 159.77 78.3206 159.434 77.6532 159.008C76.3553 158.151 74.5898 156.906 72.6508 155.54L67.6747 152.046L66.1613 150.995C65.9755 150.877 65.8029 150.739 65.6464 150.585Z" fill="#E0E0E0"/>
<path d="M80.5958 159.875C80.5275 159.833 82.8658 156.055 85.8136 151.436C88.7615 146.817 91.2154 143.107 91.2837 143.15C91.352 143.192 89.0137 146.975 86.0606 151.594C83.1075 156.213 80.6641 159.907 80.5958 159.875Z" fill="#E0E0E0"/>
<path d="M85.6297 183.668C85.7752 183.487 85.9429 183.324 86.1289 183.185L87.5424 181.944C88.7352 180.894 90.3799 179.443 92.135 177.772C93.89 176.101 95.4349 174.541 96.5384 173.4C97.0638 172.875 97.4947 172.407 97.8468 172.05C98.0059 171.874 98.1819 171.714 98.3722 171.572C98.2559 171.773 98.1147 171.958 97.9519 172.124C97.6681 172.465 97.2425 172.948 96.7065 173.537C95.6556 174.719 94.1212 176.311 92.3557 177.982C90.5901 179.653 88.9296 181.093 87.7001 182.102C87.08 182.628 86.5756 183.006 86.2182 183.274C86.0372 183.427 85.8398 183.559 85.6297 183.668Z" fill="#E0E0E0"/>
<path d="M70.2599 178.24C70.472 178.265 70.6802 178.316 70.8799 178.392L72.5457 178.918C73.9434 179.364 75.8719 180 77.9947 180.715C80.1176 181.429 82.0355 182.102 83.4175 182.601L85.0517 183.2C85.2552 183.264 85.4508 183.35 85.635 183.458C85.4227 183.436 85.2142 183.387 85.0149 183.31L83.3492 182.785C81.9515 182.338 80.023 181.703 77.9001 180.983C75.7773 180.263 73.8593 179.595 72.4773 179.101L70.8432 178.497C70.6381 178.438 70.4419 178.351 70.2599 178.24Z" fill="#E0E0E0"/>
<path d="M72.0359 199.81C72.3063 199.851 72.5721 199.918 72.8294 200.01L74.9628 200.662C76.7599 201.224 79.2348 202.017 81.9672 202.916C84.6997 203.814 87.1641 204.634 88.9454 205.249L91.0473 205.985C91.3088 206.068 91.5635 206.172 91.8092 206.295C91.537 206.255 91.2695 206.188 91.0105 206.095L88.8771 205.443C87.08 204.881 84.6051 204.088 81.8727 203.189C79.1402 202.29 76.6758 201.466 74.8997 200.856L72.7979 200.115C72.5352 200.037 72.2802 199.935 72.0359 199.81Z" fill="#E0E0E0"/>
<path d="M91.3783 206.005C91.5633 205.778 91.7691 205.569 91.9931 205.38L93.7324 203.746C95.1985 202.364 97.2162 200.446 99.3864 198.265C101.557 196.085 103.475 194.061 104.851 192.59L106.48 190.846C106.672 190.623 106.881 190.415 107.105 190.226C106.952 190.473 106.776 190.705 106.58 190.919C106.223 191.355 105.687 191.97 105.004 192.727C103.664 194.24 101.772 196.289 99.5913 198.47C97.4107 200.651 95.3876 202.553 93.8743 203.898C93.1176 204.566 92.5028 205.107 92.0667 205.475C91.8524 205.67 91.6221 205.848 91.3783 206.005Z" fill="#E0E0E0"/>
<path d="M39.1261 27.09L33.9976 25.5136C33.9976 25.5136 32.6524 29.8224 28.1544 28.5035C27.2836 28.2637 26.5089 27.7592 25.9375 27.0597C25.366 26.3602 25.0261 25.5004 24.9648 24.5993C24.8975 23.8394 25.0126 23.0744 25.3005 22.3679C25.5884 21.6614 26.0408 21.0339 26.6201 20.5375C27.939 19.3709 30.251 18.6615 33.5142 20.3483L37.1241 8.78806L32.0534 7.21167L29.9515 13.9849C29.9515 13.9849 22.2587 13.6013 19.8153 21.436C17.477 28.9344 23.6564 32.7755 26.536 33.6741C28.7219 34.3572 36.399 36.1648 39.1261 27.09Z" fill="#F5F5F5"/>
<path d="M32.7402 4.8057L37.8868 6.41162L39.3863 1.60619L34.2397 0.000263893L32.7402 4.8057Z" fill="#F5F5F5"/>
<path d="M53.2769 14.0373L55.3315 13.5118C55.2687 13.2785 55.2536 13.0349 55.2869 12.7956C55.3201 12.5563 55.4012 12.3261 55.5252 12.1188C55.6492 11.9114 55.8137 11.7311 56.0088 11.5886C56.2039 11.4461 56.4256 11.3442 56.6609 11.2891C57.0032 11.1858 57.3692 11.1914 57.7081 11.3054C58.047 11.4193 58.3422 11.6358 58.5526 11.9249C58.7312 12.165 58.8505 12.4439 58.9007 12.7389C58.9509 13.0338 58.9307 13.3365 58.8416 13.6222C58.6471 14.2895 58.0218 15.0146 56.5716 15.1355L57.7959 19.7648L59.8242 19.2394L59.1096 16.528C59.8787 16.0641 60.474 15.36 60.8035 14.5244C61.133 13.6888 61.1784 12.7679 60.9329 11.9039C60.1447 8.89824 57.2547 8.914 56.1144 9.21351C55.2316 9.41845 52.2838 10.4221 53.2769 14.0373Z" fill="#EBEBEB"/>
<path d="M60.5398 19.9148L58.4705 20.4695L58.9883 22.4012L61.0576 21.8466L60.5398 19.9148Z" fill="#EBEBEB"/>
<path d="M222.902 67.2198L224.899 67.9397C224.983 67.7136 225.111 67.5065 225.276 67.3307C225.441 67.1549 225.639 67.0139 225.86 66.9159C226.08 66.818 226.318 66.7651 226.559 66.7605C226.8 66.7558 227.04 66.7994 227.264 66.8887C227.6 66.9969 227.895 67.2065 228.107 67.4887C228.32 67.7709 228.44 68.112 228.451 68.4651C228.463 68.7665 228.404 69.0665 228.278 69.3406C228.152 69.6146 227.963 69.8548 227.726 70.0415C227.2 70.4777 226.26 70.7141 224.999 69.989L223.365 74.4922L225.34 75.2068L226.297 72.5795C227.193 72.6351 228.084 72.3948 228.831 71.8955C229.578 71.3962 230.14 70.6655 230.432 69.8156C231.483 66.894 229.113 65.2703 227.994 64.8657C227.137 64.5294 224.142 63.6834 222.902 67.2198Z" fill="#EBEBEB"/>
<path d="M225.045 76.1198L223.039 75.3933L222.361 77.2658L224.367 77.9923L225.045 76.1198Z" fill="#EBEBEB"/>
<path d="M10.9928 90.0879L15.1965 88.459C15.1965 88.459 13.8303 84.9121 17.4928 83.425C18.1937 83.1284 18.9694 83.0566 19.7129 83.2194C20.4564 83.3823 21.1311 83.7717 21.6439 84.3341C22.0803 84.8017 22.4 85.3657 22.5771 85.9802C22.7543 86.5947 22.7838 87.2424 22.6633 87.8705C22.4006 89.3313 21.2446 91.0233 18.2021 91.6065L21.8804 101.133L26.0841 99.5253L23.9297 93.9448C23.9297 93.9448 29.1844 90.172 26.7199 83.7088C24.3291 77.5293 18.2127 78.2334 15.8638 79.1425C14.051 79.8414 8.03966 82.6631 10.9928 90.0879Z" fill="#F5F5F5"/>
<path d="M26.8805 101.465L22.6391 103.099L24.1655 107.061L28.4069 105.426L26.8805 101.465Z" fill="#F5F5F5"/>
<path d="M224.547 106.12L221.552 107.27C221.552 107.27 222.519 109.787 219.923 110.838C219.426 111.046 218.877 111.096 218.35 110.981C217.824 110.867 217.346 110.593 216.98 110.197C216.671 109.866 216.445 109.466 216.32 109.03C216.194 108.595 216.174 108.136 216.26 107.691C216.449 106.64 217.269 105.463 219.413 105.064L216.838 98.2903L213.875 99.4305L215.399 103.387C214.32 104.212 213.542 105.369 213.185 106.679C212.828 107.989 212.912 109.381 213.423 110.639C215.109 115.016 219.429 114.522 221.11 113.876C222.382 113.376 226.638 111.38 224.547 106.12Z" fill="#F5F5F5"/>
<path d="M213.288 98.0582L216.294 96.9001L215.214 94.0954L212.208 95.2535L213.288 98.0582Z" fill="#F5F5F5"/>
<path d="M233.007 222.316C233.007 222.395 181.065 222.452 117.005 222.452C52.9459 222.452 0.993164 222.395 0.993164 222.316C0.993164 222.237 52.9248 222.179 117.005 222.179C181.086 222.179 233.007 222.242 233.007 222.316Z" fill="#263238"/>
<path d="M34.3128 208.669C34.8383 206.736 33.5404 204.797 32.1216 203.415C30.7029 202.033 29.0056 200.761 28.2647 198.906C27.0667 195.901 28.6746 192.012 26.6358 189.506C25.4325 188.034 23.2781 187.541 22.2114 185.964C21.7182 185.095 21.392 184.142 21.2498 183.153C20.116 178.161 17.6603 173.565 14.1402 169.848C13.9029 174.295 14.8667 178.724 16.9305 182.669C17.7554 184.246 18.7748 185.78 19.0323 187.541C19.479 190.394 17.8815 193.321 18.5857 196.137C19.3896 199.342 22.9891 201.492 23.1572 204.792C23.3043 207.582 20.8714 210.046 21.0554 212.821C21.2027 214.009 21.6334 215.144 22.3112 216.131C24.4656 219.72 27.6394 222.19 32.4422 222.111L38.3274 222.316L34.3128 208.669Z" fill="#13ADE1"/>
<g opacity="0.3">
<path d="M34.3128 208.669C34.8383 206.736 33.5404 204.797 32.1216 203.415C30.7029 202.033 29.0056 200.761 28.2647 198.906C27.0667 195.901 28.6746 192.012 26.6358 189.506C25.4325 188.034 23.2781 187.541 22.2114 185.964C21.7182 185.095 21.392 184.142 21.2498 183.153C20.116 178.161 17.6603 173.565 14.1402 169.848C13.9029 174.295 14.8667 178.724 16.9305 182.669C17.7554 184.246 18.7748 185.78 19.0323 187.541C19.479 190.394 17.8815 193.321 18.5857 196.137C19.3896 199.342 22.9891 201.492 23.1572 204.792C23.3043 207.582 20.8714 210.046 21.0554 212.821C21.2027 214.009 21.6334 215.144 22.3112 216.131C24.4656 219.72 27.6394 222.19 32.4422 222.111L38.3274 222.316L34.3128 208.669Z" fill="black"/>
</g>
<path d="M39.515 222.437C40.054 222.52 40.6033 222.509 41.1387 222.405C41.7887 222.306 42.4275 222.144 43.0461 221.922C43.9004 221.625 44.6995 221.188 45.4107 220.629C45.8386 220.285 46.173 219.839 46.3828 219.331C46.5586 218.763 46.6506 218.171 46.6561 217.576C46.6679 216.94 46.7153 216.305 46.7979 215.674C46.9087 215.002 47.1516 214.359 47.5126 213.782C48.2062 212.563 49.3622 211.407 49.73 209.752C50.0979 208.097 49.8456 206.363 49.5724 204.597C49.2992 202.832 49.0469 200.919 49.709 199.069C50.3711 197.22 51.6322 195.564 52.2785 193.494C52.9249 191.424 52.6201 189.143 52.7567 186.921C52.7971 185.791 53.0577 184.681 53.5239 183.652C53.9968 182.601 54.6589 181.629 55.1739 180.536C56.2248 178.319 56.4034 175.807 56.6872 173.343C56.8291 172.102 56.9657 170.847 57.1076 169.585C57.197 168.31 57.4171 167.048 57.7644 165.818C58.1631 164.578 58.6333 163.362 59.1726 162.176C59.4504 161.563 59.6788 160.929 59.8557 160.279C59.9547 159.607 60.0179 158.93 60.0449 158.251C60.1076 156.892 60.0548 155.529 59.8873 154.179C59.7296 152.823 59.4827 151.478 59.3355 150.117C59.3355 150.033 59.3355 149.954 59.3355 149.881L59.304 149.613L59.0675 149.728C57.8251 150.366 56.7463 151.281 55.9148 152.403C55.0992 153.501 54.4429 154.71 53.9653 155.992C52.9827 158.519 52.6306 161.168 52.1367 163.695C51.6427 166.222 51.0122 168.708 49.7195 170.81C49.0732 171.861 48.2903 172.817 47.6177 173.836C46.8873 174.831 46.3883 175.977 46.1569 177.189C45.8048 179.68 47.1763 181.866 46.8925 184.073C46.7645 185.154 46.4061 186.195 45.8416 187.125C45.3161 188.066 44.6803 188.938 44.0813 189.811C43.4741 190.666 42.9465 191.576 42.5049 192.527C42.0893 193.459 41.8437 194.457 41.7798 195.475C41.6379 197.461 41.9164 199.343 41.7798 201.119C41.6157 202.811 41.1212 204.456 40.3242 205.958C39.6148 207.403 38.8214 208.712 38.1593 209.983C37.8283 210.614 37.5182 211.234 37.266 211.859C37.0273 212.459 36.8513 213.083 36.7406 213.719C36.5647 214.831 36.5505 215.962 36.6985 217.077C36.8529 218.632 37.4349 220.115 38.38 221.359C38.5245 221.548 38.6844 221.723 38.8582 221.885C38.9742 222.007 39.1028 222.116 39.2418 222.211C39.4625 222.374 39.5781 222.447 39.5781 222.447C39.158 222.115 38.7756 221.738 38.4378 221.323C37.5356 220.073 36.9907 218.602 36.8614 217.066C36.7276 215.965 36.7524 214.85 36.935 213.756C37.0456 213.135 37.2218 212.527 37.4604 211.943C37.7267 211.311 38.0266 210.694 38.359 210.094C39.0263 208.832 39.825 207.529 40.5502 206.074C41.3709 204.548 41.8817 202.874 42.053 201.15C42.2106 199.337 41.9374 197.446 42.0845 195.512C42.1522 194.527 42.3923 193.561 42.7939 192.659C43.2382 191.727 43.7658 190.837 44.3703 190C44.9693 189.127 45.6051 188.255 46.1516 187.294C46.7514 186.327 47.135 185.243 47.2761 184.115C47.5599 181.766 46.1989 179.569 46.551 177.252C46.7813 176.093 47.2639 174.998 47.9645 174.047C48.6318 173.043 49.42 172.087 50.0663 171.009C51.4063 168.85 52.0526 166.317 52.5413 163.779C53.03 161.241 53.3925 158.614 54.3594 156.134C54.8244 154.887 55.463 153.712 56.2563 152.644C57.0562 151.568 58.0938 150.69 59.2882 150.08L59.0203 149.928C59.0203 150.007 59.0203 150.085 59.0465 150.17C59.1937 151.546 59.4406 152.891 59.572 154.237C59.7379 155.566 59.7889 156.908 59.7244 158.246C59.6978 158.904 59.6382 159.559 59.5457 160.211C59.3759 160.84 59.1544 161.453 58.8836 162.045C58.3414 163.243 57.8677 164.471 57.4649 165.723C57.1147 166.973 56.8928 168.254 56.8028 169.549C56.6662 170.815 56.5243 172.071 56.3877 173.311C56.1039 175.786 55.92 178.256 54.9164 180.394C54.3909 181.445 53.7604 182.449 53.2717 183.521C52.7907 184.588 52.523 185.74 52.4835 186.91C52.3521 189.18 52.6464 191.403 52.0316 193.41C51.4168 195.417 50.1399 197.088 49.4936 198.985C48.8473 200.882 49.0837 202.889 49.3675 204.65C49.6512 206.41 49.935 208.144 49.5566 209.705C49.1783 211.265 48.0958 212.432 47.3917 213.682C47.0205 214.285 46.7722 214.954 46.6613 215.653C46.5819 216.291 46.5398 216.933 46.5352 217.576C46.5361 218.156 46.4511 218.734 46.283 219.289C46.0883 219.771 45.7757 220.195 45.3739 220.524C44.6818 221.082 43.9024 221.522 43.0671 221.827C42.4567 222.062 41.8249 222.238 41.1807 222.353C40.787 222.424 40.388 222.463 39.9879 222.468C39.6569 222.437 39.515 222.437 39.515 222.437Z" fill="#263238"/>
<path d="M58.1059 153.128C58.0778 153.184 58.0583 153.244 58.0481 153.307L57.922 153.832C57.8064 154.3 57.6645 154.999 57.4438 155.871C57.2231 156.743 56.6819 157.731 56.2247 158.945C55.6893 160.311 55.2228 161.704 54.827 163.117C54.3751 164.693 53.981 166.427 53.5606 168.298C53.2034 170.291 52.5702 172.224 51.6795 174.041C51.196 174.998 50.6285 175.965 50.2239 177.026C49.7996 178.11 49.5153 179.244 49.3779 180.4C49.079 182.794 48.6546 185.17 48.1063 187.52C46.9293 192.338 45.8048 196.931 44.7801 201.113C43.7555 205.296 42.7886 209.037 41.9899 212.201C41.1912 215.364 40.5869 217.886 40.1455 219.689C39.9406 220.55 39.7777 221.228 39.6621 221.727C39.6148 221.943 39.5728 222.116 39.5412 222.253C39.5354 222.314 39.5354 222.376 39.5412 222.437C39.5718 222.382 39.5947 222.324 39.6095 222.263C39.6463 222.121 39.6989 221.953 39.7619 221.738C39.8933 221.249 40.0772 220.571 40.3137 219.715C40.7866 217.928 41.4539 215.39 42.2789 212.264C43.1039 209.137 44.0655 205.354 45.1427 201.197C46.2199 197.041 47.3128 192.417 48.5004 187.593C49.0452 185.237 49.4592 182.854 49.7405 180.452C49.8748 179.324 50.1502 178.217 50.5602 177.157C50.9753 176.106 51.5061 175.166 51.9895 174.199C53.0404 172.281 53.4555 170.221 53.8706 168.366C54.2858 166.512 54.6536 164.756 55.0845 163.191C55.5154 161.625 55.9673 160.227 56.4192 159.018C56.8711 157.81 57.3702 156.811 57.5857 155.908C57.8011 155.004 57.901 154.331 57.9955 153.848C58.0306 153.631 58.0621 153.455 58.0901 153.322C58.1059 153.191 58.1164 153.128 58.1059 153.128Z" fill="#263238"/>
<path d="M40.5554 222.463C44.3965 220.177 45.5 213.241 43.8973 209.069C42.2947 204.897 39.4887 201.082 39.0578 196.631C38.7215 193.21 39.846 189.7 39.0578 186.358C37.9806 181.845 33.5772 178.35 33.6297 173.71C33.656 171.109 35.1378 168.661 35.017 166.06C34.8751 162.875 32.4264 160.343 30.9131 157.537C28.5905 153.233 28.4382 148.152 27.6447 143.349C26.8512 138.546 25.0174 133.365 20.7401 130.995C20.1095 135.089 19.0323 137.895 19.3686 143.438C19.4947 145.43 21.8068 149.218 22.1221 153.606C22.3112 156.233 22.4373 158.829 22.6002 161.436C22.7631 164.042 22.9208 166.564 23.8298 168.939C24.5287 170.763 25.6479 172.418 26.1681 174.299C27.1403 177.835 25.8581 181.655 26.6463 185.25C27.3137 188.287 29.4155 190.898 29.8464 193.978C30.4454 198.302 27.65 202.8 29.0792 206.925C29.7939 208.974 31.4753 210.603 31.9535 212.731C32.3266 214.371 31.922 216.11 32.2583 217.755C32.7837 220.414 37.8597 222.484 40.5659 222.311" fill="#13ADE1"/>
<path d="M21.791 135.036C21.7839 135.113 21.7839 135.191 21.791 135.268C21.791 135.441 21.8436 135.662 21.8751 135.94C21.9644 136.534 22.0643 137.401 22.2639 138.525C22.4636 139.65 23.0626 140.922 23.5251 142.456C23.9875 143.99 24.5024 145.745 24.9333 147.711C25.3642 149.676 25.7425 151.867 26.1261 154.216C26.5097 156.565 26.9301 159.124 28.0966 161.572C28.6221 162.797 29.2421 164.026 29.673 165.34C30.1145 166.685 30.3863 168.079 30.4822 169.491C30.697 172.487 31.0742 175.469 31.612 178.424C32.789 184.488 33.9082 190.263 34.9276 195.523C35.947 200.783 36.9717 205.475 37.7914 209.447C38.6111 213.42 39.2837 216.594 39.7514 218.832L40.2769 221.381C40.3399 221.654 40.3872 221.869 40.4293 222.038C40.4435 222.115 40.4646 222.19 40.4923 222.264C40.5016 222.187 40.5016 222.109 40.4923 222.032C40.4608 221.859 40.424 221.643 40.3767 221.365C40.2611 220.755 40.0982 219.894 39.8933 218.801C39.4519 216.557 38.8424 213.352 38.0489 209.395C37.2554 205.438 36.3149 200.693 35.2692 195.454C34.2235 190.215 33.1673 184.42 31.985 178.361C31.4469 175.406 31.068 172.424 30.85 169.428C30.75 167.987 30.4693 166.564 30.0145 165.193C29.5469 163.858 28.9321 162.623 28.3909 161.404C27.2348 158.992 26.8145 156.475 26.4151 154.137C26.0158 151.799 25.6322 149.602 25.175 147.627C24.7179 145.651 24.2187 143.885 23.7037 142.372C23.1888 140.859 22.616 139.576 22.3848 138.478C22.1536 137.38 22.0432 136.497 21.9329 135.914C21.8804 135.641 21.8383 135.42 21.8068 135.247C21.8057 135.176 21.8004 135.106 21.791 135.036Z" fill="#263238"/>
<path d="M207.101 25.2664H205C205.001 25.5048 204.955 25.7411 204.863 25.9612C204.772 26.1814 204.637 26.3809 204.467 26.548C204.297 26.7151 204.095 26.8463 203.873 26.934C203.652 27.0216 203.415 27.0639 203.176 27.0583C202.824 27.0709 202.477 26.9734 202.183 26.7794C201.889 26.5853 201.663 26.3044 201.537 25.9758C201.426 25.7022 201.382 25.4062 201.407 25.1122C201.433 24.8181 201.528 24.5342 201.684 24.2838C202.041 23.6953 202.819 23.1646 204.227 23.4116V18.6824H202.162V21.4463C201.315 21.6958 200.572 22.2164 200.049 22.9283C199.526 23.6402 199.251 24.5041 199.267 25.3873C199.267 28.4455 202.01 29.1549 203.187 29.1549C204.085 29.1759 207.143 28.9605 207.101 25.2664Z" fill="#13ADE1"/>
<path d="M202.146 17.7263H204.243V15.7663H202.146V17.7263Z" fill="#13ADE1"/>
<path d="M218.562 22.4711C218.569 22.3819 218.569 22.2923 218.562 22.2031C218.562 22.014 218.562 21.7565 218.562 21.4254C218.562 21.2573 218.562 21.0629 218.536 20.8527C218.509 20.6425 218.478 20.4113 218.441 20.1696C218.404 19.9279 218.367 19.6441 218.325 19.3656L218.105 18.4723C217.714 16.934 217.075 15.4697 216.213 14.1372C214.961 12.164 213.273 10.5042 211.279 9.28537C209.285 8.06654 207.038 7.32116 204.711 7.10653C204.012 7.04481 203.31 7.03077 202.609 7.0645C202.257 7.0645 201.894 7.06449 201.558 7.1328L200.475 7.2957C198.99 7.57174 197.553 8.06204 196.209 8.75124C194.805 9.49386 193.515 10.4335 192.378 11.5415C191.214 12.7216 190.24 14.076 189.493 15.556C188.689 17.0818 188.163 18.7382 187.938 20.4481C187.872 20.8813 187.835 21.3184 187.827 21.7565C187.792 22.1952 187.784 22.6356 187.801 23.0754C187.915 25.8942 188.797 28.6285 190.35 30.9837V30.8208C189.619 32.6441 188.899 34.436 188.195 36.1805L188.069 36.501L188.4 36.4064L194.128 34.8301L193.991 34.7985C195.92 36.2589 198.167 37.242 200.549 37.6676C201.654 37.8735 202.78 37.9423 203.901 37.8725C204.442 37.8644 204.982 37.8135 205.515 37.7201L206.297 37.5992C206.555 37.552 206.823 37.4731 207.054 37.4153C210.584 36.5209 213.68 34.3993 215.787 31.4303C216.574 30.3365 217.205 29.1394 217.663 27.8729C217.763 27.5944 217.858 27.3474 217.947 27.0742C218.036 26.801 218.084 26.5487 218.141 26.3123C218.199 26.0758 218.262 25.8341 218.315 25.6134C218.367 25.3927 218.383 25.1773 218.415 24.9723C218.462 24.5677 218.536 24.2104 218.551 23.9214C218.567 23.6324 218.551 23.3539 218.551 23.1332C218.551 22.9125 218.551 22.7759 218.551 22.655C218.551 22.5342 218.551 22.4921 218.551 22.4921C218.543 22.5461 218.543 22.601 218.551 22.655C218.551 22.7759 218.551 22.9335 218.515 23.1332C218.478 23.3329 218.483 23.6114 218.462 23.9161C218.441 24.2209 218.362 24.5782 218.299 24.9671C217.798 27.8753 216.463 30.5755 214.457 32.7395C212.45 34.9036 209.858 36.4385 206.996 37.1579C206.749 37.2157 206.502 37.2892 206.25 37.3365L205.478 37.4521C204.957 37.5391 204.43 37.5865 203.901 37.594C202.8 37.652 201.696 37.5797 200.612 37.3786C198.286 36.9505 196.092 35.9842 194.207 34.5568L194.143 34.5043H194.065L188.332 36.0807L188.532 36.3066L190.691 30.9521L190.723 30.868L190.675 30.7892C189.641 29.2237 188.907 27.4792 188.511 25.6449C188.329 24.7939 188.22 23.9291 188.185 23.0596C188.167 22.6304 188.176 22.2004 188.211 21.7723C188.214 21.3446 188.249 20.9178 188.316 20.4954C188.518 18.8256 189.014 17.2048 189.782 15.7084C190.512 14.262 191.461 12.9364 192.593 11.7779C193.706 10.6902 194.97 9.76817 196.345 9.04024C197.659 8.35663 199.067 7.86976 200.523 7.59521L201.574 7.43232C201.926 7.37978 202.278 7.38503 202.625 7.35875C203.309 7.32617 203.996 7.33846 204.679 7.39554C206.968 7.59591 209.181 8.31523 211.151 9.49886C213.12 10.6825 214.794 12.2993 216.045 14.2266C216.912 15.5357 217.561 16.9766 217.968 18.4934L218.205 19.3761C218.252 19.6546 218.294 19.9016 218.336 20.1643C218.378 20.4271 218.409 20.6372 218.446 20.8474C218.483 21.0576 218.473 21.2468 218.488 21.4149C218.488 21.7407 218.53 21.9982 218.546 22.1874C218.536 22.2822 218.541 22.378 218.562 22.4711Z" fill="#263238"/>
<path d="M61.863 84.4392H92.2086C92.2086 84.4392 92.2086 58.9594 118.687 58.5075C132.438 58.2658 139.569 67.2775 142.469 74.1769C145.832 82.1902 144.813 91.3228 140.304 98.7581C135.16 107.244 124.073 115.773 103.622 112.168L103.427 179.78H133.437V139.697C133.437 139.697 175.521 128.82 175.521 82.4214C175.521 38.0459 139.637 28.4615 120.347 27.8414C109.617 27.4999 105.729 27.0375 92.4555 28.9239C75.5408 31.341 61.5057 50.9829 61.863 84.4392Z" fill="#13ADE1"/>
<path d="M133.799 193.873H103.343V222.316H133.799V193.873Z" fill="#13ADE1"/>
<path opacity="0.1" d="M133.799 193.873H103.343V222.316H133.799V193.873Z" fill="black"/>
<path opacity="0.1" d="M61.863 84.4392H92.2086C92.2086 84.4392 92.2086 58.9594 118.687 58.5075C132.438 58.2658 139.569 67.2775 142.469 74.1769C145.832 82.1902 144.813 91.3228 140.304 98.7581C135.16 107.244 124.073 115.773 103.622 112.168L103.427 179.78H133.437V139.697C133.437 139.697 175.521 128.82 175.521 82.4214C175.521 38.0459 139.637 28.4615 120.347 27.8414C109.617 27.4999 105.729 27.0375 92.4555 28.9239C75.5408 31.341 61.5057 50.9829 61.863 84.4392Z" fill="black"/>
<path d="M49.2886 84.4391H79.6394C79.6394 84.4391 79.6394 58.9593 106.118 58.5074C119.869 58.2657 127 67.2774 129.895 74.1768C133.263 82.1901 132.244 91.3227 127.735 98.758C122.591 107.244 111.309 114.958 90.8581 111.369V179.779H120.867V139.697C120.867 139.697 162.952 128.82 162.952 82.4213C162.952 38.0458 123.153 27.7415 106.123 27.7415C93.0966 27.7572 48.7158 30.9048 49.2886 84.4391Z" fill="#13ADE1"/>
<path opacity="0.3" d="M49.2886 84.4391H79.6394C79.6394 84.4391 79.6394 58.9593 106.118 58.5074C119.869 58.2657 127 67.2774 129.895 74.1768C133.263 82.1901 132.244 91.3227 127.735 98.758C122.591 107.244 111.309 114.958 90.8581 111.369V179.779H120.867V139.697C120.867 139.697 162.952 128.82 162.952 82.4213C162.952 38.0458 123.153 27.7415 106.123 27.7415C93.0966 27.7572 48.7158 30.9048 49.2886 84.4391Z" fill="black"/>
<path d="M121.23 193.873H90.774V222.316H121.23V193.873Z" fill="#13ADE1"/>
<path opacity="0.3" d="M121.23 193.873H90.774V222.316H121.23V193.873Z" fill="black"/>
<path d="M109.544 58.6441C109.393 58.6571 109.242 58.6571 109.092 58.6441C108.792 58.6441 108.361 58.5442 107.799 58.539C106.209 58.4609 104.616 58.5277 103.038 58.7387C100.699 59.0348 98.3972 59.5755 96.1706 60.3518C94.858 60.8106 93.5797 61.362 92.3452 62.0018C91.0108 62.6686 89.7543 63.481 88.5986 64.4242C87.4509 65.3759 86.4223 66.4627 85.5352 67.6611C84.6943 68.769 83.9272 69.931 83.2389 71.1396C82.0897 73.1981 81.1783 75.3805 80.5222 77.6449C80.0774 79.1731 79.7714 80.7383 79.6079 82.3215C79.5449 82.8785 79.5291 83.3199 79.5133 83.6142C79.5137 83.7658 79.4996 83.9171 79.4713 84.0661C79.4577 83.9157 79.4577 83.7645 79.4713 83.6142C79.4713 83.3147 79.4713 82.8733 79.5186 82.311C79.6394 80.7108 79.9193 79.1266 80.3541 77.5818C80.986 75.2913 81.8855 73.0832 83.034 71.003C83.7237 69.7811 84.4943 68.6067 85.3407 67.4877C86.2353 66.2697 87.2766 65.1667 88.441 64.2035C89.6107 63.2474 90.8831 62.4243 92.2348 61.7496C93.477 61.098 94.7642 60.5361 96.0865 60.0681C98.3333 59.2947 100.657 58.7662 103.017 58.4917C104.605 58.2966 106.209 58.2596 107.804 58.3814C108.238 58.4091 108.67 58.4617 109.097 58.539C109.248 58.5635 109.397 58.5986 109.544 58.6441Z" fill="#263238"/>
<path d="M155.27 53.2372C155.27 53.2372 155.233 53.2004 155.17 53.1216C155.107 53.0428 155.012 52.9062 154.907 52.7538L153.903 51.335C153.688 51.0302 153.457 50.6782 153.183 50.3156L152.238 49.1648L151.155 47.8354C150.761 47.373 150.299 46.9264 149.836 46.4377C149.374 45.949 148.901 45.4288 148.365 44.9296C147.829 44.4304 147.256 43.9207 146.668 43.3952C146.373 43.1325 146.084 42.8698 145.769 42.5913L144.792 41.8188C144.124 41.2934 143.462 40.7679 142.742 40.2425C139.605 37.9975 136.276 36.0317 132.795 34.3678L130.026 33.1172L127.278 32.0662C126.379 31.6931 125.465 31.4304 124.582 31.1362C123.7 30.8419 122.838 30.5424 121.955 30.3374L119.443 29.6806C118.629 29.4652 117.82 29.3338 117.047 29.1551C116.275 28.9765 115.529 28.8189 114.798 28.7295L112.696 28.4248C111.367 28.1988 110.148 28.1515 109.086 28.0464C108.561 28.0044 108.036 27.9466 107.599 27.9256L106.349 27.894L104.615 27.8362H104.163H104.01C104.061 27.8284 104.112 27.8284 104.163 27.8362H104.615H106.349H107.605C108.062 27.8362 108.561 27.8993 109.097 27.9361C110.148 28.0254 111.388 28.0622 112.717 28.2776L114.819 28.5614C115.55 28.6454 116.296 28.8346 117.074 28.9765C117.851 29.1184 118.65 29.2655 119.485 29.502L122.008 30.1535C122.88 30.3532 123.742 30.679 124.635 30.947C125.528 31.215 126.437 31.4724 127.336 31.8718L130.1 32.9227L132.885 34.1786C136.384 35.8463 139.725 37.8266 142.869 40.0953C143.594 40.6208 144.256 41.183 144.923 41.7032L145.901 42.4126C146.216 42.6754 146.505 42.9381 146.799 43.2218L148.491 44.7982C149.017 45.3237 149.489 45.8492 149.957 46.3273C150.425 46.8055 150.871 47.2732 151.265 47.7408L152.316 49.0808L153.252 50.2473C153.52 50.6151 153.746 50.9724 153.956 51.2982C154.366 51.913 154.686 52.3964 154.912 52.7433L155.159 53.1268C155.201 53.1587 155.238 53.1958 155.27 53.2372Z" fill="#263238"/>
<path d="M152.106 118.395C152.044 118.509 151.968 118.614 151.88 118.71L151.155 119.567C150.856 119.95 150.477 120.407 150.01 120.917C149.542 121.427 149.043 122.026 148.433 122.646C147.824 123.266 147.172 123.959 146.431 124.658C145.69 125.357 144.886 126.093 144.03 126.86C140.273 130.139 136.155 132.979 131.755 135.325C130.736 135.851 129.774 136.376 128.844 136.781C127.914 137.185 127.047 137.601 126.248 137.937C125.449 138.273 124.714 138.552 124.073 138.799C123.432 139.046 122.869 139.245 122.407 139.392L121.356 139.734C121.234 139.782 121.107 139.818 120.978 139.839C121.091 139.774 121.211 139.721 121.335 139.681L122.386 139.293C122.843 139.13 123.395 138.919 124.031 138.657C124.667 138.394 125.402 138.131 126.19 137.758C126.979 137.385 127.851 137.033 128.76 136.576C129.669 136.119 130.641 135.635 131.655 135.105C133.657 134.001 135.817 132.708 137.998 131.216C140.178 129.724 142.138 128.153 143.883 126.671C144.739 125.914 145.559 125.205 146.289 124.49C147.02 123.776 147.703 123.129 148.307 122.509C148.911 121.889 149.442 121.316 149.915 120.812C150.388 120.307 150.777 119.866 151.092 119.498L151.828 118.663C151.913 118.566 152.006 118.476 152.106 118.395Z" fill="#263238"/>
<path d="M120.337 177.394C120.258 177.394 120.195 168.955 120.195 158.546C120.195 148.136 120.258 139.692 120.337 139.692C120.416 139.692 120.473 148.131 120.473 158.546C120.473 168.96 120.41 177.394 120.337 177.394Z" fill="#263238"/>
<path d="M121.493 220.387C121.414 220.387 121.356 214.465 121.356 207.161C121.356 199.857 121.414 193.93 121.493 193.93C121.572 193.93 121.629 199.852 121.629 207.161C121.629 214.471 121.566 220.387 121.493 220.387Z" fill="#263238"/>
<path d="M151.365 80.4089C150.84 81.4598 152.8 82.3216 153.93 82.6631C155.082 82.946 156.275 83.0278 157.456 82.9048C159.032 82.8208 160.645 82.6736 162.006 81.8959C163.198 81.1575 164.151 80.0899 164.749 78.822C165.339 77.558 165.805 76.24 166.141 74.8862C166.141 74.8862 153.725 75.6955 151.365 80.4089Z" fill="#13ADE1"/>
<g opacity="0.4">
<path d="M151.365 80.4089C150.84 81.4598 152.8 82.3216 153.93 82.6631C155.082 82.946 156.275 83.0278 157.456 82.9048C159.032 82.8208 160.645 82.6736 162.006 81.8959C163.198 81.1575 164.151 80.0899 164.749 78.822C165.339 77.558 165.805 76.24 166.141 74.8862C166.141 74.8862 153.725 75.6955 151.365 80.4089Z" fill="black"/>
</g>
<path d="M186.435 77.0458C188.482 78.4977 190.935 79.2664 193.445 79.2422C194.648 79.3092 195.834 78.9356 196.781 78.1913C197.186 77.8182 197.491 77.3453 197.906 76.988C198.19 76.7462 198.521 76.5623 198.789 76.3048C198.93 76.1831 199.039 76.0281 199.106 75.8539C199.173 75.6797 199.196 75.4916 199.172 75.3065C199.068 74.8501 198.813 74.4425 198.447 74.1504C197.023 73.3412 195.321 73.3728 193.681 73.4095C192.04 73.4806 190.42 73.7976 188.873 74.3501C187.601 74.781 186.272 75.4011 185.626 76.5571" fill="#13ADE1"/>
<g opacity="0.4">
<path d="M199.172 75.3067C198.986 74.8634 198.659 74.494 198.242 74.2557C196.818 73.4465 195.321 73.373 193.681 73.4097C192.04 73.4808 190.42 73.7978 188.873 74.3503C187.601 74.7812 186.272 75.4013 185.626 76.5573L186.435 77.046C188.482 78.4979 190.935 79.2666 193.445 79.2424C194.648 79.3094 195.834 78.9358 196.781 78.1915C197.186 77.8184 197.491 77.3455 197.906 76.9882C198.19 76.7464 198.521 76.5625 198.789 76.3051C198.93 76.1833 199.039 76.0283 199.106 75.8541C199.173 75.6799 199.196 75.4918 199.172 75.3067Z" fill="black"/>
</g>
<path d="M162.19 95.9048L188.384 96.2516C188.438 96.2514 188.49 96.2388 188.538 96.2147C188.585 96.1906 188.627 96.1557 188.658 96.1128C188.69 96.0699 188.711 96.0202 188.72 95.9677C188.729 95.9151 188.726 95.8612 188.71 95.8102L185.636 86.2257C185.636 86.2257 186.088 81.4335 186.713 75.6744C187.664 66.9254 188.931 55.9274 188.947 55.9589C187.155 50.9355 176.582 50.0842 176.582 50.0842L164.534 50.7989L164.113 50.0895L160.645 51.7027C159.889 52.0546 159.161 52.4657 158.47 52.9322C156.179 54.4613 150.661 57.9767 149.652 61.8914C147.325 70.9557 151.266 81.0709 151.266 81.0709L153.798 79.0899C154.436 78.5983 155.107 78.1506 155.806 77.7499L160.882 91.3542C160.579 91.5447 160.324 91.8001 160.133 92.1019C159.942 92.4037 159.821 92.7442 159.778 93.0988C159.736 94.2022 160.304 95.5264 162.19 95.9048Z" fill="#13ADE1"/>
<g opacity="0.3">
<path d="M173.43 79.8678C174.26 75.4014 173.824 70.8088 173.377 66.2898C171.927 69.968 171.979 74.1718 170.44 77.8185C170.251 78.2036 170.113 78.6116 170.03 79.0323C169.99 79.2436 170 79.4614 170.061 79.6678C170.121 79.8742 170.229 80.0634 170.377 80.2199C170.797 80.6035 171.428 80.3933 171.985 80.3302C172.483 80.2351 172.968 80.0798 173.43 79.8678Z" fill="black"/>
</g>
<g opacity="0.4">
<path d="M163.766 90.2089C165.868 90.9393 168.107 89.5783 170.329 89.3366C171.801 89.179 173.272 89.5153 174.733 89.7517C177.687 90.2296 180.692 90.3038 183.666 89.9724C184.122 89.9473 184.569 89.8312 184.979 89.6309C185.192 89.4862 185.365 89.2918 185.485 89.0647C185.605 88.8376 185.668 88.5846 185.668 88.3277C180.718 87.8022 175.773 87.5185 170.823 87.0088C169.591 86.7985 168.329 86.8396 167.114 87.1296C165.621 87.5921 164.486 88.7638 163.435 89.9251" fill="black"/>
</g>
<path d="M198.416 73.583C196.277 68.7645 188.736 55.4387 188.736 55.4387L182.899 62.7584L184.259 77.1299C184.259 77.1299 187.344 73.6881 195.967 73.6198C196.593 73.6449 197.207 73.8098 197.761 74.1026C198.316 74.3954 198.798 74.8085 199.172 75.3118L198.416 73.583Z" fill="#13ADE1"/>
<path d="M163.362 71.0345C162.945 70.0129 162.615 68.9583 162.374 67.8817C162.047 66.8331 161.808 65.7592 161.659 64.6711C162.07 65.6944 162.398 66.7487 162.642 67.8239C162.968 68.8729 163.209 69.9466 163.362 71.0345Z" fill="#263238"/>
<path d="M182.457 61.7866C182.647 61.921 182.823 62.0741 182.983 62.2438C183.447 62.6921 183.882 63.1695 184.286 63.673C185.645 65.3339 186.6 67.2873 187.076 69.3796C187.323 70.5362 187.378 71.7257 187.239 72.9002C187.108 73.9774 186.903 74.9232 186.766 75.7219C186.629 76.5206 186.545 77.1722 186.503 77.6241C186.502 77.859 186.477 78.0931 186.43 78.323C186.392 78.0885 186.382 77.8505 186.398 77.6136C186.421 76.9697 186.481 76.3276 186.577 75.6904C186.687 74.8865 186.871 73.9301 186.992 72.8739C187.113 71.7259 187.051 70.5659 186.808 69.4374C186.337 67.3841 185.425 65.4582 184.133 63.7939C183.172 62.5012 182.415 61.8287 182.457 61.7866Z" fill="#263238"/>
<path d="M177.108 94.7489C176.925 94.8302 176.733 94.8868 176.535 94.917C176.311 94.9763 176.082 95.0202 175.852 95.0484C175.584 95.0852 175.279 95.143 174.938 95.1587C174.137 95.2322 173.332 95.2322 172.531 95.1587C171.552 95.0581 170.584 94.8645 169.641 94.5807C168.703 94.2792 167.795 93.8904 166.93 93.4195C166.228 93.0279 165.562 92.576 164.938 92.069C164.665 91.8588 164.444 91.6381 164.245 91.4542C164.072 91.2991 163.909 91.1341 163.756 90.9603C163.61 90.825 163.484 90.6693 163.383 90.4979C163.42 90.4611 163.982 91.0916 165.059 91.9166C165.688 92.3954 166.354 92.8241 167.051 93.1988C167.906 93.6484 168.799 94.0228 169.72 94.318C170.647 94.5972 171.596 94.7941 172.557 94.9065C173.343 94.991 174.133 95.0156 174.922 94.9801C176.272 94.9065 177.097 94.7068 177.108 94.7489Z" fill="#263238"/>
<path d="M185.195 91.7642C185.318 92.0018 185.388 92.2637 185.4 92.5313C185.484 93.1719 185.435 93.8228 185.258 94.444C185.077 95.0794 184.711 95.6466 184.207 96.073C183.823 96.3935 183.529 96.4933 183.513 96.4671C183.498 96.4408 183.744 96.2674 184.076 95.9416C184.501 95.4984 184.809 94.9568 184.974 94.3652C185.394 92.978 185.095 91.7694 185.195 91.7642Z" fill="#263238"/>
<path d="M183.771 93.6138C183.885 94.1542 183.839 94.7162 183.64 95.2312C183.44 95.7461 183.095 96.192 182.646 96.5143C182.588 96.4565 183.077 95.9363 183.382 95.1324C183.687 94.3284 183.692 93.619 183.771 93.6138Z" fill="#263238"/>
<path d="M179.084 76.3259C178.805 76.7966 178.493 77.2463 178.148 77.6711C177.877 78.1457 177.569 78.5989 177.229 79.0268C177.33 78.4723 177.568 77.9519 177.922 77.5135C178.202 77.0255 178.602 76.6168 179.084 76.3259Z" fill="#263238"/>
<path d="M161.102 63.5991C160.702 63.364 160.314 63.1079 159.941 62.8319C158.072 61.6041 155.951 60.8122 153.735 60.5146C153.271 60.4808 152.81 60.4194 152.353 60.3307C152.819 60.2664 153.291 60.2664 153.756 60.3307C156.033 60.525 158.213 61.3371 160.062 62.6795C160.45 62.9363 160.8 63.2458 161.102 63.5991Z" fill="#263238"/>
<path d="M188.736 55.2654C187.796 56.0227 186.917 56.8538 186.109 57.7508C185.365 58.7081 184.699 59.7238 184.118 60.788C184.18 60.4301 184.302 60.0854 184.48 59.7686C184.861 58.9807 185.337 58.243 185.899 57.5722C186.462 56.9028 187.109 56.3077 187.822 55.8014C188.094 55.5714 188.403 55.39 188.736 55.2654Z" fill="#263238"/>
<path d="M177.922 50.9355C177.97 51.0113 178.009 51.0925 178.038 51.1773C178.141 51.4152 178.223 51.6613 178.285 51.9129C178.507 52.8493 178.507 53.8245 178.285 54.7609C177.958 56.1588 177.21 57.4226 176.141 58.3814C174.792 59.5239 173.074 60.1365 171.307 60.1049C169.538 60.111 167.815 59.5451 166.394 58.4917C165.262 57.6273 164.343 56.5145 163.709 55.2391C163.281 54.3851 162.98 53.4735 162.815 52.533C162.767 52.2796 162.735 52.0233 162.721 51.7658C162.706 51.6753 162.706 51.583 162.721 51.4925C162.721 51.4925 162.778 51.8604 162.926 52.5119C163.13 53.426 163.453 54.3093 163.887 55.1393C164.528 56.3763 165.439 57.4537 166.551 58.2921C167.921 59.306 169.577 59.8581 171.281 59.8684C172.984 59.8997 174.642 59.3179 175.952 58.229C176.984 57.3054 177.716 56.0938 178.054 54.7504C178.288 53.8436 178.32 52.8966 178.148 51.976C178.048 51.2824 177.891 50.9461 177.922 50.9355Z" fill="#263238"/>
<g opacity="0.3">
<path d="M179.762 77.2559C179.762 76.9932 179.719 76.6832 179.488 76.5518C179.415 76.5149 179.334 76.4956 179.252 76.4956C179.17 76.4956 179.089 76.5149 179.015 76.5518C178.868 76.6312 178.738 76.7383 178.632 76.8671C178.014 77.51 177.536 78.274 177.229 79.1108L179.804 78.8849C179.788 78.3542 179.777 77.7972 179.762 77.2559Z" fill="black"/>
</g>
<g opacity="0.3">
<path d="M188.311 71.8385C188.052 70.3651 187.406 68.987 186.44 67.845C187.554 71.4812 187.181 73.5357 186.556 76.0265L186.692 75.6797C187.412 74.2241 188.505 73.3098 188.311 71.8385Z" fill="black"/>
</g>
<path d="M183.167 193.988L181.595 217.555L171.349 217.434L169.736 192.932L183.167 193.988Z" fill="#FFBE9D"/>
<path d="M181.884 214.455V215.138C181.884 215.138 193.445 219.783 193.555 221.969L170.597 221.843L170.955 214.208C174.375 215.81 177.954 216.01 181.884 214.455Z" fill="#13ADE1"/>
<path d="M173.283 216.657C173.065 216.723 172.878 216.866 172.758 217.059C172.638 217.253 172.593 217.483 172.631 217.708C172.687 217.932 172.828 218.125 173.024 218.248C173.22 218.37 173.456 218.412 173.682 218.364C173.916 218.295 174.115 218.14 174.241 217.931C174.368 217.723 174.412 217.474 174.365 217.235C174.282 217.008 174.113 216.822 173.896 216.717C173.678 216.612 173.428 216.596 173.198 216.672" fill="white"/>
<path d="M170.597 221.843L170.681 220.009L192.667 220.808C192.667 220.808 193.686 221.26 193.565 221.974L170.597 221.843Z" fill="#263238"/>
<path d="M181.968 215.201C181.968 215.312 181.401 215.359 180.849 215.727C180.297 216.094 179.998 216.552 179.898 216.51C179.798 216.468 179.966 215.816 180.644 215.396C181.322 214.975 181.995 215.08 181.968 215.201Z" fill="#263238"/>
<path d="M184.37 216.21C184.396 216.32 183.907 216.504 183.524 216.977C183.14 217.45 183.03 217.949 182.914 217.944C182.799 217.939 182.736 217.303 183.224 216.73C183.713 216.157 184.365 216.131 184.37 216.21Z" fill="#263238"/>
<path d="M185.72 219.1C185.615 219.1 185.463 218.575 185.757 217.949C186.051 217.324 186.572 217.098 186.619 217.187C186.666 217.277 186.34 217.608 186.093 218.118C185.846 218.627 185.836 219.09 185.72 219.1Z" fill="#263238"/>
<path d="M181.296 21.6302C181.89 20.1589 181.17 18.3776 179.893 17.4265C178.547 16.5407 176.906 16.2215 175.327 16.5385C173.768 16.8652 172.259 17.3952 170.839 18.1149C170.179 17.4488 169.346 16.9794 168.434 16.7591C167.522 16.5388 166.567 16.5762 165.676 16.8673C164.784 17.1584 163.991 17.6916 163.384 18.4074C162.778 19.1232 162.383 19.9934 162.243 20.9209C161.674 20.7779 161.078 20.7923 160.517 20.9625C159.957 21.1327 159.453 21.4524 159.061 21.8872C158.668 22.322 158.401 22.8555 158.289 23.4305C158.176 24.0054 158.222 24.6002 158.422 25.1509L165.527 27.6468L173.283 41.3089C174.429 42.2868 175.892 42.8143 177.398 42.793C178.905 42.7716 180.352 42.2029 181.47 41.1929C182.588 40.1829 183.301 38.8006 183.475 37.304C183.648 35.8073 183.272 34.2985 182.415 33.0591C182.85 32.6726 183.219 32.2184 183.508 31.7139C184.128 31.3474 184.669 30.8614 185.099 30.284C185.529 29.7067 185.84 29.0496 186.015 28.3509C186.703 25.3085 184.349 21.9876 181.296 21.6302Z" fill="#263238"/>
<path d="M176.593 50.0845C176.152 47.8618 175.847 46.3379 175.852 46.3537C175.857 46.3695 180.056 44.7248 179.751 38.8763C179.604 35.9653 178.495 31.378 177.465 27.6577C176.54 24.3052 173.414 20.6112 170.109 21.6779L160.088 26.5647C159.084 26.8905 158.911 27.8363 159.147 28.861V29.3865L163.041 45.4972L164.686 52.6961C165.036 54.1743 165.928 55.4676 167.184 56.3215C168.441 57.1754 169.971 57.5279 171.475 57.3096C172.296 57.1942 173.085 56.9121 173.793 56.4808C174.501 56.0494 175.114 55.4779 175.593 54.8013C176.072 54.1247 176.408 53.3573 176.58 52.5462C176.752 51.7351 176.756 50.8974 176.593 50.0845Z" fill="#FFBE9D"/>
<path d="M177.428 31.5457C177.471 31.7322 177.44 31.9277 177.342 32.092C177.244 32.2562 177.087 32.3767 176.903 32.4285C176.81 32.4544 176.713 32.4613 176.617 32.4487C176.522 32.4361 176.43 32.4043 176.347 32.3552C176.264 32.3062 176.192 32.2408 176.135 32.1631C176.078 32.0854 176.037 31.9969 176.015 31.9031C175.973 31.7173 176.004 31.5225 176.102 31.3591C176.2 31.1957 176.357 31.0762 176.54 31.0255C176.633 30.9988 176.73 30.9911 176.825 31.003C176.921 31.0149 177.013 31.0462 177.096 31.0949C177.179 31.1435 177.252 31.2086 177.309 31.2861C177.366 31.3636 177.407 31.452 177.428 31.5457Z" fill="#263238"/>
<path d="M176.971 30.4268C176.898 30.5424 176.262 30.2534 175.484 30.4268C174.707 30.6002 174.213 31.1046 174.108 31.0258C174.002 30.947 174.108 30.7998 174.323 30.5686C174.612 30.2631 174.988 30.054 175.4 29.9696C175.807 29.8819 176.231 29.928 176.609 30.101C176.903 30.2218 177.003 30.3795 176.971 30.4268Z" fill="#263238"/>
<path d="M169.799 33.2695C169.841 33.4552 169.81 33.65 169.712 33.8135C169.614 33.9769 169.457 34.0963 169.273 34.147C169.182 34.1734 169.087 34.1816 168.994 34.171C168.9 34.1604 168.809 34.1313 168.726 34.0854C168.644 34.0394 168.571 33.9776 168.512 33.9034C168.454 33.8292 168.411 33.7441 168.385 33.6531C168.343 33.4666 168.374 33.2711 168.472 33.1068C168.57 32.9426 168.727 32.8221 168.911 32.7703C169.002 32.744 169.097 32.736 169.191 32.7469C169.286 32.7579 169.377 32.7874 169.459 32.8339C169.542 32.8803 169.614 32.9428 169.673 33.0176C169.731 33.0923 169.774 33.178 169.799 33.2695Z" fill="#263238"/>
<path d="M169.415 32.2815C169.347 32.3971 168.706 32.1028 167.928 32.2815C167.15 32.4601 166.656 32.9541 166.551 32.8805C166.446 32.8069 166.551 32.6546 166.767 32.4181C167.057 32.1153 167.433 31.9082 167.844 31.8243C168.25 31.738 168.673 31.7821 169.053 31.9504C169.331 32.0765 169.452 32.2184 169.415 32.2815Z" fill="#263238"/>
<path d="M173.372 37.2208C173.757 37.0082 174.166 36.8424 174.591 36.7268C174.785 36.6638 174.969 36.5849 174.975 36.4431C174.947 36.2341 174.857 36.0382 174.717 35.8808L173.808 34.4831C172.536 32.4916 171.57 30.8416 171.648 30.8048C171.727 30.7681 172.825 32.3287 174.097 34.3202L174.985 35.7284C175.159 35.944 175.254 36.2131 175.253 36.4904C175.237 36.566 175.205 36.6372 175.159 36.6989C175.113 36.7607 175.053 36.8115 174.985 36.8477C174.882 36.9021 174.773 36.9427 174.659 36.9685C174.244 37.1108 173.81 37.1957 173.372 37.2208Z" fill="#263238"/>
<path d="M175.852 46.3535C173.194 46.9542 170.422 46.805 167.844 45.9226C167.844 45.9226 170.597 49.5168 176.152 47.7985L175.852 46.3535Z" fill="#EB996E"/>
<path d="M169.546 31.1676C169.494 31.3936 168.69 31.3883 167.776 31.6143C166.861 31.8402 166.136 32.1818 165.989 32.0031C165.926 31.919 166.031 31.6984 166.31 31.4777C166.68 31.1659 167.12 30.9479 167.592 30.8418C168.06 30.7308 168.548 30.7308 169.016 30.8418C169.389 30.9102 169.583 31.0625 169.546 31.1676Z" fill="#263238"/>
<path d="M176.672 27.9466C176.546 28.1568 175.873 28.1043 175.095 28.2567C174.318 28.4091 173.703 28.6718 173.519 28.5194C173.435 28.4406 173.519 28.2409 173.745 27.9939C174.092 27.7021 174.511 27.5097 174.959 27.4369C175.399 27.3483 175.855 27.381 176.278 27.5315C176.598 27.6787 176.724 27.8416 176.672 27.9466Z" fill="#263238"/>
<path d="M162.563 22.8021C162.679 23.3713 162.919 23.908 163.267 24.3739C163.614 24.8398 164.059 25.2236 164.571 25.498C165.083 25.7723 165.65 25.9306 166.23 25.9614C166.81 25.9922 167.39 25.8949 167.928 25.6764C168.758 25.3401 169.62 24.7095 170.461 25.0143C171.301 25.3191 171.648 26.5171 172.452 26.9638C173.635 27.6259 175.08 26.4804 176.399 26.596C177.449 26.6853 178.243 27.4893 179.057 28.1724C179.872 28.8555 180.996 29.3704 181.916 28.8765C181.705 27.999 181.393 27.149 180.986 26.3437C180.575 25.5331 179.895 24.8904 179.063 24.5256C178.6 24.3417 178.101 24.2787 177.66 24.0527C176.709 23.5693 176.283 22.4763 175.595 21.6513C175.142 21.1315 174.573 20.7268 173.933 20.471C173.294 20.2151 172.602 20.1154 171.916 20.18C170.781 20.2956 169.704 20.8684 168.559 20.8211C167.713 20.7843 166.903 20.406 166.057 20.4218C164.413 20.4218 163.178 21.8931 162.264 23.2645" fill="#263238"/>
<path d="M168.101 24.0056C167.345 23.9478 165.8 23.7901 165.29 23.2541C164.772 22.675 164.112 22.242 163.374 21.9985C162.636 21.7551 161.847 21.7097 161.086 21.8669C160.332 22.092 159.669 22.5535 159.196 23.1835C158.723 23.8135 158.465 24.5787 158.459 25.3665C157.54 25.5909 156.698 26.0594 156.023 26.7225C155.348 27.3857 154.864 28.2189 154.623 29.1341C154.379 30.0922 154.37 31.0954 154.599 32.0574C154.828 33.0193 155.287 33.9114 155.937 34.6567C156.253 35.0514 156.541 35.4676 156.799 35.9021C156.442 36.3441 156.129 36.8192 155.863 37.3208C154.66 39.9797 157.923 40.9991 157.923 40.9991C157.923 42.7857 159.578 42.7752 160.635 42.7699C161.691 42.7646 162.274 45.5864 163.099 45.476L162.264 36.7691C162.386 36.8167 162.516 36.8416 162.647 36.8427C164.639 36.8794 164.118 33.1066 163.477 32.1135C164.071 31.3748 164.572 30.5667 164.97 29.7068C165.33 28.3924 165.356 27.0085 165.043 25.6818C165.711 25.5977 168.427 24.0266 168.101 24.0056Z" fill="#263238"/>
<path d="M162.526 37.2315C162.458 36.9548 162.322 36.6998 162.129 36.4903C161.936 36.2808 161.693 36.1236 161.422 36.0334C161.152 35.9432 160.864 35.9228 160.583 35.9743C160.303 36.0257 160.041 36.1473 159.82 36.3277C159.295 36.7796 159.016 37.5362 159.331 38.8026C160.183 42.1866 163.404 40.6365 163.383 40.5419C163.362 40.4473 162.894 38.6292 162.526 37.2315Z" fill="#FFBE9D"/>
<path d="M162.027 39.5173C162.027 39.5173 161.98 39.5751 161.89 39.6434C161.766 39.7386 161.61 39.7819 161.454 39.7642C161.065 39.7222 160.619 39.2388 160.451 38.624C160.371 38.3367 160.354 38.0354 160.403 37.7412C160.409 37.6269 160.442 37.5156 160.499 37.4168C160.557 37.318 160.638 37.2346 160.734 37.1737C160.798 37.1393 160.872 37.1283 160.943 37.1427C161.014 37.1571 161.078 37.196 161.123 37.2525C161.192 37.3313 161.186 37.4049 161.207 37.4101C161.228 37.4154 161.265 37.3313 161.207 37.2C161.167 37.122 161.102 37.0593 161.023 37.0213C160.912 36.9763 160.788 36.9763 160.677 37.0213C160.545 37.084 160.431 37.179 160.345 37.2975C160.26 37.416 160.206 37.5541 160.188 37.6991C160.12 38.0301 160.132 38.3725 160.225 38.6975C160.283 39.0027 160.431 39.2837 160.649 39.5052C160.867 39.7268 161.145 39.8791 161.449 39.9429C161.548 39.9469 161.647 39.9287 161.737 39.8896C161.828 39.8505 161.909 39.7915 161.975 39.7169C162.043 39.6013 162.043 39.5225 162.027 39.5173Z" fill="#EB996E"/>
<path d="M180.671 32.5075C180.671 32.5075 180.981 32.2711 181.411 31.7456C182.006 30.9885 182.371 30.0766 182.462 29.1183C182.532 28.4641 182.468 27.8026 182.273 27.1741C182.049 26.4531 181.633 25.8066 181.07 25.3034C180.42 24.7357 179.633 24.3479 178.787 24.1783C177.941 24.0087 177.065 24.0632 176.246 24.3366C176.089 24.3891 175.941 24.4679 175.794 24.531C175.647 24.594 175.516 24.6886 175.379 24.7674L175.169 24.883V24.6518C175.164 24.2448 175.013 23.853 174.743 23.5484C174.467 23.2527 174.127 23.0228 173.75 22.8758C173.037 22.5784 172.246 22.5194 171.496 22.7076C170.046 23.0387 168.816 23.7007 167.655 23.8374C166.744 23.9956 165.807 23.8082 165.027 23.3119C164.822 23.1703 164.644 22.9922 164.502 22.7864C164.418 22.6446 164.376 22.5657 164.386 22.5605C164.577 22.82 164.81 23.0456 165.075 23.2278C165.842 23.6707 166.743 23.8218 167.613 23.6534C168.218 23.5396 168.809 23.3635 169.378 23.128C170.046 22.861 170.731 22.6381 171.428 22.4606C171.816 22.3666 172.216 22.326 172.615 22.3398C173.037 22.3621 173.451 22.4581 173.84 22.6235C174.241 22.7952 174.6 23.0536 174.89 23.3802C175.201 23.7359 175.376 24.1901 175.384 24.6623L175.174 24.5467L175.61 24.2945C175.773 24.2315 175.926 24.1474 176.094 24.0896C176.956 23.7941 177.882 23.7323 178.776 23.9105C179.671 24.0886 180.502 24.5003 181.186 25.1037C181.776 25.6387 182.209 26.3258 182.436 27.09C182.672 27.8999 182.704 28.7555 182.529 29.5807C182.353 30.4059 181.977 31.1749 181.432 31.8192C181.259 32.0167 181.064 32.193 180.849 32.3446C180.796 32.406 180.737 32.4607 180.671 32.5075Z" fill="#455A64"/>
<path d="M179.987 20.6268C179.642 20.4517 179.275 20.3261 178.894 20.2537C178.46 20.1943 178.018 20.2357 177.602 20.3746C177.063 20.5393 176.595 20.8797 176.272 21.3414L176.141 21.5253L176.062 21.3151C175.788 20.6692 175.346 20.1081 174.783 19.6897C174.219 19.2713 173.555 19.0107 172.857 18.9348C171.761 18.8936 170.681 19.2068 169.778 19.8281C169.008 20.3299 168.189 20.7524 167.334 21.0892C166.745 21.3121 166.11 21.3879 165.485 21.3099C165.318 21.2791 165.154 21.2334 164.996 21.1733C164.891 21.126 164.833 21.0997 164.838 21.0892C164.844 21.0787 165.075 21.1575 165.5 21.1995C166.105 21.2373 166.71 21.1385 167.271 20.9105C168.102 20.5482 168.899 20.1121 169.652 19.6074C170.117 19.3186 170.61 19.0774 171.123 18.8875C171.687 18.6817 172.29 18.6045 172.888 18.6615C173.634 18.7429 174.343 19.0248 174.941 19.4773C175.538 19.9298 176.002 20.5359 176.283 21.2311H176.078C176.439 20.7373 176.955 20.3784 177.544 20.2117C177.991 20.082 178.463 20.0586 178.921 20.1433C179.211 20.1984 179.488 20.3052 179.74 20.4586C179.83 20.5026 179.914 20.5593 179.987 20.6268Z" fill="#455A64"/>
<path d="M173.067 38.7765C172.944 38.6739 172.801 38.5984 172.647 38.5549C172.493 38.5114 172.332 38.501 172.174 38.5243C171.989 38.5638 171.814 38.6418 171.661 38.7531C171.508 38.8644 171.38 39.0067 171.286 39.1706C171.286 39.1706 171.259 39.1969 171.254 39.2127C171.182 39.3327 171.149 39.4723 171.16 39.612C171.183 39.7642 171.242 39.9085 171.334 40.0322C171.426 40.1559 171.546 40.2552 171.685 40.3214C171.907 40.434 172.159 40.4752 172.405 40.4395C172.651 40.4037 172.881 40.2928 173.062 40.1217C173.234 39.9402 173.33 39.7001 173.331 39.4502C173.332 39.2002 173.237 38.9594 173.067 38.7765Z" fill="#13ADE1"/>
<path d="M173.33 40.4106C173.288 40.4106 173.24 40.2529 173.099 40.0375C172.928 39.7487 172.672 39.5192 172.367 39.3802C172.062 39.2411 171.721 39.1991 171.391 39.2598C171.133 39.2966 170.976 39.3702 170.96 39.3334C170.944 39.2966 171.065 39.1705 171.349 39.0707C171.72 38.9511 172.123 38.9736 172.479 39.1337C172.838 39.2936 173.122 39.5851 173.272 39.9482C173.382 40.2214 173.367 40.4053 173.33 40.4106Z" fill="#263238"/>
<path d="M162.605 41.0618C162.605 41.0618 162.757 41.3246 162.558 41.7239C162.445 41.9629 162.246 42.1505 162.001 42.2494C161.848 42.3042 161.684 42.3227 161.523 42.3036C161.361 42.2844 161.207 42.2281 161.071 42.139C160.932 42.055 160.815 41.9401 160.729 41.8034C160.642 41.6667 160.588 41.5118 160.572 41.3508C160.556 41.0913 160.632 40.8345 160.787 40.6257C161.06 40.2789 161.365 40.2684 161.365 40.2999C161.365 40.3314 161.134 40.4208 160.95 40.736C160.843 40.9127 160.799 41.1198 160.824 41.3246C160.843 41.4445 160.889 41.5587 160.957 41.6594C161.025 41.7601 161.114 41.8449 161.218 41.9078C161.32 41.9734 161.436 42.0167 161.556 42.0348C161.677 42.0529 161.799 42.0455 161.917 42.0129C162.111 41.9435 162.278 41.8148 162.395 41.6451C162.6 41.3193 162.563 41.0618 162.605 41.0618Z" fill="#13ADE1"/>
<path d="M160.834 40.8572C160.861 40.8572 160.834 41.0358 160.587 41.1514C160.466 41.2019 160.333 41.2165 160.203 41.1936C160.074 41.1708 159.954 41.1113 159.857 41.0224C159.76 40.9334 159.691 40.8186 159.658 40.6916C159.624 40.5645 159.628 40.4306 159.668 40.3054C159.719 40.1633 159.817 40.0429 159.946 39.9639C160.162 39.8325 160.325 39.8851 160.319 39.9166C160.314 39.9481 160.193 39.9849 160.062 40.1163C159.997 40.197 159.958 40.2951 159.949 40.3981C159.939 40.5011 159.961 40.6046 160.01 40.6955C160.06 40.7864 160.135 40.8607 160.226 40.9091C160.318 40.9575 160.421 40.9778 160.524 40.9675C160.703 40.9308 160.797 40.8362 160.834 40.8572Z" fill="#13ADE1"/>
<path d="M166.609 87.5237C166.609 87.5237 179.62 88.2803 187.312 88.3487C193.266 88.4065 195.925 86.8248 197.112 82.9942C198.111 79.7836 195.967 73.6199 195.967 73.6199C191.937 73.6199 189.451 74.1979 186.861 75.4117L187.549 78.2282L166.572 80.0358L166.609 87.5237Z" fill="#FFBE9D"/>
<path d="M191.921 81.234C191.356 80.5004 190.697 79.8449 189.961 79.2845C189.17 78.801 188.319 78.4263 187.428 78.1705C187.708 78.1302 187.994 78.1554 188.264 78.2441C188.925 78.4003 189.552 78.6764 190.113 79.0586C190.676 79.442 191.162 79.9266 191.548 80.4878C191.842 80.9187 191.952 81.2182 191.921 81.234Z" fill="#EB996E"/>
<path d="M161.848 75.3909C161.848 75.3909 157.823 76.3577 154.865 78.3335L158.018 86.8775C159.069 89.6835 162.279 91.0812 164.849 89.6099C168.806 87.3452 170.203 80.7453 170.203 80.7453L174.549 61.8917L167.345 57.3779L161.875 75.3909" fill="#FFBE9D"/>
<path d="M167.319 57.3778L167.613 51.1773L166 44.8717C165.91 44.5249 165.868 44.0888 166.152 43.8786C166.293 43.7707 166.466 43.7149 166.644 43.7206C166.821 43.7264 166.991 43.7933 167.124 43.9101C167.56 44.362 169.662 49.8741 169.662 49.8741C169.662 49.8741 172.852 47.9615 173.419 47.8669C173.987 47.7723 174.696 49.4906 174.743 49.6219C174.764 50.007 174.764 50.3929 174.743 50.7779C174.743 50.7779 176.714 50.8357 176.892 51.1037C177.036 51.6512 177.112 52.2141 177.118 52.78C177.118 52.78 177.954 53.0479 178.085 53.6785C178.217 54.3091 178.49 55.3495 178.085 55.5807C177.681 55.8119 176.861 56.2638 176.861 56.2638C176.861 56.2638 176.53 59.4796 176.441 59.7739C176.351 60.0682 174.507 61.8758 174.507 61.8758L167.319 57.3778Z" fill="#FFBE9D"/>
<path d="M160.614 89.736C160.614 89.736 160.808 89.8516 161.218 89.983C161.817 90.171 162.451 90.2213 163.073 90.1301C164.071 89.9877 165.006 89.5567 165.763 88.89C166.763 87.9826 167.608 86.9176 168.264 85.7372C168.651 85.0434 168.976 84.3173 169.236 83.567C169.51 82.7415 169.736 81.9012 169.914 81.0501C170.324 79.2793 170.771 77.3718 171.244 75.3435C172.19 71.2922 173.251 66.7627 174.397 61.8811V61.8443H174.423C174.785 61.487 175.148 61.1244 175.51 60.7461C175.689 60.5569 175.868 60.3678 176.036 60.1734C176.12 60.0735 176.209 59.9737 176.278 59.8738C176.331 59.775 176.361 59.6655 176.367 59.5533C176.509 58.5024 176.619 57.4147 176.735 56.3164V56.2481L176.798 56.2166L177.802 55.6544C177.875 55.6071 177.991 55.5545 178.038 55.5125C178.088 55.467 178.122 55.4059 178.133 55.3391C178.157 55.1648 178.157 54.9879 178.133 54.8136C178.082 54.4283 178.003 54.0472 177.896 53.6734C177.717 53.3465 177.417 53.103 177.061 52.9955L176.971 52.964V52.8746C176.971 52.5699 176.94 52.2546 176.903 51.9446C176.889 51.7893 176.866 51.6349 176.835 51.4822C176.822 51.4148 176.801 51.3494 176.772 51.2877C176.772 51.251 176.772 51.2877 176.74 51.2562C176.711 51.2412 176.682 51.2289 176.651 51.2194C176.019 51.0817 175.374 51.0095 174.728 51.004H174.591V50.8674C174.591 50.5416 174.591 50.179 174.591 49.8164C174.569 49.6928 174.527 49.5737 174.465 49.4644C174.412 49.3383 174.349 49.2174 174.286 49.0913C174.163 48.8479 174.019 48.6158 173.855 48.3977C173.781 48.296 173.69 48.2073 173.587 48.135C173.549 48.1027 173.502 48.0826 173.453 48.077C173.403 48.0713 173.353 48.0806 173.309 48.1034C173.055 48.2008 172.807 48.3149 172.568 48.445C171.591 48.9704 170.634 49.4959 169.699 50.0634L169.562 50.1475L169.504 50.0004C169.01 48.755 168.517 47.5254 168.033 46.3221C167.791 45.7178 167.555 45.1135 167.313 44.5198C167.276 44.3867 167.202 44.2669 167.1 44.174C166.998 44.081 166.871 44.0188 166.735 43.9943C166.61 43.9526 166.474 43.9549 166.349 44.0007C166.225 44.0465 166.12 44.1332 166.052 44.2465C165.987 44.3592 165.959 44.49 165.973 44.6196C165.973 44.7352 166.047 44.9139 166.078 45.0557C166.162 45.3605 166.241 45.66 166.32 45.9595C166.478 46.5638 166.63 47.1576 166.788 47.7461C167.096 48.9302 167.399 50.0862 167.697 51.2142V51.251C167.592 53.4089 167.492 55.4757 167.397 57.4515V57.4409L162.61 73.0157L161.26 77.3508C161.102 77.8395 160.981 78.2231 160.897 78.4911C160.813 78.759 160.761 78.8746 160.761 78.8746C160.761 78.8746 160.787 78.738 160.861 78.4805L161.192 77.3298C161.496 76.3156 161.932 74.8496 162.484 72.9789C163.619 69.2166 165.232 63.8464 167.182 57.3726V57.3989C167.273 55.4302 167.366 53.3633 167.46 51.1984V51.2352C167.161 50.1055 166.851 48.9494 166.541 47.7724L166.068 45.9858C165.989 45.6863 165.91 45.3815 165.826 45.082C165.781 44.9247 165.744 44.7651 165.716 44.6038C165.696 44.4214 165.735 44.2376 165.826 44.0784C165.923 43.9145 166.074 43.7885 166.252 43.7211C166.428 43.6694 166.615 43.6636 166.794 43.704C166.973 43.7445 167.139 43.8299 167.276 43.9523C167.408 44.076 167.506 44.2316 167.56 44.4042L168.28 46.2065C168.769 47.4151 169.257 48.6447 169.757 49.8848L169.562 49.8164C170.503 49.2595 171.449 48.7025 172.447 48.1823C172.699 48.0503 172.959 47.9328 173.225 47.8302C173.308 47.7957 173.398 47.783 173.487 47.7934C173.577 47.8064 173.663 47.8387 173.74 47.888C173.866 47.9788 173.978 48.0887 174.071 48.2138C174.246 48.4437 174.4 48.6901 174.528 48.9494C174.596 49.0808 174.659 49.2069 174.717 49.3383C174.792 49.4774 174.842 49.6286 174.864 49.7849C174.864 50.158 174.864 50.5048 174.864 50.8358L174.733 50.694C175.408 50.6985 176.081 50.776 176.74 50.9252C176.785 50.941 176.829 50.9603 176.871 50.983C176.929 51.0144 176.977 51.0619 177.008 51.1196C177.049 51.2049 177.079 51.2949 177.097 51.3876C177.129 51.5557 177.15 51.7134 177.171 51.8763C177.202 52.1968 177.224 52.5121 177.239 52.8274L177.145 52.7012C177.36 52.7643 177.559 52.8704 177.732 53.0131C177.904 53.1559 178.046 53.3322 178.148 53.5315C178.263 53.9308 178.348 54.3383 178.401 54.7506C178.437 54.9609 178.437 55.176 178.401 55.3864C178.378 55.5138 178.311 55.6291 178.211 55.7122C178.125 55.7699 178.036 55.8225 177.943 55.8698L176.945 56.39L177.013 56.2902C176.892 57.3884 176.782 58.4656 176.635 59.5323L176.603 59.7372C176.591 59.8202 176.557 59.8983 176.504 59.9632C176.426 60.0782 176.34 60.1871 176.246 60.289C176.067 60.4886 175.889 60.6831 175.721 60.8722C175.358 61.2506 174.996 61.6131 174.628 61.9704L174.664 61.9074C173.508 66.7837 172.437 71.3132 171.475 75.3645C170.997 77.3876 170.54 79.295 170.119 81.0606C169.939 81.9181 169.708 82.7639 169.426 83.5933C169.155 84.3506 168.821 85.0836 168.427 85.7845C167.756 86.98 166.891 88.056 165.868 88.9688C165.089 89.6398 164.13 90.0673 163.11 90.1984C162.475 90.2836 161.828 90.2189 161.223 90.0092C161.069 89.9527 160.92 89.8841 160.776 89.8043L160.614 89.736Z" fill="#EB996E"/>
<path d="M174.749 50.7936C174.749 50.8304 174.57 50.8514 174.291 50.8619C173.938 50.8686 173.586 50.9109 173.241 50.988C172.907 51.0699 172.6 51.2344 172.347 51.4662C172.158 51.6449 172.074 51.7972 172.032 51.7815C171.99 51.7657 172.032 51.5765 172.205 51.3348C172.45 51.0288 172.791 50.8141 173.172 50.7253C173.54 50.6346 173.922 50.6168 174.297 50.6727C174.58 50.7095 174.749 50.7568 174.749 50.7936Z" fill="#EB996E"/>
<path d="M173.225 50.8514C173.156 50.8252 173.151 50.6623 173.225 50.4889C173.298 50.3155 173.403 50.1946 173.472 50.2209C173.54 50.2471 173.55 50.41 173.472 50.5834C173.393 50.7568 173.277 50.8777 173.225 50.8514Z" fill="#EB996E"/>
<path d="M177.208 52.759C176.698 52.9168 176.165 52.9896 175.631 52.9744C175.463 52.9688 175.296 53.0036 175.145 53.0758C174.993 53.148 174.861 53.2556 174.759 53.3895C174.622 53.605 174.67 53.7836 174.628 53.7941C174.586 53.8047 174.46 53.6207 174.591 53.3055C174.663 53.1279 174.795 52.9812 174.964 52.8903C175.159 52.7836 175.373 52.7192 175.595 52.7012C176.131 52.619 176.678 52.6386 177.208 52.759Z" fill="#EB996E"/>
<path d="M176.861 54.6507C176.934 54.6507 176.977 55.0395 176.956 55.5177C176.934 55.9959 176.856 56.3742 176.782 56.3742C176.709 56.3742 176.661 55.9801 176.682 55.5019C176.703 55.0238 176.782 54.6454 176.861 54.6507Z" fill="#EB996E"/>
<path d="M179.042 68.8013L179.509 67.1934C179.531 67.1198 179.571 67.053 179.626 66.9997C179.681 66.9463 179.749 66.9082 179.823 66.8891C179.897 66.87 179.975 66.8706 180.049 66.8908C180.123 66.911 180.191 66.9501 180.245 67.0042L180.86 67.6295L181.238 66.1109C181.26 66.0232 181.309 65.9444 181.378 65.8853C181.446 65.8262 181.531 65.7895 181.621 65.7804C181.711 65.7712 181.802 65.7899 181.881 65.834C181.96 65.8781 182.024 65.9454 182.063 66.0268L182.92 67.8239L179.042 68.8013Z" fill="white"/>
<path d="M182.93 68.5125C182.342 68.7965 181.718 68.9981 181.075 69.1115C180.453 69.3146 179.806 69.4278 179.152 69.4478C180.362 68.9619 181.633 68.647 182.93 68.5125Z" fill="white"/>
<path d="M151.681 59.5427C151.681 59.5427 151.486 59.7424 151.213 60.168C150.846 60.7742 150.605 61.4478 150.504 62.149C150.354 63.1931 150.322 64.2507 150.409 65.3018C150.467 66.4946 150.561 67.7978 150.709 69.164C150.957 71.4972 151.328 73.8159 151.817 76.1106C152.001 76.9934 152.169 77.687 152.285 78.2125C152.337 78.4332 152.385 78.6171 152.422 78.7747C152.458 78.9324 152.464 78.9744 152.464 78.9744C152.464 78.9744 152.437 78.9113 152.401 78.7852C152.364 78.6591 152.306 78.4384 152.248 78.223C152.117 77.7343 151.938 77.0302 151.723 76.1474C151.212 73.8534 150.831 71.5324 150.582 69.1955C150.435 67.8293 150.346 66.5209 150.293 65.3281C150.214 64.2761 150.253 63.2186 150.409 62.1753C150.522 61.4649 150.779 60.7853 151.166 60.1785C151.308 59.9444 151.481 59.7306 151.681 59.5427Z" fill="white"/>
<path d="M162.742 52.3858L162.621 52.4488L162.274 52.617C161.975 52.7588 161.538 52.969 161.018 53.258C159.662 54.0143 158.345 54.8386 157.072 55.7277C155.569 56.7786 154.24 57.735 153.268 58.4286L152.117 59.2431L151.796 59.4585C151.76 59.4871 151.722 59.5117 151.681 59.5321C151.711 59.4968 151.746 59.4666 151.786 59.4427L152.091 59.2115L153.22 58.3655C154.182 57.6562 155.506 56.6683 157.009 55.6384C158.284 54.7455 159.611 53.9279 160.981 53.1897C161.507 52.9112 161.948 52.7115 162.258 52.5802L162.61 52.433C162.715 52.3963 162.715 52.3805 162.742 52.3858Z" fill="white"/>
<path d="M187.801 55.8065C187.768 55.7882 187.738 55.7652 187.712 55.7381L187.475 55.5332C187.182 55.286 186.875 55.0562 186.556 54.8449C185.489 54.1647 184.357 53.5926 183.177 53.1371C182 52.671 180.799 52.2711 179.578 51.939C179.105 51.8077 178.726 51.7131 178.458 51.65L178.159 51.5712C178.122 51.5637 178.087 51.5513 178.054 51.5344H178.164L178.469 51.5922C178.737 51.6448 179.12 51.7288 179.593 51.8497C180.826 52.1609 182.037 52.5523 183.219 53.0215C184.406 53.4769 185.539 54.062 186.598 54.766C187.038 55.0643 187.442 55.4136 187.801 55.8065Z" fill="white"/>
<path d="M162.889 95.9155C162.818 95.9028 162.748 95.8798 162.684 95.8471C162.501 95.767 162.326 95.6721 162.158 95.5634C161.875 95.3938 161.628 95.17 161.432 94.9049C161.235 94.6399 161.093 94.3387 161.013 94.0185C160.869 93.3723 160.941 92.6966 161.218 92.0953C161.298 91.9086 161.4 91.7321 161.523 91.5699C161.607 91.4595 161.664 91.407 161.67 91.4122C161.526 91.6363 161.398 91.8698 161.286 92.1111C161.042 92.7015 160.985 93.3527 161.123 93.9765C161.274 94.5924 161.648 95.1301 162.174 95.4846C162.61 95.7999 162.899 95.8944 162.889 95.9155Z" fill="white"/>
<path d="M161.218 90.2244C161.33 90.4329 161.413 90.6556 161.465 90.8864C161.547 91.1075 161.597 91.3394 161.612 91.5748C161.493 91.3711 161.407 91.1492 161.36 90.918C161.274 90.6965 161.226 90.4619 161.218 90.2244Z" fill="white"/>
<path d="M168.322 208.039L184.349 207.96L184.06 152.55L183.907 96.1833L162.19 95.9048L158.286 103.261C156.688 106.219 155.67 109.454 155.285 112.793C155.023 115.347 156.935 123.649 157.597 125.751L163.572 144.699L168.322 208.039Z" fill="#263238"/>
<path d="M188.61 96.2518L206.224 144.263C207.267 147.357 207.614 150.643 207.239 153.886C206.864 157.129 205.776 160.249 204.054 163.023L183.603 202.958L172.105 188.571L189.215 152.839L174.134 128.379L176.672 96.3253L183.776 96.2097L188.61 96.2518Z" fill="#263238"/>
<path d="M182.447 112.336C182.447 112.336 182.447 112.42 182.447 112.583C182.447 112.746 182.473 112.998 182.494 113.308C182.531 113.954 182.578 114.884 182.641 116.088C182.762 118.521 182.93 122.015 183.167 126.329C183.403 130.643 183.603 135.787 183.865 141.515C183.991 144.374 184.128 147.374 184.265 150.485C184.365 152.061 184.323 153.637 184.338 155.214C184.354 156.79 184.338 158.451 184.338 160.101C184.338 173.306 184.38 185.26 184.396 193.925C184.396 198.244 184.396 201.744 184.396 204.177C184.396 205.38 184.396 206.315 184.396 206.967C184.396 207.272 184.396 207.492 184.396 207.692C184.396 207.892 184.396 207.939 184.396 207.939C184.396 207.939 184.396 207.855 184.396 207.692V206.967C184.396 206.315 184.396 205.39 184.365 204.177C184.365 201.744 184.323 198.249 184.291 193.93C184.254 185.265 184.207 173.311 184.154 160.106C184.154 158.456 184.154 156.827 184.154 155.219C184.154 153.611 184.186 152.024 184.086 150.49C183.955 147.384 183.823 144.384 183.702 141.525C183.461 135.808 183.24 130.664 183.061 126.334C182.883 122.004 182.751 118.526 182.652 116.093C182.61 114.895 182.578 113.96 182.557 113.308C182.557 112.998 182.557 112.783 182.557 112.583C182.557 112.383 182.447 112.336 182.447 112.336Z" fill="#455A64"/>
<path d="M182.042 97.1975C182.103 97.3666 182.141 97.5435 182.152 97.723C182.21 98.0593 182.273 98.548 182.347 99.1575C182.483 100.371 182.631 102.058 182.715 103.923C182.799 105.789 182.804 107.481 182.778 108.705C182.778 109.315 182.741 109.814 182.715 110.155C182.72 110.333 182.699 110.51 182.652 110.681C182.585 110.025 182.563 109.365 182.583 108.705C182.583 107.481 182.525 105.799 182.441 103.934C182.357 102.069 182.242 100.392 182.152 99.2048C182.078 98.5383 182.041 97.8682 182.042 97.1975Z" fill="#455A64"/>
<path d="M178.511 98.2799C178.537 98.3167 178.238 98.4533 178.154 98.8789C178.13 98.9944 178.136 99.114 178.172 99.2262C178.208 99.3384 178.272 99.4396 178.359 99.52C178.462 99.6167 178.592 99.6814 178.732 99.7066C178.872 99.7317 179.016 99.7162 179.147 99.6619C179.273 99.597 179.378 99.4981 179.45 99.3764C179.523 99.2547 179.56 99.1151 179.557 98.9735C179.552 98.8559 179.517 98.7415 179.455 98.6412C179.394 98.5409 179.307 98.4581 179.205 98.4007C178.991 98.2972 178.752 98.2554 178.516 98.2799C178.516 98.2799 178.569 98.2116 178.705 98.1695C178.902 98.1214 179.11 98.1418 179.294 98.2273C179.441 98.2884 179.567 98.389 179.66 98.518C179.753 98.647 179.808 98.7992 179.819 98.9577C179.84 99.1534 179.799 99.3506 179.702 99.5217C179.605 99.6928 179.456 99.8291 179.278 99.9115C179.099 99.9939 178.899 100.018 178.706 99.9809C178.513 99.9437 178.336 99.8468 178.201 99.7039C178.089 99.5929 178.01 99.4533 177.972 99.3005C177.934 99.1476 177.939 98.9873 177.985 98.8369C178.038 98.6402 178.157 98.4677 178.322 98.3482C178.427 98.2746 178.506 98.2641 178.511 98.2799Z" fill="#455A64"/>
<path d="M170.103 97.3289C170.181 97.4945 170.229 97.6723 170.245 97.8543C170.33 98.326 170.346 98.8074 170.293 99.2836C170.217 99.9927 170.012 100.682 169.688 101.317C169.297 102.107 168.718 102.789 168.001 103.303C167.285 103.817 166.453 104.148 165.579 104.265C164.88 104.369 164.167 104.343 163.477 104.186C163.011 104.085 162.561 103.917 162.143 103.687C161.984 103.612 161.839 103.513 161.712 103.393C162.293 103.654 162.898 103.856 163.519 103.997C164.267 104.152 165.038 104.151 165.785 103.993C166.532 103.836 167.238 103.525 167.859 103.08C168.479 102.636 169.001 102.068 169.391 101.412C169.781 100.755 170.031 100.025 170.124 99.2678C170.186 98.6226 170.179 97.9726 170.103 97.3289Z" fill="#455A64"/>
<path d="M190.723 101.932C190.38 101.972 190.033 101.93 189.709 101.811C188.915 101.561 188.202 101.104 187.643 100.487C187.08 99.8726 186.693 99.1173 186.524 98.301C186.441 97.968 186.441 97.6198 186.524 97.2869C186.572 97.2869 186.577 97.6704 186.734 98.259C186.947 99.0194 187.335 99.7198 187.866 100.304C188.396 100.889 189.056 101.342 189.793 101.627C190.339 101.843 190.728 101.879 190.723 101.932Z" fill="#455A64"/>
<path d="M196.981 153.69C196.718 153.991 196.403 154.242 196.051 154.431C195.682 154.665 195.28 154.842 194.858 154.957C194.327 155.097 193.768 155.083 193.245 154.915C192.327 154.568 191.541 153.944 190.996 153.128C190.746 152.821 190.539 152.482 190.381 152.119C190.665 152.39 190.922 152.687 191.148 153.007C191.706 153.747 192.46 154.317 193.324 154.652C193.765 154.77 194.225 154.796 194.677 154.73C195.129 154.664 195.562 154.507 195.951 154.268C196.283 154.056 196.627 153.863 196.981 153.69Z" fill="#455A64"/>
<path d="M192.966 156.754C192.345 156.111 191.791 155.406 191.311 154.652C190.759 153.949 190.276 153.194 189.871 152.398C190.497 153.039 191.053 153.743 191.532 154.5C192.089 155.198 192.57 155.954 192.966 156.754Z" fill="#455A64"/>
<path d="M166.042 114.191C165.968 114.217 165.784 113.918 165.621 113.513C165.458 113.108 165.39 112.767 165.458 112.735C165.527 112.704 165.716 113.009 165.873 113.413C166.031 113.818 166.11 114.191 166.042 114.191Z" fill="#FAFAFA"/>
<path d="M176.215 115.652C176.136 115.652 176.078 115.394 176.078 115.074C176.078 114.753 176.136 114.49 176.215 114.49C176.293 114.49 176.351 114.753 176.351 115.074C176.351 115.394 176.288 115.652 176.215 115.652Z" fill="#FAFAFA"/>
<path d="M172.032 121.18C171.958 121.18 171.874 120.864 171.848 120.46C171.822 120.055 171.848 119.729 171.932 119.724C172.016 119.719 172.095 120.039 172.121 120.444C172.148 120.849 172.105 121.174 172.032 121.18Z" fill="#FAFAFA"/>
<path d="M164.392 125.226C164.329 125.273 164.113 125.079 163.829 124.879C163.546 124.679 163.304 124.527 163.304 124.453C163.304 124.38 163.651 124.422 163.971 124.653C164.292 124.884 164.455 125.226 164.392 125.226Z" fill="#FAFAFA"/>
<path d="M177.859 130.381C177.796 130.338 177.859 130.113 178.038 129.855C178.217 129.598 178.38 129.45 178.443 129.492C178.506 129.535 178.443 129.766 178.264 130.018C178.085 130.27 177.922 130.423 177.859 130.381Z" fill="#FAFAFA"/>
<path d="M169.546 131.836C169.473 131.836 169.41 131.4 169.41 130.869C169.41 130.338 169.473 129.897 169.546 129.897C169.62 129.897 169.683 130.333 169.683 130.869C169.683 131.405 169.604 131.836 169.546 131.836Z" fill="#FAFAFA"/>
<path d="M166.825 137.732C166.783 137.789 166.509 137.669 166.215 137.453C165.921 137.238 165.69 137.017 165.758 136.954C165.826 136.891 166.078 137.017 166.373 137.232C166.667 137.448 166.872 137.669 166.825 137.732Z" fill="#FAFAFA"/>
<path d="M175.242 139.781C175.274 139.849 175.106 139.991 174.864 140.102C174.622 140.212 174.402 140.238 174.37 140.17C174.339 140.102 174.512 139.96 174.754 139.849C174.996 139.739 175.216 139.713 175.242 139.781Z" fill="#FAFAFA"/>
<path d="M169.546 149.397C169.483 149.429 169.21 149.024 168.942 148.488C168.674 147.952 168.511 147.49 168.58 147.437C168.648 147.384 168.921 147.81 169.184 148.346C169.447 148.882 169.594 149.339 169.546 149.397Z" fill="#FAFAFA"/>
<path d="M178.831 148.504C178.763 148.467 178.884 148.115 179.094 147.71C179.304 147.306 179.541 147.011 179.62 147.048C179.698 147.085 179.567 147.437 179.352 147.842C179.136 148.246 178.894 148.541 178.831 148.504Z" fill="#FAFAFA"/>
<path d="M174.759 156.643C174.68 156.643 174.691 156.218 174.607 155.724C174.523 155.23 174.397 154.836 174.47 154.799C174.544 154.762 174.796 155.135 174.88 155.682C174.964 156.228 174.833 156.659 174.759 156.643Z" fill="#FAFAFA"/>
<path d="M170.398 161.294C170.345 161.346 170.082 161.147 169.814 160.852C169.546 160.558 169.373 160.28 169.431 160.227C169.489 160.175 169.746 160.374 170.014 160.669C170.282 160.963 170.456 161.241 170.398 161.294Z" fill="#FAFAFA"/>
<path d="M180.981 163.059C180.928 163.007 181.122 162.723 181.417 162.423C181.711 162.124 181.984 161.929 182.042 161.982C182.1 162.034 181.9 162.324 181.611 162.618C181.322 162.912 181.038 163.112 180.981 163.059Z" fill="#FAFAFA"/>
<path d="M174.896 170.022C174.822 170.022 174.822 169.607 174.896 169.123C174.969 168.64 175.085 168.261 175.164 168.272C175.243 168.282 175.237 168.682 175.164 169.165C175.09 169.649 174.969 170.032 174.896 170.022Z" fill="#FAFAFA"/>
<path d="M170.802 173.4C170.734 173.437 170.503 173.164 170.277 172.791C170.051 172.418 169.935 172.087 169.998 172.05C170.061 172.013 170.293 172.281 170.524 172.654C170.755 173.027 170.865 173.358 170.802 173.4Z" fill="#FAFAFA"/>
<path d="M180.665 177.662C180.713 177.725 180.445 177.993 180.066 178.261C179.688 178.529 179.357 178.697 179.31 178.634C179.262 178.571 179.536 178.303 179.909 178.035C180.282 177.767 180.623 177.604 180.665 177.662Z" fill="#FAFAFA"/>
<path d="M172.447 183.195C172.373 183.169 172.447 182.748 172.515 182.223C172.584 181.697 172.542 181.267 172.62 181.256C172.699 181.246 172.836 181.687 172.783 182.249C172.731 182.811 172.515 183.227 172.447 183.195Z" fill="#FAFAFA"/>
<path d="M175.731 191.14C175.668 191.187 175.447 191.009 175.232 190.741C175.017 190.473 174.896 190.215 174.954 190.168C175.011 190.121 175.232 190.299 175.447 190.567C175.663 190.835 175.789 191.093 175.731 191.14Z" fill="#FAFAFA"/>
<path d="M172.142 196.468C172.079 196.511 171.79 196.2 171.496 195.77C171.202 195.339 171.018 194.96 171.076 194.918C171.133 194.876 171.428 195.186 171.722 195.617C172.016 196.048 172.205 196.426 172.142 196.468Z" fill="#FAFAFA"/>
<path d="M182.026 189.779C181.958 189.753 181.963 189.558 182.026 189.348C182.089 189.138 182.231 188.98 182.305 189.007C182.378 189.033 182.368 189.227 182.305 189.443C182.242 189.658 182.1 189.81 182.026 189.779Z" fill="#FAFAFA"/>
<path d="M177.665 202.469C177.597 202.432 177.728 202.059 177.833 201.591C177.938 201.124 177.975 200.73 178.054 200.724C178.133 200.719 178.211 201.145 178.101 201.649C177.991 202.154 177.728 202.511 177.665 202.469Z" fill="#FAFAFA"/>
<path d="M180.502 121.264C180.434 121.295 180.266 121.085 180.129 120.791C179.993 120.497 179.935 120.234 180.003 120.202C180.072 120.171 180.24 120.381 180.376 120.675C180.513 120.97 180.581 121.232 180.502 121.264Z" fill="#FAFAFA"/>
<path d="M173.225 104.901C173.267 104.964 172.899 105.258 172.505 105.678C172.111 106.099 171.843 106.487 171.774 106.451C171.706 106.414 171.885 105.925 172.3 105.494C172.715 105.063 173.172 104.832 173.225 104.901Z" fill="#FAFAFA"/>
<path d="M179.704 104.733C179.625 104.733 179.504 104.433 179.32 104.076C179.136 103.718 178.968 103.424 179.026 103.372C179.084 103.319 179.367 103.55 179.551 103.95C179.735 104.349 179.772 104.691 179.704 104.733Z" fill="#FAFAFA"/>
<path d="M159.473 110.045C159.405 110.014 159.473 109.667 159.636 109.267C159.799 108.868 159.978 108.558 160.051 108.59C160.125 108.621 160.051 108.963 159.888 109.367C159.726 109.772 159.563 110.071 159.473 110.045Z" fill="#FAFAFA"/>
<path d="M160.13 117.98C160.078 118.037 159.778 117.869 159.458 117.601C159.137 117.333 158.932 117.076 158.964 117.013C158.995 116.95 159.316 117.123 159.636 117.391C159.957 117.659 160.177 117.922 160.13 117.98Z" fill="#FAFAFA"/>
<path d="M173.403 98.6005C173.335 98.6005 173.188 98.4324 173.083 98.1644C172.978 97.8964 172.946 97.6389 173.015 97.6389C173.083 97.6389 173.23 97.8071 173.335 98.0751C173.44 98.343 173.472 98.5742 173.403 98.6005Z" fill="#FAFAFA"/>
<path d="M186.114 102.478C186.041 102.478 186.046 102.147 186.114 101.774C186.183 101.401 186.319 101.107 186.393 101.123C186.466 101.138 186.461 101.459 186.393 101.832C186.325 102.205 186.188 102.494 186.114 102.478Z" fill="#FAFAFA"/>
<path d="M189.099 108.484C189.031 108.453 189.125 108.064 189.314 107.607C189.504 107.15 189.709 106.808 189.777 106.834C189.845 106.861 189.777 107.255 189.567 107.712C189.356 108.169 189.173 108.511 189.099 108.484Z" fill="#FAFAFA"/>
<path d="M186.971 113.329C186.903 113.361 186.65 112.998 186.409 112.52C186.167 112.042 186.03 111.616 186.099 111.585C186.167 111.553 186.414 111.916 186.656 112.394C186.897 112.872 187.039 113.292 186.971 113.329Z" fill="#FAFAFA"/>
<path d="M191.521 118.174C191.453 118.148 191.521 117.843 191.637 117.496C191.753 117.149 191.937 116.886 192.01 116.913C192.084 116.939 192.01 117.244 191.894 117.591C191.779 117.937 191.616 118.2 191.521 118.174Z" fill="#FAFAFA"/>
<path d="M187.454 122.919C187.391 122.961 187.228 122.819 187.097 122.609C186.966 122.399 186.903 122.189 186.971 122.147C187.039 122.105 187.192 122.246 187.328 122.462C187.465 122.677 187.517 122.882 187.454 122.919Z" fill="#FAFAFA"/>
<path d="M188.321 132.714C188.269 132.761 187.938 132.503 187.591 132.125C187.244 131.747 187.008 131.405 187.065 131.353C187.123 131.3 187.449 131.563 187.796 131.941C188.143 132.319 188.379 132.661 188.321 132.714Z" fill="#FAFAFA"/>
<path d="M193.655 127.086C193.597 127.133 193.308 126.871 193.014 126.492C192.719 126.114 192.53 125.778 192.588 125.73C192.646 125.683 192.935 125.951 193.229 126.324C193.523 126.697 193.718 127.044 193.655 127.086Z" fill="#FAFAFA"/>
<path d="M196.582 134.847C196.513 134.815 196.634 134.421 196.85 133.969C197.065 133.517 197.291 133.171 197.375 133.202C197.459 133.234 197.328 133.633 197.112 134.085C196.897 134.537 196.65 134.884 196.582 134.847Z" fill="#FAFAFA"/>
<path d="M190.36 141.237C190.292 141.274 190.05 140.985 189.714 140.675C189.378 140.365 189.067 140.149 189.099 140.07C189.131 139.991 189.53 140.133 189.898 140.475C190.266 140.816 190.423 141.2 190.36 141.237Z" fill="#FAFAFA"/>
<path d="M190.749 147.821C190.749 147.894 190.486 147.957 190.166 147.957C189.845 147.957 189.588 147.894 189.588 147.821C189.588 147.747 189.845 147.684 190.166 147.684C190.486 147.684 190.749 147.747 190.749 147.821Z" fill="#FAFAFA"/>
<path d="M197.144 145.982C197.076 145.945 197.212 145.614 197.312 145.204C197.412 144.794 197.454 144.437 197.533 144.431C197.612 144.426 197.696 144.81 197.58 145.267C197.464 145.724 197.202 146.024 197.144 145.982Z" fill="#FAFAFA"/>
<path d="M203.497 148.194C203.428 148.22 203.234 147.847 203.066 147.369C202.898 146.891 202.819 146.481 202.887 146.46C202.956 146.439 203.155 146.801 203.323 147.28C203.492 147.758 203.57 148.168 203.497 148.194Z" fill="#FAFAFA"/>
<path d="M202.483 157.232C202.42 157.195 202.582 156.754 202.845 156.244C203.108 155.734 203.371 155.351 203.449 155.387C203.528 155.424 203.355 155.866 203.087 156.37C202.819 156.875 202.551 157.279 202.483 157.232Z" fill="#FAFAFA"/>
<path d="M196.687 162.534C196.618 162.56 196.403 162.197 196.203 161.719C196.004 161.241 195.904 160.831 195.977 160.8C196.051 160.768 196.261 161.136 196.455 161.614C196.65 162.092 196.755 162.534 196.687 162.534Z" fill="#FAFAFA"/>
<path d="M190.266 164.588C190.266 164.662 190.045 164.725 189.777 164.725C189.509 164.725 189.293 164.662 189.293 164.588C189.293 164.515 189.514 164.452 189.777 164.452C190.04 164.452 190.266 164.515 190.266 164.588Z" fill="#FAFAFA"/>
<path d="M193.944 173.043C193.875 173.043 193.728 172.754 193.618 172.355C193.508 171.955 193.487 171.609 193.56 171.593C193.634 171.577 193.776 171.882 193.886 172.281C193.996 172.681 194.017 173.001 193.944 173.043Z" fill="#FAFAFA"/>
<path d="M189.293 170.205C189.23 170.169 189.293 169.922 189.467 169.654C189.64 169.386 189.814 169.202 189.877 169.239C189.94 169.275 189.877 169.528 189.703 169.796C189.53 170.064 189.362 170.247 189.293 170.205Z" fill="#FAFAFA"/>
<path d="M189.199 179.512C189.125 179.512 189.02 179.159 188.968 178.702C188.915 178.245 188.931 177.872 189.004 177.862C189.078 177.851 189.183 178.214 189.236 178.671C189.288 179.128 189.272 179.501 189.199 179.512Z" fill="#FAFAFA"/>
</svg>
