<svg width="232" height="224" viewBox="0 0 232 224" fill="none" xmlns="http://www.w3.org/2000/svg">
<g clip-path="url(#clip0_188_26329)">
<path d="M25.677 98.9638C28.5647 101.764 32.4814 103.337 36.5653 103.337C39.6332 103.337 42.6067 102.449 45.1206 100.82L34.159 111.45C31.2712 114.25 29.6489 118.048 29.6489 122.008C29.6489 125.968 31.2712 129.766 34.159 132.566C37.0466 135.367 40.9632 136.94 45.0471 136.94C48.115 136.94 51.0885 136.052 53.6023 134.423L47.8495 140.001C44.9617 142.802 43.3394 146.6 43.3394 150.559C43.3394 154.52 44.9617 158.318 47.8495 161.118C50.7372 163.918 54.6538 165.491 58.7379 165.491C61.8056 165.491 64.7791 164.603 67.293 162.975L65.8873 164.337C62.9998 167.138 61.3776 170.936 61.3776 174.895C61.3776 178.856 62.9998 182.654 65.8873 185.454C68.7754 188.254 72.692 189.827 76.7755 189.827C80.8596 189.827 84.7762 188.254 87.6637 185.454L102.255 171.304C100.576 173.742 99.6601 176.625 99.6601 179.6C99.6601 183.56 101.282 187.358 104.17 190.159C107.058 192.959 110.974 194.532 115.059 194.532C119.142 194.532 123.059 192.959 125.947 190.159L148.117 168.66C146.438 171.097 145.522 173.98 145.522 176.956C145.522 180.916 147.144 184.714 150.032 187.514C152.919 190.314 156.836 191.887 160.92 191.887C165.004 191.887 168.92 190.314 171.808 187.514L206.324 154.044C209.212 151.244 210.834 147.446 210.834 143.486C210.834 139.526 209.212 135.728 206.324 132.928C203.436 130.127 199.52 128.554 195.436 128.554C192.368 128.554 189.394 129.442 186.881 131.071L194.106 124.065C196.993 121.265 198.615 117.467 198.615 113.506C198.615 109.547 196.993 105.749 194.106 102.948C191.218 100.148 187.301 98.5752 183.217 98.5752C180.149 98.5752 177.176 99.4628 174.662 101.092L189.254 86.9423C192.142 84.1423 193.764 80.3438 193.764 76.3841C193.764 72.4238 192.142 68.6258 189.254 65.8258C186.366 63.0253 182.449 61.4522 178.366 61.4522C175.298 61.4522 172.325 62.3404 169.811 63.9689L179.103 54.9579C181.991 52.1579 183.613 48.36 183.613 44.3997C183.613 40.4399 181.991 36.642 179.103 33.8414C176.215 31.0414 172.299 29.4684 168.215 29.4684C164.131 29.4684 160.214 31.0414 157.327 33.8414L136.628 53.9129C138.308 51.4753 139.223 48.5918 139.223 45.6171C139.223 41.6568 137.601 37.8589 134.714 35.0589C131.826 32.2583 127.909 30.6853 123.826 30.6853C119.742 30.6853 115.825 32.2583 112.937 35.0589L83.8834 63.2319C85.5633 60.7943 86.4792 57.9108 86.4792 54.9361C86.4792 50.9758 84.857 47.1778 81.969 44.3778C79.0815 41.5773 75.1649 40.0042 71.0808 40.0042C66.9973 40.0042 63.0807 41.5773 60.1926 44.3778L25.677 77.8474C22.7892 80.6479 21.167 84.4458 21.167 88.4056C21.167 92.3659 22.7892 96.1638 25.677 98.9638Z" fill="white"/>
<path d="M210.38 162.609L209.314 163.642C208.898 164.046 208.898 164.7 209.314 165.104C209.731 165.508 210.406 165.508 210.822 165.104L211.888 164.071L212.953 165.104C213.369 165.508 214.045 165.508 214.461 165.104C214.877 164.7 214.877 164.046 214.461 163.642L213.396 162.609L214.461 161.575C214.877 161.172 214.877 160.517 214.461 160.113C214.253 159.911 213.98 159.81 213.707 159.81C213.434 159.81 213.162 159.911 212.953 160.113L211.888 161.146L210.822 160.113C210.614 159.911 210.341 159.81 210.068 159.81C209.795 159.81 209.523 159.911 209.314 160.113C208.898 160.517 208.898 161.172 209.314 161.575L210.38 162.609Z" fill="white"/>
<path d="M58.1355 184.868L57.0701 185.901C56.6537 186.305 56.6537 186.959 57.0701 187.363C57.4866 187.767 58.1618 187.767 58.5785 187.363L59.6434 186.33L60.7089 187.363C61.1253 187.767 61.8004 187.767 62.2168 187.363C62.6337 186.959 62.6337 186.305 62.2168 185.901L61.1519 184.868L62.2168 183.835C62.6337 183.431 62.6337 182.776 62.2168 182.372C62.0089 182.17 61.7357 182.07 61.4631 182.07C61.19 182.07 60.9174 182.17 60.7089 182.372L59.6434 183.406L58.5785 182.372C58.37 182.17 58.0971 182.07 57.8242 182.07C57.5513 182.07 57.2784 182.17 57.0701 182.372C56.6537 182.776 56.6537 183.431 57.0701 183.835L58.1355 184.868Z" fill="white"/>
<path d="M30.8748 93.2885L29.8094 94.3217C29.393 94.7254 29.393 95.3801 29.8094 95.7838C30.2259 96.1876 30.901 96.1876 31.3174 95.7838L32.3829 94.7507L33.4482 95.7838C33.8647 96.1876 34.5398 96.1876 34.9562 95.7838C35.3727 95.3801 35.3727 94.7254 34.9562 94.3217L33.8909 93.2885L34.9562 92.2553C35.3727 91.8515 35.3727 91.1969 34.9562 90.7931C34.748 90.591 34.4751 90.4902 34.2022 90.4902C33.9293 90.4902 33.6564 90.591 33.4482 90.7931L32.3829 91.8263L31.3174 90.7931C31.1092 90.591 30.8363 90.4902 30.5634 90.4902C30.2905 90.4902 30.0176 90.591 29.8094 90.7931C29.393 91.1969 29.393 91.8515 29.8094 92.2553L30.8748 93.2885Z" fill="white"/>
<path d="M159.113 40.1913L158.048 41.2245C157.631 41.6283 157.631 42.2829 158.048 42.6867C158.464 43.0904 159.139 43.0904 159.555 42.6867L160.621 41.6535L161.686 42.6867C162.103 43.0904 162.778 43.0904 163.194 42.6867C163.611 42.2829 163.611 41.6283 163.194 41.2245L162.129 40.1913L163.194 39.1581C163.611 38.7544 163.611 38.0997 163.194 37.696C162.986 37.4938 162.713 37.393 162.441 37.393C162.168 37.393 161.895 37.4938 161.686 37.696L160.621 38.7292L159.555 37.696C159.348 37.4938 159.074 37.393 158.802 37.393C158.529 37.393 158.256 37.4938 158.048 37.696C157.631 38.0997 157.631 38.7544 158.048 39.1581L159.113 40.1913Z" fill="white"/>
<path d="M139.606 190.282C140.147 190.282 140.588 189.854 140.588 189.329C140.588 188.804 140.147 188.376 139.606 188.376C139.065 188.376 138.624 188.804 138.624 189.329C138.624 189.854 139.065 190.282 139.606 190.282ZM139.606 186.308C141.324 186.308 142.721 187.664 142.721 189.329C142.721 190.994 141.324 192.35 139.606 192.35C137.888 192.35 136.491 190.994 136.491 189.329C136.491 187.664 137.888 186.308 139.606 186.308Z" fill="white"/>
<path d="M198.314 94.0296C198.856 94.0296 199.297 93.6023 199.297 93.077C199.297 92.5517 198.856 92.1245 198.314 92.1245C197.773 92.1245 197.332 92.5517 197.332 93.077C197.332 93.6023 197.773 94.0296 198.314 94.0296ZM198.314 90.0564C200.032 90.0564 201.429 91.4116 201.429 93.077C201.429 94.7425 200.032 96.0977 198.314 96.0977C196.597 96.0977 195.199 94.7425 195.199 93.077C195.199 91.4116 196.597 90.0564 198.314 90.0564Z" fill="white"/>
<path d="M67.9119 45.5513C68.4536 45.5513 68.8942 45.124 68.8942 44.5987C68.8942 44.0735 68.4536 43.6462 67.9119 43.6462C67.3702 43.6462 66.9296 44.0735 66.9296 44.5987C66.9296 45.124 67.3702 45.5513 67.9119 45.5513ZM67.9119 41.5781C69.6294 41.5781 71.0269 42.9333 71.0269 44.5987C71.0269 46.2647 69.6294 47.6194 67.9119 47.6194C66.1944 47.6194 64.7969 46.2647 64.7969 44.5987C64.7969 42.9333 66.1944 41.5781 67.9119 41.5781Z" fill="white"/>
<path d="M31.6218 139.864C32.1634 139.864 32.604 139.437 32.604 138.911C32.604 138.386 32.1634 137.959 31.6218 137.959C31.0802 137.959 30.6395 138.386 30.6395 138.911C30.6395 139.437 31.0802 139.864 31.6218 139.864ZM31.6218 135.891C33.3394 135.891 34.7367 137.246 34.7367 138.911C34.7367 140.577 33.3394 141.932 31.6218 141.932C29.9042 141.932 28.5068 140.577 28.5068 138.911C28.5068 137.246 29.9042 135.891 31.6218 135.891Z" fill="white"/>
<path d="M25.677 98.9638C28.5647 101.764 32.4814 103.337 36.5653 103.337C39.6332 103.337 42.6067 102.449 45.1206 100.82L34.159 111.45C31.2712 114.25 29.6489 118.048 29.6489 122.008C29.6489 125.968 31.2712 129.766 34.159 132.566C37.0466 135.367 40.9632 136.94 45.0471 136.94C48.115 136.94 51.0885 136.052 53.6023 134.423L47.8495 140.001C44.9617 142.802 43.3394 146.6 43.3394 150.559C43.3394 154.52 44.9617 158.318 47.8495 161.118C50.7372 163.918 54.6538 165.491 58.7379 165.491C61.8056 165.491 64.7791 164.603 67.293 162.975L65.8873 164.337C62.9998 167.138 61.3776 170.936 61.3776 174.895C61.3776 178.856 62.9998 182.654 65.8873 185.454C68.7754 188.254 72.692 189.827 76.7755 189.827C80.8596 189.827 84.7762 188.254 87.6637 185.454L102.255 171.304C100.576 173.742 99.6601 176.625 99.6601 179.6C99.6601 183.56 101.282 187.358 104.17 190.159C107.058 192.959 110.974 194.532 115.059 194.532C119.142 194.532 123.059 192.959 125.947 190.159L148.117 168.66C146.438 171.097 145.522 173.98 145.522 176.956C145.522 180.916 147.144 184.714 150.032 187.514C152.919 190.314 156.836 191.887 160.92 191.887C165.004 191.887 168.92 190.314 171.808 187.514L206.324 154.044C209.212 151.244 210.834 147.446 210.834 143.486C210.834 139.526 209.212 135.728 206.324 132.928C203.436 130.127 199.52 128.554 195.436 128.554C192.368 128.554 189.394 129.442 186.881 131.071L194.106 124.065C196.993 121.265 198.615 117.467 198.615 113.506C198.615 109.547 196.993 105.749 194.106 102.948C191.218 100.148 187.301 98.5752 183.217 98.5752C180.149 98.5752 177.176 99.4628 174.662 101.092L189.254 86.9423C192.142 84.1423 193.764 80.3438 193.764 76.3841C193.764 72.4238 192.142 68.6258 189.254 65.8258C186.366 63.0253 182.449 61.4522 178.366 61.4522C175.298 61.4522 172.325 62.3404 169.811 63.9689L179.103 54.9579C181.991 52.1579 183.613 48.36 183.613 44.3997C183.613 40.4399 181.991 36.642 179.103 33.8414C176.215 31.0414 172.299 29.4684 168.215 29.4684C164.131 29.4684 160.214 31.0414 157.327 33.8414L136.628 53.9129C138.308 51.4753 139.223 48.5918 139.223 45.6171C139.223 41.6568 137.601 37.8589 134.714 35.0589C131.826 32.2583 127.909 30.6853 123.826 30.6853C119.742 30.6853 115.825 32.2583 112.937 35.0589L83.8834 63.2319C85.5633 60.7943 86.4792 57.9108 86.4792 54.9361C86.4792 50.9758 84.857 47.1778 81.969 44.3778C79.0815 41.5773 75.1649 40.0042 71.0808 40.0042C66.9973 40.0042 63.0807 41.5773 60.1926 44.3778L25.677 77.8474C22.7892 80.6479 21.167 84.4458 21.167 88.4056C21.167 92.3659 22.7892 96.1638 25.677 98.9638Z" fill="#E9E8E7"/>
<path d="M210.38 162.609L209.314 163.642C208.898 164.046 208.898 164.7 209.314 165.104C209.731 165.508 210.406 165.508 210.822 165.104L211.888 164.071L212.953 165.104C213.369 165.508 214.045 165.508 214.461 165.104C214.877 164.7 214.877 164.046 214.461 163.642L213.396 162.609L214.461 161.575C214.877 161.172 214.877 160.517 214.461 160.113C214.253 159.911 213.98 159.81 213.707 159.81C213.434 159.81 213.162 159.911 212.953 160.113L211.888 161.146L210.822 160.113C210.614 159.911 210.341 159.81 210.068 159.81C209.795 159.81 209.523 159.911 209.314 160.113C208.898 160.517 208.898 161.172 209.314 161.575L210.38 162.609Z" fill="#13ADE1"/>
<path d="M58.1355 184.868L57.0701 185.901C56.6537 186.305 56.6537 186.959 57.0701 187.363C57.4866 187.767 58.1618 187.767 58.5785 187.363L59.6434 186.33L60.7089 187.363C61.1253 187.767 61.8004 187.767 62.2168 187.363C62.6337 186.959 62.6337 186.305 62.2168 185.901L61.1519 184.868L62.2168 183.835C62.6337 183.431 62.6337 182.776 62.2168 182.372C62.0089 182.17 61.7357 182.07 61.4631 182.07C61.19 182.07 60.9174 182.17 60.7089 182.372L59.6434 183.406L58.5785 182.372C58.37 182.17 58.0971 182.07 57.8242 182.07C57.5513 182.07 57.2784 182.17 57.0701 182.372C56.6537 182.776 56.6537 183.431 57.0701 183.835L58.1355 184.868Z" fill="#13ADE1"/>
<path d="M30.8748 93.2885L29.8094 94.3217C29.393 94.7254 29.393 95.3801 29.8094 95.7838C30.2259 96.1876 30.901 96.1876 31.3174 95.7838L32.3829 94.7507L33.4482 95.7838C33.8647 96.1876 34.5398 96.1876 34.9562 95.7838C35.3727 95.3801 35.3727 94.7254 34.9562 94.3217L33.8909 93.2885L34.9562 92.2553C35.3727 91.8515 35.3727 91.1969 34.9562 90.7931C34.748 90.591 34.4751 90.4902 34.2022 90.4902C33.9293 90.4902 33.6564 90.591 33.4482 90.7931L32.3829 91.8263L31.3174 90.7931C31.1092 90.591 30.8363 90.4902 30.5634 90.4902C30.2905 90.4902 30.0176 90.591 29.8094 90.7931C29.393 91.1969 29.393 91.8515 29.8094 92.2553L30.8748 93.2885Z" fill="#13ADE1"/>
<path d="M159.113 40.1913L158.048 41.2245C157.631 41.6283 157.631 42.2829 158.048 42.6867C158.464 43.0904 159.139 43.0904 159.555 42.6867L160.621 41.6535L161.686 42.6867C162.103 43.0904 162.778 43.0904 163.194 42.6867C163.611 42.2829 163.611 41.6283 163.194 41.2245L162.129 40.1913L163.194 39.1581C163.611 38.7544 163.611 38.0997 163.194 37.696C162.986 37.4938 162.713 37.393 162.441 37.393C162.168 37.393 161.895 37.4938 161.686 37.696L160.621 38.7292L159.555 37.696C159.348 37.4938 159.074 37.393 158.802 37.393C158.529 37.393 158.256 37.4938 158.048 37.696C157.631 38.0997 157.631 38.7544 158.048 39.1581L159.113 40.1913Z" fill="#13ADE1"/>
<path d="M139.606 190.282C140.147 190.282 140.588 189.854 140.588 189.329C140.588 188.804 140.147 188.376 139.606 188.376C139.065 188.376 138.624 188.804 138.624 189.329C138.624 189.854 139.065 190.282 139.606 190.282ZM139.606 186.308C141.324 186.308 142.721 187.664 142.721 189.329C142.721 190.994 141.324 192.35 139.606 192.35C137.888 192.35 136.491 190.994 136.491 189.329C136.491 187.664 137.888 186.308 139.606 186.308Z" fill="#13ADE1"/>
<path d="M198.314 94.0296C198.856 94.0296 199.297 93.6023 199.297 93.077C199.297 92.5517 198.856 92.1245 198.314 92.1245C197.773 92.1245 197.332 92.5517 197.332 93.077C197.332 93.6023 197.773 94.0296 198.314 94.0296ZM198.314 90.0564C200.032 90.0564 201.429 91.4116 201.429 93.077C201.429 94.7425 200.032 96.0977 198.314 96.0977C196.597 96.0977 195.199 94.7425 195.199 93.077C195.199 91.4116 196.597 90.0564 198.314 90.0564Z" fill="#13ADE1"/>
<path d="M67.9119 45.5513C68.4536 45.5513 68.8942 45.124 68.8942 44.5987C68.8942 44.0735 68.4536 43.6462 67.9119 43.6462C67.3702 43.6462 66.9296 44.0735 66.9296 44.5987C66.9296 45.124 67.3702 45.5513 67.9119 45.5513ZM67.9119 41.5781C69.6294 41.5781 71.0269 42.9333 71.0269 44.5987C71.0269 46.2647 69.6294 47.6194 67.9119 47.6194C66.1944 47.6194 64.7969 46.2647 64.7969 44.5987C64.7969 42.9333 66.1944 41.5781 67.9119 41.5781Z" fill="#13ADE1"/>
<path d="M31.6218 139.864C32.1634 139.864 32.604 139.437 32.604 138.911C32.604 138.386 32.1634 137.959 31.6218 137.959C31.0802 137.959 30.6395 138.386 30.6395 138.911C30.6395 139.437 31.0802 139.864 31.6218 139.864ZM31.6218 135.891C33.3394 135.891 34.7367 137.246 34.7367 138.911C34.7367 140.577 33.3394 141.932 31.6218 141.932C29.9042 141.932 28.5068 140.577 28.5068 138.911C28.5068 137.246 29.9042 135.891 31.6218 135.891Z" fill="#13ADE1"/>
<path d="M113.034 147.182H58.973C55.8158 147.182 53.2471 144.692 53.2471 141.63C53.2471 138.568 55.8158 136.077 58.973 136.077H103.1C103.336 136.427 103.579 136.772 103.826 137.114C104.109 137.504 104.4 137.887 104.698 138.265C105.916 140.016 107.279 141.678 108.767 143.222C109.477 143.96 110.233 144.687 111.015 145.383L113.034 147.182Z" fill="white"/>
<path d="M99.8005 130.026H81.1345C77.9773 130.026 75.4092 127.535 75.4092 124.473C75.4092 121.412 77.9773 118.921 81.1345 118.921H97.0521C97.0539 118.947 97.0562 118.974 97.0585 119C97.0856 119.321 97.118 119.639 97.1532 119.957C97.3051 121.322 97.5321 122.666 97.8341 123.982C98.2274 125.699 98.7454 127.372 99.3772 128.99C99.5129 129.337 99.6538 129.682 99.7999 130.025L99.8005 130.026Z" fill="#B1B1B0"/>
<path d="M99.8737 101.763C99.8488 101.82 99.8246 101.876 99.8003 101.932C99.6779 102.22 99.5595 102.508 99.444 102.799C98.7822 104.47 98.2416 106.198 97.8345 107.975C97.5452 109.237 97.324 110.524 97.1727 111.832C97.1328 112.176 97.097 112.521 97.067 112.868H57.1156C53.9584 112.868 51.3896 110.377 51.3896 107.316C51.3896 104.254 53.9584 101.763 57.1156 101.763H99.8737Z" fill="white"/>
<path d="M113.251 84.6056L111.201 86.4088C110.347 87.1604 109.528 87.9427 108.767 88.7334C107.281 90.2751 105.919 91.9355 104.702 93.6855L104.7 93.6883C104.445 94.0125 104.194 94.3418 103.949 94.6744C103.699 95.0155 103.453 95.3604 103.215 95.7104H81.1345C77.9773 95.7104 75.4092 93.2196 75.4092 90.158C75.4092 87.0965 77.9773 84.6056 81.1345 84.6056H113.251Z" fill="#B1B1B0"/>
<path d="M176.542 95.2882C176.542 97.0556 175.833 98.7171 174.544 99.967L139.95 133.513C138.117 135.29 135.68 136.269 133.087 136.269C130.495 136.269 128.058 135.29 126.225 133.513L113.541 121.213C112.78 120.475 112.203 119.563 111.873 118.574C111.493 117.433 111.439 116.211 111.717 115.041C112.004 113.835 112.635 112.733 113.541 111.855C113.619 111.779 113.701 111.704 113.784 111.63C115.041 110.525 116.668 109.917 118.366 109.917C120.188 109.917 121.902 110.605 123.191 111.855L133.087 121.451L160.92 94.4622H160.92L164.894 90.6094C166.183 89.3595 167.896 88.6713 169.719 88.6713C171.541 88.6713 173.255 89.3595 174.544 90.6094C175.833 91.8594 176.542 93.5209 176.542 95.2882Z" fill="#13ADE1"/>
<path d="M178.823 98.87C178.327 100.055 177.601 101.116 176.665 102.023L171.559 106.975C172.307 109.856 172.705 112.872 172.705 115.978C172.705 136.268 155.743 152.716 134.819 152.716C127.197 152.716 120.102 150.534 114.16 146.778C113.236 146.194 112.34 145.572 111.474 144.914C111.411 144.867 111.348 144.819 111.285 144.771C110.424 144.108 109.593 143.41 108.795 142.678C108.221 142.152 107.664 141.609 107.125 141.049C106.27 140.161 105.46 139.232 104.698 138.265C104.4 137.887 104.109 137.504 103.826 137.114C103.579 136.772 103.336 136.427 103.101 136.077C102.87 135.736 102.645 135.391 102.426 135.042C102.418 135.03 102.41 135.017 102.403 135.005C101.611 133.739 100.895 132.422 100.263 131.061C100.103 130.718 99.9491 130.373 99.8007 130.025L99.8001 130.024C99.654 129.682 99.5131 129.337 99.3774 128.989C98.7456 127.371 98.2276 125.698 97.8343 123.981C97.5323 122.665 97.3053 121.321 97.1534 119.956C97.1182 119.639 97.0858 119.32 97.0587 119C97.0564 118.973 97.0541 118.947 97.0524 118.92C97.0241 118.576 97.001 118.231 96.9825 117.884C96.949 117.253 96.9317 116.617 96.9317 115.978C96.9317 115.282 96.9524 114.59 96.9923 113.904C97.0102 113.587 97.0327 113.271 97.0587 112.956C97.061 112.927 97.0639 112.897 97.0668 112.868C97.0968 112.521 97.1326 112.176 97.1725 111.832C97.3238 110.524 97.545 109.237 97.8343 107.975C98.2414 106.198 98.782 104.469 99.4438 102.799C99.5593 102.508 99.6777 102.219 99.8001 101.932C99.8244 101.875 99.8486 101.819 99.8734 101.763C100.024 101.415 100.18 101.069 100.341 100.727C100.954 99.4255 101.643 98.1649 102.403 96.9508C102.446 96.8825 102.488 96.8142 102.532 96.7464C102.753 96.397 102.981 96.0515 103.215 95.7104C103.453 95.3604 103.699 95.0155 103.949 94.6744C104.194 94.3418 104.445 94.0125 104.7 93.6883L104.702 93.6855C105.462 92.7206 106.271 91.7932 107.125 90.9073C108.414 89.5695 109.805 88.3246 111.285 87.185C111.381 87.1116 111.477 87.0388 111.573 86.966C112.442 86.3103 113.341 85.6909 114.268 85.1096C120.188 81.3957 127.243 79.2397 134.819 79.2397C145.197 79.2397 154.6 83.2863 161.442 89.8411L162.772 88.5514C163.709 87.6436 164.802 86.9397 166.024 86.4592C167.202 85.9961 168.445 85.7615 169.719 85.7615C170.992 85.7615 172.235 85.9961 173.413 86.4592C174.634 86.9397 175.729 87.6436 176.665 88.552C176.918 88.7972 177.155 89.0532 177.377 89.3197C177.976 90.041 178.461 90.8401 178.823 91.7053C179.3 92.8477 179.542 94.0528 179.542 95.2876C179.542 96.5224 179.3 97.7276 178.823 98.87ZM180.45 93.4755C180.319 92.7385 180.106 92.0167 179.813 91.3161C179.263 90.0024 178.458 88.8258 177.421 87.8195C176.383 86.8126 175.17 86.0325 173.814 85.4994C173.665 85.4406 173.515 85.3852 173.363 85.3336C172.193 84.9299 170.969 84.7255 169.719 84.7255C168.307 84.7255 166.929 84.9859 165.623 85.4994C164.302 86.0191 163.115 86.7734 162.095 87.7439C162.069 87.7685 162.042 87.7937 162.016 87.8189L161.427 88.3901C158.035 85.309 154.151 82.868 149.869 81.1269C148.498 80.5692 147.102 80.0904 145.685 79.6922C142.174 78.7027 138.535 78.2037 134.819 78.2037C130.412 78.2037 126.087 78.9121 121.965 80.3088C119.46 81.1577 117.062 82.2492 114.794 83.5696C114.225 83.9006 113.666 84.2461 113.114 84.6056C112.902 84.744 112.691 84.8845 112.481 85.0279C111.952 85.388 111.43 85.7615 110.917 86.1484C110.818 86.2229 110.719 86.298 110.621 86.3736C110.313 86.611 110.008 86.8529 109.707 87.0999C108.524 88.0676 107.397 89.1075 106.344 90.2006C105.462 91.1156 104.62 92.0822 103.833 93.0835C103.576 93.41 103.325 93.7398 103.08 94.073C102.934 94.2718 102.789 94.4723 102.646 94.6744C102.405 95.0166 102.169 95.3627 101.941 95.7104C101.848 95.851 101.757 95.9916 101.667 96.1327C101.607 96.2262 101.548 96.3197 101.489 96.4132C101.42 96.5241 101.351 96.635 101.284 96.7464C100.99 97.2252 100.708 97.7119 100.437 98.2047C99.9826 99.0301 99.5593 99.8729 99.1706 100.727C99.0476 100.995 98.9287 101.265 98.8132 101.536C98.7814 101.61 98.7491 101.686 98.7173 101.763C98.6595 101.901 98.6012 102.041 98.5435 102.185C98.5111 102.265 98.4788 102.346 98.4464 102.427C98.3974 102.551 98.3494 102.675 98.3015 102.799C98.1167 103.281 97.9417 103.767 97.7771 104.257C97.3902 105.407 97.0604 106.576 96.7913 107.75C96.4939 109.047 96.2652 110.381 96.1105 111.716C96.1058 111.755 96.1012 111.794 96.0972 111.832C96.0562 112.195 96.0221 112.535 95.995 112.868L95.9944 112.872C95.9828 113.011 95.9719 113.151 95.9615 113.29C95.9464 113.494 95.9337 113.699 95.9222 113.904C95.8945 114.39 95.8766 114.877 95.8685 115.362C95.865 115.567 95.8633 115.773 95.8633 115.978C95.8633 116.61 95.88 117.247 95.9129 117.884C95.9308 118.23 95.9534 118.576 95.9817 118.92C95.9851 118.975 95.9898 119.029 95.9944 119.084C96.0013 119.168 96.0094 119.254 96.0175 119.342C96.0348 119.535 96.0556 119.737 96.0793 119.956C96.0833 119.993 96.0874 120.03 96.0914 120.067C96.1411 120.517 96.1994 120.966 96.2664 121.414C96.4056 122.356 96.5817 123.291 96.7913 124.205C96.9692 124.981 97.1736 125.754 97.4029 126.521C97.6518 127.353 97.9302 128.178 98.2374 128.989C98.2836 129.112 98.3304 129.234 98.3783 129.356C98.4661 129.58 98.5562 129.804 98.6474 130.025C98.7023 130.158 98.7577 130.29 98.8132 130.42C98.905 130.635 98.9985 130.848 99.0938 131.061C99.7077 132.425 100.407 133.759 101.182 135.042C101.283 135.21 101.385 135.377 101.489 135.543C101.601 135.721 101.715 135.899 101.83 136.077C102.056 136.425 102.289 136.771 102.529 137.114C102.668 137.314 102.81 137.513 102.953 137.71C103.236 138.1 103.527 138.484 103.826 138.864C104.616 139.869 105.459 140.837 106.344 141.756C107.664 143.127 109.104 144.415 110.621 145.582C110.673 145.622 110.724 145.661 110.776 145.701L110.815 145.73C111.482 146.236 112.164 146.721 112.86 147.182C113.401 147.542 113.951 147.887 114.509 148.218C116.841 149.603 119.314 150.744 121.902 151.625C123.154 152.052 124.425 152.415 125.711 152.714L125.72 152.716H125.721C128.686 153.405 131.732 153.752 134.819 153.752C137.919 153.752 140.965 153.405 143.927 152.716C145.989 152.237 148.01 151.592 149.981 150.784C154.62 148.881 158.787 146.157 162.364 142.689C165.941 139.22 168.75 135.18 170.711 130.682C172.743 126.024 173.773 121.077 173.773 115.978C173.773 113.046 173.426 110.128 172.738 107.296L177.42 102.756C178.458 101.75 179.263 100.573 179.813 99.2592C180.342 97.993 180.611 96.6568 180.611 95.2876C180.611 94.6756 180.557 94.0708 180.45 93.4755Z" fill="#13ADE1"/>
<path d="M115.044 122.671C115.021 122.648 114.997 122.625 114.973 122.602L113.541 121.213C112.78 120.475 112.203 119.563 111.873 118.574C111.493 117.433 111.439 116.211 111.717 115.041C112.004 113.835 112.635 112.733 113.541 111.855C113.619 111.779 113.701 111.704 113.784 111.63C115.041 110.525 116.668 109.917 118.366 109.917C120.188 109.917 121.902 110.605 123.191 111.855L124.694 113.313L133.087 121.451L160.92 94.4622H160.92L164.894 90.6094C166.183 89.3595 167.896 88.6713 169.719 88.6713C171.541 88.6713 173.255 89.3595 174.544 90.6094C174.798 90.8558 175.03 91.1185 175.237 91.3951C176.085 92.519 176.542 93.8698 176.542 95.2882C176.542 97.0556 175.833 98.7171 174.544 99.967L139.95 133.513C138.117 135.29 135.68 136.269 133.087 136.269C130.495 136.269 128.058 135.29 126.225 133.513L115.044 122.671ZM178.823 91.7059C178.461 90.8407 177.976 90.0416 177.377 89.3203C177.155 89.0538 176.918 88.7978 176.665 88.5526C175.729 87.6442 174.634 86.9403 173.413 86.4598C172.235 85.9967 170.992 85.7621 169.719 85.7621C168.445 85.7621 167.202 85.9967 166.024 86.4598C164.802 86.9403 163.709 87.6442 162.772 88.552L161.442 89.8417C154.6 83.2869 145.197 79.2403 134.819 79.2403C127.243 79.2403 120.188 81.3963 114.268 85.1102C113.341 85.6915 112.442 86.3109 111.573 86.9666C111.477 87.0394 111.381 87.1122 111.285 87.1856C109.805 88.3252 108.413 89.5701 107.125 90.9079C106.271 91.7938 105.462 92.7212 104.702 93.6861L104.7 93.6889C104.445 94.0131 104.194 94.3424 103.949 94.675C103.699 95.0161 103.453 95.361 103.215 95.711C102.981 96.0521 102.753 96.3976 102.532 96.747C102.488 96.8148 102.446 96.8831 102.403 96.9514C101.643 98.1655 100.954 99.4261 100.341 100.728C100.18 101.07 100.024 101.415 99.8734 101.764C99.8486 101.82 99.8243 101.876 99.8001 101.933C99.6777 102.22 99.5593 102.509 99.4438 102.8C98.782 104.47 98.2414 106.198 97.8343 107.976C97.545 109.238 97.3238 110.525 97.1725 111.832C97.1326 112.177 97.0968 112.522 97.0668 112.868C97.0639 112.897 97.061 112.927 97.0587 112.957C97.0327 113.272 97.0102 113.587 96.9923 113.904C96.9524 114.591 96.9316 115.282 96.9316 115.979C96.9316 116.618 96.949 117.253 96.9825 117.885C97.0009 118.231 97.024 118.576 97.0523 118.921C97.0541 118.947 97.0564 118.974 97.0587 119C97.0858 119.321 97.1182 119.639 97.1534 119.957C97.3053 121.322 97.5322 122.666 97.8343 123.982C98.2276 125.699 98.7456 127.372 99.3774 128.99C99.5131 129.337 99.654 129.682 99.8001 130.024L99.8007 130.026C99.9491 130.374 100.103 130.719 100.263 131.062C100.895 132.422 101.611 133.74 102.403 135.006C102.41 135.018 102.418 135.03 102.426 135.043C102.645 135.392 102.87 135.737 103.101 136.078C103.336 136.428 103.579 136.773 103.826 137.115C104.109 137.504 104.4 137.888 104.698 138.266C105.46 139.233 106.27 140.162 107.125 141.049C107.664 141.609 108.221 142.152 108.795 142.678C109.593 143.41 110.424 144.108 111.285 144.772C111.348 144.82 111.411 144.867 111.474 144.915C112.34 145.573 113.236 146.195 114.16 146.779C120.102 150.534 127.197 152.717 134.819 152.717C155.742 152.717 172.705 136.268 172.705 115.979C172.705 112.873 172.307 109.857 171.558 106.976L176.665 102.024C177.601 101.116 178.327 100.056 178.823 98.8706C179.3 97.7282 179.542 96.523 179.542 95.2882C179.542 94.0534 179.3 92.8483 178.823 91.7059Z" fill="#13ADE1"/>
<path d="M133.087 135.233C130.781 135.233 128.611 134.362 126.981 132.78L114.296 120.48C113.654 119.858 113.168 119.088 112.89 118.255C112.221 116.249 112.76 114.077 114.296 112.588C114.362 112.523 114.432 112.459 114.502 112.397C115.561 111.466 116.933 110.953 118.365 110.953C119.903 110.953 121.348 111.533 122.435 112.588L133.087 122.917L165.649 91.3418C166.736 90.2879 168.181 89.7071 169.718 89.7071C171.256 89.7071 172.701 90.2879 173.788 91.3418C174.875 92.3957 175.474 93.7974 175.474 95.2881C175.474 96.7788 174.875 98.1805 173.788 99.2344L139.194 132.78C137.563 134.362 135.394 135.233 133.087 135.233Z" fill="white"/>
<path d="M180.826 98.7556C180.972 98.0982 181.046 97.4267 181.046 96.7458C181.046 96.1735 180.994 95.6073 180.891 95.0512L182.656 93.3387C183.006 94.4403 183.183 95.5821 183.183 96.7458C183.183 97.3629 183.133 97.9733 183.035 98.5759C182.291 98.5843 181.553 98.6447 180.826 98.7556Z" fill="#DFDFDD"/>
<path d="M147.233 154.788H125.42C124.624 154.57 123.834 154.328 123.051 154.061C121.885 153.664 120.741 153.215 119.623 152.716C117.681 151.852 115.814 150.836 114.035 149.677H60.4767C58.9065 149.677 57.4171 149.164 56.213 148.218C56.0259 148.072 55.8452 147.914 55.6725 147.747C55.4184 147.5 55.1868 147.238 54.9789 146.961C54.7826 146.701 54.6082 146.429 54.4551 146.146C54.0713 145.437 53.8247 144.665 53.7287 143.859C54.5502 145.669 56.3404 146.977 58.4589 147.16C58.75 147.296 59.0578 147.403 59.3795 147.478C59.7312 147.561 60.099 147.605 60.4767 147.605H111.142C110.965 147.466 110.789 147.325 110.615 147.182H112.859C113.401 147.542 113.951 147.887 114.509 148.218C116.841 149.603 119.314 150.744 121.901 151.625C123.154 152.052 124.424 152.416 125.711 152.714L125.72 152.716C129.084 153.666 132.642 154.175 136.322 154.175C140.003 154.175 143.56 153.666 146.924 152.716C162.688 148.27 174.208 134.157 174.208 117.436C174.208 114.331 173.811 111.314 173.062 108.434L178.168 103.482C179.104 102.574 179.83 101.513 180.326 100.328C180.541 99.8159 180.707 99.2907 180.826 98.7559C181.552 98.645 182.291 98.5845 183.034 98.5761C182.892 99.4407 182.649 100.287 182.306 101.107C181.703 102.55 180.819 103.842 179.68 104.947L175.414 109.083C176.032 111.815 176.345 114.62 176.345 117.436C176.345 122.675 175.287 127.758 173.199 132.544C172.196 134.844 170.954 137.062 169.509 139.137C168.077 141.192 166.434 143.124 164.622 144.88C162.812 146.635 160.82 148.229 158.701 149.617C156.9 150.797 154.994 151.837 153.022 152.716C152.651 152.882 152.277 153.042 151.901 153.196C150.373 153.823 148.816 154.354 147.233 154.788ZM101.83 136.078H101.21C101.017 135.735 100.828 135.39 100.646 135.042C100.21 134.214 99.8062 133.372 99.4349 132.519H82.6383C80.8238 132.519 79.1178 131.834 77.834 130.59C77.5794 130.343 77.3478 130.08 77.1405 129.803C76.4532 128.891 76.0247 127.829 75.8908 126.702C76.7125 128.512 78.5022 129.819 80.6205 130.003C81.2303 130.287 81.9152 130.447 82.6383 130.447H98.605C98.5536 130.307 98.5028 130.166 98.4537 130.025H98.6471C98.702 130.158 98.7575 130.291 98.8129 130.42C98.9047 130.635 98.9983 130.848 99.0936 131.061C99.7074 132.425 100.407 133.759 101.182 135.042C101.283 135.21 101.385 135.377 101.489 135.543C101.6 135.721 101.714 135.9 101.83 136.078ZM95.8682 115.362H58.6189C56.8043 115.362 55.0979 114.677 53.8147 113.432C53.5606 113.186 53.329 112.923 53.1211 112.647C52.4343 111.734 52.0047 110.672 51.8711 109.545C52.6926 111.355 54.4828 112.662 56.601 112.845C57.2114 113.13 57.8961 113.29 58.6189 113.29H95.9612C95.9462 113.494 95.9335 113.699 95.9219 113.904C95.8942 114.39 95.8763 114.877 95.8682 115.362ZM100.436 98.2048H82.6383C80.8238 98.2048 79.1178 97.5194 77.834 96.2751C77.5794 96.0281 77.3478 95.7655 77.1405 95.4888C76.4538 94.576 76.0247 93.5137 75.8908 92.3875C76.7125 94.1975 78.5022 95.5045 80.6205 95.6882C81.2309 95.9727 81.9152 96.1328 82.6383 96.1328H101.667C101.607 96.2263 101.547 96.3199 101.489 96.4134C101.42 96.5243 101.351 96.6351 101.283 96.7466C100.99 97.2254 100.708 97.712 100.436 98.2048ZM180.891 95.0515C180.791 94.5161 180.644 93.9897 180.45 93.4756C180.318 92.7387 180.105 92.0168 179.812 91.3163C179.263 90.0025 178.458 88.8259 177.42 87.8196C176.383 86.8127 175.169 86.0327 173.814 85.4995C173.664 85.4407 173.514 85.3853 173.363 85.3338C174.166 85.4755 174.954 85.6972 175.719 85.9979C176.878 86.4538 177.943 87.0743 178.896 87.8493C179.166 88.0688 179.428 88.3007 179.68 88.5448C180.819 89.6497 181.703 90.9422 182.306 92.3853C182.438 92.6995 182.554 93.0175 182.656 93.339L180.891 95.0515ZM161.427 88.3903C158.034 85.3091 154.151 82.8681 149.869 81.1271C148.498 80.5693 147.102 80.0905 145.685 79.6923C147.762 80.1756 149.798 80.8219 151.786 81.6299C154.143 82.5881 156.417 83.7742 158.547 85.1557C159.775 85.952 160.961 86.8178 162.095 87.744C162.069 87.7687 162.042 87.7939 162.016 87.8191L161.427 88.3903Z" fill="#C7C6C4"/>
<path d="M112.86 147.182H110.615C110.201 146.846 109.793 146.5 109.393 146.146C108.662 145.502 107.956 144.832 107.28 144.14L107.278 144.138C107.207 144.066 107.137 143.993 107.067 143.921C105.815 142.621 104.643 141.223 103.584 139.765C103.299 139.373 103.02 138.974 102.75 138.572H60.4769C57.9047 138.572 55.8194 140.594 55.8194 143.088C55.8194 143.962 56.0752 144.777 56.5187 145.468C56.6729 145.71 56.8514 145.937 57.0494 146.146C57.4467 146.564 57.9244 146.91 58.4585 147.16H58.4591C56.3406 146.977 54.5504 145.669 53.7289 143.859C53.7289 143.859 53.7289 143.859 53.7288 143.858C53.6982 143.604 53.6826 143.347 53.6826 143.088C53.6826 141.328 54.3895 139.674 55.6727 138.429C56.9559 137.185 58.6624 136.5 60.4769 136.5H101.453C101.371 136.36 101.291 136.219 101.21 136.077H101.83C102.056 136.425 102.289 136.771 102.529 137.114C102.668 137.314 102.81 137.513 102.953 137.71C103.236 138.099 103.527 138.484 103.826 138.864C104.616 139.869 105.459 140.837 106.344 141.756C107.664 143.127 109.104 144.415 110.621 145.582C110.673 145.622 110.724 145.661 110.776 145.7L110.815 145.729C111.482 146.236 112.164 146.721 112.86 147.182Z" fill="#DFDFDD"/>
<path d="M98.6473 130.026H98.4538C98.332 129.682 98.2153 129.337 98.1039 128.99C97.8423 128.174 97.6078 127.35 97.4028 126.522C97.6517 127.354 97.9301 128.178 98.2373 128.99C98.2835 129.112 98.3303 129.234 98.3782 129.356C98.466 129.581 98.5561 129.805 98.6473 130.026ZM80.6207 130.003C78.5024 129.82 76.7127 128.513 75.8909 126.703C75.8909 126.702 75.8909 126.701 75.8909 126.7C75.8597 126.447 75.8447 126.19 75.8447 125.931C75.8447 124.172 76.551 122.517 77.8342 121.273C79.118 120.029 80.8239 119.343 82.6384 119.343H96.0174C96.0347 119.535 96.0555 119.738 96.0792 119.957C96.0832 119.993 96.0873 120.03 96.0913 120.068C96.141 120.517 96.1993 120.967 96.2663 121.415H82.6384C80.0662 121.415 77.9815 123.437 77.9815 125.931C77.9815 126.805 78.2373 127.621 78.6808 128.312C79.1463 129.039 79.8197 129.629 80.6201 130.003C80.6201 130.003 80.6201 130.003 80.6207 130.003Z" fill="#969797"/>
<path d="M56.6016 112.845C54.4834 112.662 52.6932 111.354 51.8717 109.545C51.8716 109.544 51.8715 109.543 51.8714 109.542C51.8408 109.289 51.8252 109.032 51.8252 108.773C51.8252 107.013 52.5321 105.359 53.8153 104.115C55.0985 102.87 56.8049 102.185 58.6195 102.185H98.5438C98.5114 102.265 98.4791 102.346 98.4468 102.427C98.3977 102.551 98.3497 102.674 98.3018 102.799C98.117 103.28 97.942 103.767 97.7774 104.257H58.6195C56.0474 104.257 53.962 106.279 53.962 108.773C53.962 109.647 54.2178 110.462 54.6613 111.153C55.1268 111.881 55.8001 112.471 56.6011 112.845C56.6013 112.845 56.6015 112.845 56.6016 112.845Z" fill="#DFDFDD"/>
<path d="M80.6207 95.6885C78.5024 95.5048 76.7127 94.1978 75.8909 92.3878C75.8909 92.3873 75.8909 92.3862 75.8909 92.3856C75.8603 92.1325 75.8447 91.8754 75.8447 91.6167C75.8447 89.8566 76.551 88.2024 77.8342 86.9581C79.118 85.7138 80.8239 85.0283 82.6384 85.0283H112.481C111.952 85.3884 111.43 85.7619 110.917 86.1489C110.818 86.2234 110.719 86.2984 110.621 86.374C110.313 86.6114 110.008 86.8534 109.707 87.1003H82.6384C80.0662 87.1003 77.9815 89.1225 77.9815 91.6167C77.9815 92.4903 78.2373 93.3062 78.6808 93.9973C79.1463 94.7247 79.8197 95.3138 80.6201 95.6885H80.6207Z" fill="#969797"/>
<path d="M125.711 152.714C124.424 152.415 123.154 152.052 121.901 151.625C119.314 150.744 116.841 149.603 114.509 148.218C113.951 147.887 113.4 147.542 112.859 147.182C112.163 146.721 111.481 146.236 110.814 145.73L110.776 145.7C110.724 145.661 110.672 145.622 110.621 145.582C109.103 144.415 107.664 143.127 106.343 141.756C105.459 140.837 104.616 139.869 103.826 138.864C103.526 138.484 103.235 138.1 102.953 137.71C102.81 137.513 102.668 137.314 102.528 137.114C102.289 136.771 102.056 136.425 101.83 136.077C101.714 135.899 101.6 135.721 101.489 135.543C101.385 135.377 101.283 135.21 101.182 135.042C100.407 133.759 99.7074 132.425 99.0935 131.061C98.9982 130.848 98.9047 130.635 98.8128 130.42C98.7574 130.29 98.702 130.158 98.6471 130.025C98.5558 129.804 98.4658 129.58 98.378 129.356C98.33 129.234 98.2833 129.112 98.2371 128.989C97.9298 128.177 97.6515 127.353 97.4026 126.521C97.3506 126.31 97.3004 126.099 97.2519 125.888C96.9336 124.501 96.6917 123.07 96.5329 121.636C96.5242 121.561 96.5167 121.487 96.5086 121.414H96.2661C96.1991 120.966 96.1407 120.517 96.0911 120.067C96.087 120.029 96.083 119.993 96.079 119.956C96.0553 119.737 96.0345 119.534 96.0172 119.342H96.3475C96.34 119.202 96.3336 119.061 96.3284 118.92C96.314 118.574 96.3053 118.229 96.3013 117.884C96.2996 117.735 96.2984 117.585 96.2984 117.436C96.2984 116.749 96.3175 116.055 96.3562 115.362H95.8682C95.8762 114.877 95.8942 114.39 95.9219 113.904C95.9334 113.699 95.9461 113.494 95.9611 113.29H96.5265C96.5346 113.214 96.5433 113.136 96.5525 113.059C96.56 112.995 96.5675 112.931 96.575 112.868C96.6166 112.522 96.6634 112.177 96.7148 111.832C96.8424 110.975 96.9995 110.123 97.1843 109.285C97.2062 109.185 97.2288 109.084 97.2519 108.984C97.6174 107.388 98.0927 105.801 98.6673 104.257H97.7768C97.9414 103.767 98.1164 103.28 98.3012 102.799C98.3491 102.675 98.397 102.551 98.4461 102.427C98.4785 102.346 98.5108 102.265 98.5431 102.185H99.5087C99.5711 102.044 99.634 101.903 99.6987 101.763C99.857 101.416 100.02 101.07 100.19 100.727C100.611 99.87 101.066 99.0278 101.551 98.2046H100.436C100.708 97.7118 100.99 97.2251 101.283 96.7463C101.351 96.6349 101.42 96.524 101.489 96.4131C101.547 96.3196 101.607 96.2261 101.667 96.1326H102.863C102.959 95.9915 103.056 95.8503 103.154 95.7103C103.337 95.4477 103.524 95.1867 103.713 94.9291C104.104 94.3971 104.511 93.873 104.932 93.3583L104.934 93.3555C105.612 92.5251 106.326 91.7209 107.066 90.9515C108.394 89.5733 109.837 88.278 111.358 87.0998H109.707C110.008 86.8528 110.313 86.6109 110.621 86.3735C110.719 86.2979 110.818 86.2228 110.917 86.1483C111.429 85.7614 111.952 85.3879 112.481 85.0278H114.295C114.374 84.9774 114.453 84.927 114.532 84.8771C117.215 83.1843 120.09 81.8145 123.116 80.7891C127.352 79.3539 131.795 78.6259 136.322 78.6259C139.508 78.6259 142.639 78.9832 145.685 79.6921C147.102 80.0903 148.497 80.5691 149.869 81.1268C154.151 82.8679 158.034 85.3089 161.427 88.39L162.016 87.8188C162.042 87.7936 162.069 87.7684 162.095 87.7438C162.366 87.9644 162.633 88.1896 162.898 88.4175C164.007 87.3736 165.294 86.56 166.725 85.9977C168.159 85.4338 169.672 85.1476 171.222 85.1476C171.945 85.1476 172.66 85.2098 173.363 85.3335C173.514 85.3851 173.664 85.4405 173.814 85.4993C175.169 86.0324 176.383 86.8125 177.42 87.8194C178.458 88.8257 179.263 90.0023 179.812 91.316C180.105 92.0166 180.318 92.7384 180.45 93.4754C180.411 93.3707 180.37 93.2671 180.326 93.1635C179.83 91.9785 179.105 90.9179 178.168 90.0101C177.915 89.7648 177.651 89.5347 177.377 89.3196C177.155 89.0531 176.917 88.7971 176.664 88.5519C175.728 87.6435 174.634 86.9396 173.413 86.4591C172.234 85.996 170.992 85.7614 169.718 85.7614C168.445 85.7614 167.202 85.996 166.024 86.4591C164.802 86.9396 163.708 87.6436 162.772 88.5513L161.442 89.841C154.599 83.2862 145.196 79.2396 134.818 79.2396C127.243 79.2396 120.188 81.3956 114.268 85.1095C113.341 85.6908 112.442 86.3102 111.573 86.9659C111.477 87.0387 111.381 87.1115 111.285 87.1849C109.804 88.3245 108.413 89.5694 107.124 90.9072C106.271 91.7931 105.462 92.7205 104.702 93.6854L104.7 93.6882C104.445 94.0124 104.194 94.3417 103.949 94.6743C103.698 95.0154 103.453 95.3603 103.215 95.7103C102.981 96.0514 102.753 96.3969 102.532 96.7463C102.488 96.8141 102.445 96.8824 102.403 96.9507C101.643 98.1648 100.954 99.4254 100.341 100.727C100.179 101.069 100.023 101.415 99.8731 101.763C99.8483 101.819 99.824 101.875 99.7998 101.932C99.6774 102.219 99.559 102.508 99.4435 102.799C98.7816 104.469 98.2411 106.197 97.834 107.975C97.5446 109.237 97.3235 110.524 97.1722 111.832C97.1323 112.176 97.0965 112.521 97.0665 112.868C97.0636 112.897 97.0607 112.926 97.0584 112.956C97.0324 113.271 97.0099 113.587 96.992 113.904C96.9521 114.59 96.9313 115.282 96.9313 115.978C96.9313 116.617 96.9487 117.252 96.9822 117.884C97.0006 118.231 97.0237 118.576 97.052 118.92C97.0538 118.946 97.0561 118.973 97.0584 119C97.0855 119.32 97.1179 119.639 97.1531 119.956C97.305 121.321 97.5319 122.665 97.834 123.981C98.2273 125.698 98.7453 127.371 99.3771 128.989C99.5128 129.337 99.6537 129.682 99.7998 130.024L99.8004 130.025C99.9488 130.373 100.103 130.718 100.262 131.061C100.895 132.422 101.61 133.739 102.403 135.005C102.41 135.017 102.418 135.03 102.426 135.042C102.645 135.391 102.869 135.736 103.1 136.077C103.336 136.427 103.578 136.772 103.826 137.114C104.109 137.504 104.4 137.887 104.698 138.265C105.459 139.232 106.27 140.161 107.124 141.049C107.664 141.609 108.22 142.152 108.794 142.678C110.036 143.951 111.371 145.138 112.789 146.229C112.851 146.277 112.914 146.325 112.977 146.372C113.835 147.024 114.721 147.64 115.635 148.218C115.645 148.224 115.654 148.23 115.664 148.236C118.734 150.177 122.111 151.697 125.711 152.714Z" fill="#3B6BB3"/>
<path d="M108.795 142.678C108.221 142.152 107.664 141.609 107.125 141.049C106.27 140.161 105.46 139.232 104.698 138.265C104.4 137.887 104.109 137.504 103.826 137.114C103.579 136.773 103.336 136.427 103.101 136.078C102.87 135.737 102.645 135.392 102.426 135.042C102.418 135.03 102.41 135.017 102.403 135.005C101.611 133.739 100.895 132.422 100.263 131.061C100.103 130.718 99.9491 130.373 99.8007 130.025L99.8001 130.024C99.654 129.682 99.5131 129.337 99.3774 128.989C98.7456 127.371 98.2276 125.699 97.8343 123.981C97.5322 122.665 97.3053 121.322 97.1534 119.956C97.1182 119.639 97.0858 119.32 97.0587 119C97.0564 118.973 97.0541 118.947 97.0523 118.92C97.024 118.576 97.0009 118.231 96.9825 117.884C96.949 117.253 96.9316 116.618 96.9316 115.978C96.9316 115.282 96.9524 114.59 96.9923 113.904C97.0102 113.587 97.0327 113.271 97.0587 112.956C97.061 112.927 97.0639 112.897 97.0668 112.868C97.0968 112.521 97.1326 112.176 97.1725 111.832C97.3238 110.524 97.545 109.237 97.8343 107.975C98.2414 106.198 98.782 104.469 99.4438 102.799C99.5593 102.508 99.6777 102.219 99.8001 101.932C99.8243 101.876 99.8486 101.82 99.8734 101.763C100.024 101.415 100.18 101.069 100.341 100.727C100.954 99.4256 101.643 98.165 102.403 96.9509C102.446 96.8826 102.488 96.8143 102.532 96.7465C102.753 96.3971 102.981 96.0516 103.215 95.7105C103.453 95.3605 103.699 95.0156 103.949 94.6745C104.194 94.3419 104.445 94.0126 104.7 93.6884L104.702 93.6856C105.462 92.7207 106.271 91.7933 107.125 90.9074C108.413 89.5696 109.805 88.3247 111.285 87.1851C111.381 87.1117 111.477 87.0389 111.573 86.9661C112.442 86.3104 113.341 85.691 114.268 85.1097C120.188 81.3958 127.243 79.2398 134.819 79.2398C145.197 79.2398 154.6 83.2864 161.442 89.8412L162.772 88.5515C163.709 87.6437 164.802 86.9398 166.024 86.4593C167.202 85.9962 168.445 85.7616 169.719 85.7616C170.992 85.7616 172.235 85.9962 173.413 86.4593C174.634 86.9398 175.729 87.6437 176.665 88.5521C176.918 88.7973 177.155 89.0532 177.377 89.3198C176.632 88.7385 175.808 88.2681 174.917 87.9176C173.739 87.4544 172.496 87.2198 171.222 87.2198C169.949 87.2198 168.706 87.4544 167.528 87.9176C166.306 88.398 165.212 89.102 164.276 90.0097L162.946 91.2994C156.103 84.7446 146.701 80.6981 136.322 80.6981C128.747 80.6981 121.692 82.854 115.772 86.568C114.845 87.1493 113.946 87.7686 113.077 88.4244C112.981 88.4972 112.885 88.57 112.789 88.6433C111.309 89.7829 109.917 91.0278 108.628 92.3657C107.775 93.2516 106.966 94.1789 106.206 95.1438L106.204 95.1466C105.949 95.4709 105.698 95.8001 105.453 96.1328C105.203 96.4738 104.957 96.8188 104.719 97.1688C104.485 97.5098 104.257 97.8553 104.036 98.2048C103.992 98.2725 103.949 98.3409 103.907 98.4092C103.147 99.6232 102.458 100.884 101.845 102.185C101.683 102.527 101.527 102.873 101.377 103.221C101.352 103.278 101.328 103.334 101.304 103.39C101.181 103.678 101.063 103.967 100.948 104.257C100.286 105.928 99.7452 107.656 99.3381 109.433C99.0488 110.696 98.8276 111.982 98.6763 113.29C98.6364 113.634 98.6006 113.979 98.5706 114.326C98.5677 114.355 98.5648 114.385 98.5625 114.415C98.5365 114.729 98.514 115.045 98.4961 115.362C98.4562 116.049 98.4355 116.74 98.4355 117.436C98.4355 118.076 98.4528 118.711 98.4863 119.343C98.5048 119.689 98.5279 120.034 98.5562 120.379C98.5579 120.405 98.5602 120.432 98.5625 120.458C98.5896 120.778 98.622 121.097 98.6572 121.415C98.8091 122.78 99.0361 124.123 99.3381 125.439C99.7314 127.157 100.249 128.829 100.881 130.447C101.017 130.795 101.158 131.14 101.304 131.482L101.304 131.483C101.453 131.832 101.607 132.177 101.766 132.519C102.399 133.88 103.114 135.197 103.907 136.463C103.914 136.476 103.922 136.488 103.93 136.5C104.149 136.85 104.373 137.195 104.604 137.536C104.84 137.885 105.082 138.231 105.33 138.572C105.613 138.962 105.904 139.346 106.202 139.724C106.963 140.69 107.774 141.619 108.628 142.507C108.683 142.564 108.739 142.621 108.795 142.678Z" fill="#3B6BB3"/>
<path d="M126.225 133.513L115.044 122.671C115.038 122.666 115.032 122.659 115.026 122.654L126.225 133.513Z" fill="#C7C6C4"/>
<path d="M133.087 136.269C130.495 136.269 128.058 135.29 126.225 133.513L115.026 122.654C115.008 122.636 114.991 122.619 114.973 122.602C114.248 121.876 113.696 120.99 113.377 120.032C113.239 119.621 113.145 119.199 113.093 118.773C113.38 119.406 113.789 119.989 114.296 120.48L126.98 132.78C128.304 134.063 129.981 134.879 131.799 135.141H131.799C132.676 135.479 133.619 135.655 134.591 135.655C136.613 135.655 138.513 134.892 139.942 133.506L168.819 105.504L170.244 104.122L171.66 102.749L174.536 99.9603C175.98 98.5598 176.285 96.4732 175.451 94.7831C175.451 94.7831 175.451 94.7831 175.451 94.7826C175.331 93.4828 174.751 92.276 173.788 91.3419C173.274 90.8435 172.68 90.4515 172.035 90.176C173.198 90.3087 174.294 90.7265 175.237 91.3951C176.039 92.4574 176.491 93.7225 176.538 95.0558V95.0564C176.539 95.0726 176.539 95.0889 176.54 95.1057C176.54 95.1057 176.54 95.1057 176.54 95.1062C176.54 95.1169 176.54 95.1275 176.54 95.1382C176.54 95.1387 176.54 95.1393 176.54 95.1398C176.54 95.1449 176.54 95.1499 176.541 95.155C176.541 95.1555 176.541 95.1555 176.541 95.1561C176.541 95.1611 176.541 95.1662 176.541 95.1712C176.541 95.1718 176.541 95.1718 176.541 95.1723C176.541 95.1774 176.541 95.1824 176.542 95.188C176.542 95.1886 176.542 95.1891 176.542 95.1897C176.542 95.1998 176.542 95.2098 176.542 95.2205C176.542 95.221 176.542 95.2222 176.542 95.2233C176.542 95.2278 176.542 95.2328 176.542 95.2378C176.542 95.2384 176.542 95.239 176.542 95.2401C176.542 95.2446 176.542 95.249 176.542 95.2535C176.542 95.2541 176.542 95.2552 176.542 95.2558C176.542 95.2602 176.542 95.2653 176.542 95.2703C176.542 95.2714 176.542 95.2726 176.542 95.2731C176.542 95.2782 176.542 95.2832 176.542 95.2882C176.542 97.0556 175.832 98.7171 174.543 99.967L139.949 133.513C138.116 135.29 135.679 136.269 133.087 136.269Z" fill="#3B6BB3"/>
<path d="M134.591 137.726C131.999 137.726 129.562 136.747 127.729 134.97L126.226 133.512L115.045 122.67C115.021 122.647 114.997 122.624 114.974 122.601C114.992 122.618 115.009 122.635 115.027 122.653C115.033 122.658 115.039 122.665 115.045 122.67L126.226 133.512C128.059 135.289 130.496 136.268 133.088 136.268C135.68 136.268 138.117 135.289 139.95 133.512L174.544 99.9661C175.833 98.7162 176.543 97.0546 176.543 95.2873C176.543 95.2822 176.543 95.2772 176.543 95.2722C176.543 95.2716 176.543 95.2705 176.543 95.2694C176.543 95.2643 176.543 95.2593 176.543 95.2548C176.543 95.2542 176.543 95.2531 176.543 95.2526C176.543 95.2481 176.543 95.2436 176.543 95.2391C176.543 95.238 176.543 95.2374 176.543 95.2369C176.543 95.2318 176.542 95.2268 176.542 95.2223C176.542 95.2212 176.542 95.2201 176.542 95.2195C176.542 95.2089 176.542 95.1988 176.542 95.1887C176.542 95.1882 176.542 95.1876 176.542 95.187C176.541 95.1814 176.541 95.1764 176.541 95.1714C176.541 95.1708 176.541 95.1708 176.541 95.1702C176.541 95.1652 176.541 95.1602 176.541 95.1551C176.541 95.1546 176.541 95.1546 176.541 95.154C176.541 95.149 176.541 95.1439 176.541 95.1389C176.541 95.1383 176.541 95.1378 176.541 95.1372C176.541 95.1266 176.54 95.1159 176.54 95.1053C176.54 95.1047 176.54 95.1047 176.54 95.1047C176.54 95.0879 176.539 95.0717 176.539 95.0554V95.0549C176.491 93.7215 176.039 92.4565 175.237 91.3942C175.523 91.5952 175.794 91.8203 176.048 92.0667C177.337 93.3166 178.046 94.9782 178.046 96.7455C178.046 98.5129 177.337 100.174 176.048 101.424L141.454 134.97C139.621 136.747 137.184 137.726 134.591 137.726Z" fill="#3B6BB3"/>
<path d="M133.088 121.451L124.68 113.298C124.685 113.303 124.69 113.307 124.695 113.312L133.088 121.451Z" fill="#C7C6C4"/>
<path d="M133.087 122.917L122.435 112.588C121.922 112.089 121.328 111.697 120.683 111.422C122.191 111.594 123.587 112.246 124.679 113.298L133.087 121.451L133.843 122.185L133.087 122.917Z" fill="#3B6BB3"/>
<path d="M131.799 135.141C129.981 134.879 128.304 134.063 126.981 132.78L114.296 120.48C113.789 119.989 113.38 119.406 113.093 118.773C113.093 118.772 113.093 118.772 113.093 118.771C113.001 118.016 113.043 117.247 113.221 116.499C113.508 115.293 114.139 114.192 115.044 113.313C115.123 113.237 115.205 113.162 115.288 113.088C116.545 111.983 118.172 111.375 119.869 111.375C120.143 111.375 120.415 111.391 120.682 111.422C120.683 111.422 120.683 111.422 120.683 111.422C121.328 111.697 121.922 112.089 122.435 112.588L133.087 122.917L133.843 122.184L134.591 122.91L162.424 95.9204H162.424L166.397 92.0676C167.686 90.8177 169.4 90.1294 171.222 90.1294C171.496 90.1294 171.767 90.1451 172.034 90.1759H172.035C172.681 90.4514 173.274 90.8434 173.788 91.3418C174.752 92.2759 175.331 93.4827 175.451 94.7825C175.227 94.3311 174.923 93.9072 174.537 93.5326C174.278 93.2817 173.997 93.0666 173.699 92.8863C172.943 92.4299 172.083 92.2014 171.222 92.2014C170.023 92.2014 168.824 92.6455 167.908 93.5326L163.935 97.3859L162.127 99.1387L134.591 125.84L133.087 124.382L123.184 114.778C122.268 113.891 121.069 113.447 119.869 113.447C118.742 113.447 117.615 113.839 116.724 114.623C116.667 114.673 116.611 114.725 116.556 114.778C115.267 116.027 114.886 117.822 115.411 119.394C115.631 120.057 116.013 120.68 116.556 121.206L127.74 132.05L129.24 133.506C129.982 134.226 130.851 134.778 131.799 135.141Z" fill="#DFDFDD"/>
<path d="M103.826 138.864C105.071 140.653 106.465 142.351 107.985 143.93C108.722 144.695 109.494 145.435 110.293 146.147H58.973C58.0721 146.147 57.2313 145.898 56.5186 145.468C55.1961 144.673 54.3155 143.251 54.3155 141.63C54.3155 139.136 56.4008 137.114 58.973 137.114H102.673C102.69 137.141 102.706 137.168 102.723 137.195C103.077 137.759 103.444 138.316 103.826 138.864ZM114.16 146.778C113.236 146.195 112.34 145.573 111.474 144.915C111.411 144.867 111.348 144.819 111.285 144.771C110.424 144.108 109.593 143.41 108.795 142.678C108.22 142.152 107.664 141.609 107.124 141.049C106.27 140.161 105.459 139.232 104.698 138.266C104.4 137.888 104.109 137.504 103.826 137.114C103.579 136.773 103.336 136.427 103.1 136.078C102.869 135.737 102.645 135.392 102.426 135.042H58.973C57.1585 135.042 55.452 135.727 54.1688 136.971C52.8856 138.216 52.1787 139.871 52.1787 141.63C52.1787 143.324 52.8336 144.92 54.0267 146.147C54.0729 146.195 54.1203 146.242 54.1688 146.289C54.4229 146.536 54.6937 146.76 54.979 146.961C56.015 147.695 57.2382 148.125 58.5312 148.205C58.6773 148.214 58.8252 148.219 58.973 148.219H115.777L114.16 146.778Z" fill="#2E2D2D"/>
<path d="M97.6268 124.896C97.9432 126.276 98.3359 127.644 98.7997 128.989H81.1345C80.2342 128.989 79.3928 128.741 78.6807 128.311C77.3583 127.515 76.4776 126.094 76.4776 124.472C76.4776 121.978 78.5623 119.956 81.1345 119.956H96.8194C96.9852 121.617 97.256 123.276 97.6268 124.896ZM99.8005 130.025L99.7999 130.024C99.6538 129.682 99.5129 129.337 99.3772 128.989C98.7454 127.371 98.2274 125.698 97.8341 123.981C97.5321 122.665 97.3051 121.321 97.1532 119.956C97.118 119.638 97.0857 119.32 97.0585 119C97.0562 118.973 97.0539 118.946 97.0522 118.92C97.0239 118.576 97.0008 118.231 96.9823 117.884H81.1345C79.32 117.884 77.6141 118.569 76.3303 119.814C75.0471 121.058 74.3408 122.713 74.3408 124.472C74.3408 126.232 75.0471 127.887 76.3303 129.131C76.5844 129.377 76.8553 129.602 77.1405 129.803C78.2938 130.62 79.6792 131.061 81.1345 131.061H100.262C100.103 130.718 99.9489 130.373 99.8005 130.025Z" fill="#2E2D2D"/>
<path d="M98.3791 104.258C98.0938 105.184 97.8426 106.12 97.6272 107.061C97.4586 107.795 97.3113 108.538 97.1848 109.286C97.0416 110.13 96.9255 110.981 96.8372 111.832H57.1156C56.2147 111.832 55.3738 111.584 54.6612 111.154C53.3387 110.358 52.458 108.937 52.458 107.316C52.458 104.822 54.5434 102.799 57.1156 102.799H98.8579C98.6886 103.282 98.5287 103.769 98.3791 104.258ZM57.1156 100.727C55.3011 100.727 53.5946 101.413 52.3114 102.657C51.0281 103.902 50.3213 105.556 50.3213 107.316C50.3213 109.075 51.0281 110.73 52.3114 111.975C52.5655 112.221 52.8363 112.445 53.1216 112.647C54.2749 113.464 55.6609 113.904 57.1156 113.904H96.9925C97.0104 113.587 97.033 113.272 97.0589 112.957C97.0612 112.927 97.0641 112.897 97.067 112.868C97.0971 112.522 97.1329 112.177 97.1727 111.832C97.324 110.525 97.5452 109.238 97.8345 107.976C98.2417 106.198 98.7822 104.47 99.444 102.799C99.5595 102.509 99.6779 102.22 99.8003 101.933C99.8246 101.876 99.8488 101.82 99.8737 101.763C100.024 101.415 100.18 101.07 100.341 100.727H57.1156Z" fill="#2E2D2D"/>
<path d="M81.1345 94.6748C80.2342 94.6748 79.3928 94.4267 78.6807 93.9972C77.3583 93.2009 76.4776 91.7796 76.4776 90.1584C76.4776 87.6642 78.5623 85.642 81.1345 85.642H110.484C109.945 86.1152 109.419 86.6019 108.908 87.1003C108.595 87.4043 108.287 87.7135 107.985 88.0265C106.468 89.6024 105.077 91.2975 103.833 93.0839C103.469 93.6063 103.117 94.1372 102.779 94.6748H81.1345ZM81.1345 83.57C79.32 83.57 77.6141 84.2555 76.3303 85.4998C75.0471 86.7441 74.3408 88.3983 74.3408 90.1584C74.3408 91.9179 75.0471 93.5727 76.3303 94.8171C76.5844 95.0635 76.8553 95.288 77.1405 95.4891C78.2938 96.3061 79.6792 96.7468 81.1345 96.7468H102.532C102.753 96.3974 102.981 96.0519 103.215 95.7108C103.453 95.3608 103.699 95.0159 103.949 94.6748C104.194 94.3422 104.445 94.0129 104.7 93.6887L104.702 93.6859C105.462 92.721 106.271 91.7936 107.124 90.9077C108.413 89.5699 109.805 88.325 111.285 87.1854C111.381 87.112 111.477 87.0392 111.573 86.9664C112.442 86.3107 113.341 85.6913 114.268 85.11L114.532 84.8776L116.018 83.57H81.1345Z" fill="#2E2D2D"/>
<path d="M114.16 146.778C113.236 146.195 112.34 145.572 111.474 144.914C111.411 144.867 111.348 144.819 111.285 144.771C110.424 144.108 109.593 143.41 108.795 142.678C108.221 142.152 107.664 141.609 107.125 141.049C106.27 140.161 105.46 139.232 104.698 138.266C104.4 137.888 104.109 137.504 103.826 137.114C103.579 136.773 103.336 136.427 103.101 136.078C102.87 135.737 102.645 135.392 102.426 135.042C102.419 135.03 102.41 135.018 102.403 135.005C101.611 133.739 100.895 132.422 100.263 131.061C100.103 130.718 99.9491 130.373 99.8007 130.025L99.8001 130.024C99.654 129.682 99.5131 129.337 99.3774 128.989C98.7456 127.371 98.2276 125.699 97.8343 123.981C97.5323 122.665 97.3053 121.322 97.1534 119.956C97.1182 119.639 97.0859 119.32 97.0587 119C97.0564 118.974 97.0541 118.947 97.0524 118.92C97.0241 118.576 97.001 118.231 96.9825 117.884C96.949 117.253 96.9317 116.618 96.9317 115.978C96.9317 115.282 96.9525 114.59 96.9923 113.904C97.0102 113.587 97.0327 113.271 97.0587 112.956C97.061 112.927 97.0639 112.897 97.0668 112.868C97.0968 112.521 97.1326 112.176 97.1725 111.832C97.3238 110.524 97.545 109.237 97.8343 107.975C98.2414 106.198 98.782 104.47 99.4438 102.799C99.5593 102.508 99.6777 102.219 99.8001 101.932C99.8244 101.876 99.8486 101.82 99.8735 101.763C100.024 101.415 100.18 101.069 100.341 100.727C100.954 99.4256 101.643 98.1651 102.403 96.951C102.446 96.8826 102.488 96.8143 102.532 96.7466C102.753 96.3971 102.981 96.0516 103.215 95.7106C103.453 95.3606 103.699 95.0156 103.949 94.6746C104.194 94.3419 104.445 94.0126 104.7 93.6884L104.703 93.6856C105.462 92.7207 106.271 91.7934 107.125 90.9075C108.414 89.5696 109.805 88.3247 111.285 87.1851C111.381 87.1118 111.477 87.039 111.573 86.9662C112.442 86.3104 113.341 85.691 114.268 85.1098C120.188 81.3959 127.243 79.2399 134.819 79.2399C145.197 79.2399 154.6 83.2864 161.442 89.8412L162.772 88.5515C163.709 87.6438 164.802 86.9398 166.024 86.4594C167.202 85.9962 168.445 85.7616 169.719 85.7616C170.992 85.7616 172.235 85.9962 173.413 86.4594C174.634 86.9398 175.729 87.6438 176.665 88.5521C176.918 88.7974 177.155 89.0533 177.377 89.3199C177.976 90.0411 178.461 90.8403 178.823 91.7055C179.3 92.8479 179.542 94.053 179.542 95.2878C179.542 96.5226 179.3 97.7277 178.823 98.8701C178.327 100.055 177.601 101.116 176.665 102.023L171.559 106.976C172.307 109.856 172.705 112.872 172.705 115.978C172.705 136.268 155.743 152.716 134.819 152.716C127.197 152.716 120.102 150.534 114.16 146.778ZM180.803 90.9271C180.333 89.8043 179.694 88.7722 178.896 87.8493C178.669 87.5861 178.429 87.3318 178.176 87.0866C177.036 85.9817 175.704 85.1249 174.216 84.5397C172.782 83.9758 171.269 83.6896 169.719 83.6896C168.169 83.6896 166.656 83.9758 165.222 84.5397C163.791 85.1019 162.504 85.9156 161.395 86.9595C160.022 85.7767 158.565 84.6842 157.043 83.6975C154.914 82.3159 152.639 81.1299 150.282 80.1717C145.38 78.1787 140.177 77.1679 134.819 77.1679C130.292 77.1679 125.848 77.8959 121.612 79.3311C118.497 80.3867 115.542 81.8074 112.792 83.5698C112.271 83.903 111.758 84.2485 111.253 84.6058C111.057 84.7447 110.862 84.8852 110.668 85.028C110.532 85.1277 110.396 85.229 110.261 85.331C110.159 85.4077 110.058 85.4844 109.957 85.5623C109.923 85.5886 109.889 85.6149 109.855 85.6418C109.25 86.1099 108.658 86.5966 108.081 87.1C107.205 87.8627 106.363 88.663 105.563 89.4935C104.362 90.7406 103.234 92.079 102.209 93.4711C101.919 93.8665 101.635 94.2686 101.359 94.6746C101.126 95.0178 100.9 95.3639 100.68 95.7106C100.645 95.766 100.61 95.8209 100.576 95.8763C100.523 95.9615 100.469 96.0471 100.417 96.1328C100.292 96.3361 100.169 96.5405 100.047 96.7466C99.7649 97.2259 99.4923 97.7126 99.2307 98.2048C98.7906 99.0319 98.3812 99.8742 98.0052 100.727C97.9446 100.864 97.8851 101.001 97.8262 101.139C97.7408 101.34 97.6535 101.549 97.5669 101.763C97.5277 101.859 97.4884 101.957 97.4497 102.055C97.4324 102.098 97.4156 102.142 97.3989 102.185C97.3186 102.389 97.2406 102.594 97.1638 102.799C96.9842 103.281 96.8144 103.768 96.6545 104.257C96.3028 105.335 95.9996 106.428 95.7484 107.526C95.4429 108.858 95.2078 110.229 95.049 111.601C95.0398 111.678 95.0311 111.756 95.023 111.832C94.9861 112.164 94.9555 112.479 94.9295 112.788C94.9272 112.815 94.9249 112.841 94.9231 112.868C94.9116 113.008 94.9006 113.149 94.8914 113.29C94.8764 113.494 94.8636 113.699 94.8527 113.904C94.8255 114.39 94.8082 114.877 94.8001 115.362C94.7967 115.568 94.7949 115.773 94.7949 115.978C94.7949 116.61 94.8111 117.247 94.844 117.884C94.8608 118.23 94.8827 118.576 94.9098 118.92C94.9156 119.003 94.9226 119.086 94.9295 119.168C94.9341 119.225 94.9393 119.283 94.9445 119.343C94.9618 119.535 94.982 119.738 95.0051 119.956C95.0132 120.029 95.0207 120.102 95.0294 120.178C95.075 120.591 95.1276 121.004 95.1876 121.415C95.3337 122.432 95.522 123.442 95.7484 124.43C96.1006 125.969 96.5551 127.499 97.1015 128.989C97.1915 129.235 97.2839 129.48 97.3792 129.723C97.4185 129.824 97.4584 129.925 97.4988 130.025C97.5554 130.167 97.6131 130.308 97.6709 130.447C97.7223 130.572 97.7742 130.695 97.8262 130.817C97.8609 130.898 97.8961 130.98 97.9313 131.061C98.1444 131.551 98.3691 132.037 98.6035 132.519C99.0199 133.376 99.4698 134.218 99.9491 135.042C100.152 135.391 100.361 135.736 100.575 136.078L100.576 136.08C100.663 136.22 100.752 136.36 100.843 136.5C100.975 136.705 101.109 136.91 101.247 137.114C101.516 137.516 101.795 137.915 102.08 138.308C102.144 138.396 102.209 138.484 102.274 138.572C103.282 139.934 104.387 141.242 105.563 142.463C106.116 143.036 106.689 143.596 107.278 144.138L107.28 144.14C108.039 144.838 108.828 145.509 109.638 146.146C109.745 146.229 109.85 146.312 109.957 146.394C110.01 146.434 110.062 146.474 110.115 146.514L110.156 146.545C110.441 146.762 110.729 146.974 111.019 147.182C111.515 147.54 112.02 147.885 112.532 148.218C115.335 150.046 118.357 151.516 121.548 152.603C121.66 152.641 121.773 152.679 121.885 152.716C126.039 154.091 130.388 154.788 134.819 154.788C139.266 154.788 143.606 154.093 147.756 152.716C148.645 152.422 149.526 152.095 150.398 151.738C152.77 150.765 155.058 149.561 157.197 148.159C159.316 146.771 161.308 145.177 163.119 143.421C164.93 141.665 166.574 139.733 168.005 137.679C169.451 135.604 170.692 133.386 171.695 131.086C173.783 126.299 174.842 121.217 174.842 115.978C174.842 113.161 174.529 110.357 173.911 107.625L178.176 103.489C179.316 102.384 180.199 101.092 180.803 99.6485C181.384 98.258 181.679 96.7908 181.679 95.2878C181.679 93.7847 181.384 92.3175 180.803 90.9271Z" fill="#2E2D2D"/>
<path d="M127.74 132.051L116.556 121.206L115.052 119.747C114.509 119.222 114.127 118.599 113.907 117.936C113.382 116.364 113.763 114.569 115.052 113.32C115.107 113.266 115.163 113.215 115.22 113.165C116.111 112.381 117.238 111.989 118.366 111.989C119.565 111.989 120.764 112.433 121.68 113.32L123.184 114.778L133.087 124.382L160.624 97.6806L162.431 95.9278L166.404 92.0744C167.32 91.1874 168.519 90.7433 169.719 90.7433C170.918 90.7433 172.118 91.1874 173.033 92.0744C173.292 92.3253 173.513 92.598 173.699 92.8864C174.827 94.6403 174.604 96.9778 173.033 98.5021L170.156 101.291L168.741 102.664L167.316 104.046L138.439 132.048C137.01 133.434 135.109 134.197 133.087 134.197C131.068 134.197 129.168 133.435 127.74 132.051ZM175.237 91.3951C175.03 91.1185 174.798 90.8558 174.544 90.6094C173.255 89.3595 171.541 88.6713 169.719 88.6713C167.896 88.6713 166.183 89.3595 164.894 90.6094L160.92 94.4622H160.92L133.087 121.451L124.694 113.313L123.191 111.855C121.902 110.605 120.188 109.917 118.366 109.917C116.668 109.917 115.041 110.525 113.784 111.63C113.701 111.704 113.619 111.779 113.541 111.855C112.635 112.733 112.004 113.835 111.717 115.041C111.439 116.211 111.493 117.433 111.873 118.574C112.203 119.563 112.78 120.475 113.541 121.213L114.973 122.602C114.997 122.625 115.021 122.648 115.044 122.671L126.225 133.513C128.058 135.29 130.495 136.269 133.087 136.269C135.68 136.269 138.117 135.29 139.95 133.513L174.544 99.967C175.833 98.7171 176.542 97.0556 176.542 95.2882C176.542 93.8698 176.085 92.519 175.237 91.3951Z" fill="#2E2D2D"/>
<path d="M189.192 153.752C189.192 154.325 188.713 154.788 188.124 154.788H46.6494C46.0598 154.788 45.5811 154.325 45.5811 153.752C45.5811 153.18 46.0598 152.716 46.6494 152.716H188.124C188.713 152.716 189.192 153.18 189.192 153.752Z" fill="#2E2D2D"/>
<path d="M42.2408 154.788H37.375C36.785 154.788 36.3066 154.324 36.3066 153.752C36.3066 153.18 36.785 152.716 37.375 152.716H42.2408C42.8308 152.716 43.3092 153.18 43.3092 153.752C43.3092 154.324 42.8308 154.788 42.2408 154.788Z" fill="#2E2D2D"/>
<path d="M58.3559 148.219H53.4902C52.9002 148.219 52.4219 147.755 52.4219 147.183C52.4219 146.61 52.9002 146.147 53.4902 146.147H58.3559C58.9461 146.147 59.4243 146.61 59.4243 147.183C59.4243 147.755 58.9461 148.219 58.3559 148.219Z" fill="#2E2D2D"/>
<path d="M49.0816 148.219H44.2158C43.6258 148.219 43.1475 147.755 43.1475 147.183C43.1475 146.61 43.6258 146.147 44.2158 146.147H49.0816C49.6717 146.147 50.15 146.61 50.15 147.183C50.15 147.755 49.6717 148.219 49.0816 148.219Z" fill="#2E2D2D"/>
<path d="M172.201 149.711H167.336C166.746 149.711 166.268 149.247 166.268 148.675C166.268 148.103 166.746 147.639 167.336 147.639H172.201C172.792 147.639 173.27 148.103 173.27 148.675C173.27 149.247 172.792 149.711 172.201 149.711Z" fill="#2E2D2D"/>
<path d="M181.475 149.711H176.609C176.02 149.711 175.541 149.247 175.541 148.675C175.541 148.103 176.02 147.639 176.609 147.639H181.475C182.066 147.639 182.544 148.103 182.544 148.675C182.544 149.247 182.066 149.711 181.475 149.711Z" fill="#2E2D2D"/>
<path d="M197.397 154.788H192.531C191.941 154.788 191.463 154.324 191.463 153.752C191.463 153.18 191.941 152.716 192.531 152.716H197.397C197.987 152.716 198.465 153.18 198.465 153.752C198.465 154.324 197.987 154.788 197.397 154.788Z" fill="#2E2D2D"/>
</g>
<defs>
<clipPath id="clip0_188_26329">
<rect width="231" height="224" fill="white" transform="translate(0.5)"/>
</clipPath>
</defs>
</svg>
