<svg width="103" height="120" viewBox="0 0 103 120" fill="none" xmlns="http://www.w3.org/2000/svg">
<g clip-path="url(#clip0_240_26458)">
<path d="M51.0453 119.993C79.2368 119.993 102.091 97.1391 102.091 68.9476C102.091 40.7561 79.2368 17.9023 51.0453 17.9023C22.8537 17.9023 0 40.7561 0 68.9476C0 97.1391 22.8537 119.993 51.0453 119.993Z" fill="#707070" fill-opacity="0.1"/>
<path opacity="0.89" d="M75.6571 8.91385V96.6941C75.6555 98.1657 75.0702 99.5766 74.0296 100.617C72.9891 101.658 71.5782 102.243 70.1066 102.245H34.2005C32.7291 102.243 31.3186 101.657 30.2785 100.617C29.2383 99.5762 28.6535 98.1654 28.6523 96.6941V8.91385C28.6538 7.44261 29.2387 6.03201 30.2788 4.99146C31.3189 3.95091 32.7292 3.36537 34.2005 3.36328H38.1814L39.2904 3.86827C39.4145 3.92382 39.5213 4.01188 39.5995 4.12312C39.6777 4.23436 39.7244 4.36467 39.7346 4.50025L39.8313 5.71562C39.8706 6.20235 40.0917 6.65646 40.4505 6.98769C40.8093 7.31892 41.2796 7.50302 41.7679 7.50342H62.5415C63.0299 7.50302 63.5002 7.31892 63.859 6.98769C64.2178 6.65646 64.4389 6.20235 64.4782 5.71562L64.5749 4.50025C64.5851 4.36506 64.6314 4.2351 64.709 4.12393C64.7866 4.01276 64.8926 3.92446 65.016 3.86827L66.1281 3.36328H70.106C71.5775 3.36521 72.9883 3.9506 74.0289 4.9911C75.0695 6.0316 75.6551 7.44228 75.6571 8.91385Z" fill="#14ADE2"/>
<path d="M70.1082 1.68359H34.2021C32.2848 1.68536 30.4465 2.44781 29.0907 3.80358C27.7349 5.15935 26.9725 6.99766 26.9707 8.91501V96.6946C26.9725 98.612 27.7349 100.45 29.0907 101.806C30.4465 103.162 32.2848 103.924 34.2021 103.926H70.1082C72.0255 103.924 73.8636 103.161 75.2193 101.806C76.575 100.45 77.3375 98.6119 77.3396 96.6946V8.9144C77.3374 6.99726 76.5747 5.15929 75.2191 3.80372C73.8634 2.44815 72.0253 1.68568 70.1082 1.68359ZM70.1082 101.531H34.2021C32.9204 101.529 31.6918 101.018 30.7858 100.112C29.8798 99.2052 29.3703 97.9763 29.3692 96.6946V8.9144C29.3703 7.63276 29.8798 6.40389 30.7858 5.49741C31.6919 4.59092 32.9205 4.08085 34.2021 4.07908H70.1082C71.3903 4.08036 72.6195 4.59019 73.5261 5.4967C74.4327 6.4032 74.9427 7.63233 74.9441 8.9144V96.6946C74.9427 97.9768 74.4327 99.206 73.5261 100.113C72.6195 101.019 71.3903 101.529 70.1082 101.531Z" fill="#3B6BB2"/>
<path d="M61.4332 5.61195C61.4773 5.64055 61.5083 5.68529 61.5197 5.73656C61.5311 5.78782 61.5219 5.84151 61.4942 5.88607C61.4724 5.91786 61.4429 5.94347 61.4083 5.96038C61.3499 5.94433 61.2955 5.9164 61.2485 5.87836C61.2014 5.84031 61.1627 5.79295 61.1348 5.73926C61.1378 5.71472 61.1463 5.69118 61.1598 5.67043C61.1891 5.62745 61.2339 5.5974 61.2848 5.58652C61.3357 5.57563 61.3889 5.58474 61.4332 5.61195Z" fill="white"/>
<path d="M61.1315 5.73828C61.1594 5.79202 61.1982 5.83941 61.2453 5.87749C61.2924 5.91556 61.3468 5.94351 61.4052 5.95958C61.3719 5.97467 61.3351 5.98021 61.2989 5.97558C61.2627 5.97095 61.2285 5.95634 61.2001 5.93338C61.1717 5.91042 61.1502 5.88001 61.1381 5.84556C61.126 5.81111 61.1237 5.77396 61.1315 5.73828Z" fill="white"/>
<path d="M61.5219 4.76562C61.674 4.76575 61.8227 4.81097 61.9491 4.89557C62.0756 4.98018 62.1741 5.10037 62.2322 5.24096C62.2903 5.38155 62.3055 5.53621 62.2758 5.68541C62.246 5.8346 62.1727 5.97163 62.0651 6.07916C61.9575 6.18669 61.8204 6.2599 61.6712 6.28954C61.5219 6.31917 61.3673 6.3039 61.2267 6.24565C61.0862 6.18741 60.9661 6.0888 60.8816 5.9623C60.7971 5.8358 60.752 5.68708 60.752 5.53495C60.7523 5.33091 60.8335 5.13532 60.9778 4.99109C61.1222 4.84687 61.3178 4.76579 61.5219 4.76562ZM61.9631 5.53495C61.9631 5.41786 61.9165 5.30557 61.8338 5.22278C61.751 5.13998 61.6387 5.09347 61.5216 5.09347C61.4045 5.09347 61.2922 5.13998 61.2094 5.22278C61.1266 5.30557 61.0801 5.41786 61.0801 5.53495C61.0801 5.60632 61.0981 5.67653 61.1324 5.73913C61.1246 5.7747 61.1269 5.81172 61.139 5.84606C61.151 5.88041 61.1724 5.91071 61.2007 5.9336C61.2291 5.95649 61.2632 5.97105 61.2993 5.97567C61.3354 5.98028 61.3721 5.97475 61.4052 5.95972C61.4429 5.971 61.482 5.97653 61.5213 5.97613C61.5793 5.9762 61.6367 5.96485 61.6903 5.94272C61.7439 5.92058 61.7926 5.8881 61.8336 5.84712C61.8747 5.80615 61.9072 5.75749 61.9294 5.70392C61.9516 5.65036 61.9631 5.59294 61.9631 5.53495Z" fill="#4F4E4A"/>
<path d="M38.1836 3.36328H66.1309L65.0188 3.86827C64.8955 3.92451 64.7895 4.01282 64.7119 4.12398C64.6343 4.23514 64.5879 4.36508 64.5776 4.50025L64.481 5.71562C64.4416 6.20235 64.2206 6.65646 63.8618 6.98769C63.503 7.31892 63.0327 7.50302 62.5443 7.50342H41.7689C41.2806 7.50302 40.8103 7.31892 40.4515 6.98769C40.0927 6.65646 39.8716 6.20235 39.8322 5.71562L39.7356 4.50025C39.7254 4.36467 39.6787 4.23437 39.6005 4.12312C39.5223 4.01188 39.4155 3.92382 39.2914 3.86827L38.1836 3.36328Z" fill="#3B6BB2"/>
<path d="M15.5669 82.4217C15.5669 82.4217 15.9583 81.5958 15.1677 80.2407C14.7513 79.5824 14.4436 78.8614 14.2562 78.1053L14.2525 78.0822L14.0806 76.9586C14.0474 76.741 13.9291 76.5455 13.7518 76.4152C13.5744 76.2848 13.3526 76.2302 13.135 76.2634C12.9174 76.2966 12.722 76.4149 12.5916 76.5922C12.4612 76.7695 12.4066 76.9914 12.4398 77.209C12.4398 77.209 12.87 79.4683 12.8354 79.4428L9.30357 76.8474C9.23673 76.7983 9.16087 76.7628 9.08033 76.743C8.99979 76.7232 8.91614 76.7194 8.83415 76.732C8.66856 76.7573 8.5198 76.8473 8.4206 76.9823C8.3214 77.1173 8.27989 77.2861 8.30519 77.4517C8.33049 77.6173 8.42053 77.766 8.55551 77.8652L9.94345 78.8849L10.8392 79.5431C10.8746 79.5694 10.8981 79.6086 10.9047 79.6522C10.9113 79.6958 10.9004 79.7402 10.8744 79.7758C10.8481 79.8112 10.8089 79.8348 10.7653 79.8414C10.7217 79.848 10.6773 79.8371 10.6417 79.811L10.6034 79.7831L9.74657 79.1529L7.22165 77.2977C7.08622 77.2089 6.92184 77.1755 6.7625 77.2045C6.60315 77.2334 6.46103 77.3225 6.36551 77.4533C6.27 77.5841 6.2284 77.7466 6.2493 77.9072C6.27021 78.0678 6.35202 78.2142 6.47784 78.3161L8.91161 80.1046L9.80733 80.7627C9.84272 80.789 9.86629 80.8282 9.87289 80.8718C9.87949 80.9154 9.86859 80.9598 9.84258 80.9954C9.81628 81.0308 9.77706 81.0544 9.73347 81.061C9.68987 81.0676 9.64543 81.0567 9.60984 81.0307L8.71411 80.3725L6.75921 78.9354C6.62423 78.8363 6.4554 78.7948 6.28987 78.8202C6.12434 78.8455 5.97567 78.9356 5.87655 79.0706C5.77743 79.2056 5.73599 79.3744 5.76135 79.5399C5.7867 79.7054 5.87677 79.8541 6.01175 79.9532L8.27537 81.6171L9.17109 82.2752C9.20648 82.3015 9.23005 82.3407 9.23665 82.3843C9.24325 82.4279 9.23235 82.4723 9.20634 82.5079C9.19341 82.5256 9.17714 82.5405 9.15844 82.5518C9.13975 82.5632 9.11901 82.5707 9.09739 82.5741C9.07578 82.5774 9.05373 82.5764 9.03249 82.5712C9.01124 82.566 8.99123 82.5567 8.9736 82.5438L8.07787 81.8857L6.47238 80.7062C6.33724 80.6122 6.17073 80.5747 6.00834 80.6017C5.84595 80.6286 5.70053 80.718 5.60306 80.8506C5.50558 80.9833 5.46377 81.1488 5.48654 81.3118C5.5093 81.4748 5.59484 81.6225 5.72492 81.7234L9.10729 84.2088C9.12552 84.2222 9.14253 84.2332 9.16076 84.2441L10.8143 85.4595C11.1012 85.6701 11.4481 85.7833 11.8041 85.7824C12.16 85.7815 12.5064 85.6667 12.7923 85.4546L13.4546 85.9407L15.807 82.59L15.5669 82.4217Z" fill="white"/>
<path d="M15.5669 82.4217C15.5669 82.4217 15.9583 81.5958 15.1677 80.2407C14.7513 79.5824 14.4436 78.8614 14.2562 78.1053L14.2525 78.0822L14.0806 76.9586C14.0474 76.741 13.9291 76.5455 13.7518 76.4152C13.5744 76.2848 13.3526 76.2302 13.135 76.2634C12.9174 76.2966 12.722 76.4149 12.5916 76.5922C12.4612 76.7695 12.4066 76.9914 12.4398 77.209C12.4398 77.209 12.87 79.4683 12.8354 79.4428L9.30357 76.8474C9.23673 76.7983 9.16087 76.7628 9.08033 76.743C8.99979 76.7232 8.91614 76.7194 8.83415 76.732C8.66856 76.7573 8.5198 76.8473 8.4206 76.9823C8.3214 77.1173 8.27989 77.2861 8.30519 77.4517C8.33049 77.6173 8.42053 77.766 8.55551 77.8652L9.94345 78.8849L10.8392 79.5431C10.8746 79.5694 10.8981 79.6086 10.9047 79.6522C10.9113 79.6958 10.9004 79.7402 10.8744 79.7758C10.8481 79.8112 10.8089 79.8348 10.7653 79.8414C10.7217 79.848 10.6773 79.8371 10.6417 79.811L10.6034 79.7831L9.74657 79.1529L7.22165 77.2977C7.08622 77.2089 6.92184 77.1755 6.7625 77.2045C6.60315 77.2334 6.46103 77.3225 6.36551 77.4533C6.27 77.5841 6.2284 77.7466 6.2493 77.9072C6.27021 78.0678 6.35202 78.2142 6.47784 78.3161L8.91161 80.1046L9.80733 80.7627C9.84272 80.789 9.86629 80.8282 9.87289 80.8718C9.87949 80.9154 9.86859 80.9598 9.84258 80.9954C9.81628 81.0308 9.77706 81.0544 9.73347 81.061C9.68987 81.0676 9.64543 81.0567 9.60984 81.0307L8.71411 80.3725L6.75921 78.9354C6.62423 78.8363 6.4554 78.7948 6.28987 78.8202C6.12434 78.8455 5.97567 78.9356 5.87655 79.0706C5.77743 79.2056 5.73599 79.3744 5.76135 79.5399C5.7867 79.7054 5.87677 79.8541 6.01175 79.9532L8.27537 81.6171L9.17109 82.2752C9.20648 82.3015 9.23005 82.3407 9.23665 82.3843C9.24325 82.4279 9.23235 82.4723 9.20634 82.5079C9.19341 82.5256 9.17714 82.5405 9.15844 82.5518C9.13975 82.5632 9.11901 82.5707 9.09739 82.5741C9.07578 82.5774 9.05373 82.5764 9.03249 82.5712C9.01124 82.566 8.99123 82.5567 8.9736 82.5438L8.07787 81.8857L6.47238 80.7062C6.33724 80.6122 6.17073 80.5747 6.00834 80.6017C5.84595 80.6286 5.70053 80.718 5.60306 80.8506C5.50558 80.9833 5.46377 81.1488 5.48654 81.3118C5.5093 81.4748 5.59484 81.6225 5.72492 81.7234L9.10729 84.2088C9.12552 84.2222 9.14253 84.2332 9.16076 84.2441L10.8143 85.4595C11.1012 85.6701 11.4481 85.7833 11.8041 85.7824C12.16 85.7815 12.5064 85.6667 12.7923 85.4546L13.4546 85.9407L15.807 82.59L15.5669 82.4217Z" fill="#ECD0D0"/>
<path d="M46.5149 63.0579C46.2837 62.8867 46.0652 62.6993 45.8606 62.497C45.2793 61.9275 44.8172 61.2477 44.5017 60.4975C44.1861 59.7473 44.0232 58.9417 44.0228 58.1278V56.453H43.8358C43.4941 56.453 43.1663 56.3173 42.9246 56.0757C42.6829 55.8341 42.547 55.5064 42.5469 55.1647V53.812C42.5478 53.5371 42.6368 53.2698 42.8009 53.0492C42.9649 52.8286 43.1954 52.6664 43.4584 52.5864C43.6076 53.1832 43.7969 53.7693 44.0248 54.3407C44.369 53.5579 44.9345 52.8929 45.652 52.4276C46.3696 51.9623 47.2077 51.7171 48.0629 51.7222C49.2931 51.685 50.506 51.4236 51.6425 50.9511C52.5478 50.5973 53.4183 50.1599 54.2424 49.6445C54.2424 49.6445 56.422 54.3413 59.2124 54.3413C59.4408 53.7699 59.6307 53.1838 59.7806 52.587C59.8177 52.5991 59.8543 52.607 59.8901 52.6216L59.91 52.6301C60.1413 52.7296 60.3384 52.8947 60.4768 53.1049C60.6151 53.3152 60.6888 53.5615 60.6886 53.8132V55.166C60.6887 55.3351 60.6553 55.5025 60.5907 55.6587C60.5261 55.815 60.4313 55.957 60.3118 56.0767C60.1923 56.1963 60.0505 56.2912 59.8943 56.356C59.7381 56.4207 59.5705 56.4542 59.4014 56.4542H59.2124V58.129C59.2122 58.9428 59.0499 59.7483 58.7347 60.4985C58.4195 61.2488 57.9577 61.9285 57.3766 62.4982C57.1721 62.7005 56.9536 62.888 56.7224 63.0592C55.251 64.144 53.4717 64.7311 51.6437 64.7351H51.6215C49.7838 64.7362 47.994 64.1484 46.5149 63.0579Z" fill="#FFE1E1"/>
<path d="M53.625 42.4375C53.7059 42.4472 53.7868 42.457 53.8683 42.4679C53.7868 42.457 53.7053 42.4472 53.625 42.4375Z" fill="black"/>
<path d="M51.6875 42.3203C51.9235 42.3203 52.1503 42.327 52.3735 42.3355C52.1503 42.327 51.9229 42.3209 51.6875 42.3203Z" fill="black"/>
<path d="M48.0596 51.7205C49.2903 51.6836 50.5039 51.4222 51.6407 50.9494V42.3203H51.617C41.9755 42.3203 42.5978 49.2509 43.4558 52.5865C43.6052 53.1832 43.7946 53.7691 44.0228 54.3403C44.3666 53.5573 44.932 52.8921 45.6493 52.4266C46.3667 51.9611 47.2045 51.7156 48.0596 51.7205Z" fill="#FFD400"/>
<path opacity="0.05" d="M52.3711 42.3359C52.4638 42.3396 52.554 42.3439 52.6473 42.3487C52.5562 42.3431 52.4642 42.3388 52.3711 42.3359Z" fill="black"/>
<path opacity="0.05" d="M59.7772 52.5891C59.8137 52.6006 59.8514 52.6085 59.8866 52.6231C59.8574 52.6122 59.8307 52.5982 59.8009 52.5891C60.5867 49.5355 61.1713 43.4739 53.8633 42.4688C61.1488 43.4787 60.5624 49.5367 59.7772 52.5891Z" fill="black"/>
<path opacity="0.05" d="M59.212 58.1261C59.2116 58.94 59.049 59.7457 58.7335 60.496C58.4181 61.2463 57.9563 61.9262 57.375 62.4959V65.5106L57.3829 65.5051L57.3993 65.5137V62.4923C57.9799 61.9232 58.4413 61.2442 58.7566 60.4948C59.0719 59.7455 59.2348 58.9409 59.2357 58.1279V56.4531H59.2114L59.212 58.1261Z" fill="black"/>
<path opacity="0.05" d="M60.6867 53.8121V55.1648C60.6866 55.5064 60.5508 55.834 60.3092 56.0755C60.0677 56.3171 59.7401 56.4529 59.3984 56.453H59.4227C59.7644 56.4529 60.092 56.3171 60.3335 56.0755C60.5751 55.834 60.7109 55.5064 60.711 55.1648V53.8121C60.7102 53.5573 60.6333 53.3085 60.4901 53.0977C60.347 52.8869 60.1442 52.7237 59.9077 52.6289C60.1389 52.7284 60.336 52.8935 60.4744 53.1038C60.6129 53.3141 60.6867 53.5603 60.6867 53.8121Z" fill="black"/>
<path opacity="0.05" d="M53.123 42.3828C53.2941 42.3978 53.4612 42.415 53.6242 42.4345C53.4594 42.415 53.2946 42.3974 53.123 42.3828Z" fill="black"/>
<path d="M46.8 84.8482L42.5726 67.4685L42.5462 67.3676V67.2892C42.5455 67.2688 42.5432 67.2484 42.5391 67.2284L45.8478 65.5069H45.854L45.8588 65.5129V62.4922C46.0636 62.6946 46.2823 62.8824 46.5133 63.0542C47.9981 64.1487 49.7958 64.7359 51.6403 64.729C53.4682 64.7252 55.2472 64.1385 56.7187 63.0542C56.9499 62.8827 57.1687 62.6949 57.3733 62.4922V65.5069L51.6403 69.777L51.6178 69.7935L45.8599 65.5129L47.5993 72.5864L47.8859 73.7531L48.1444 74.802L48.1833 74.9618L49.3924 79.884L51.6178 88.93L46.8 84.8482Z" fill="white"/>
<path d="M51.6411 50.9488C52.5462 50.5952 53.4163 50.158 54.2402 49.6429C54.2402 49.6429 56.4199 54.3384 59.211 54.3384C59.4392 53.7673 59.6287 53.1813 59.778 52.5847C60.5625 49.5335 61.1495 43.4755 53.864 42.4643C53.785 42.4534 53.7042 42.4437 53.6209 42.4339C53.4589 42.4141 53.292 42.3969 53.1202 42.3823C52.9646 42.3689 52.8072 42.3574 52.645 42.3483C52.5545 42.3434 52.4627 42.3391 52.3697 42.3355C52.1467 42.327 51.92 42.3209 51.6843 42.3203H51.6387L51.6411 50.9488Z" fill="black"/>
<path d="M51.6411 50.9488C52.5462 50.5952 53.4163 50.158 54.2402 49.6429C54.2402 49.6429 56.4199 54.3384 59.211 54.3384C59.4392 53.7673 59.6287 53.1813 59.778 52.5847C60.5625 49.5335 61.1495 43.4755 53.864 42.4643C53.785 42.4534 53.7042 42.4437 53.6209 42.4339C53.4589 42.4141 53.292 42.3969 53.1202 42.3823C52.9646 42.3689 52.8072 42.3574 52.645 42.3483C52.5545 42.3434 52.4627 42.3391 52.3697 42.3355C52.1467 42.327 51.92 42.3209 51.6843 42.3203H51.6387L51.6411 50.9488Z" fill="#FFD400"/>
<path d="M51.6253 69.8042L51.6192 69.7969L50.1359 71.6594L49.4292 72.5527L50.8366 74.2287L49.3945 79.8874L51.6192 88.9328H51.6253V69.8042Z" fill="white"/>
<path d="M47.8867 73.7579L48.1444 74.8074L48.1839 74.9672L49.3932 79.8894L50.8352 74.2307L49.4278 72.5547L48.2124 74.0848L47.8867 73.7579Z" fill="white"/>
<path d="M47.5999 72.589L47.8867 73.7552L48.2137 74.0821L49.429 72.552L50.1358 71.6587L51.6191 69.7961L45.8613 65.5156L47.5999 72.589Z" fill="white"/>
<path d="M57.3817 65.5078L57.3738 65.5133L51.6403 69.7829L51.6172 69.7999L51.6233 69.8072V69.7956L57.3817 65.5078Z" fill="white"/>
<path d="M57.3828 65.5078L60.7287 67.2482L57.3992 65.5163L57.3828 65.5078Z" fill="#F2F2F2"/>
<path d="M52.6971 102.454H51.6274V88.9348L56.4512 84.8524L60.6741 67.4727L61.261 67.655V76.4664H60.786C60.303 76.4664 59.8397 76.6581 59.4979 76.9993C59.1561 77.3405 58.9638 77.8034 58.9629 78.2864V83.1229C58.9629 83.6064 59.1549 84.0701 59.4967 84.412C59.8386 84.7539 60.3025 84.946 60.786 84.946C60.9021 84.9456 61.0135 84.8993 61.0955 84.817C61.1775 84.7348 61.2234 84.6234 61.2234 84.5073C61.2234 84.3912 61.1772 84.2799 61.0952 84.1979C61.0131 84.1158 60.902 84.0697 60.786 84.0697C60.5354 84.0697 60.295 83.9701 60.1178 83.7929C59.9406 83.6157 59.8409 83.3754 59.8409 83.1248V78.2882C59.8413 78.0378 59.9409 77.7978 60.1181 77.6208C60.2953 77.4439 60.5356 77.3445 60.786 77.3445H61.6026C61.6247 77.3494 61.6475 77.3518 61.6702 77.3518C61.6933 77.3518 61.7162 77.3493 61.7388 77.3445H62.5556C62.8058 77.3448 63.0454 77.4444 63.2224 77.6213C63.3993 77.7982 63.4989 78.038 63.4992 78.2882V83.1248C63.4992 83.3752 63.3999 83.6154 63.2229 83.7925C63.046 83.9697 62.806 84.0693 62.5556 84.0697C62.4981 84.0696 62.4411 84.0809 62.388 84.1028C62.3349 84.1248 62.2865 84.1571 62.2459 84.1977C62.2052 84.2383 62.1732 84.2866 62.1512 84.3397C62.1292 84.3928 62.1179 84.4498 62.118 84.5073C62.1179 84.5648 62.1293 84.6218 62.1512 84.675C62.1731 84.7282 62.2052 84.7765 62.2459 84.8173C62.2865 84.858 62.3349 84.8903 62.388 84.9124C62.4411 84.9345 62.4981 84.9459 62.5556 84.946C63.0386 84.9452 63.5013 84.7528 63.8425 84.411C64.1837 84.0692 64.3754 83.6059 64.3754 83.1229V78.2864C64.3746 77.8039 64.1828 77.3415 63.8416 77.0003C63.5005 76.6592 63.0381 76.4672 62.5556 76.4664H62.0791V67.9053L66.472 69.2544C67.5507 69.5837 68.5324 70.172 69.3315 70.9679C70.1306 71.7638 70.7227 72.7432 71.0564 73.8205L75.7258 87.587V96.6937C75.7236 98.1311 75.164 99.5117 74.1648 100.545C73.1655 101.578 71.8045 102.184 70.368 102.235L65.4219 88.9336L65.9341 95.4145L66.4732 102.244L66.4895 102.452L52.6971 102.454ZM50.5593 102.454H36.7648L36.7802 102.245L37.8327 88.9372L33.5222 95.9967C33.0527 96.7666 32.4087 97.4152 31.6422 97.8902C30.8757 98.3652 30.0084 98.6534 29.11 98.7313C28.7677 98.7615 28.4232 98.7615 28.081 98.7313C26.9295 98.6297 25.836 98.1816 24.9443 97.446L12.5293 87.2588L13.4518 85.9456L15.8048 82.5955L17.0851 80.7724L27.6587 88.3994L27.751 88.0993L28.7174 84.9934L32.1896 73.823C32.5253 72.7467 33.1181 71.7684 33.9168 70.9728C34.7156 70.1772 35.6964 69.5882 36.774 69.2568L41.7289 67.7376V75.4084C41.3152 75.5008 40.9454 75.7314 40.6803 76.0621C40.4152 76.3928 40.2707 76.804 40.2705 77.2278C40.2706 77.4728 40.3191 77.7154 40.4129 77.9417C40.5068 78.168 40.6441 78.3736 40.8174 78.5468C40.9906 78.72 41.1963 78.8574 41.4227 78.951C41.649 79.0447 41.8919 79.0929 42.1369 79.0928C42.6315 79.0928 43.1059 78.8963 43.4558 78.5466C43.8056 78.1969 44.0022 77.7225 44.0023 77.2278C44.0022 76.804 43.8577 76.3928 43.5926 76.0621C43.3275 75.7314 42.9576 75.5008 42.544 75.4084V67.4861L42.5701 67.4776L46.7977 84.8572L51.6153 88.9397V102.459L50.5593 102.454ZM40.1319 86.82H40.9464V89.932C40.9464 90.3709 41.1207 90.7917 41.431 91.1021C41.7413 91.4124 42.1621 91.5867 42.6009 91.5867H44.2557C44.473 91.5866 44.688 91.5438 44.8886 91.4606C45.0893 91.3774 45.2716 91.2555 45.4251 91.1018C45.5787 90.9482 45.7005 90.7658 45.7836 90.5651C45.8666 90.3644 45.9094 90.1493 45.9094 89.932V86.82H46.3595V85.8964H40.1313L40.1319 86.82Z" fill="#FEFDFF"/>
<path d="M53.7513 80.2848L52.2096 74.2292L53.716 72.4366L53.0968 71.6599L51.625 69.8047V88.9333L52.6878 84.609L53.7513 80.2848Z" fill="white"/>
<path d="M53.7154 72.4375L52.209 74.2302L53.7507 80.2857L55.3568 73.7398L55.0183 74.0843L53.7154 72.4375Z" fill="white"/>
<path opacity="0.07" d="M53.7154 72.4375L52.209 74.2302L53.7507 80.2857L55.3568 73.7398L55.0183 74.0843L53.7154 72.4375Z" fill="white"/>
<path d="M53.0962 71.6624L53.7154 72.439L55.0177 74.0858L55.3562 73.7413L57.3828 65.5078L51.625 69.7956V69.8072L53.0962 71.6624Z" fill="white"/>
<path opacity="0.07" d="M53.0962 71.6624L53.7154 72.439L55.0177 74.0858L55.3562 73.7413L57.3828 65.5078L51.625 69.7956V69.8072L53.0962 71.6624Z" fill="white"/>
<path d="M57.3834 65.5078L55.3568 73.7413L53.7507 80.2872L52.6878 84.6115L51.625 88.9358L56.4482 84.854L60.6703 67.4743L60.7311 67.2464L57.3834 65.5078Z" fill="#F2F2F2"/>
<path opacity="0.07" d="M57.3834 65.5078L55.3568 73.7413L53.7507 80.2872L52.6878 84.6115L51.625 88.9358L56.4482 84.854L60.6703 67.4743L60.7311 67.2464L57.3834 65.5078Z" fill="white"/>
<path d="M42.1394 75.358C42.2771 75.3583 42.4142 75.3738 42.5484 75.4042V67.2965C42.5478 67.2761 42.5456 67.2558 42.5417 67.2358C42.5269 67.1336 42.4738 67.0409 42.3933 66.9763C42.3127 66.9118 42.2107 66.8801 42.1078 66.8879C42.0048 66.8956 41.9086 66.942 41.8386 67.0179C41.7686 67.0937 41.73 67.1933 41.7305 67.2965V75.4042C41.8647 75.3738 42.0018 75.3583 42.1394 75.358Z" fill="white"/>
<path d="M41.7302 75.4056C41.275 75.5099 40.877 75.7844 40.6179 76.1729C40.3587 76.5613 40.2581 77.0342 40.3365 77.4945C40.415 77.9548 40.6667 78.3676 41.0399 78.6483C41.4131 78.9289 41.8796 79.056 42.3436 79.0036C42.8076 78.9512 43.2339 78.7233 43.5352 78.3665C43.8364 78.0097 43.9897 77.5511 43.9635 77.0849C43.9373 76.6187 43.7338 76.1802 43.3945 75.8593C43.0553 75.5384 42.6061 75.3595 42.1391 75.3594C42.0015 75.3596 41.8644 75.3751 41.7302 75.4056ZM43.4256 77.225C43.4256 77.4795 43.3501 77.7284 43.2086 77.9401C43.0672 78.1518 42.8662 78.3167 42.6309 78.4141C42.3957 78.5115 42.1369 78.537 41.8872 78.4873C41.6375 78.4376 41.4082 78.3149 41.2282 78.1349C41.0482 77.9548 40.9257 77.7254 40.8761 77.4757C40.8265 77.226 40.8521 76.9672 40.9496 76.732C41.0471 76.4968 41.2122 76.2959 41.4239 76.1545C41.6357 76.0132 41.8846 75.9378 42.1391 75.9379C42.3083 75.9377 42.4758 75.9709 42.632 76.0355C42.7883 76.1001 42.9304 76.1949 43.05 76.3144C43.1697 76.434 43.2646 76.5759 43.3293 76.7321C43.3941 76.8884 43.4274 77.0558 43.4274 77.225H43.4256Z" fill="white"/>
<path d="M42.1406 78.5116C42.8514 78.5116 43.4277 77.9354 43.4277 77.2246C43.4277 76.5137 42.8514 75.9375 42.1406 75.9375C41.4298 75.9375 40.8535 76.5137 40.8535 77.2246C40.8535 77.9354 41.4298 78.5116 42.1406 78.5116Z" fill="white"/>
<path d="M61.2593 76.4676H60.7829C60.3004 76.4684 59.838 76.6604 59.4968 77.0016C59.1557 77.3427 58.9637 77.8052 58.9629 78.2876V83.1211C58.9629 83.6041 59.1546 84.0673 59.4958 84.4091C59.837 84.7509 60.2999 84.9433 60.7829 84.9441C60.8962 84.9399 61.0035 84.892 61.0821 84.8103C61.1608 84.7287 61.2047 84.6197 61.2047 84.5063C61.2047 84.3929 61.1608 84.284 61.0821 84.2023C61.0035 84.1207 60.8962 84.0727 60.7829 84.0685C60.5326 84.0682 60.2927 83.9685 60.1157 83.7915C59.9388 83.6145 59.8393 83.3744 59.8392 83.1241V78.2876C59.8395 78.0374 59.939 77.7976 60.1159 77.6206C60.2929 77.4437 60.5327 77.3442 60.7829 77.3439H61.5996C61.6447 77.3534 61.6913 77.3534 61.7363 77.3439H62.5531C62.8033 77.3442 63.0431 77.4437 63.22 77.6206C63.397 77.7976 63.4965 78.0374 63.4968 78.2876V83.1211C63.4966 83.3714 63.3972 83.6114 63.2203 83.7885C63.0433 83.9655 62.8034 84.0651 62.5531 84.0654C62.4398 84.0697 62.3325 84.1176 62.2539 84.1993C62.1752 84.2809 62.1312 84.3899 62.1312 84.5033C62.1312 84.6166 62.1752 84.7256 62.2539 84.8073C62.3325 84.8889 62.4398 84.9369 62.5531 84.9411C63.036 84.9403 63.499 84.7479 63.8402 84.4061C64.1814 84.0643 64.3731 83.601 64.3731 83.1181V78.2815C64.3723 77.7991 64.1803 77.3366 63.8391 76.9955C63.498 76.6543 63.0355 76.4623 62.5531 76.4615H62.0766V67.8993V67.4168C62.0766 67.3083 62.0336 67.2043 61.9569 67.1276C61.8802 67.0509 61.7761 67.0078 61.6677 67.0078C61.5592 67.0078 61.4552 67.0509 61.3785 67.1276C61.3018 67.2043 61.2587 67.3083 61.2587 67.4168V67.6477L61.2593 76.4676Z" fill="white"/>
<path d="M40.944 89.9323C40.944 90.3711 41.1183 90.792 41.4286 91.1023C41.7389 91.4126 42.1598 91.587 42.5987 91.587H44.2522C44.691 91.587 45.1119 91.4126 45.4222 91.1023C45.7326 90.792 45.9069 90.3711 45.9069 89.9323V86.8203H40.9434L40.944 89.9323Z" fill="#FEFDFF"/>
<path opacity="0.07" d="M40.944 89.9323C40.944 90.3711 41.1183 90.792 41.4286 91.1023C41.7389 91.4126 42.1598 91.587 42.5987 91.587H44.2522C44.691 91.587 45.1119 91.4126 45.4222 91.1023C45.7326 90.792 45.9069 90.3711 45.9069 89.9323V86.8203H40.9434L40.944 89.9323Z" fill="white"/>
<path d="M45.9091 86.8188H46.3587V85.8945H40.127V86.8188H45.906H45.9091Z" fill="white"/>
<g filter="url(#filter0_d_240_26458)">
<path d="M81.0641 12.2812H22.1822C21.5109 12.2812 20.9668 12.8254 20.9668 13.4966V37.2776C20.9668 37.9489 21.5109 38.493 22.1822 38.493H81.0641C81.7353 38.493 82.2795 37.9489 82.2795 37.2776V13.4966C82.2795 12.8254 81.7353 12.2812 81.0641 12.2812Z" fill="white"/>
</g>
<path d="M45.9518 21.6875V18.1519H46.6993V19.6107H48.2168V18.1519H48.9626V21.6875H48.2168V20.227H46.6993V21.6875H45.9518ZM50.7736 21.7393C50.5008 21.7393 50.266 21.684 50.0692 21.5736C49.8736 21.4619 49.7228 21.3042 49.6169 21.1005C49.511 20.8957 49.4581 20.6534 49.4581 20.3737C49.4581 20.101 49.511 19.8616 49.6169 19.6556C49.7228 19.4496 49.8718 19.289 50.064 19.1739C50.2574 19.0588 50.4841 19.0013 50.7442 19.0013C50.9192 19.0013 51.082 19.0295 51.2328 19.0859C51.3847 19.1411 51.5171 19.2245 51.6299 19.3362C51.7438 19.4478 51.8324 19.5882 51.8957 19.7574C51.959 19.9255 51.9907 20.1223 51.9907 20.3478V20.5498H49.7516V20.0941H51.2984C51.2984 19.9882 51.2754 19.8944 51.2293 19.8127C51.1833 19.7309 51.1194 19.6671 51.0377 19.621C50.9571 19.5738 50.8633 19.5503 50.7563 19.5503C50.6447 19.5503 50.5457 19.5762 50.4594 19.6279C50.3742 19.6786 50.3075 19.7471 50.2591 19.8334C50.2108 19.9185 50.186 20.0135 50.1849 20.1182V20.5515C50.1849 20.6828 50.209 20.7961 50.2574 20.8916C50.3069 20.9872 50.3765 21.0608 50.4663 21.1126C50.556 21.1644 50.6625 21.1903 50.7857 21.1903C50.8674 21.1903 50.9422 21.1788 51.0101 21.1558C51.078 21.1328 51.1361 21.0982 51.1844 21.0522C51.2328 21.0062 51.2696 20.9498 51.2949 20.883L51.9751 20.9279C51.9406 21.0913 51.8698 21.234 51.7628 21.356C51.6569 21.4769 51.5199 21.5713 51.3519 21.6392C51.185 21.7059 50.9922 21.7393 50.7736 21.7393ZM53.206 18.1519V21.6875H52.4706V18.1519H53.206ZM54.5306 18.1519V21.6875H53.7951V18.1519H54.5306ZM56.3178 21.7393C56.0496 21.7393 55.8177 21.6823 55.6221 21.5684C55.4276 21.4533 55.2774 21.2933 55.1715 21.0885C55.0656 20.8824 55.0127 20.6436 55.0127 20.372C55.0127 20.0981 55.0656 19.8587 55.1715 19.6538C55.2774 19.4478 55.4276 19.2878 55.6221 19.1739C55.8177 19.0588 56.0496 19.0013 56.3178 19.0013C56.586 19.0013 56.8173 19.0588 57.0118 19.1739C57.2075 19.2878 57.3582 19.4478 57.4641 19.6538C57.57 19.8587 57.6229 20.0981 57.6229 20.372C57.6229 20.6436 57.57 20.8824 57.4641 21.0885C57.3582 21.2933 57.2075 21.4533 57.0118 21.5684C56.8173 21.6823 56.586 21.7393 56.3178 21.7393ZM56.3213 21.1696C56.4433 21.1696 56.5451 21.1351 56.6268 21.066C56.7085 20.9958 56.7701 20.9003 56.8115 20.7794C56.8541 20.6586 56.8754 20.5211 56.8754 20.3668C56.8754 20.2126 56.8541 20.0751 56.8115 19.9542C56.7701 19.8334 56.7085 19.7379 56.6268 19.6676C56.5451 19.5974 56.4433 19.5623 56.3213 19.5623C56.1981 19.5623 56.0945 19.5974 56.0105 19.6676C55.9276 19.7379 55.8649 19.8334 55.8223 19.9542C55.7809 20.0751 55.7602 20.2126 55.7602 20.3668C55.7602 20.5211 55.7809 20.6586 55.8223 20.7794C55.8649 20.9003 55.9276 20.9958 56.0105 21.066C56.0945 21.1351 56.1981 21.1696 56.3213 21.1696ZM60.105 18.1519L60.0377 20.6275H59.4058L59.3368 18.1519H60.105ZM59.7218 21.7324C59.6078 21.7324 59.51 21.6921 59.4283 21.6115C59.3466 21.5298 59.3063 21.432 59.3074 21.3181C59.3063 21.2053 59.3466 21.1086 59.4283 21.028C59.51 20.9475 59.6078 20.9072 59.7218 20.9072C59.8311 20.9072 59.9272 20.9475 60.0101 21.028C60.0929 21.1086 60.1349 21.2053 60.1361 21.3181C60.1349 21.394 60.1148 21.4636 60.0757 21.5269C60.0377 21.5891 59.9876 21.6392 59.9255 21.6771C59.8633 21.714 59.7954 21.7324 59.7218 21.7324Z" fill="#8D8D8D"/>
<path d="M46.9513 27.5703H45.6979V24.0347H46.9616C47.3173 24.0347 47.6234 24.1055 47.88 24.2471C48.1367 24.3875 48.3341 24.5894 48.4722 24.853C48.6115 25.1166 48.6811 25.4319 48.6811 25.7991C48.6811 26.1674 48.6115 26.4839 48.4722 26.7486C48.3341 27.0133 48.1356 27.2164 47.8766 27.358C47.6188 27.4995 47.3103 27.5703 46.9513 27.5703ZM46.4454 26.9298H46.9202C47.1412 26.9298 47.327 26.8907 47.4778 26.8124C47.6297 26.733 47.7437 26.6105 47.8196 26.4447C47.8967 26.2778 47.9353 26.0626 47.9353 25.7991C47.9353 25.5378 47.8967 25.3243 47.8196 25.1586C47.7437 24.9928 47.6303 24.8708 47.4795 24.7926C47.3288 24.7143 47.1429 24.6752 46.9219 24.6752H46.4454V26.9298ZM50.4191 27.6221C50.1509 27.6221 49.919 27.5651 49.7234 27.4512C49.5289 27.3361 49.3787 27.1761 49.2728 26.9713C49.1669 26.7652 49.114 26.5264 49.114 26.2548C49.114 25.9809 49.1669 25.7415 49.2728 25.5367C49.3787 25.3306 49.5289 25.1707 49.7234 25.0567C49.919 24.9416 50.1509 24.8841 50.4191 24.8841C50.6873 24.8841 50.9186 24.9416 51.1131 25.0567C51.3088 25.1707 51.4595 25.3306 51.5654 25.5367C51.6713 25.7415 51.7242 25.9809 51.7242 26.2548C51.7242 26.5264 51.6713 26.7652 51.5654 26.9713C51.4595 27.1761 51.3088 27.3361 51.1131 27.4512C50.9186 27.5651 50.6873 27.6221 50.4191 27.6221ZM50.4226 27.0524C50.5446 27.0524 50.6464 27.0179 50.7281 26.9488C50.8098 26.8786 50.8714 26.7831 50.9128 26.6622C50.9554 26.5414 50.9767 26.4039 50.9767 26.2496C50.9767 26.0954 50.9554 25.9579 50.9128 25.837C50.8714 25.7162 50.8098 25.6207 50.7281 25.5505C50.6464 25.4803 50.5446 25.4452 50.4226 25.4452C50.2994 25.4452 50.1958 25.4803 50.1118 25.5505C50.0289 25.6207 49.9662 25.7162 49.9236 25.837C49.8822 25.9579 49.8615 26.0954 49.8615 26.2496C49.8615 26.4039 49.8822 26.5414 49.9236 26.6622C49.9662 26.7831 50.0289 26.8786 50.1118 26.9488C50.1958 27.0179 50.2994 27.0524 50.4226 27.0524ZM53.4005 27.6221C53.1289 27.6221 52.8953 27.5646 52.6996 27.4495C52.5051 27.3332 52.3555 27.1721 52.2508 26.9661C52.1472 26.7601 52.0954 26.523 52.0954 26.2548C52.0954 25.9832 52.1478 25.745 52.2525 25.5401C52.3584 25.3341 52.5086 25.1735 52.7031 25.0584C52.8976 24.9422 53.1289 24.8841 53.3971 24.8841C53.6284 24.8841 53.831 24.9261 54.0048 25.0101C54.1786 25.0941 54.3161 25.2121 54.4174 25.364C54.5187 25.5159 54.5745 25.6943 54.5848 25.8992H53.8908C53.8713 25.7668 53.8195 25.6604 53.7355 25.5798C53.6526 25.4981 53.5438 25.4572 53.4092 25.4572C53.2952 25.4572 53.1957 25.4883 53.1105 25.5505C53.0265 25.6115 52.9609 25.7007 52.9137 25.818C52.8665 25.9354 52.8429 26.0776 52.8429 26.2445C52.8429 26.4136 52.8659 26.5575 52.912 26.6761C52.9592 26.7946 53.0253 26.8849 53.1105 26.9471C53.1957 27.0092 53.2952 27.0403 53.4092 27.0403C53.4932 27.0403 53.5686 27.0231 53.6353 26.9885C53.7032 26.954 53.7591 26.9039 53.8028 26.8383C53.8477 26.7716 53.877 26.6916 53.8908 26.5984H54.5848C54.5733 26.8009 54.5181 26.9793 54.4191 27.1335C54.3213 27.2866 54.186 27.4063 54.0134 27.4926C53.8408 27.5789 53.6365 27.6221 53.4005 27.6221ZM56.4661 24.9186V25.471H54.8693V24.9186H56.4661ZM55.2318 24.2833H55.9672V26.7555C55.9672 26.8234 55.9776 26.8763 55.9983 26.9143C56.019 26.9511 56.0478 26.977 56.0846 26.992C56.1226 27.0069 56.1663 27.0144 56.2158 27.0144C56.2503 27.0144 56.2849 27.0115 56.3194 27.0058C56.3539 26.9989 56.3804 26.9937 56.3988 26.9903L56.5145 27.5375C56.4777 27.549 56.4259 27.5623 56.3591 27.5772C56.2924 27.5933 56.2112 27.6031 56.1157 27.6066C55.9384 27.6135 55.7831 27.5899 55.6496 27.5358C55.5172 27.4817 55.4142 27.3977 55.3406 27.2837C55.2669 27.1698 55.2306 27.0259 55.2318 26.8521V24.2833ZM58.1148 27.6221C57.8467 27.6221 57.6148 27.5651 57.4191 27.4512C57.2246 27.3361 57.0744 27.1761 56.9685 26.9713C56.8626 26.7652 56.8097 26.5264 56.8097 26.2548C56.8097 25.9809 56.8626 25.7415 56.9685 25.5367C57.0744 25.3306 57.2246 25.1707 57.4191 25.0567C57.6148 24.9416 57.8467 24.8841 58.1148 24.8841C58.383 24.8841 58.6143 24.9416 58.8088 25.0567C59.0045 25.1707 59.1552 25.3306 59.2611 25.5367C59.367 25.7415 59.42 25.9809 59.42 26.2548C59.42 26.5264 59.367 26.7652 59.2611 26.9713C59.1552 27.1761 59.0045 27.3361 58.8088 27.4512C58.6143 27.5651 58.383 27.6221 58.1148 27.6221ZM58.1183 27.0524C58.2403 27.0524 58.3421 27.0179 58.4238 26.9488C58.5056 26.8786 58.5671 26.7831 58.6086 26.6622C58.6511 26.5414 58.6724 26.4039 58.6724 26.2496C58.6724 26.0954 58.6511 25.9579 58.6086 25.837C58.5671 25.7162 58.5056 25.6207 58.4238 25.5505C58.3421 25.4803 58.2403 25.4452 58.1183 25.4452C57.9951 25.4452 57.8915 25.4803 57.8075 25.5505C57.7247 25.6207 57.6619 25.7162 57.6194 25.837C57.5779 25.9579 57.5572 26.0954 57.5572 26.2496C57.5572 26.4039 57.5779 26.5414 57.6194 26.6622C57.6619 26.7831 57.7247 26.8786 57.8075 26.9488C57.8915 27.0179 57.9951 27.0524 58.1183 27.0524ZM59.8982 27.5703V24.9186H60.6112V25.3813H60.6388C60.6871 25.2167 60.7683 25.0924 60.8822 25.0084C60.9961 24.9232 61.1273 24.8806 61.2758 24.8806C61.3126 24.8806 61.3523 24.8829 61.3949 24.8875C61.4375 24.8921 61.4749 24.8985 61.5071 24.9065V25.5591C61.4726 25.5487 61.4248 25.5395 61.3638 25.5315C61.3029 25.5234 61.247 25.5194 61.1964 25.5194C61.0882 25.5194 60.9915 25.543 60.9064 25.5902C60.8223 25.6362 60.7556 25.7007 60.7061 25.7835C60.6578 25.8664 60.6336 25.9619 60.6336 26.0701V27.5703H59.8982ZM63.7739 24.0347V27.5703H63.0263V24.0347H63.7739ZM66.2357 26.0373V27.5703H65.5002V24.0347H66.2149V25.3865H66.246C66.3059 25.2299 66.4025 25.1074 66.536 25.0187C66.6696 24.929 66.837 24.8841 67.0384 24.8841C67.2226 24.8841 67.3831 24.9244 67.5201 25.0049C67.6582 25.0843 67.7652 25.1989 67.8412 25.3485C67.9183 25.4969 67.9563 25.6748 67.9551 25.8819V27.5703H67.2197V26.0131C67.2208 25.8497 67.1794 25.7225 67.0954 25.6316C67.0125 25.5407 66.8963 25.4952 66.7467 25.4952C66.6465 25.4952 66.5579 25.5165 66.4808 25.5591C66.4048 25.6017 66.345 25.6638 66.3013 25.7455C66.2587 25.8261 66.2368 25.9234 66.2357 26.0373ZM69.29 27.6204C69.1209 27.6204 68.9701 27.591 68.8377 27.5323C68.7054 27.4725 68.6006 27.3844 68.5235 27.2682C68.4476 27.1508 68.4096 27.0046 68.4096 26.8297C68.4096 26.6824 68.4366 26.5587 68.4907 26.4585C68.5448 26.3584 68.6185 26.2778 68.7117 26.2168C68.8049 26.1558 68.9108 26.1098 69.0294 26.0787C69.1491 26.0477 69.2745 26.0258 69.4057 26.0131C69.5599 25.997 69.6842 25.9821 69.7786 25.9682C69.873 25.9533 69.9415 25.9314 69.984 25.9026C70.0266 25.8739 70.0479 25.8313 70.0479 25.7749V25.7645C70.0479 25.6552 70.0134 25.5706 69.9443 25.5108C69.8764 25.4509 69.7798 25.421 69.6543 25.421C69.5219 25.421 69.4166 25.4503 69.3384 25.509C69.2601 25.5666 69.2083 25.6391 69.183 25.7266L68.5028 25.6713C68.5373 25.5102 68.6052 25.3709 68.7065 25.2535C68.8078 25.135 68.9384 25.0441 69.0984 24.9808C69.2595 24.9163 69.446 24.8841 69.6578 24.8841C69.8051 24.8841 69.9461 24.9013 70.0807 24.9359C70.2165 24.9704 70.3368 25.0239 70.4415 25.0964C70.5474 25.1689 70.6309 25.2622 70.6918 25.3761C70.7528 25.4889 70.7833 25.6241 70.7833 25.7818V27.5703H70.0859V27.2026H70.0652C70.0226 27.2855 69.9656 27.3585 69.8943 27.4218C69.8229 27.484 69.7372 27.5329 69.637 27.5686C69.5369 27.6031 69.4212 27.6204 69.29 27.6204ZM69.5007 27.1128C69.6088 27.1128 69.7044 27.0915 69.7872 27.0489C69.8701 27.0052 69.9351 26.9465 69.9823 26.8729C70.0295 26.7992 70.0531 26.7158 70.0531 26.6225V26.3411C70.0301 26.3561 69.9984 26.3699 69.9581 26.3826C69.919 26.3941 69.8747 26.405 69.8252 26.4154C69.7757 26.4246 69.7262 26.4332 69.6767 26.4413C69.6273 26.4482 69.5824 26.4545 69.5421 26.4603C69.4558 26.4729 69.3804 26.4931 69.3159 26.5207C69.2515 26.5483 69.2014 26.5857 69.1657 26.6329C69.1301 26.6789 69.1122 26.7365 69.1122 26.8055C69.1122 26.9057 69.1485 26.9822 69.221 27.0351C69.2946 27.0869 69.3879 27.1128 69.5007 27.1128ZM73.7311 24.9186L72.8041 27.5703H71.9754L71.0483 24.9186H71.8252L72.3759 26.8159H72.4035L72.9525 24.9186H73.7311ZM75.2305 27.6221C74.9577 27.6221 74.7229 27.5669 74.5261 27.4564C74.3305 27.3447 74.1797 27.1871 74.0738 26.9833C73.9679 26.7785 73.915 26.5362 73.915 26.2565C73.915 25.9838 73.9679 25.7444 74.0738 25.5384C74.1797 25.3324 74.3287 25.1718 74.5209 25.0567C74.7143 24.9416 74.941 24.8841 75.2011 24.8841C75.3761 24.8841 75.5389 24.9123 75.6897 24.9687C75.8416 25.0239 75.974 25.1074 76.0868 25.219C76.2007 25.3306 76.2893 25.471 76.3526 25.6402C76.4159 25.8083 76.4476 26.0051 76.4476 26.2307V26.4326H74.2085V25.9769H75.7553C75.7553 25.871 75.7323 25.7772 75.6862 25.6955C75.6402 25.6138 75.5763 25.5499 75.4946 25.5038C75.414 25.4567 75.3202 25.4331 75.2132 25.4331C75.1016 25.4331 75.0026 25.459 74.9163 25.5108C74.8311 25.5614 74.7644 25.6299 74.716 25.7162C74.6677 25.8014 74.6429 25.8963 74.6418 26.001V26.4344C74.6418 26.5656 74.6659 26.6789 74.7143 26.7745C74.7638 26.87 74.8334 26.9436 74.9232 26.9954C75.0129 27.0472 75.1194 27.0731 75.2426 27.0731C75.3243 27.0731 75.3991 27.0616 75.467 27.0386C75.5349 27.0156 75.593 26.981 75.6413 26.935C75.6897 26.889 75.7265 26.8326 75.7518 26.7658L76.432 26.8107C76.3975 26.9741 76.3267 27.1169 76.2197 27.2388C76.1138 27.3597 75.9768 27.4541 75.8088 27.522C75.6419 27.5887 75.4491 27.6221 75.2305 27.6221ZM47.8904 31.6748L47.2171 31.7162C47.2056 31.6586 47.1809 31.6069 47.1429 31.5608C47.1049 31.5136 47.0548 31.4762 46.9927 31.4486C46.9317 31.4198 46.8586 31.4054 46.7734 31.4054C46.6595 31.4054 46.5634 31.4296 46.4851 31.478C46.4069 31.5251 46.3677 31.5884 46.3677 31.6679C46.3677 31.7312 46.3931 31.7847 46.4437 31.8284C46.4943 31.8721 46.5812 31.9072 46.7044 31.9337L47.1843 32.0304C47.4421 32.0833 47.6343 32.1685 47.7609 32.2859C47.8875 32.4033 47.9508 32.5575 47.9508 32.7486C47.9508 32.9223 47.8996 33.0748 47.7972 33.206C47.6959 33.3373 47.5566 33.4397 47.3794 33.5133C47.2033 33.5858 47.0002 33.6221 46.77 33.6221C46.419 33.6221 46.1393 33.549 45.931 33.4029C45.7238 33.2555 45.6024 33.0553 45.5667 32.8021L46.2901 32.7641C46.3119 32.8711 46.3649 32.9528 46.4489 33.0092C46.5329 33.0645 46.6405 33.0921 46.7717 33.0921C46.9006 33.0921 47.0042 33.0674 47.0825 33.0179C47.1619 32.9672 47.2022 32.9022 47.2033 32.8228C47.2022 32.756 47.174 32.7014 47.1187 32.6588C47.0635 32.6151 46.9783 32.5817 46.8632 32.5587L46.404 32.4672C46.145 32.4154 45.9523 32.3256 45.8257 32.1978C45.7002 32.0701 45.6375 31.9072 45.6375 31.7093C45.6375 31.539 45.6835 31.3922 45.7756 31.2691C45.8688 31.1459 45.9995 31.051 46.1675 30.9842C46.3367 30.9175 46.5346 30.8841 46.7614 30.8841C47.0963 30.8841 47.3598 30.9549 47.552 31.0964C47.7454 31.238 47.8582 31.4308 47.8904 31.6748ZM49.8244 30.9186V31.471H48.2275V30.9186H49.8244ZM48.59 30.2833H49.3255V32.7555C49.3255 32.8234 49.3358 32.8763 49.3565 32.9143C49.3772 32.9511 49.406 32.977 49.4428 32.992C49.4808 33.0069 49.5246 33.0144 49.574 33.0144C49.6086 33.0144 49.6431 33.0115 49.6776 33.0058C49.7122 32.9989 49.7386 32.9937 49.757 32.9903L49.8727 33.5375C49.8359 33.549 49.7841 33.5623 49.7173 33.5772C49.6506 33.5933 49.5694 33.6031 49.4739 33.6066C49.2967 33.6135 49.1413 33.5899 49.0078 33.5358C48.8754 33.4817 48.7724 33.3977 48.6988 33.2837C48.6251 33.1698 48.5889 33.0259 48.59 32.8521V30.2833ZM51.4731 33.6221C51.2049 33.6221 50.973 33.5651 50.7773 33.4512C50.5828 33.3361 50.4326 33.1761 50.3267 32.9713C50.2209 32.7652 50.1679 32.5264 50.1679 32.2548C50.1679 31.9809 50.2209 31.7415 50.3267 31.5367C50.4326 31.3306 50.5828 31.1707 50.7773 31.0567C50.973 30.9416 51.2049 30.8841 51.4731 30.8841C51.7412 30.8841 51.9725 30.9416 52.1671 31.0567C52.3627 31.1707 52.5135 31.3306 52.6194 31.5367C52.7252 31.7415 52.7782 31.9809 52.7782 32.2548C52.7782 32.5264 52.7252 32.7652 52.6194 32.9713C52.5135 33.1761 52.3627 33.3361 52.1671 33.4512C51.9725 33.5651 51.7412 33.6221 51.4731 33.6221ZM51.4765 33.0524C51.5985 33.0524 51.7004 33.0179 51.7821 32.9488C51.8638 32.8786 51.9254 32.7831 51.9668 32.6622C52.0094 32.5414 52.0307 32.4039 52.0307 32.2496C52.0307 32.0954 52.0094 31.9579 51.9668 31.837C51.9254 31.7162 51.8638 31.6207 51.7821 31.5505C51.7004 31.4803 51.5985 31.4452 51.4765 31.4452C51.3534 31.4452 51.2498 31.4803 51.1658 31.5505C51.0829 31.6207 51.0202 31.7162 50.9776 31.837C50.9362 31.9579 50.9154 32.0954 50.9154 32.2496C50.9154 32.4039 50.9362 32.5414 50.9776 32.6622C51.0202 32.7831 51.0829 32.8786 51.1658 32.9488C51.2498 33.0179 51.3534 33.0524 51.4765 33.0524ZM53.2564 34.5647V30.9186H53.9815V31.364H54.0143C54.0465 31.2927 54.0931 31.2201 54.1541 31.1465C54.2163 31.0717 54.2968 31.0095 54.3958 30.96C54.4959 30.9094 54.6202 30.8841 54.7687 30.8841C54.962 30.8841 55.1404 30.9347 55.3039 31.036C55.4673 31.1361 55.5979 31.2875 55.6957 31.49C55.7936 31.6914 55.8425 31.9441 55.8425 32.2479C55.8425 32.5437 55.7947 32.7934 55.6992 32.9972C55.6048 33.1997 55.4759 33.3534 55.3125 33.4581C55.1502 33.5617 54.9684 33.6135 54.767 33.6135C54.6243 33.6135 54.5028 33.5899 54.4027 33.5427C54.3037 33.4955 54.2226 33.4362 54.1593 33.3649C54.096 33.2924 54.0476 33.2193 54.0143 33.1456H53.9918V34.5647H53.2564ZM53.9763 32.2445C53.9763 32.4021 53.9982 32.5397 54.0419 32.6571C54.0856 32.7745 54.1489 32.866 54.2318 32.9316C54.3147 32.996 54.4154 33.0282 54.5339 33.0282C54.6536 33.0282 54.7549 32.9954 54.8377 32.9298C54.9206 32.8631 54.9833 32.771 55.0259 32.6536C55.0697 32.5351 55.0915 32.3987 55.0915 32.2445C55.0915 32.0914 55.0702 31.9567 55.0276 31.8405C54.9851 31.7242 54.9223 31.6333 54.8395 31.5677C54.7566 31.5021 54.6547 31.4693 54.5339 31.4693C54.4142 31.4693 54.3129 31.501 54.2301 31.5643C54.1483 31.6276 54.0856 31.7173 54.0419 31.8336C53.9982 31.9498 53.9763 32.0868 53.9763 32.2445ZM57.4579 33.5703V30.9186H58.1588V31.3865H58.1899C58.2452 31.2311 58.3372 31.1085 58.4661 31.0187C58.595 30.929 58.7493 30.8841 58.9288 30.8841C59.1107 30.8841 59.2654 30.9295 59.3932 31.0205C59.521 31.1102 59.6061 31.2322 59.6487 31.3865H59.6763C59.7304 31.2345 59.8282 31.1131 59.9698 31.0222C60.1125 30.9301 60.2811 30.8841 60.4756 30.8841C60.7231 30.8841 60.9239 30.9629 61.0781 31.1206C61.2335 31.2771 61.3112 31.4992 61.3112 31.787V33.5703H60.5775V31.932C60.5775 31.7847 60.5384 31.6742 60.4601 31.6005C60.3818 31.5269 60.284 31.49 60.1666 31.49C60.0331 31.49 59.9289 31.5326 59.8541 31.6178C59.7793 31.7018 59.7419 31.8129 59.7419 31.951V33.5703H59.0289V31.9165C59.0289 31.7864 58.9915 31.6828 58.9167 31.6057C58.8431 31.5286 58.7458 31.49 58.625 31.49C58.5433 31.49 58.4696 31.5108 58.404 31.5522C58.3395 31.5925 58.2883 31.6494 58.2503 31.7231C58.2124 31.7956 58.1934 31.8808 58.1934 31.9786V33.5703H57.4579ZM63.1006 33.6221C62.8278 33.6221 62.593 33.5669 62.3962 33.4564C62.2006 33.3447 62.0498 33.1871 61.9439 32.9833C61.838 32.7785 61.7851 32.5362 61.7851 32.2565C61.7851 31.9838 61.838 31.7444 61.9439 31.5384C62.0498 31.3324 62.1988 31.1718 62.391 31.0567C62.5844 30.9416 62.8111 30.8841 63.0712 30.8841C63.2462 30.8841 63.409 30.9123 63.5598 30.9687C63.7117 31.0239 63.8441 31.1074 63.9569 31.219C64.0708 31.3306 64.1594 31.471 64.2227 31.6402C64.286 31.8083 64.3177 32.0051 64.3177 32.2307V32.4326H62.0786V31.9769H63.6254C63.6254 31.871 63.6024 31.7772 63.5563 31.6955C63.5103 31.6138 63.4464 31.5499 63.3647 31.5038C63.2841 31.4567 63.1903 31.4331 63.0833 31.4331C62.9717 31.4331 62.8727 31.459 62.7864 31.5108C62.7012 31.5614 62.6345 31.6299 62.5861 31.7162C62.5378 31.8014 62.513 31.8963 62.5119 32.001V32.4344C62.5119 32.5656 62.5361 32.6789 62.5844 32.7745C62.6339 32.87 62.7035 32.9436 62.7933 32.9954C62.8831 33.0472 62.9895 33.0731 63.1127 33.0731C63.1944 33.0731 63.2692 33.0616 63.3371 33.0386C63.405 33.0156 63.4631 32.981 63.5115 32.935C63.5598 32.889 63.5966 32.8326 63.6219 32.7658L64.3021 32.8107C64.2676 32.9741 64.1968 33.1169 64.0898 33.2388C63.9839 33.3597 63.8469 33.4541 63.6789 33.522C63.512 33.5887 63.3192 33.6221 63.1006 33.6221ZM65.7747 33.6135C65.5733 33.6135 65.3909 33.5617 65.2275 33.4581C65.0652 33.3534 64.9363 33.1997 64.8408 32.9972C64.7464 32.7934 64.6992 32.5437 64.6992 32.2479C64.6992 31.9441 64.7481 31.6914 64.8459 31.49C64.9438 31.2875 65.0738 31.1361 65.2361 31.036C65.3995 30.9347 65.5785 30.8841 65.773 30.8841C65.9215 30.8841 66.0452 30.9094 66.1442 30.96C66.2443 31.0095 66.3249 31.0717 66.3859 31.1465C66.448 31.2201 66.4952 31.2927 66.5274 31.364H66.5499V30.0347H67.2836V33.5703H66.5585V33.1456H66.5274C66.4929 33.2193 66.444 33.2924 66.3807 33.3649C66.3185 33.4362 66.2374 33.4955 66.1373 33.5427C66.0383 33.5899 65.9174 33.6135 65.7747 33.6135ZM66.0078 33.0282C66.1263 33.0282 66.2265 32.996 66.3082 32.9316C66.391 32.866 66.4543 32.7745 66.4981 32.6571C66.543 32.5397 66.5654 32.4021 66.5654 32.2445C66.5654 32.0868 66.5435 31.9498 66.4998 31.8336C66.4561 31.7173 66.3928 31.6276 66.3099 31.5643C66.227 31.501 66.1263 31.4693 66.0078 31.4693C65.8869 31.4693 65.7851 31.5021 65.7022 31.5677C65.6193 31.6333 65.5566 31.7242 65.514 31.8405C65.4715 31.9567 65.4502 32.0914 65.4502 32.2445C65.4502 32.3987 65.4715 32.5351 65.514 32.6536C65.5578 32.771 65.6205 32.8631 65.7022 32.9298C65.7851 32.9954 65.8869 33.0282 66.0078 33.0282ZM67.8882 33.5703V30.9186H68.6237V33.5703H67.8882ZM68.2577 30.5768C68.1483 30.5768 68.0545 30.5405 67.9763 30.468C67.8992 30.3944 67.8606 30.3063 67.8606 30.2039C67.8606 30.1026 67.8992 30.0157 67.9763 29.9432C68.0545 29.8696 68.1483 29.8327 68.2577 29.8327C68.367 29.8327 68.4602 29.8696 68.5373 29.9432C68.6156 30.0157 68.6547 30.1026 68.6547 30.2039C68.6547 30.3063 68.6156 30.3944 68.5373 30.468C68.4602 30.5405 68.367 30.5768 68.2577 30.5768ZM70.4109 33.6221C70.1393 33.6221 69.9056 33.5646 69.71 33.4495C69.5155 33.3332 69.3659 33.1721 69.2611 32.9661C69.1575 32.7601 69.1057 32.523 69.1057 32.2548C69.1057 31.9832 69.1581 31.745 69.2628 31.5401C69.3687 31.3341 69.5189 31.1735 69.7134 31.0584C69.9079 30.9422 70.1393 30.8841 70.4074 30.8841C70.6388 30.8841 70.8413 30.9261 71.0151 31.0101C71.1889 31.0941 71.3264 31.2121 71.4277 31.364C71.529 31.5159 71.5848 31.6943 71.5952 31.8992H70.9012C70.8816 31.7668 70.8298 31.6604 70.7458 31.5798C70.6629 31.4981 70.5542 31.4572 70.4195 31.4572C70.3056 31.4572 70.206 31.4883 70.1209 31.5505C70.0368 31.6115 69.9712 31.7007 69.924 31.818C69.8769 31.9354 69.8533 32.0776 69.8533 32.2445C69.8533 32.4136 69.8763 32.5575 69.9223 32.6761C69.9695 32.7946 70.0357 32.8849 70.1209 32.9471C70.206 33.0092 70.3056 33.0403 70.4195 33.0403C70.5035 33.0403 70.5789 33.0231 70.6457 32.9885C70.7136 32.954 70.7694 32.9039 70.8131 32.8383C70.858 32.7716 70.8874 32.6916 70.9012 32.5984H71.5952C71.5837 32.8009 71.5284 32.9793 71.4294 33.1335C71.3316 33.2866 71.1964 33.4063 71.0237 33.4926C70.8511 33.5789 70.6468 33.6221 70.4109 33.6221ZM72.066 33.5703V30.9186H72.8015V33.5703H72.066ZM72.4355 30.5768C72.3261 30.5768 72.2323 30.5405 72.1541 30.468C72.077 30.3944 72.0384 30.3063 72.0384 30.2039C72.0384 30.1026 72.077 30.0157 72.1541 29.9432C72.2323 29.8696 72.3261 29.8327 72.4355 29.8327C72.5448 29.8327 72.638 29.8696 72.7152 29.9432C72.7934 30.0157 72.8325 30.1026 72.8325 30.2039C72.8325 30.3063 72.7934 30.3944 72.7152 30.468C72.638 30.5405 72.5448 30.5768 72.4355 30.5768ZM74.126 32.0373V33.5703H73.3906V30.9186H74.0915V31.3865H74.1226C74.1813 31.2322 74.2797 31.1102 74.4178 31.0205C74.5559 30.9295 74.7234 30.8841 74.9202 30.8841C75.1043 30.8841 75.2649 30.9244 75.4018 31.0049C75.5388 31.0855 75.6452 31.2006 75.7212 31.3502C75.7972 31.4987 75.8351 31.6759 75.8351 31.8819V33.5703H75.0997V32.0131C75.1009 31.8508 75.0594 31.7242 74.9754 31.6333C74.8914 31.5413 74.7757 31.4952 74.6284 31.4952C74.5294 31.4952 74.442 31.5165 74.366 31.5591C74.2912 31.6017 74.2325 31.6638 74.1899 31.7455C74.1485 31.8261 74.1272 31.9234 74.126 32.0373ZM77.6232 33.6221C77.3505 33.6221 77.1157 33.5669 76.9189 33.4564C76.7232 33.3447 76.5724 33.1871 76.4666 32.9833C76.3607 32.7785 76.3077 32.5362 76.3077 32.2565C76.3077 31.9838 76.3607 31.7444 76.4666 31.5384C76.5724 31.3324 76.7215 31.1718 76.9137 31.0567C77.107 30.9416 77.3338 30.8841 77.5939 30.8841C77.7688 30.8841 77.9317 30.9123 78.0824 30.9687C78.2344 31.0239 78.3667 31.1074 78.4795 31.219C78.5934 31.3306 78.6821 31.471 78.7454 31.6402C78.8087 31.8083 78.8403 32.0051 78.8403 32.2307V32.4326H76.6012V31.9769H78.148C78.148 31.871 78.125 31.7772 78.079 31.6955C78.0329 31.6138 77.9691 31.5499 77.8874 31.5038C77.8068 31.4567 77.713 31.4331 77.606 31.4331C77.4943 31.4331 77.3953 31.459 77.309 31.5108C77.2239 31.5614 77.1571 31.6299 77.1088 31.7162C77.0604 31.8014 77.0357 31.8963 77.0345 32.001V32.4344C77.0345 32.5656 77.0587 32.6789 77.107 32.7745C77.1565 32.87 77.2262 32.9436 77.3159 32.9954C77.4057 33.0472 77.5122 33.0731 77.6353 33.0731C77.717 33.0731 77.7918 33.0616 77.8597 33.0386C77.9276 33.0156 77.9858 32.981 78.0341 32.935C78.0824 32.889 78.1193 32.8326 78.1446 32.7658L78.8248 32.8107C78.7902 32.9741 78.7195 33.1169 78.6124 33.2388C78.5065 33.3597 78.3696 33.4541 78.2016 33.522C78.0347 33.5887 77.8419 33.6221 77.6232 33.6221ZM79.7501 33.6152C79.6362 33.6152 79.5383 33.5749 79.4566 33.4944C79.3761 33.4126 79.3358 33.3148 79.3358 33.2009C79.3358 33.0881 79.3761 32.9914 79.4566 32.9108C79.5383 32.8303 79.6362 32.79 79.7501 32.79C79.8606 32.79 79.9573 32.8303 80.0401 32.9108C80.123 32.9914 80.1644 33.0881 80.1644 33.2009C80.1644 33.2768 80.1449 33.3465 80.1057 33.4098C80.0678 33.4719 80.0177 33.522 79.9555 33.56C79.8934 33.5968 79.8249 33.6152 79.7501 33.6152Z" fill="#8D8D8D"/>
<path d="M33.4213 33.7021C37.7843 33.7021 41.3212 30.1652 41.3212 25.8022C41.3212 21.4392 37.7843 17.9023 33.4213 17.9023C29.0584 17.9023 25.5215 21.4392 25.5215 25.8022C25.5215 30.1652 29.0584 33.7021 33.4213 33.7021Z" fill="#ECECEC"/>
</g>
<defs>
<filter id="filter0_d_240_26458" x="13.0669" y="4.38139" width="77.1122" height="42.0107" filterUnits="userSpaceOnUse" color-interpolation-filters="sRGB">
<feFlood flood-opacity="0" result="BackgroundImageFix"/>
<feColorMatrix in="SourceAlpha" type="matrix" values="0 0 0 0 0 0 0 0 0 0 0 0 0 0 0 0 0 0 127 0" result="hardAlpha"/>
<feOffset/>
<feGaussianBlur stdDeviation="3.94993"/>
<feColorMatrix type="matrix" values="0 0 0 0 0 0 0 0 0 0 0 0 0 0 0 0 0 0 0.161 0"/>
<feBlend mode="normal" in2="BackgroundImageFix" result="effect1_dropShadow_240_26458"/>
<feBlend mode="normal" in="SourceGraphic" in2="effect1_dropShadow_240_26458" result="shape"/>
</filter>
<clipPath id="clip0_240_26458">
<rect width="102.091" height="119.564" fill="white" transform="translate(0 0.429688)"/>
</clipPath>
</defs>
</svg>
