<svg width="76" height="77" viewBox="0 0 76 77" fill="none" xmlns="http://www.w3.org/2000/svg">
<g clip-path="url(#clip0_5102_4793)">
<path fill-rule="evenodd" clip-rule="evenodd" d="M75.95 38.8234C75.95 17.8847 58.9686 0.848633 37.9748 0.848633C17.0361 0.848633 0 17.8847 0 38.8234C0 59.8167 17.0361 76.7998 37.9748 76.7998C58.9686 76.7998 75.95 59.8167 75.95 38.8234Z" fill="#13ADE1"/>
<path fill-rule="evenodd" clip-rule="evenodd" d="M75.9498 38.8235C75.9498 38.0545 75.9498 37.284 75.8951 36.5157L57.8156 19.8088C57.0451 19.8088 56.7705 20.3026 56.0015 20.3026C44.3496 20.3026 32.6984 20.3026 21.1022 20.3026C20.2786 20.3026 19.5081 20.3026 18.6854 20.3026C18.6854 21.1269 18.6854 21.8967 18.6854 22.7203C18.6854 24.0398 18.6854 25.3595 18.6854 26.7321C18.6854 35.4153 18.6854 44.1552 18.6854 52.8374L18.1348 54.7608C22.0373 56.5202 41.7123 76.5221 42.5906 76.5221C61.3875 74.2706 75.9498 58.2241 75.9498 38.8235Z" fill="#109DCC"/>
<path fill-rule="evenodd" clip-rule="evenodd" d="M20.554 26.2383H55.451V52.3439H20.554V26.2383ZM57.8155 52.3439V54.7608H55.451H20.554H18.1348V52.3439V26.2383V22.1719V19.8088H20.554H55.451H57.8155V22.1719V26.2383V52.3439Z" fill="#324A5E"/>
<path fill-rule="evenodd" clip-rule="evenodd" d="M47.9219 22.9944C47.9219 23.875 48.638 24.5885 49.5161 24.5885C50.3411 24.5885 51.054 23.875 51.054 22.9944C51.054 22.1156 50.3409 21.4027 49.5161 21.4027C48.638 21.4027 47.9219 22.1156 47.9219 22.9944Z" fill="#90DFAA"/>
<path fill-rule="evenodd" clip-rule="evenodd" d="M52.2646 22.9944C52.2646 23.875 52.9789 24.5885 53.8587 24.5885C54.7369 24.5885 55.4512 23.875 55.4512 22.9944C55.4512 22.1156 54.7369 21.4027 53.8587 21.4027C52.9789 21.4027 52.2646 22.1156 52.2646 22.9944Z" fill="#FFD05B"/>
<path fill-rule="evenodd" clip-rule="evenodd" d="M43.5266 22.9944C43.5266 23.875 44.241 24.5885 45.119 24.5885C45.9988 24.5885 46.713 23.875 46.713 22.9944C46.713 22.1156 45.9988 21.4027 45.119 21.4027C44.241 21.4027 43.5266 22.1156 43.5266 22.9944Z" fill="#FD8469"/>
<path d="M55.4517 26.2383H20.5547V52.3438H55.4517V26.2383Z" fill="white"/>
<path d="M50.0648 31.0742H32.3701V32.7775H50.0648V31.0742Z" fill="#E6E6E6"/>
<path d="M50.0648 38.4941H32.3701V40.1974H50.0648V38.4941Z" fill="#E6E6E6"/>
<path d="M30.5557 37.0093H25.9402V41.5707H30.5557V37.0093Z" fill="#90DFAA"/>
<path d="M50.0648 45.8564H32.3701V47.5613H50.0648V45.8564Z" fill="#E6E6E6"/>
<path d="M30.5557 44.3737H25.9402V48.9354H30.5557V44.3737Z" fill="#FFD05B"/>
<path d="M30.5557 29.6462H25.9402V34.2072H30.5557V29.6462Z" fill="#FD8469"/>
<path fill-rule="evenodd" clip-rule="evenodd" d="M52.759 60.4761L47.922 56.0806C45.4501 53.936 43.965 51.243 43.5812 48.496C43.5265 48.0016 43.4719 47.5609 43.4719 47.0665V39.8672C43.4719 39.8672 51.1102 38.1085 52.8136 36.5698C54.5185 38.1085 62.1569 39.8672 62.1569 39.8672V47.0665C62.1569 47.5609 62.046 48.0016 61.9915 48.496C61.6607 51.243 60.1774 53.936 57.705 56.0806L52.759 60.4761Z" fill="#253645"/>
<path fill-rule="evenodd" clip-rule="evenodd" d="M60.561 48.5516C60.6171 48.1117 60.6171 47.7804 60.6171 47.3413V41.3509C60.6171 41.3509 54.2423 39.8674 52.8137 38.5477V48.5515H60.561V48.5516Z" fill="white"/>
<path fill-rule="evenodd" clip-rule="evenodd" d="M52.8132 38.4941C51.383 39.8138 45.0098 41.2963 45.0098 41.2963V47.3414C45.0098 47.7805 45.0098 48.1118 45.0641 48.5517H52.8132V38.4941Z" fill="#FD8469"/>
<path fill-rule="evenodd" clip-rule="evenodd" d="M45.119 48.5519C45.4499 50.9135 46.713 53.112 48.7471 54.9254L52.8135 58.4987V48.5519H45.119Z" fill="white"/>
<path fill-rule="evenodd" clip-rule="evenodd" d="M60.4519 48.5519C60.1774 50.9135 58.8594 53.112 56.88 54.9254L52.8137 58.4987V48.5519H60.4519Z" fill="#FD8469"/>
</g>
<defs>
<clipPath id="clip0_5102_4793">
<rect width="75.95" height="75.9511" fill="white" transform="translate(0 0.848633)"/>
</clipPath>
</defs>
</svg>
