<svg width="96" height="111" viewBox="0 0 96 111" fill="none" xmlns="http://www.w3.org/2000/svg">
<g clip-path="url(#clip0_4759_21364)">
<path d="M47.5179 102.727C73.7613 102.727 95.0358 81.4527 95.0358 55.2093C95.0358 28.9659 73.7613 7.69141 47.5179 7.69141C21.2745 7.69141 0 28.9659 0 55.2093C0 81.4527 21.2745 102.727 47.5179 102.727Z" fill="#707070" fill-opacity="0.1"/>
<path d="M19.5471 65.9696C19.0171 66.4991 18.1142 66.7718 17.8703 67.4693C17.1644 69.4876 18.5322 70.955 18.8852 71.3963C19.3193 71.888 19.8432 72.2923 20.4289 72.5876C21.0312 72.8252 21.6851 72.901 22.3257 72.8077C22.6787 72.72 23.7818 72.4552 24.046 71.9699C24.3101 71.4845 24.5313 69.5437 24.7078 68.9717C24.8843 68.3998 23.87 66.2802 23.6053 66.1043C23.3405 65.9283 20.7379 64.957 20.7379 64.957L19.5471 65.9696Z" fill="#E8C6BC"/>
<path d="M24.3108 67.1148C23.97 66.659 23.5135 66.3023 22.9887 66.0819C22.5344 65.724 22.0103 65.465 21.4501 65.3216C21.1459 65.2777 20.8359 65.3004 20.5414 65.3884C20.247 65.4763 19.9753 65.6272 19.7451 65.8307C19.7451 65.8307 20.4879 64.6648 21.1345 64.4663C21.5621 64.3257 22.0086 64.2513 22.4587 64.2456C22.8546 64.2456 22.7235 64.1433 22.9436 64.1133L23.0685 64.4374V65.2967C23.2477 65.5321 23.4417 65.7558 23.6494 65.9665C23.8932 66.3354 24.1141 66.7189 24.3108 67.1148Z" fill="#F09880"/>
<path d="M24.1317 38.7381C25.0266 39.0368 24.0593 39.0668 24.4061 40.0929C24.7529 41.1191 24.9926 42.8569 24.669 43.6862C24.3455 44.5155 23.6413 45.8234 23.122 46.1294C22.6027 46.4354 19.4003 48.9386 17.0181 47.8531C14.636 46.7675 15.0049 44.8379 15.3211 43.7875C15.6472 42.7034 16.1812 41.6932 16.8932 40.8131C17.6744 39.8124 18.4736 38.4411 19.342 37.9642C20.027 37.5676 20.7607 37.2615 21.5245 37.0535C22.4777 36.8408 24.1933 37.1581 24.0672 37.3177C24.0211 37.7918 24.0429 38.2701 24.1317 38.7381Z" fill="#E8C6BC"/>
<path d="M17.02 47.851C15.5899 47.1999 15.1532 46.2444 15.0967 45.3574C15.5492 46.7355 17.0007 47.7333 19.8066 46.331C22.7119 44.8783 21.5732 40.4201 21.111 39.4952C20.6488 38.5703 20.8141 37.6132 22.1859 37.2166C22.2713 37.1917 22.1938 37.0509 22.1989 36.9824C22.282 36.9824 22.3651 36.9824 22.4488 36.9824C22.8103 38.4159 23.4214 43.5444 23.5939 45.6601C23.4662 45.8423 23.3068 46 23.1232 46.1257C22.6039 46.4334 19.4015 48.936 17.02 47.851Z" fill="#F7D8CD"/>
<path d="M20.6279 56.233C21.4663 56.1448 22.3046 56.1007 22.9665 56.8067C23.6284 57.5126 24.4667 58.8358 24.5103 59.6306C24.5538 60.4254 24.4661 61.7485 24.1578 62.1898C23.8495 62.631 22.1724 65.8515 19.8338 65.8515C17.4952 65.8515 16.4363 64.4373 16.3045 63.4688C16.1684 62.4674 16.2281 61.4492 16.4804 60.4706C16.7605 59.3784 17.2365 58.346 17.8855 57.4238C18.3901 56.7478 18.7742 56.1912 19.2601 56.0147C19.746 55.8382 20.7156 55.8823 20.6743 56.0588L20.6279 56.233Z" fill="#E8C6BC"/>
<path d="M16.2426 62.3972C16.3179 63.0358 16.637 63.6206 17.1333 64.0295C17.6296 64.4383 18.2647 64.6395 18.9059 64.591C22.7696 64.6244 21.9386 55.114 18.9353 56.6204C18.3258 56.8811 17.8296 57.351 17.5359 57.9453C17.8513 57.4283 18.1956 56.9295 18.5671 56.4513C19.0389 55.8256 19.6505 55.319 20.3531 54.9721C21.0558 54.6251 21.8299 54.4474 22.6135 54.4533L22.5829 56.4954L23.6413 57.9096L24.1708 59.454L24.1272 61.1307C24.0462 61.7294 23.8675 62.3108 23.5978 62.8515C23.3615 63.1851 23.1785 63.5534 23.0553 63.9433C23.0231 64.0072 22.1429 64.9898 22.1429 64.9898C21.4335 65.5504 20.0107 66.5171 17.52 65.254C15.9796 64.471 16.2426 62.3972 16.2426 62.3972Z" fill="#F7D8CD"/>
<path fill-rule="evenodd" clip-rule="evenodd" d="M65.698 95.097C66.2436 94.5481 66.5863 93.83 66.6698 93.0605C66.6845 92.9308 66.6912 92.8003 66.6901 92.6697C66.6908 92.6209 66.6815 92.5725 66.6626 92.5275C66.6437 92.4825 66.6158 92.442 66.5805 92.4083C66.4956 92.3268 66.4108 92.2443 66.3265 92.1622C66.2457 92.0788 66.1396 92.0244 66.0247 92.0075C65.9098 91.9907 65.7925 92.0122 65.6912 92.0689C65.6195 92.1042 65.556 92.1542 65.5049 92.2156C65.4537 92.277 65.4159 92.3484 65.3941 92.4253C65.346 92.595 65.2968 92.7647 65.2532 92.9344C65.228 93.0225 65.2271 93.1158 65.2505 93.2044C65.2739 93.293 65.3208 93.3737 65.3862 93.4379C65.4332 93.4871 65.4824 93.5352 65.5339 93.581C65.5495 93.5922 65.5607 93.6085 65.5655 93.6271C65.5704 93.6457 65.5686 93.6654 65.5605 93.6828C65.4576 94.0068 65.2787 94.3016 65.0389 94.5426C64.7991 94.7837 64.5054 94.964 64.1819 95.0687C64.146 95.0892 64.1037 95.0956 64.0633 95.0866C64.0229 95.0776 63.9874 95.0539 63.9636 95.0201C63.921 94.9659 63.871 94.9179 63.8153 94.8775C63.7516 94.8292 63.6779 94.7959 63.5995 94.7798C63.5212 94.7638 63.4404 94.7654 63.3628 94.7848C63.1722 94.8294 62.9832 94.8809 62.7971 94.9364C62.7224 94.9574 62.6529 94.9939 62.5933 95.0437C62.5337 95.0934 62.4853 95.1552 62.4513 95.225C62.4173 95.2947 62.3983 95.3709 62.3958 95.4485C62.3933 95.5261 62.4072 95.6034 62.4367 95.6752C62.4596 95.7235 62.4905 95.7676 62.5278 95.8059C62.5923 95.8754 62.6682 95.9365 62.7315 96.0078C62.7747 96.0658 62.831 96.1129 62.8957 96.1451C62.9605 96.1774 63.0319 96.1939 63.1043 96.1934C64.0798 96.1854 65.0124 95.7911 65.698 95.097Z" fill="white"/>
<path d="M22.8789 52.6143C23.4525 52.5995 23.4083 52.3348 23.6578 52.5995C23.8685 52.9528 24.0132 53.3416 24.0844 53.7468C24.1496 54.0214 24.1784 54.3035 24.1703 54.5857C24.2003 54.8798 24.1856 55.0563 23.9938 55.0269C23.8107 54.9972 23.6442 54.9034 23.5238 54.7622C23.3902 54.5782 23.2672 54.3866 23.1555 54.1886C23.0654 53.9998 22.9465 53.8261 22.8031 53.6738C22.656 53.5408 22.17 53.2778 22.2436 53.0413C22.3171 52.8049 22.0965 52.7183 22.3907 52.6148C22.468 52.5825 22.5509 52.5658 22.6347 52.5657C22.7185 52.5656 22.8015 52.5821 22.8789 52.6143Z" fill="#DD996B"/>
<path d="M17.6758 68.433C17.682 68.4726 17.6883 68.5099 17.6922 68.5546C17.9236 70.7676 19.739 70.767 20.5649 70.6018C21.1475 70.4859 21.5796 69.9083 21.7527 69.0349C21.7527 68.9896 21.7573 68.9478 21.7578 68.9014C21.7912 66.4039 21.8337 65.4846 21.2533 65.3228C20.7702 65.1882 21.5786 64.644 21.5786 64.644C21.5786 64.644 22.2822 64.5931 22.384 64.8063C22.4858 65.0196 23.2467 65.0994 23.3202 65.9462C23.3202 65.9598 23.3237 65.9688 23.3248 65.9818C23.4979 65.9615 23.6558 65.9468 23.7458 65.936C23.7458 65.936 24.5998 66.6567 24.7758 66.8479C24.9517 67.0391 24.8929 67.8775 24.8929 68.1422C24.9279 68.5342 24.9182 68.929 24.864 69.3188C24.6483 69.6053 24.3962 69.8624 24.114 70.0837C24.0823 70.1165 23.9867 70.0797 23.864 69.9864C23.8792 70.0214 23.8922 70.052 23.9024 70.0746C23.8035 70.4344 23.6301 70.7694 23.3933 71.0578C23.4043 71.2087 23.3778 71.36 23.3161 71.4982C23.2544 71.6364 23.1595 71.7572 23.0397 71.8497C22.4859 72.4001 23.775 72.6706 23.4741 72.7481C22.9415 72.8621 22.3948 72.8955 21.8523 72.847C21.3661 72.8577 20.8828 72.7691 20.4319 72.5868C20.3595 72.5506 20.2848 72.5099 20.209 72.4663C20.0764 72.3955 19.948 72.3171 19.8243 72.2316H19.8345C19.4816 71.9987 19.1628 71.7177 18.8875 71.3966C18.1189 70.6005 17.6851 69.5396 17.6758 68.433Z" fill="#F7D8CD"/>
<path d="M63.5546 46.4058C63.5546 46.4058 62.8044 46.0189 62.4079 45.7615C62.0113 45.5041 60.6871 44.5589 60.467 44.4729C60.247 44.3869 59.9811 44.1295 59.7605 44.0865C59.5399 44.0435 43.1716 50.3142 42.9075 51.6882C42.6433 53.0623 41.3189 55.725 40.3482 58.9896C39.3775 62.2542 38.6721 66.5483 39.0257 68.5237C39.3792 70.4991 39.9082 73.1624 39.9082 73.1624L40.7001 76.5124C40.7001 76.5124 42.2003 79.0455 42.3332 79.3041C42.4661 79.5626 42.9503 79.8624 43.0827 80.1198C44.1723 81.4728 45.3843 82.7226 46.7032 83.8533C47.437 84.4348 48.1298 85.0663 48.7765 85.7433C49.9035 86.5115 51.0825 87.2003 52.3051 87.8047C53.4276 88.3329 54.506 88.9503 55.5297 89.6511C56.4551 90.2954 57.8162 89.3258 58.4339 90.2281C59.0517 91.1304 60.9954 92.5644 61.2624 93.2947C61.5294 94.025 66.8389 109.893 67.0035 110.101C67.1681 110.308 93.8115 89.1397 93.8115 89.1397C93.5247 88.2912 85.2481 76.1187 84.8069 75.4314C84.3656 74.744 82.6007 72.3393 82.6007 72.3393L82.336 71.1366C82.336 71.1366 81.6504 63.7974 80.9444 60.7908C80.2384 57.7841 78.9197 53.9046 78.6499 53.146C75.7519 44.9967 64.855 32.5549 58.1188 24.6494C51.8555 17.2955 28.4365 25.2485 28.4365 27.2736C28.4365 29.2988 29.6245 36.5306 31.1111 37.688C32.5978 38.8454 40.0275 42.0274 40.0275 42.0274" fill="#F7D8CD"/>
<path d="M49.6581 36.0282C47.4124 34.8402 48.0742 32.4643 46.7528 29.6879C45.4313 26.9115 48.0731 24.8004 49.1286 22.8193C49.4076 22.3471 49.7879 21.9425 50.2419 21.6348C53.5693 21.8305 53.1269 24.9559 54.7912 26.9636C56.525 29.0566 60.65 25.0283 60.9838 28.2516C61.132 29.6879 61.2311 34.1959 62.6182 35.6814C66.535 39.8788 70.0592 43.4613 72.8214 47.9659C71.1951 48.475 70.8297 47.8035 68.942 47.5201C66.3002 47.1242 61.5439 41.8401 58.1107 39.1989C58.1124 39.1983 51.9034 37.2167 49.6581 36.0282Z" fill="#E8C6BC"/>
<path d="M63.5549 47.0849C63.5549 47.0849 62.8055 46.6889 62.4083 46.4231C62.0112 46.1572 60.6874 45.1876 60.4674 45.0993C60.2473 45.0111 59.9814 44.7463 59.7608 44.7034C59.7105 44.6932 58.8065 45.0258 57.4443 45.5598C58.9757 47.9781 61.6452 51.7332 61.6452 51.7332C62.2142 49.3805 63.0407 48.2412 64.4272 47.4486L63.5549 47.0849Z" fill="#F09880"/>
<path d="M50.054 48.5949C50.4064 47.7362 54.377 43.3555 54.377 43.3555C54.377 43.3555 57.6432 43.8222 58.3045 43.9325C59.3587 44.1571 60.381 44.5114 61.348 44.9875C62.1021 45.5164 64.9831 47.024 64.9831 47.024C63.1164 48.4382 65.7587 48.6271 65.4781 63.6105C65.2139 77.7828 51.5112 81.1616 56.2652 85.0185C58.5432 86.8672 47.17 82.9928 47.1219 84.6649C45.7623 83.3942 44.5011 82.0222 43.3488 80.5609C42.8029 79.9386 42.4347 79.2762 42.1122 78.9158C33.5924 69.3958 49.7004 49.4542 50.054 48.5949Z" fill="#F09880"/>
<path opacity="0.3" d="M23.2663 66.2441C23.4736 66.5667 23.7427 66.8449 24.0582 67.0627V68.7196C23.9587 68.7394 23.8585 68.753 23.7872 68.7733C23.6073 68.7897 23.4265 68.7558 23.2646 68.6755L23.2663 66.2441Z" fill="#BBB9C6"/>
<path opacity="0.3" d="M23.2663 53.0703C23.4735 53.3929 23.7426 53.6711 24.0582 53.8889V55.5458C23.9587 55.5661 23.8585 55.5792 23.7872 55.6023C23.6073 55.6184 23.4266 55.5845 23.2646 55.5045L23.2663 53.0703Z" fill="#BBB9C6"/>
<path d="M25.1278 57.9043C25.0712 58.9627 24.9806 62.2867 23.4521 63.6398V61.1123L25.1278 57.9043Z" fill="#9896AA"/>
<path opacity="0.5" d="M25.1265 70.3672C25.07 71.4256 25.0173 73.2596 23.486 74.6099L23.4492 73.5707L25.1265 70.3672Z" fill="#9896AA"/>
<path d="M42.7563 74.7463C43.7621 76.2245 44.1649 81.1007 45.5016 82.4227C45.4812 82.3683 45.4692 82.3111 45.4659 82.253C45.4659 82.0596 45.9955 81.6087 46.1935 81.4153C46.3915 81.2218 51.0245 80.1917 51.0245 80.1917C49.4162 80.7087 48.7616 81.4181 48.7135 82.214C50.1312 81.8599 52.0207 81.4396 52.0207 81.4396C49.5605 82.2316 49.3245 83.4715 50.1018 84.7839C51.6001 86.1761 53.2468 87.3993 55.0125 88.4315C57.3318 89.7473 59.6235 88.3749 60.3741 89.7665C60.8137 90.5828 62.1618 96.0887 62.1912 97.5872C62.1912 97.5872 60.8753 94.4312 59.5086 93.0051C57.9597 91.3923 56.5925 91.0574 55.2235 90.4493C53.1514 89.4344 51.1751 88.2345 49.3189 86.864C44.265 83.23 40.1468 76.1724 39.6201 74.3984L42.7563 74.7463Z" fill="#E8C6BC"/>
<path d="M39.7021 72.2319C42.1414 71.7958 48.5666 70.6559 49.7404 70.5292C51.1948 70.3725 58.2087 72.6562 58.2087 72.6562C58.0753 74.1447 57.8076 75.6181 57.4088 77.0584C54.2817 85.4696 46.3394 84.2805 43.4142 80.6788C42.2266 79.1305 41.2384 77.439 40.4727 75.6442L40.1836 76.1748C39.9806 75.2178 39.8842 74.2413 39.8962 73.2632C39.8351 72.9492 39.7683 72.5962 39.7021 72.2319Z" fill="#E8C6BC"/>
<path d="M56.9499 0.808594H26.2906C24.4161 0.808594 22.8965 2.3282 22.8965 4.20273V72.7948C22.8965 74.6694 24.4161 76.189 26.2906 76.189H56.9499C58.8244 76.189 60.344 74.6694 60.344 72.7948V4.20273C60.344 2.3282 58.8244 0.808594 56.9499 0.808594Z" fill="#3B6BB2"/>
<path d="M56.6957 0.807997C57.6622 0.810832 58.5884 1.19604 59.2718 1.87948C59.9553 2.56291 60.3404 3.48904 60.3433 4.45557V72.5408C60.3404 73.5073 59.9553 74.4335 59.2718 75.1169C58.5884 75.8003 57.6622 76.1855 56.6957 76.1884H26.5444C25.5779 76.1855 24.6517 75.8003 23.9683 75.1169C23.2849 74.4335 22.8997 73.5073 22.8969 72.5408V4.45557C22.8997 3.48904 23.2849 2.56291 23.9683 1.87948C24.6517 1.19604 25.5779 0.810832 26.5444 0.807997H56.6957ZM56.6957 0.21346H26.5444C25.4195 0.214509 24.341 0.66184 23.5456 1.45727C22.7501 2.2527 22.3028 3.33122 22.3018 4.45613V72.5408C22.3028 73.6657 22.7501 74.7442 23.5456 75.5397C24.341 76.3351 25.4195 76.7824 26.5444 76.7835H56.6957C57.8206 76.7824 58.8991 76.3351 59.6946 75.5397C60.49 74.7442 60.9373 73.6657 60.9384 72.5408V4.45557C60.9373 3.33066 60.49 2.25213 59.6946 1.4567C58.8991 0.661274 57.8206 0.213939 56.6957 0.212891V0.21346Z" fill="#14ADE2"/>
<path d="M57.7223 10.1895H25.3694C25.057 10.1895 24.8037 10.4427 24.8037 10.7551V63.8027C24.8037 64.1151 25.057 64.3684 25.3694 64.3684H57.7223C58.0347 64.3684 58.288 64.1151 58.288 63.8027V10.7551C58.288 10.4427 58.0347 10.1895 57.7223 10.1895Z" fill="white"/>
<path d="M36.9297 5.65234H46.3083" stroke="#194A92" stroke-width="1.13138" stroke-miterlimit="10" stroke-linecap="round"/>
<path d="M39.1104 69.9123C39.1104 69.4159 39.2574 68.9306 39.5332 68.5179C39.809 68.1051 40.2011 67.7834 40.6598 67.5934C41.1184 67.4034 41.623 67.3537 42.1099 67.4506C42.5968 67.5474 43.044 67.7865 43.395 68.1375C43.746 68.4885 43.9851 68.9358 44.082 69.4226C44.1788 69.9095 44.1291 70.4142 43.9392 70.8728C43.7492 71.3315 43.4274 71.7235 43.0147 71.9993C42.6019 72.2751 42.1167 72.4223 41.6203 72.4223C41.2907 72.4224 40.9642 72.3575 40.6596 72.2314C40.3551 72.1053 40.0783 71.9204 39.8452 71.6873C39.6121 71.4542 39.4273 71.1775 39.3012 70.8729C39.1751 70.5684 39.1103 70.2419 39.1104 69.9123Z" fill="#194A92"/>
<path d="M64.4709 24.4707H18.6687C17.7315 24.4707 16.9717 25.2305 16.9717 26.1678V39.9746C16.9717 40.9118 17.7315 41.6716 18.6687 41.6716H64.4709C65.4082 41.6716 66.168 40.9118 66.168 39.9746V26.1678C66.168 25.2305 65.4082 24.4707 64.4709 24.4707Z" fill="#14ADE2"/>
<path d="M27.0149 30.8172H26.3672C26.3289 30.6309 26.2619 30.4672 26.1661 30.3262C26.0721 30.1852 25.9572 30.0668 25.8214 29.971C25.6874 29.8735 25.5385 29.8004 25.3748 29.7517C25.2112 29.7029 25.0406 29.6785 24.863 29.6785C24.5392 29.6785 24.2458 29.7604 23.9829 29.924C23.7218 30.0877 23.5137 30.3288 23.3588 30.6474C23.2056 30.966 23.129 31.3569 23.129 31.82C23.129 32.2831 23.2056 32.6739 23.3588 32.9925C23.5137 33.3111 23.7218 33.5523 23.9829 33.7159C24.2458 33.8796 24.5392 33.9614 24.863 33.9614C25.0406 33.9614 25.2112 33.937 25.3748 33.8883C25.5385 33.8395 25.6874 33.7673 25.8214 33.6715C25.9572 33.574 26.0721 33.4548 26.1661 33.3137C26.2619 33.171 26.3289 33.0073 26.3672 32.8228H27.0149C26.9661 33.0961 26.8773 33.3407 26.7485 33.5566C26.6197 33.7725 26.4595 33.9562 26.268 34.1076C26.0765 34.2574 25.8615 34.3714 25.6229 34.4497C25.3862 34.5281 25.1329 34.5673 24.863 34.5673C24.4069 34.5673 24.0012 34.4558 23.646 34.233C23.2909 34.0101 23.0114 33.6933 22.8078 33.2824C22.6041 32.8715 22.5022 32.3841 22.5022 31.82C22.5022 31.2559 22.6041 30.7684 22.8078 30.3575C23.0114 29.9467 23.2909 29.6298 23.646 29.407C24.0012 29.1841 24.4069 29.0727 24.863 29.0727C25.1329 29.0727 25.3862 29.1119 25.6229 29.1902C25.8615 29.2685 26.0765 29.3835 26.268 29.5349C26.4595 29.6846 26.6197 29.8674 26.7485 30.0833C26.8773 30.2975 26.9661 30.5421 27.0149 30.8172ZM29.6074 34.5777C29.2453 34.5777 28.9276 34.4915 28.6542 34.3192C28.3826 34.1468 28.1702 33.9057 28.017 33.5958C27.8656 33.2859 27.7898 32.9238 27.7898 32.5094C27.7898 32.0916 27.8656 31.7268 28.017 31.4152C28.1702 31.1036 28.3826 30.8616 28.6542 30.6892C28.9276 30.5168 29.2453 30.4307 29.6074 30.4307C29.9696 30.4307 30.2864 30.5168 30.558 30.6892C30.8313 30.8616 31.0437 31.1036 31.1952 31.4152C31.3484 31.7268 31.425 32.0916 31.425 32.5094C31.425 32.9238 31.3484 33.2859 31.1952 33.5958C31.0437 33.9057 30.8313 34.1468 30.558 34.3192C30.2864 34.4915 29.9696 34.5777 29.6074 34.5777ZM29.6074 34.0241C29.8825 34.0241 30.1088 33.9536 30.2864 33.8125C30.464 33.6715 30.5954 33.4861 30.6807 33.2563C30.7661 33.0265 30.8087 32.7775 30.8087 32.5094C30.8087 32.2413 30.7661 31.9915 30.6807 31.7599C30.5954 31.5284 30.464 31.3412 30.2864 31.1984C30.1088 31.0557 29.8825 30.9843 29.6074 30.9843C29.3323 30.9843 29.106 31.0557 28.9284 31.1984C28.7509 31.3412 28.6194 31.5284 28.5341 31.7599C28.4488 31.9915 28.4061 32.2413 28.4061 32.5094C28.4061 32.7775 28.4488 33.0265 28.5341 33.2563C28.6194 33.4861 28.7509 33.6715 28.9284 33.8125C29.106 33.9536 29.3323 34.0241 29.6074 34.0241ZM32.9821 32.0811V34.4941H32.3658V30.4829H32.9612V31.1096H33.0135C33.1075 30.906 33.2502 30.7423 33.4417 30.6187C33.6333 30.4933 33.8805 30.4307 34.1834 30.4307C34.455 30.4307 34.6927 30.4864 34.8963 30.5978C35.1 30.7075 35.2585 30.8746 35.3716 31.0992C35.4848 31.322 35.5414 31.6041 35.5414 31.9453V34.4941H34.9251V31.9871C34.9251 31.672 34.8432 31.4265 34.6796 31.2507C34.5159 31.0731 34.2914 30.9843 34.0058 30.9843C33.8091 30.9843 33.6333 31.0269 33.4783 31.1123C33.3251 31.1976 33.2041 31.322 33.1153 31.4857C33.0265 31.6494 32.9821 31.8478 32.9821 32.0811ZM39.5089 31.3812L38.9553 31.5379C38.9204 31.4457 38.8691 31.356 38.8012 31.2689C38.735 31.1802 38.6445 31.107 38.5296 31.0496C38.4147 30.9921 38.2676 30.9634 38.0882 30.9634C37.8428 30.9634 37.6382 31.02 37.4745 31.1332C37.3126 31.2446 37.2317 31.3865 37.2317 31.5588C37.2317 31.712 37.2874 31.833 37.3988 31.9218C37.5102 32.0106 37.6843 32.0846 37.9211 32.1438L38.5165 32.29C38.8752 32.3771 39.1424 32.5103 39.3183 32.6896C39.4941 32.8672 39.582 33.0961 39.582 33.3764C39.582 33.6062 39.5159 33.8117 39.3835 33.9927C39.253 34.1738 39.0702 34.3166 38.8351 34.421C38.6001 34.5255 38.3268 34.5777 38.0151 34.5777C37.606 34.5777 37.2674 34.4889 36.9993 34.3113C36.7311 34.1338 36.5614 33.8743 36.49 33.5331L37.075 33.3869C37.1307 33.6028 37.236 33.7647 37.391 33.8726C37.5477 33.9805 37.7522 34.0345 38.0047 34.0345C38.2919 34.0345 38.52 33.9736 38.6889 33.8517C38.8595 33.7281 38.9448 33.5801 38.9448 33.4078C38.9448 33.2685 38.8961 33.1518 38.7986 33.0578C38.7011 32.9621 38.5514 32.8907 38.3494 32.8437L37.6809 32.687C37.3135 32.5999 37.0436 32.465 36.8713 32.2822C36.7007 32.0977 36.6154 31.867 36.6154 31.5902C36.6154 31.3638 36.6789 31.1636 36.806 30.9895C36.9348 30.8154 37.1098 30.6788 37.3309 30.5795C37.5538 30.4803 37.8062 30.4307 38.0882 30.4307C38.4852 30.4307 38.7968 30.5177 39.0232 30.6918C39.2512 30.8659 39.4131 31.0957 39.5089 31.3812ZM43.0377 32.8541V30.4829H43.654V34.4941H43.0377V33.8152H42.9959C42.9019 34.0188 42.7556 34.1921 42.5572 34.3348C42.3587 34.4759 42.108 34.5464 41.8051 34.5464C41.5543 34.5464 41.3315 34.4915 41.1365 34.3818C40.9415 34.2704 40.7883 34.1033 40.6769 33.8804C40.5655 33.6559 40.5098 33.3729 40.5098 33.0317V30.4829H41.1261V32.9899C41.1261 33.2824 41.2079 33.5157 41.3715 33.6898C41.5369 33.8639 41.7476 33.951 42.0035 33.951C42.1567 33.951 42.3126 33.9118 42.471 33.8334C42.6312 33.7551 42.7652 33.635 42.8732 33.473C42.9828 33.3111 43.0377 33.1048 43.0377 32.8541ZM45.3991 29.1458V34.4941H44.7828V29.1458H45.3991ZM48.2724 30.4829V31.0052H46.1937V30.4829H48.2724ZM46.7995 29.5219H47.4158V33.3451C47.4158 33.5192 47.4411 33.6498 47.4916 33.7368C47.5438 33.8221 47.61 33.8796 47.69 33.9092C47.7719 33.937 47.8581 33.951 47.9486 33.951C48.0165 33.951 48.0722 33.9475 48.1157 33.9405C48.1592 33.9318 48.1941 33.9248 48.2202 33.9196L48.3455 34.4732C48.3037 34.4889 48.2454 34.5046 48.1706 34.5203C48.0957 34.5377 48.0008 34.5464 47.8859 34.5464C47.7118 34.5464 47.5412 34.5089 47.3741 34.4341C47.2087 34.3592 47.0711 34.2452 46.9614 34.092C46.8535 33.9388 46.7995 33.7455 46.7995 33.5122V29.5219ZM50.3799 34.5882C50.1257 34.5882 49.895 34.5403 49.6878 34.4445C49.4807 34.347 49.3161 34.2069 49.1943 34.0241C49.0724 33.8395 49.0115 33.6167 49.0115 33.3555C49.0115 33.1257 49.0567 32.9394 49.1473 32.7967C49.2378 32.6522 49.3588 32.539 49.5103 32.4572C49.6617 32.3753 49.8289 32.3144 50.0117 32.2744C50.1962 32.2326 50.3816 32.1995 50.5679 32.1751C50.8117 32.1438 51.0093 32.1203 51.1607 32.1046C51.3139 32.0872 51.4254 32.0585 51.495 32.0184C51.5664 31.9784 51.6021 31.9088 51.6021 31.8095V31.7886C51.6021 31.531 51.5316 31.3308 51.3905 31.188C51.2513 31.0452 51.0397 30.9738 50.7559 30.9738C50.4617 30.9738 50.231 31.0383 50.0639 31.1671C49.8968 31.2959 49.7792 31.4335 49.7113 31.5797L49.1264 31.3708C49.2308 31.1271 49.3701 30.9373 49.5442 30.8015C49.7201 30.664 49.9116 30.5682 50.1187 30.5142C50.3277 30.4585 50.5331 30.4307 50.7351 30.4307C50.8639 30.4307 51.0119 30.4463 51.179 30.4777C51.3479 30.5073 51.5107 30.5691 51.6674 30.6631C51.8258 30.7571 51.9572 30.899 52.0617 31.0888C52.1661 31.2785 52.2184 31.5327 52.2184 31.8513V34.4941H51.6021V33.951H51.5707C51.5289 34.038 51.4593 34.1311 51.3618 34.2304C51.2643 34.3296 51.1346 34.4141 50.9727 34.4837C50.8108 34.5533 50.6132 34.5882 50.3799 34.5882ZM50.4739 34.0345C50.7176 34.0345 50.9231 33.9866 51.0902 33.8909C51.2591 33.7951 51.3862 33.6715 51.4715 33.5201C51.5585 33.3686 51.6021 33.2093 51.6021 33.0422V32.4781C51.576 32.5094 51.5185 32.5381 51.4297 32.5642C51.3427 32.5886 51.2417 32.6104 51.1268 32.6295C51.0136 32.6469 50.9031 32.6626 50.7951 32.6765C50.6889 32.6887 50.6027 32.6992 50.5366 32.7079C50.3764 32.7288 50.2267 32.7627 50.0874 32.8097C49.9499 32.855 49.8384 32.9238 49.7531 33.016C49.6696 33.1066 49.6278 33.2302 49.6278 33.3869C49.6278 33.601 49.707 33.7629 49.8654 33.8726C50.0256 33.9805 50.2284 34.0345 50.4739 34.0345ZM55.0878 30.4829V31.0052H53.009V30.4829H55.0878ZM53.6149 29.5219H54.2312V33.3451C54.2312 33.5192 54.2564 33.6498 54.3069 33.7368C54.3591 33.8221 54.4253 33.8796 54.5054 33.9092C54.5872 33.937 54.6734 33.951 54.7639 33.951C54.8318 33.951 54.8875 33.9475 54.9311 33.9405C54.9746 33.9318 55.0094 33.9248 55.0355 33.9196L55.1609 34.4732C55.1191 34.4889 55.0608 34.5046 54.9859 34.5203C54.911 34.5377 54.8162 34.5464 54.7013 34.5464C54.5272 34.5464 54.3565 34.5089 54.1894 34.4341C54.024 34.3592 53.8865 34.2452 53.7768 34.092C53.6688 33.9388 53.6149 33.7455 53.6149 33.5122V29.5219ZM56.0148 34.4941V30.4829H56.6311V34.4941H56.0148ZM56.3282 29.8143C56.2081 29.8143 56.1045 29.7734 56.0174 29.6916C55.9321 29.6098 55.8895 29.5114 55.8895 29.3965C55.8895 29.2816 55.9321 29.1832 56.0174 29.1014C56.1045 29.0196 56.2081 28.9787 56.3282 28.9787C56.4483 28.9787 56.5511 29.0196 56.6364 29.1014C56.7234 29.1832 56.7669 29.2816 56.7669 29.3965C56.7669 29.5114 56.7234 29.6098 56.6364 29.6916C56.5511 29.7734 56.4483 29.8143 56.3282 29.8143ZM59.3895 34.5777C59.0274 34.5777 58.7097 34.4915 58.4363 34.3192C58.1647 34.1468 57.9523 33.9057 57.7991 33.5958C57.6477 33.2859 57.5719 32.9238 57.5719 32.5094C57.5719 32.0916 57.6477 31.7268 57.7991 31.4152C57.9523 31.1036 58.1647 30.8616 58.4363 30.6892C58.7097 30.5168 59.0274 30.4307 59.3895 30.4307C59.7517 30.4307 60.0685 30.5168 60.3401 30.6892C60.6135 30.8616 60.8259 31.1036 60.9773 31.4152C61.1305 31.7268 61.2071 32.0916 61.2071 32.5094C61.2071 32.9238 61.1305 33.2859 60.9773 33.5958C60.8259 33.9057 60.6135 34.1468 60.3401 34.3192C60.0685 34.4915 59.7517 34.5777 59.3895 34.5777ZM59.3895 34.0241C59.6646 34.0241 59.8909 33.9536 60.0685 33.8125C60.2461 33.6715 60.3775 33.4861 60.4629 33.2563C60.5482 33.0265 60.5908 32.7775 60.5908 32.5094C60.5908 32.2413 60.5482 31.9915 60.4629 31.7599C60.3775 31.5284 60.2461 31.3412 60.0685 31.1984C59.8909 31.0557 59.6646 30.9843 59.3895 30.9843C59.1145 30.9843 58.8881 31.0557 58.7105 31.1984C58.533 31.3412 58.4015 31.5284 58.3162 31.7599C58.2309 31.9915 58.1882 32.2413 58.1882 32.5094C58.1882 32.7775 58.2309 33.0265 58.3162 33.2563C58.4015 33.4861 58.533 33.6715 58.7105 33.8125C58.8881 33.9536 59.1145 34.0241 59.3895 34.0241ZM62.7642 32.0811V34.4941H62.1479V30.4829H62.7433V31.1096H62.7956C62.8896 30.906 63.0323 30.7423 63.2239 30.6187C63.4154 30.4933 63.6626 30.4307 63.9655 30.4307C64.2371 30.4307 64.4748 30.4864 64.6785 30.5978C64.8822 30.7075 65.0406 30.8746 65.1537 31.0992C65.2669 31.322 65.3235 31.6041 65.3235 31.9453V34.4941H64.7072V31.9871C64.7072 31.672 64.6254 31.4265 64.4617 31.2507C64.2981 31.0731 64.0735 30.9843 63.7879 30.9843C63.5912 30.9843 63.4154 31.0269 63.2604 31.1123C63.1072 31.1976 62.9862 31.322 62.8974 31.4857C62.8086 31.6494 62.7642 31.8478 62.7642 32.0811Z" fill="white"/>
<path opacity="0.12" d="M64.3297 24.4707L45.4742 41.6716L24.6523 60.6686V44.7727L28.0498 41.6739L46.9054 24.473L64.3297 24.4707Z" fill="white"/>
<path opacity="0.06" d="M38.4942 37.7484C37.4375 37.5504 37.821 37.9747 36.744 38.5743C35.3247 39.3663 34.961 42.636 37.3052 45.0798C39.8118 47.6921 44.9001 50.0991 50.2493 50.8255C50.2493 50.8255 52.8254 57.6279 55.9299 61.7885C59.0333 66.0154 57.3165 73.0158 57.713 76.4501C58.1096 79.8844 63.2608 61.2602 63.327 61.0633C63.3931 60.8665 63.2608 56.1763 63.327 55.9778C63.3931 55.7792 63.1284 54.5251 62.7324 54.2609C62.3364 53.9967 55.4678 47.5903 55.4016 47.3923C54.7407 46.6432 54.011 45.9578 53.222 45.3451C52.5314 45.1606 51.8231 45.05 51.1091 45.0153C50.7776 45.0798 38.4942 37.7484 38.4942 37.7484Z" fill="#4C4C4C"/>
<path d="M39.5824 36.6381C39.5824 36.6381 41.8843 36.4684 43.729 36.4305C44.5424 36.413 45.2602 36.2608 45.6523 36.4141C45.7348 36.3958 45.8163 36.3727 45.8961 36.3451C47.0055 35.9553 52.5108 34.0959 54.9709 34.4008C57.7117 34.7402 64.2482 39.7115 67.1711 41.0612C70.094 42.411 73.0045 43.7024 76.255 47.2838C79.5055 50.8652 82.2219 64.5713 81.4293 65.15C77.7806 67.8144 79.756 67.5689 73.6398 71.8817C73.1833 73.8011 72.4603 77.0526 72.0162 78.6733C71.4867 80.6069 69.6889 79.5219 66.3242 81.1217C63.5037 82.4629 63.5524 80.4858 63.5524 80.4858C63.5524 77.4 60.3693 80.8914 60.8173 77.6036C60.8433 77.4147 59.2203 76.1255 59.2469 75.9354L62.6569 57.9261C62.5438 57.3214 61.0503 53.421 61.0503 53.421C57.3818 51.5808 53.1562 46.8183 53.1562 46.8183C40.7721 46.4443 36.4932 41.8193 36.0859 40.0153C35.8495 38.9659 35.6566 37.765 36.7761 37.0171C37.6914 36.7711 38.6346 36.6437 39.5824 36.6381Z" fill="#F7D8CD"/>
<path d="M35.9397 38.2285C35.8899 40.9761 37.1424 42.1702 42.1623 43.7553C45.0122 44.6553 49.4653 44.4138 51.9702 44.3001C53.6672 44.2231 53.8506 44.0738 54.4129 44.8776C57.8472 49.7652 65.4438 55.1166 65.4438 55.1166C65.0478 60.0036 59.8355 65.3737 59.8355 65.3737C60.6155 62.2253 60.969 58.9864 60.8865 55.7439C57.549 53.3681 53.1564 47.5098 53.1564 47.5098C39.388 47.6189 34.6658 42.353 35.9397 38.2285Z" fill="#E8C6BC"/>
<path d="M50.4254 81.8147C50.9714 82.4933 51.6414 83.0619 52.3996 83.4903C52.9517 81.9975 55.6982 81.1059 55.7967 80.3083C57.285 68.2835 60.0218 56.4968 61.2103 55.9186C61.9119 55.5741 62.7169 55.5041 63.4674 55.7223C63.4674 61.7973 57.1882 69.0839 65.3171 92.5289L65.2968 92.5397C67.9646 99.9502 70.754 107.353 70.754 107.353C70.754 107.353 66.9639 110.261 66.9237 110.214C66.7591 110.006 60.437 93.0035 60.1287 92.2308C59.8204 91.458 59.0199 90.7249 58.4016 89.8232C57.7833 88.9215 56.3781 90.4087 55.4521 89.7666C54.4294 89.0659 53.3521 88.4485 52.2306 87.9202C51.0077 87.3159 49.8284 86.6271 48.7012 85.8589C48.0548 85.1816 47.362 84.5501 46.628 83.9689C46.0952 83.5421 45.5916 83.0802 45.1204 82.5864C44.8771 82.1939 44.6556 81.7885 44.4568 81.3718C44.3589 81.0805 48.5286 79.3212 50.4254 81.8147Z" fill="#E8C6BC"/>
<path d="M36.8747 37.3986C36.8628 37.5558 36.5115 38.2505 36.5732 38.4468C36.9839 39.771 37.2017 40.4799 40.3792 40.4578C43.5566 40.4357 44.0414 38.5192 44.305 37.8777C44.4102 37.6142 44.546 37.3639 44.7095 37.1321C45.0461 37.1355 45.3883 36.7242 45.9144 36.7491C45.4867 36.8747 45.1513 36.9505 44.5477 38.3585C44.1902 39.1923 43.6619 41.2271 40.3311 41.2509C37.0003 41.2747 36.6704 40.5596 36.2399 39.172C36.127 38.8484 36.1284 38.4958 36.2439 38.1731C36.3595 37.8504 36.582 37.577 36.8747 37.3986Z" fill="#E8C6BC"/>
<path d="M36.5812 38.7365C36.5002 38.5023 36.486 38.2501 36.5399 38.0082C36.5938 37.7663 36.7139 37.5441 36.8867 37.3664C39.8708 36.82 42.9071 36.6131 45.9377 36.7498C45.2985 36.8545 44.8958 37.5525 44.6627 38.1205C44.3906 38.7829 43.8894 40.76 40.6095 40.7838C37.3297 40.8075 37.0066 40.1032 36.5812 38.7365Z" fill="#E8C6BC"/>
<path d="M56.2643 48.7088C56.5947 48.577 57.4522 48.577 56.3966 47.2561C55.341 45.9352 53.8205 44.284 53.4912 43.0293C53.4912 43.0293 52.8967 44.8129 53.0953 45.7372C53.2938 46.6616 55.935 49.3011 55.935 49.3011L56.2643 48.7088Z" fill="#E8C6BC"/>
<path d="M45.9375 36.7487C45.2983 36.8533 44.8954 37.5514 44.6623 38.1194C44.499 38.622 44.2502 39.0928 43.9269 39.511C44.001 39.0628 44.001 38.6054 43.9269 38.1573C43.9427 37.6606 43.7686 37.0915 44.4197 36.7227C44.9073 36.7221 45.4142 36.7317 45.9375 36.7487Z" fill="#FFE4DC"/>
<path d="M56.0236 77.2452C55.7011 79.7288 55.6803 82.2423 55.9614 84.7309C55.9614 84.7309 50.3108 83.4655 47.54 78.9298C47.54 78.9298 48.728 77.6197 54.1524 77.3074C56.3065 77.1852 56.0236 77.2452 56.0236 77.2452Z" fill="#E8C6BC"/>
<path d="M64.382 73.7165C62.9768 70.0639 60.7293 68.3781 62.2278 62.7586C63.7263 57.139 65.5993 55.3599 65.8805 55.266C66.1616 55.1721 75.0588 73.0609 73.0925 74.2783C71.1261 75.4956 64.382 73.7165 64.382 73.7165Z" fill="#E8C6BC"/>
<path d="M61.1039 73.9955C61.6656 79.4261 65.2243 85.6091 69.5326 84.6723C73.8409 83.7355 64.382 90.0107 64.382 90.0107C64.382 90.0107 59.137 74.9317 59.4181 74.276C59.6993 73.6204 61.1039 73.9955 61.1039 73.9955Z" fill="#E8C6BC"/>
<path d="M66.607 86.1451C69.6492 85.8509 70.3359 85.5562 68.1772 87.4207C66.0186 89.2852 73.1825 105.478 73.1825 105.478L66.9238 110.215L59.1494 89.4815L66.607 86.1451Z" fill="#E8C6BC"/>
<path d="M70.1399 85.3574C68.3733 87.3204 67.3924 89.479 69.0606 94.7784C70.7288 100.078 62.1914 87.8108 62.1914 87.8108L70.1399 85.3574Z" fill="#E8C6BC"/>
</g>
<defs>
<clipPath id="clip0_4759_21364">
<rect width="95.0358" height="110" fill="white" transform="translate(0 0.212891)"/>
</clipPath>
</defs>
</svg>
