<svg width="102" height="106" viewBox="0 0 102 106" fill="none" xmlns="http://www.w3.org/2000/svg">
<path d="M101.6 89.8438H0V91.0205H101.6V89.8438Z" fill="#96E3FE"/>
<path d="M50.8011 69.6055H41.877V74.9601H50.8011V69.6055Z" fill="#3B6BB2"/>
<path d="M86.4392 30.1784C84.0534 24.2941 80.2478 19.0922 75.362 15.0369C70.4763 10.9816 64.6624 8.19923 58.4394 6.93807C52.2165 5.67692 45.7781 5.97626 39.699 7.80939C33.6199 9.64252 28.0892 12.9524 23.6008 17.4435C19.1124 21.9346 15.8059 27.4673 13.9765 33.5475C12.147 39.6277 11.8516 46.0663 13.1165 52.2885C14.3815 58.5107 17.1674 64.3229 21.2257 69.2062C25.2839 74.0895 30.4882 77.8919 36.3738 80.2741C45.6246 84.024 55.9721 84.024 65.2228 80.2741C74.6794 76.4444 82.2273 69.015 86.2062 59.6202C90.185 50.2255 90.2688 39.6349 86.4392 30.1784Z" fill="#F2FCFF"/>
<path d="M59.7243 74.96H50.8008V69.6055H59.7243" fill="#3B6BB2"/>
<path d="M38.3066 83.8821C38.3066 84.3508 38.3989 84.815 38.5782 85.2481C38.7576 85.6812 39.0205 86.0748 39.352 86.4063C39.6835 86.7377 40.077 87.0007 40.5101 87.18C40.9432 87.3594 41.4074 87.4516 41.8762 87.4515H59.7239C60.6706 87.4515 61.5784 87.0755 62.2478 86.4061C62.9172 85.7367 63.2933 84.8288 63.2933 83.8821C63.2933 82.9354 62.9172 82.0274 62.2478 81.358C61.5784 80.6886 60.6706 80.3125 59.7239 80.3125H41.8762C40.9295 80.3125 40.0216 80.6886 39.3522 81.358C38.6827 82.0274 38.3066 82.9354 38.3066 83.8821Z" fill="#4E4E4E"/>
<path d="M38.3066 91.022C38.3066 91.4908 38.3989 91.9551 38.5782 92.3883C38.7576 92.8215 39.0205 93.2151 39.3519 93.5467C39.6834 93.8782 40.0769 94.1413 40.51 94.3208C40.9431 94.5003 41.4074 94.5927 41.8762 94.5928H59.7239C60.6624 94.5803 61.5582 94.1987 62.2175 93.5306C62.8768 92.8625 63.2465 91.9616 63.2465 91.023C63.2465 90.0844 62.8768 89.1835 62.2175 88.5153C61.5582 87.8472 60.6624 87.4656 59.7239 87.4531H41.8762C40.9296 87.4531 40.0218 87.8291 39.3524 88.4984C38.683 89.1677 38.3068 90.0754 38.3066 91.022Z" fill="#4E4E4E"/>
<path d="M43.6582 98.1588C43.6582 99.0962 43.8428 100.024 44.2015 100.891C44.5603 101.757 45.0861 102.544 45.749 103.206C46.4119 103.869 47.1987 104.395 48.0648 104.754C48.9309 105.113 49.8591 105.297 50.7966 105.297C51.734 105.297 52.6623 105.113 53.5284 104.754C54.3944 104.395 55.1813 103.869 55.8442 103.206C56.5071 102.544 57.0329 101.757 57.3916 100.891C57.7504 100.024 57.935 99.0962 57.935 98.1588V94.5898H43.6582V98.1588Z" fill="#3B6BB2"/>
<path d="M38.3066 76.7453C38.3066 77.2141 38.399 77.6781 38.5784 78.1112C38.7578 78.5442 39.0208 78.9377 39.3522 79.2691C39.6837 79.6005 40.0771 79.8634 40.5102 80.0427C40.9433 80.222 41.4075 80.3143 41.8762 80.3142H59.7239C60.6705 80.3142 61.5783 79.9381 62.2477 79.2688C62.917 78.5994 63.293 77.6916 63.293 76.745C63.293 75.7983 62.917 74.8905 62.2477 74.2211C61.5783 73.5518 60.6705 73.1758 59.7239 73.1758H41.8762C41.4074 73.1757 40.9432 73.2679 40.5101 73.4473C40.077 73.6266 39.6835 73.8896 39.352 74.2211C39.0205 74.5525 38.7576 74.9461 38.5782 75.3792C38.3989 75.8123 38.3066 76.2766 38.3066 76.7453Z" fill="#4E4E4E"/>
<path d="M77.2595 33.9027C75.4885 29.5347 72.6635 25.6731 69.0366 22.6628C65.4098 19.6524 61.094 17.587 56.4745 16.6508C51.855 15.7146 47.0755 15.9368 42.5628 17.2976C38.0501 18.6584 33.9446 21.1154 30.6128 24.4493C27.2809 27.7832 24.8264 31.8903 23.4684 36.4039C22.1103 40.9174 21.891 45.6969 22.83 50.3158C23.7691 54.9348 25.8371 59.2494 28.8497 62.8744C31.8623 66.4994 35.7256 69.322 40.0948 71.0903C46.9627 73.8749 54.6452 73.8749 61.5131 71.0903C68.5325 68.2469 74.135 62.7316 77.088 55.7576C80.041 48.7836 80.1026 40.9222 77.2595 33.9027Z" fill="#96E3FE"/>
<path d="M50.8027 10.7092C50.5683 10.7093 50.3363 10.6632 50.1198 10.5736C49.9033 10.484 49.7065 10.3527 49.5407 10.187C49.375 10.0214 49.2434 9.82468 49.1536 9.60821C49.0639 9.39175 49.0177 9.15975 49.0176 8.92541V1.78443C49.0176 1.31117 49.2056 0.857289 49.5403 0.52264C49.8749 0.187991 50.3288 0 50.802 0C51.2753 0 51.7292 0.187991 52.0638 0.52264C52.3985 0.857289 52.5865 1.31117 52.5865 1.78443V8.92414C52.5865 9.15839 52.5403 9.39036 52.4507 9.60678C52.361 9.8232 52.2296 10.0198 52.064 10.1855C51.8984 10.3511 51.7017 10.4825 51.4853 10.5722C51.2689 10.6618 51.0369 10.708 50.8027 10.708V10.7092Z" fill="#14ADE2"/>
<path d="M25.5609 21.1618C25.3264 21.1619 25.0942 21.1158 24.8776 21.026C24.661 20.9361 24.4642 20.8044 24.2986 20.6383L19.2495 15.5904C18.9147 15.2557 18.7266 14.8016 18.7266 14.3281C18.7266 13.8547 18.9147 13.4006 19.2495 13.0658C19.5843 12.7311 20.0383 12.543 20.5117 12.543C20.9852 12.543 21.4393 12.7311 21.7741 13.0658L26.8226 18.1144C27.0722 18.3639 27.2424 18.6818 27.3113 19.028C27.3803 19.3741 27.3451 19.733 27.2101 20.0591C27.0751 20.3853 26.8464 20.664 26.553 20.8602C26.2595 21.0563 25.9145 21.1611 25.5615 21.1611L25.5609 21.1618Z" fill="#14ADE2"/>
<path d="M15.1032 46.4061H7.96669C7.49326 46.4061 7.03924 46.2181 6.70447 45.8833C6.36971 45.5485 6.18164 45.0945 6.18164 44.621C6.18164 44.1476 6.36971 43.6935 6.70447 43.3588C7.03924 43.024 7.49326 42.8359 7.96669 42.8359H15.1032C15.5767 42.8359 16.0307 43.024 16.3655 43.3588C16.7002 43.6935 16.8883 44.1476 16.8883 44.621C16.8883 45.0945 16.7002 45.5485 16.3655 45.8833C16.0307 46.2181 15.5767 46.4061 15.1032 46.4061Z" fill="#14ADE2"/>
<path d="M20.5108 76.6911C20.1579 76.6908 19.813 76.5859 19.5196 76.3897C19.2262 76.1935 18.9975 75.9148 18.8625 75.5887C18.7274 75.2626 18.692 74.9039 18.7607 74.5577C18.8295 74.2116 18.9992 73.8935 19.2485 73.6437L24.2977 68.5958C24.6264 68.2553 25.0769 68.0594 25.5502 68.0511C26.0234 68.0427 26.4805 68.2227 26.821 68.5515C27.1615 68.8802 27.3575 69.3307 27.3658 69.8039C27.3741 70.2771 27.1941 70.7342 26.8654 71.0747C26.8508 71.0899 26.8362 71.1046 26.821 71.1191L21.7725 76.1676C21.6068 76.3335 21.41 76.4651 21.1934 76.5549C20.9769 76.6447 20.7453 76.691 20.5108 76.6911Z" fill="#14ADE2"/>
<path d="M81.0882 76.6913C80.6148 76.6907 80.1608 76.5025 79.8259 76.1679L74.7774 71.1194C74.6088 70.9566 74.4739 70.7621 74.3804 70.5472C74.287 70.3322 74.2368 70.101 74.2327 69.8666C74.2286 69.6323 74.2707 69.3994 74.3566 69.1813C74.4425 68.9633 74.5705 68.7643 74.7333 68.5957C74.8961 68.4271 75.0906 68.2923 75.3055 68.1988C75.5204 68.1053 75.7517 68.0551 75.9861 68.0511C76.2204 68.047 76.4532 68.0891 76.6713 68.175C76.8893 68.2609 77.0884 68.3889 77.257 68.5517L77.3013 68.5948L82.3511 73.6433C82.6005 73.893 82.7703 74.2111 82.839 74.5573C82.9077 74.9035 82.8723 75.2622 82.7372 75.5883C82.6021 75.9144 82.3734 76.1931 82.0801 76.3893C81.7867 76.5855 81.4418 76.6904 81.0889 76.6907L81.0882 76.6913Z" fill="#14ADE2"/>
<path d="M93.6345 46.4061H86.496C86.0226 46.4061 85.5685 46.2181 85.2338 45.8833C84.899 45.5485 84.7109 45.0945 84.7109 44.621C84.7109 44.1476 84.899 43.6935 85.2338 43.3588C85.5685 43.024 86.0226 42.8359 86.496 42.8359H93.6345C94.1079 42.8359 94.5619 43.024 94.8967 43.3588C95.2315 43.6935 95.4195 44.1476 95.4195 44.621C95.4195 45.0945 95.2315 45.5485 94.8967 45.8833C94.5619 46.2181 94.1079 46.4061 93.6345 46.4061Z" fill="#14ADE2"/>
<path d="M76.0411 21.1652C75.6883 21.1648 75.3435 21.0599 75.0502 20.8637C74.757 20.6675 74.5284 20.3888 74.3935 20.0628C74.2586 19.7367 74.2233 19.378 74.2921 19.032C74.3609 18.6859 74.5307 18.368 74.7801 18.1184L79.8286 13.0699C80.1589 12.7354 80.6077 12.5447 81.0777 12.5392C81.5477 12.5336 82.0009 12.7137 82.339 13.0402C82.677 13.3668 82.8727 13.8135 82.8834 14.2834C82.8942 14.7533 82.7191 15.2085 82.3963 15.5501L82.3526 15.5945L77.3034 20.6424C77.1378 20.8084 76.9411 20.9401 76.7245 21.03C76.5079 21.1198 76.2756 21.1653 76.0411 21.1652Z" fill="#14ADE2"/>
<path d="M56.156 49.9709V73.1725H52.582V49.9709C52.5908 49.5032 52.7828 49.0576 53.1167 48.73C53.4506 48.4023 53.8997 48.2188 54.3674 48.2188C54.8352 48.2188 55.2843 48.4023 55.6182 48.73C55.952 49.0576 56.144 49.5032 56.1528 49.9709H56.156Z" fill="#3B6BB2"/>
<path d="M49.0161 49.972V73.1736H45.4473V49.972C45.4473 49.4987 45.6353 49.0448 45.9699 48.7102C46.3046 48.3755 46.7585 48.1875 47.2317 48.1875C47.705 48.1875 48.1589 48.3755 48.4935 48.7102C48.8282 49.0448 49.0161 49.4987 49.0161 49.972Z" fill="#3B6BB2"/>
<path d="M59.725 51.758C59.2516 51.758 58.7975 51.5699 58.4627 51.2351C58.128 50.9004 57.9399 50.4463 57.9399 49.9729C57.9399 49.4995 58.128 49.0454 58.4627 48.7106C58.7975 48.3759 59.2516 48.1878 59.725 48.1878C60.4308 48.1878 61.1208 47.9785 61.7077 47.5864C62.2946 47.1942 62.752 46.6369 63.0222 45.9848C63.2923 45.3327 63.363 44.6152 63.2253 43.9229C63.0877 43.2306 62.7479 42.5946 62.2488 42.0955C61.7497 41.5964 61.1139 41.2565 60.4216 41.1187C59.7294 40.9809 59.0118 41.0515 58.3597 41.3215C57.7076 41.5915 57.1501 42.0488 56.7579 42.6357C56.3656 43.2225 56.1562 43.9124 56.1561 44.6182C56.1561 45.0917 55.9681 45.5457 55.6333 45.8805C55.2985 46.2153 54.8445 46.4033 54.371 46.4033C53.8976 46.4033 53.4435 46.2153 53.1088 45.8805C52.774 45.5457 52.5859 45.0917 52.5859 44.6182C52.5861 43.2064 53.0048 41.8264 53.7893 40.6526C54.5737 39.4788 55.6885 38.564 56.9929 38.0238C58.2972 37.4836 59.7325 37.3422 61.1171 37.6177C62.5018 37.8931 63.7737 38.573 64.772 39.5713C65.7703 40.5696 66.4501 41.8414 66.7256 43.2261C67.001 44.6108 66.8597 46.046 66.3195 47.3504C65.7793 48.6547 64.8645 49.7696 63.6907 50.554C62.5169 51.3385 61.1368 51.7572 59.725 51.7573V51.758Z" fill="#3B6BB2"/>
<path d="M41.8774 51.7586C40.4654 51.7586 39.0851 51.3399 37.9111 50.5554C36.7371 49.771 35.8221 48.656 35.2817 47.3515C34.7414 46.047 34.6 44.6116 34.8755 43.2268C35.1509 41.8419 35.8308 40.5699 36.8293 39.5714C37.8277 38.573 39.0998 37.8931 40.4846 37.6176C41.8694 37.3422 43.3048 37.4836 44.6093 38.0239C45.9138 38.5642 47.0288 39.4792 47.8132 40.6532C48.5977 41.8272 49.0164 43.2076 49.0164 44.6195C49.0164 45.0928 48.8284 45.5467 48.4937 45.8813C48.1591 46.216 47.7052 46.4039 47.2319 46.4039C46.7587 46.4039 46.3048 46.216 45.9701 45.8813C45.6355 45.5467 45.4475 45.0928 45.4475 44.6195C45.4475 43.9136 45.2382 43.2234 44.846 42.6364C44.4537 42.0494 43.8962 41.5919 43.244 41.3217C42.5917 41.0516 41.8741 40.9809 41.1816 41.1186C40.4892 41.2563 39.8531 41.5963 39.3539 42.0955C38.8547 42.5947 38.5148 43.2307 38.377 43.9231C38.2393 44.6155 38.31 45.3333 38.5802 45.9855C38.8503 46.6378 39.3079 47.1952 39.8949 47.5874C40.4819 47.9797 41.172 48.189 41.878 48.189C42.3514 48.189 42.8055 48.3771 43.1402 48.7119C43.475 49.0466 43.6631 49.5007 43.6631 49.9741C43.6631 50.4476 43.475 50.9016 43.1402 51.2364C42.8055 51.5711 42.3514 51.7592 41.878 51.7592L41.8774 51.7586Z" fill="#3B6BB2"/>
<path d="M59.7238 51.7576H41.8769C41.4035 51.7576 40.9494 51.5695 40.6146 51.2348C40.2799 50.9 40.0918 50.4459 40.0918 49.9725C40.0918 49.4991 40.2799 49.0451 40.6146 48.7103C40.9494 48.3756 41.4035 48.1875 41.8769 48.1875H59.7245C60.1979 48.1875 60.652 48.3756 60.9867 48.7103C61.3215 49.0451 61.5096 49.4991 61.5096 49.9725C61.5096 50.4459 61.3215 50.9 60.9867 51.2348C60.652 51.5695 60.1973 51.7576 59.7238 51.7576Z" fill="#3B6BB2"/>
<path d="M47.2298 51.7555C46.7566 51.7554 46.3028 51.5673 45.9681 51.2327C45.6335 50.8981 45.4455 50.4443 45.4453 49.9711V44.6165C45.4453 44.1432 45.6333 43.6894 45.968 43.3547C46.3026 43.0201 46.7565 42.832 47.2298 42.832C47.703 42.832 48.1569 43.0201 48.4916 43.3547C48.8262 43.6894 49.0143 44.1432 49.0143 44.6165V49.9711C49.0143 50.2054 48.9682 50.4375 48.8786 50.654C48.7889 50.8706 48.6574 51.0673 48.4917 51.233C48.326 51.3987 48.1293 51.5302 47.9127 51.6199C47.6962 51.7095 47.4641 51.7556 47.2298 51.7555Z" fill="#3B6BB2"/>
<path d="M54.3704 51.7562C54.1361 51.7562 53.904 51.71 53.6875 51.6203C53.471 51.5307 53.2743 51.3992 53.1086 51.2335C52.9429 51.0678 52.8114 50.8711 52.7218 50.6546C52.6321 50.4381 52.5859 50.206 52.5859 49.9717V44.6171C52.5859 44.1437 52.774 43.6896 53.1088 43.3549C53.4435 43.0201 53.8976 42.832 54.371 42.832C54.8445 42.832 55.2985 43.0201 55.6333 43.3549C55.9681 43.6896 56.1561 44.1437 56.1561 44.6171V49.9717C56.156 50.445 55.9678 50.8989 55.6331 51.2335C55.2983 51.5681 54.8437 51.7562 54.3704 51.7562Z" fill="#3B6BB2"/>
<path d="M21.218 93.5689C21.1456 93.5806 21.0726 93.5884 20.9994 93.5924C19.8647 93.5949 18.73 93.5964 17.5953 93.5968C16.7575 93.5968 15.9204 93.5733 15.0853 93.5112C14.7421 93.4944 14.4128 93.3705 14.1437 93.1568C13.8747 92.9431 13.6794 92.6504 13.5853 92.3199C13.5704 92.2624 13.5431 92.2088 13.5055 92.1628C13.0589 91.6046 12.7663 90.9391 12.657 90.2326C12.3455 88.8694 12.5124 87.4406 13.1297 86.1859C13.4147 85.3792 13.8775 84.647 14.4839 84.0435C15.3178 83.2109 16.3737 82.6361 17.5256 82.3876C18.6395 82.2092 19.776 82.2266 20.884 82.439C22.2995 82.7146 23.5899 83.4353 24.567 84.4959C24.7064 84.6378 24.7799 84.6474 24.9301 84.5054C25.4998 83.9727 26.2492 83.6739 27.0292 83.6685C27.8091 83.6631 28.5626 83.9515 29.1397 84.4763C30.1334 85.298 30.9033 86.3576 31.3778 87.5566C31.6359 88.244 31.8046 88.9617 31.8797 89.6921C31.9655 90.2485 32.0123 90.8103 32.0197 91.3733C32.0215 91.6299 31.9725 91.8842 31.8754 92.1218C31.7784 92.3594 31.6353 92.5754 31.4544 92.7574C31.2735 92.9394 31.0584 93.0839 30.8214 93.1824C30.5845 93.2809 30.3303 93.3315 30.0737 93.3313C28.8513 93.3598 27.6277 93.3687 26.4066 93.4333C24.8889 93.5132 23.3713 93.5601 21.8523 93.5892C21.7643 93.5892 21.6756 93.579 21.5875 93.574C21.6561 93.2699 21.673 92.9566 21.6375 92.647C21.6375 92.4258 21.6768 92.2838 21.9151 92.2236C22.0637 92.1763 22.2052 92.1092 22.3358 92.024C23.1127 91.5771 23.8881 91.1272 24.6621 90.6743C24.7353 90.6274 24.824 90.611 24.9092 90.6287C25.2712 90.7059 25.6231 90.8245 25.958 90.9822C26.1486 91.0835 26.3605 91.1383 26.5764 91.142C26.7031 91.1318 26.8064 91.083 26.8102 90.9278C26.8129 90.8997 26.8095 90.8714 26.8003 90.8447C26.7912 90.818 26.7765 90.7936 26.7572 90.7731C26.7379 90.7525 26.7144 90.7363 26.6884 90.7255C26.6624 90.7147 26.6344 90.7096 26.6062 90.7104C26.2167 90.6214 25.8386 90.4888 25.4789 90.315C25.3522 90.2751 25.3819 90.2282 25.4668 90.175C25.6614 90.0527 25.8603 89.9367 26.0492 89.8068C26.1878 89.7346 26.3084 89.6321 26.4021 89.507C26.4324 89.4647 26.4461 89.4127 26.4405 89.361C26.4349 89.3092 26.4106 89.2613 26.372 89.2264C26.3335 89.1914 26.2834 89.1719 26.2314 89.1714C26.1794 89.1709 26.129 89.1895 26.0898 89.2238C25.9846 89.3055 25.8826 89.3911 25.7729 89.4646C25.0309 89.9557 24.2653 90.4075 23.4916 90.8466C22.9574 91.1502 22.4524 91.5057 21.8916 91.7642C21.7522 91.8276 21.68 91.8435 21.6819 91.6438C21.6916 90.687 21.6941 89.7301 21.6894 88.7733C21.6828 88.7041 21.6975 88.6346 21.7314 88.574C21.7654 88.5134 21.8171 88.4646 21.8796 88.4342C22.1704 88.272 22.4575 88.1028 22.7439 87.9311C22.8707 87.8551 22.9911 87.753 22.8783 87.5927C22.7763 87.4469 22.6362 87.4881 22.5025 87.5655C22.3042 87.6814 22.0988 87.7853 21.9062 87.9101C21.7585 88.0058 21.7199 87.9767 21.7249 87.8081C21.7325 87.5711 21.7306 87.3335 21.7249 87.0959C21.7199 86.954 21.64 86.8424 21.493 86.8475C21.3593 86.8525 21.2934 86.9609 21.2884 87.0952C21.2884 87.1472 21.2884 87.1992 21.2884 87.2512C21.2765 88.1033 21.2647 88.9555 21.2529 89.808C21.2529 89.8422 21.2459 89.8765 21.2395 89.9418C20.9351 89.7207 20.6149 89.5223 20.2814 89.348C19.7441 89.0806 19.2175 88.7916 18.6839 88.516C18.381 88.3588 18.0762 88.2061 17.7683 88.0584C17.7202 88.0284 17.6629 88.0166 17.6068 88.0252C17.5508 88.0338 17.4997 88.0622 17.4628 88.1053C17.4357 88.1364 17.4194 88.1755 17.4164 88.2166C17.4134 88.2578 17.424 88.2988 17.4464 88.3335C17.4948 88.3996 17.5625 88.4492 17.6402 88.4754C18.2676 88.7967 18.8949 89.1161 19.5204 89.4399C20.0874 89.7141 20.6295 90.0369 21.1407 90.4049C21.1853 90.4303 21.2223 90.4672 21.2477 90.5119C21.2732 90.5565 21.2861 90.6071 21.2852 90.6584C21.2662 91.0874 21.2649 91.5177 21.2326 91.9461C21.1956 92.4863 21.1907 93.0282 21.218 93.5689ZM14.2089 87.0604C14.1979 87.1356 14.203 87.2122 14.2239 87.2852C14.2447 87.3582 14.2809 87.426 14.3299 87.4841C14.3788 87.5421 14.4396 87.5891 14.5081 87.6219C14.5766 87.6547 14.6513 87.6726 14.7272 87.6744C14.9 87.6518 15.0605 87.5731 15.1843 87.4506C15.3082 87.328 15.3884 87.1682 15.4128 86.9957C15.4223 86.7023 15.134 86.4888 14.7012 86.4748C14.4078 86.4641 14.2158 86.6923 14.2076 87.063L14.2089 87.0604ZM16.0687 86.1244C16.2182 86.1195 16.3617 86.0643 16.4759 85.9677C16.5901 85.8711 16.6683 85.7388 16.698 85.5922C16.7126 85.5212 16.7097 85.4477 16.6894 85.3781C16.6692 85.3086 16.6321 85.245 16.5816 85.1931C16.5311 85.1411 16.4686 85.1023 16.3996 85.0801C16.3307 85.0578 16.2573 85.0529 16.186 85.0655C16.1561 85.0762 16.1242 85.0796 16.0927 85.0754C16.0613 85.0712 16.0313 85.0596 16.0053 85.0415C15.972 85.009 15.9313 84.9852 15.8867 84.9721C15.8422 84.9589 15.7951 84.9568 15.7495 84.966C15.7039 84.9752 15.6612 84.9953 15.6252 85.0247C15.5892 85.0541 15.5609 85.0918 15.5428 85.1346C15.4823 85.2373 15.4519 85.355 15.4553 85.4742C15.4587 85.5933 15.4956 85.7091 15.5618 85.8082C15.6045 85.9058 15.6757 85.9883 15.766 86.0447C15.8564 86.1011 15.9616 86.1289 16.0681 86.1244H16.0687ZM29.2569 87.8722C29.2537 88.1706 29.3728 88.3157 29.5737 88.3265C29.685 88.3238 29.7915 88.2806 29.8731 88.205C29.9548 88.1294 30.0061 88.0266 30.0173 87.9159C30.0173 87.8075 29.9793 87.6991 29.9761 87.5901C29.9751 87.5231 29.9516 87.4584 29.9093 87.4064C29.8669 87.3544 29.8084 87.3183 29.743 87.3038C29.6861 87.2849 29.6245 87.2855 29.568 87.3056C29.5115 87.3257 29.4634 87.3641 29.4311 87.4146C29.3263 87.5451 29.265 87.7051 29.2556 87.8722H29.2569ZM16.6669 87.2816C16.6768 87.2107 16.6591 87.1388 16.6175 87.0807C16.5758 87.0225 16.5135 86.9826 16.4432 86.9691C16.3715 86.9458 16.2935 86.9507 16.2252 86.9828C16.1569 87.015 16.1034 87.072 16.0757 87.1422C16.0247 87.2722 15.9885 87.4076 15.968 87.5458C15.9593 87.5975 15.9668 87.6505 15.9895 87.6977C16.0122 87.7449 16.0489 87.784 16.0947 87.8094C16.1415 87.8405 16.1969 87.8556 16.253 87.8527C16.309 87.8497 16.3626 87.8288 16.4058 87.7929C16.4874 87.7352 16.5536 87.6584 16.5989 87.5693C16.6442 87.4802 16.6671 87.3815 16.6657 87.2816H16.6669ZM28.4147 89.2314C28.5191 89.2298 28.6194 89.1909 28.6977 89.1219C28.776 89.0529 28.8271 88.9583 28.8419 88.855C28.8381 88.6782 28.6112 88.3917 28.473 88.3886C28.4193 88.3921 28.3668 88.4066 28.3189 88.4312C28.2709 88.4557 28.2285 88.4898 28.1942 88.5314C28.1599 88.5729 28.1345 88.621 28.1195 88.6728C28.1044 88.7245 28.1001 88.7787 28.1068 88.8322C28.1061 89.0457 28.2525 89.232 28.4147 89.2314ZM29.4413 89.3061C29.4413 89.5026 29.5781 89.6724 29.729 89.6648C29.8377 89.6409 29.9355 89.5818 30.0074 89.4967C30.0792 89.4116 30.121 89.3052 30.1263 89.194C30.1263 89.0413 30.023 88.9729 29.8779 88.9741C29.6618 88.9754 29.4394 89.1477 29.44 89.3061H29.4413Z" fill="#8FDB89"/>
<path d="M21.2168 93.5686C21.19 93.0285 21.1953 92.4872 21.2327 91.9477C21.265 91.5193 21.2663 91.0897 21.2853 90.66C21.2862 90.6087 21.2733 90.5581 21.2478 90.5135C21.2224 90.4689 21.1854 90.4319 21.1408 90.4066C20.6296 90.0386 20.0875 89.7157 19.5205 89.4415C18.895 89.1177 18.2671 88.7983 17.6404 88.477C17.5627 88.4508 17.495 88.4012 17.4464 88.3351C17.4241 88.3004 17.4135 88.2594 17.4165 88.2182C17.4195 88.1771 17.4358 88.1381 17.4629 88.107C17.4999 88.064 17.5509 88.0357 17.607 88.0271C17.663 88.0185 17.7202 88.0302 17.7683 88.06C18.0756 88.207 18.3811 88.3604 18.684 88.517C19.217 88.7932 19.7442 89.0816 20.2815 89.349C20.6149 89.5233 20.9351 89.7218 21.2396 89.9427C21.246 89.8794 21.2523 89.8432 21.2529 89.809C21.2652 88.9569 21.277 88.1047 21.2884 87.2522C21.2884 87.2002 21.2884 87.1482 21.2884 87.0962C21.2935 86.9612 21.3594 86.8529 21.4931 86.8478C21.6401 86.8428 21.72 86.9543 21.725 87.0962C21.7333 87.3332 21.7352 87.5709 21.725 87.8079C21.7193 87.9764 21.7586 88.0056 21.9063 87.9099C22.0964 87.7832 22.3042 87.6805 22.5026 87.5651C22.6357 87.4872 22.7764 87.446 22.8784 87.5917C22.9905 87.7527 22.8707 87.8541 22.744 87.9302C22.4582 88.1019 22.1737 88.271 21.8797 88.4333C21.8173 88.4637 21.7656 88.5125 21.7317 88.5731C21.6977 88.6337 21.6831 88.7032 21.6896 88.7723C21.6947 89.7292 21.6921 90.686 21.6819 91.6429C21.6819 91.8425 21.7517 91.8273 21.8917 91.7633C22.4525 91.5047 22.9576 91.1492 23.4918 90.8457C24.2649 90.4066 25.031 89.9548 25.773 89.4637C25.8839 89.3902 25.9859 89.3046 26.0899 89.2229C26.1291 89.1893 26.1793 89.1711 26.231 89.1719C26.2827 89.1727 26.3324 89.1923 26.3707 89.2271C26.4089 89.2618 26.4332 89.3093 26.4389 89.3607C26.4446 89.4121 26.4313 89.4638 26.4016 89.5061C26.3079 89.6312 26.1873 89.7336 26.0486 89.8058C25.8585 89.9326 25.6602 90.0511 25.4663 90.1734C25.3814 90.2266 25.3528 90.2735 25.4783 90.3134C25.838 90.4872 26.2162 90.6198 26.6057 90.7089C26.6338 90.708 26.6619 90.7131 26.6879 90.7239C26.7139 90.7347 26.7374 90.751 26.7567 90.7715C26.7759 90.7921 26.7907 90.8165 26.7998 90.8431C26.809 90.8698 26.8123 90.8982 26.8097 90.9262C26.8059 91.0815 26.7032 91.1309 26.5759 91.1404C26.36 91.1367 26.1481 91.0819 25.9574 90.9807C25.6228 90.8229 25.2711 90.7043 24.9093 90.6271C24.8241 90.6095 24.7354 90.6259 24.6621 90.6727C23.8882 91.1248 23.1128 91.5747 22.3359 92.0225C22.2053 92.1078 22.0638 92.1752 21.9152 92.2227C21.6769 92.2861 21.6351 92.4249 21.637 92.646C21.6724 92.9557 21.6554 93.2691 21.5869 93.5731C21.5319 93.6098 21.4672 93.6289 21.4012 93.6281C21.3351 93.6273 21.2709 93.6066 21.2168 93.5686Z" fill="#4A8E43"/>
<path d="M89.0525 85.4556C87.8885 85.4208 86.7278 85.315 85.5767 85.1388C84.4379 84.9526 83.3675 84.4719 82.4717 83.7446C82.2652 83.5695 82.0954 83.3552 81.9723 83.1141C81.8491 82.873 81.775 82.6099 81.7541 82.3399C81.7333 82.07 81.7661 81.7987 81.8508 81.5415C81.9354 81.2843 82.0702 81.0465 82.2473 80.8418C82.8608 80.1376 83.6761 79.6391 84.5825 79.414C84.7511 79.3691 84.7726 79.3088 84.7352 79.1441C84.6556 78.8008 84.6737 78.4421 84.7873 78.1085C84.901 77.7749 85.1058 77.4797 85.3784 77.2563C86.1923 76.5512 87.2019 76.1111 88.2724 75.9947C89.315 75.8503 90.3717 75.8409 91.4167 75.9669C92.0917 76.0569 92.7262 76.3408 93.243 76.7843C93.7502 77.1686 94.1123 77.7134 94.2702 78.3299C94.3044 78.4705 94.4178 78.4363 94.5015 78.4452C94.8863 78.4796 95.267 78.5506 95.6383 78.6574C96.5525 78.9394 97.3606 79.4904 97.9569 80.2385C98.2278 80.5939 98.377 81.027 98.3826 81.4737C98.3882 81.9205 98.2498 82.3573 97.988 82.7194C97.5476 83.3656 96.9437 83.8834 96.2378 84.2199C95.7631 84.4353 95.3214 84.7224 94.8398 84.9302C94.1534 85.2092 93.4253 85.3715 92.6854 85.4106C91.7968 85.4941 90.9043 85.5293 90.0119 85.5158C89.8078 85.5094 89.6037 85.4967 89.3997 85.4872C89.3997 85.3396 89.4066 85.1907 89.3908 85.0437C89.3809 84.9785 89.3947 84.9119 89.4296 84.8559C89.4644 84.7999 89.5181 84.7582 89.5809 84.7382C89.7754 84.6439 89.9589 84.5284 90.1278 84.3935C90.503 84.0995 90.8762 83.8029 91.2513 83.5064C91.3168 83.4427 91.4029 83.4045 91.4941 83.3986C91.8857 83.3986 92.2766 83.3568 92.6689 83.3676C92.93 83.3752 93.1923 83.3676 93.4533 83.3676C93.5668 83.3676 93.6492 83.3264 93.6542 83.2092C93.6593 83.0824 93.5636 83.0539 93.4565 83.0539H91.8774C91.8901 82.9868 91.93 82.9734 91.9604 82.95C92.5681 82.481 93.2177 82.073 93.8444 81.6313C93.9932 81.5485 94.1254 81.4387 94.2341 81.3075C94.2614 81.2756 94.2756 81.2345 94.2737 81.1926C94.2717 81.1506 94.2539 81.1109 94.2237 81.0817C94.1935 81.0525 94.1533 81.0359 94.1113 81.0354C94.0693 81.0348 94.0286 81.0503 93.9977 81.0787C93.7089 81.3266 93.4004 81.5504 93.0751 81.7479C92.7854 81.9662 92.4828 82.1668 92.1689 82.3486L92.1543 82.3341C92.1676 82.2553 92.1962 82.18 92.2386 82.1123C92.3776 81.807 92.4658 81.4809 92.4996 81.1472C92.5104 81.0337 92.4997 80.921 92.3514 80.9077C92.2032 80.8944 92.1733 80.997 92.1613 81.1142C92.1376 81.3745 92.0747 81.6299 91.975 81.8715C91.8344 82.1187 91.7446 82.3914 91.7107 82.6737C91.7107 82.7301 91.6569 82.7554 91.6163 82.7871C91.2095 83.104 90.8052 83.4278 90.3959 83.7428C90.1318 83.9758 89.8481 84.1857 89.548 84.3701C89.4143 84.4404 89.387 84.4106 89.3889 84.2699C89.3957 83.8052 89.3957 83.3388 89.3889 82.8707C89.3861 82.6778 89.3732 82.4852 89.3503 82.2935C89.3382 82.1877 89.2869 82.0895 89.1545 82.1034C89.022 82.1173 89.0119 82.2137 89.0163 82.3182C89.0163 82.3467 89.0163 82.3753 89.0163 82.4031C89.052 82.8961 89.062 83.3907 89.0461 83.8847C89.0461 83.9196 89.0677 83.9646 89.0195 83.9899C88.8085 83.8518 88.6627 83.6382 88.4555 83.4988C87.9283 83.1433 87.4011 82.7884 86.891 82.4082C86.8453 82.3813 86.8088 82.3413 86.7862 82.2934C86.7635 82.2455 86.7559 82.1919 86.7643 82.1395C86.8048 81.779 86.832 81.4171 86.8745 81.0572C86.8935 80.9454 86.9023 80.8321 86.9005 80.7188C86.8991 80.6833 86.8855 80.6494 86.862 80.6228C86.8385 80.5961 86.8066 80.5785 86.7715 80.5727C86.7365 80.567 86.7005 80.5735 86.6697 80.5912C86.639 80.6089 86.6153 80.6368 86.6027 80.67C86.5843 80.7118 86.5721 80.7559 86.5665 80.8012C86.5285 81.1731 86.4867 81.5451 86.4607 81.9184C86.4506 82.0616 86.4271 82.0908 86.301 82.0033C85.9234 81.7606 85.5621 81.4934 85.2194 81.2035C85.1376 81.1288 85.0355 81.0597 84.9373 81.1719C84.8391 81.2841 84.9107 81.3823 84.9969 81.4672C85.0172 81.4868 85.0412 81.5026 85.0602 81.5204C85.8137 82.1357 86.6508 82.6338 87.4334 83.2092C87.9583 83.5569 88.4554 83.9451 88.92 84.3701C88.9834 84.4335 89.0524 84.4873 89.0467 84.5963C89.0493 84.8871 89.0531 85.1723 89.0525 85.4556Z" fill="#8FDB89"/>
<path d="M92.1677 82.3549C92.4815 82.1731 92.7842 81.9725 93.0739 81.7542C93.3992 81.5568 93.7077 81.3329 93.9965 81.085C94.0274 81.0566 94.068 81.0411 94.11 81.0416C94.152 81.0422 94.1922 81.0588 94.2224 81.088C94.2526 81.1172 94.2705 81.1568 94.2725 81.1988C94.2744 81.2408 94.2602 81.2819 94.2328 81.3137C94.1242 81.4449 93.992 81.5547 93.8431 81.6375C93.2171 82.0811 92.5669 82.4873 91.9592 82.9563C91.9288 82.9797 91.8882 82.993 91.8762 83.0602H93.4553C93.5624 83.0602 93.6581 83.0874 93.653 83.2154C93.6479 83.3326 93.5655 83.3751 93.4521 83.3738C93.1904 83.3738 92.9287 83.3795 92.6676 83.3738C92.2747 83.3631 91.8844 83.403 91.4927 83.4049C91.4016 83.4109 91.3156 83.449 91.2501 83.5126C90.8756 83.8073 90.5017 84.1038 90.1266 84.3998C89.9577 84.5346 89.7742 84.6503 89.5797 84.7445C89.5168 84.7645 89.4631 84.8061 89.4283 84.8621C89.3934 84.9181 89.3797 84.9847 89.3896 85.0499C89.4054 85.1957 89.3966 85.3453 89.3985 85.4935C89.3712 86.4143 89.4384 87.3312 89.4219 88.2545C89.3959 89.7601 89.4099 91.2657 89.432 92.7707C89.4365 93.0995 89.4663 93.4284 89.4846 93.7573C89.4846 93.7915 89.4904 93.8251 89.4898 93.8593C89.4898 93.9626 89.4447 94.0425 89.3351 94.0495C89.2255 94.0564 89.1703 93.9766 89.1608 93.8771C89.1431 93.6908 89.1323 93.5039 89.1241 93.3163C89.0607 91.8341 89.0842 90.3513 89.0886 88.8685C89.0924 87.7602 89.0709 86.6506 89.0588 85.5448C89.0588 85.5163 89.0531 85.4884 89.0499 85.4599C89.0499 85.176 89.0461 84.8896 89.0537 84.6076C89.0537 84.4986 88.9904 84.4448 88.927 84.3814C88.4624 83.9564 87.9654 83.5683 87.4404 83.2205C86.6578 82.6451 85.8207 82.147 85.0673 81.5317C85.0457 81.514 85.021 81.4981 85.0039 81.4785C84.9183 81.3936 84.8448 81.2967 84.9443 81.1832C85.0438 81.0698 85.1446 81.1407 85.2263 81.2149C85.5691 81.5047 85.9305 81.7718 86.308 82.0146C86.4348 82.1026 86.4576 82.0729 86.4677 81.9297C86.4937 81.5565 86.5355 81.1845 86.5735 80.8125C86.579 80.7672 86.5912 80.7231 86.6096 80.6814C86.6222 80.6482 86.6459 80.6203 86.6767 80.6026C86.7075 80.5848 86.7435 80.5783 86.7785 80.5841C86.8136 80.5898 86.8455 80.6075 86.869 80.6341C86.8925 80.6607 86.9061 80.6946 86.9075 80.7301C86.9091 80.8435 86.9004 80.9568 86.8815 81.0685C86.839 81.4285 86.8118 81.7903 86.7712 82.1509C86.7629 82.2032 86.7705 82.2568 86.7931 82.3047C86.8157 82.3526 86.8523 82.3927 86.8979 82.4195C87.4081 82.7997 87.9359 83.1539 88.4625 83.5094C88.6697 83.6488 88.8155 83.8624 89.0265 84.0005C89.0753 83.9752 89.0544 83.9296 89.0531 83.8953C89.0689 83.4013 89.059 82.9068 89.0233 82.4138C89.0195 82.3859 89.0233 82.3568 89.0233 82.3283C89.0182 82.2238 89.0328 82.1268 89.1615 82.1141C89.2901 82.1014 89.3446 82.199 89.3566 82.3042C89.3795 82.4956 89.3925 82.6881 89.3953 82.8808C89.4 83.3455 89.4 83.8119 89.3953 84.28C89.3953 84.4213 89.4206 84.4504 89.5543 84.3807C89.8544 84.1963 90.1381 83.9864 90.4022 83.7534C90.8116 83.4366 91.2152 83.1166 91.6227 82.7978C91.6633 82.7662 91.7171 82.7408 91.7171 82.6844C91.7508 82.4018 91.8407 82.1289 91.9814 81.8815C92.0812 81.6399 92.1439 81.3846 92.1677 81.1243C92.1784 81.0071 92.2082 80.9038 92.3578 80.9177C92.5073 80.9316 92.5168 81.0444 92.506 81.1579C92.4722 81.4917 92.384 81.8176 92.2449 82.1229C92.2026 82.1907 92.174 82.2661 92.1607 82.3448L92.1499 82.3701L92.1677 82.3549Z" fill="#4A8E43"/>
<path d="M92.1699 82.3584L92.1445 82.3691L92.1547 82.3438L92.1699 82.3584Z" fill="#88BC6F"/>
</svg>
