<svg width="102" height="119" viewBox="0 0 102 119" fill="none" xmlns="http://www.w3.org/2000/svg">
<g clip-path="url(#clip0_240_26296)">
<path d="M50.9144 110.028C78.9711 110.028 101.716 87.2836 101.716 59.2269C101.716 31.1702 78.9711 8.42578 50.9144 8.42578C22.8577 8.42578 0.113281 31.1702 0.113281 59.2269C0.113281 87.2836 22.8577 110.028 50.9144 110.028Z" fill="#707070" fill-opacity="0.1"/>
<path d="M21.0098 70.731C20.4431 71.2971 19.4778 71.5886 19.2171 72.3343C18.4624 74.4921 19.9247 76.0609 20.3021 76.5326C20.7662 77.0583 21.3263 77.4906 21.9525 77.8063C22.5963 78.0602 23.2954 78.1413 23.9803 78.0415C24.3577 77.9478 25.537 77.6647 25.8195 77.1458C26.1019 76.6269 26.3383 74.552 26.527 73.9405C26.7157 73.3291 25.6313 71.063 25.3483 70.8749C25.0653 70.6868 22.2828 69.6484 22.2828 69.6484L21.0098 70.731Z" fill="#E8C6BC"/>
<path d="M26.1038 71.955C25.7394 71.4677 25.2514 71.0864 24.6904 70.8507C24.2047 70.4681 23.6444 70.1912 23.0454 70.0379C22.7203 69.9909 22.3888 70.0153 22.074 70.1093C21.7592 70.2033 21.4688 70.3646 21.2227 70.5822C21.2227 70.5822 22.0168 69.3357 22.708 69.1235C23.1652 68.9732 23.6425 68.8937 24.1237 68.8876C24.547 68.8876 24.4068 68.7781 24.6421 68.7461L24.7757 69.0926V70.0113C24.9673 70.263 25.1746 70.5022 25.3967 70.7273C25.6573 71.1217 25.8935 71.5317 26.1038 71.955Z" fill="#F09880"/>
<path d="M25.9127 41.6153C26.8694 41.9346 25.8353 41.9666 26.206 43.0637C26.5768 44.1608 26.8331 46.0186 26.4872 46.9052C26.1412 47.7918 25.3884 49.1901 24.8332 49.5173C24.278 49.8444 20.8543 52.5206 18.3076 51.36C15.7609 50.1995 16.1552 48.1366 16.4933 47.0135C16.842 45.8546 17.4129 44.7745 18.174 43.8336C19.0092 42.7638 19.8637 41.2978 20.792 40.7879C21.5244 40.3639 22.3088 40.0366 23.1253 39.8143C24.1444 39.5869 25.9786 39.9261 25.8437 40.0967C25.7945 40.6036 25.8177 41.1149 25.9127 41.6153Z" fill="#E8C6BC"/>
<path d="M18.3081 51.3578C16.7793 50.6617 16.3124 49.6403 16.252 48.692C16.7358 50.1652 18.2876 51.232 21.2873 49.7328C24.3934 48.1797 23.1759 43.4135 22.6818 42.4247C22.1877 41.4359 22.3644 40.4126 23.831 39.9887C23.9223 39.962 23.8394 39.8115 23.8449 39.7383C23.9338 39.7383 24.0226 39.7383 24.1121 39.7383C24.4986 41.2708 25.1518 46.7537 25.3363 49.0155C25.1998 49.2103 25.0293 49.3789 24.8331 49.5133C24.2779 49.8423 20.8542 52.5178 18.3081 51.3578Z" fill="#F7D8CD"/>
<path d="M22.1669 60.3184C23.0632 60.2241 23.9595 60.1769 24.6671 60.9316C25.3747 61.6864 26.2709 63.101 26.3175 63.9507C26.3641 64.8004 26.2703 66.215 25.9407 66.6867C25.6111 67.1584 23.8181 70.6014 21.3179 70.6014C18.8178 70.6014 17.6856 69.0895 17.5447 68.0541C17.3992 66.9836 17.4631 65.895 17.7328 64.8488C18.0323 63.681 18.5412 62.5773 19.235 61.5915C19.7745 60.8688 20.1851 60.2737 20.7046 60.085C21.2241 59.8963 22.2607 59.9434 22.2165 60.1321L22.1669 60.3184Z" fill="#E8C6BC"/>
<path d="M17.4792 66.911C17.5596 67.5937 17.9007 68.2189 18.4314 68.656C18.962 69.093 19.641 69.3081 20.3264 69.2563C24.4571 69.292 23.5686 59.1245 20.3579 60.735C19.7063 61.0137 19.1757 61.516 18.8618 62.1514C19.199 61.5987 19.5671 61.0654 19.9643 60.5542C20.4686 59.8853 21.1225 59.3437 21.8737 58.9728C22.6248 58.6018 23.4525 58.4119 24.2903 58.4181L24.2575 60.6013L25.3891 62.1133L25.9552 63.7643L25.9085 65.5569C25.8219 66.197 25.6308 66.8186 25.3426 67.3966C25.0899 67.7533 24.8943 68.147 24.7626 68.5638C24.7281 68.6322 23.7871 69.6827 23.7871 69.6827C23.0287 70.282 21.5076 71.3156 18.8448 69.9651C17.198 69.1281 17.4792 66.911 17.4792 66.911Z" fill="#F7D8CD"/>
<path fill-rule="evenodd" clip-rule="evenodd" d="M70.3509 101.86C70.9343 101.273 71.3007 100.505 71.39 99.6825C71.4056 99.5438 71.4128 99.4042 71.4117 99.2646C71.4124 99.2125 71.4025 99.1607 71.3823 99.1127C71.3621 99.0646 71.3322 99.0212 71.2944 98.9852C71.2037 98.8981 71.113 98.8098 71.0229 98.7221C70.9365 98.6329 70.8231 98.5748 70.7003 98.5568C70.5774 98.5387 70.4521 98.5618 70.3437 98.6224C70.2671 98.6601 70.1992 98.7135 70.1445 98.7792C70.0898 98.8448 70.0494 98.9212 70.0261 99.0034C69.9747 99.1848 69.9221 99.3662 69.8755 99.5476C69.8486 99.6418 69.8475 99.7416 69.8726 99.8363C69.8976 99.9311 69.9477 100.017 70.0177 100.086C70.0679 100.139 70.1205 100.19 70.1755 100.239C70.1922 100.251 70.2042 100.268 70.2093 100.288C70.2145 100.308 70.2127 100.329 70.204 100.348C70.0939 100.694 69.9027 101.009 69.6464 101.267C69.39 101.525 69.076 101.718 68.7302 101.829C68.6918 101.851 68.6465 101.858 68.6033 101.849C68.5602 101.839 68.5222 101.814 68.4967 101.777C68.4513 101.72 68.3978 101.668 68.3382 101.625C68.2701 101.573 68.1913 101.538 68.1075 101.521C68.0238 101.503 67.9374 101.505 67.8545 101.526C67.6507 101.574 67.4487 101.629 67.2497 101.688C67.1698 101.71 67.0955 101.749 67.0318 101.803C66.968 101.856 66.9164 101.922 66.88 101.996C66.8436 102.071 66.8233 102.153 66.8206 102.235C66.8179 102.318 66.8328 102.401 66.8643 102.478C66.8888 102.529 66.9218 102.577 66.9618 102.618C67.0307 102.692 67.1118 102.757 67.1796 102.833C67.2257 102.895 67.2859 102.946 67.3551 102.98C67.4244 103.015 67.5007 103.032 67.5781 103.032C68.621 103.023 69.6181 102.602 70.3509 101.86Z" fill="white"/>
<path d="M24.5739 56.4495C25.1872 56.4338 25.14 56.1508 25.4067 56.4338C25.632 56.8115 25.7866 57.2271 25.8628 57.6603C25.9325 57.9539 25.9633 58.2555 25.9546 58.5572C25.9867 58.8717 25.9709 59.0603 25.7659 59.0289C25.5701 58.9972 25.3921 58.8969 25.2635 58.7459C25.1206 58.5491 24.9891 58.3444 24.8697 58.1326C24.7733 57.9308 24.6462 57.7451 24.4929 57.5823C24.3356 57.4402 23.8161 57.1589 23.8947 56.9061C23.9734 56.6533 23.7375 56.5608 24.052 56.4501C24.1346 56.4155 24.2233 56.3977 24.3129 56.3976C24.4025 56.3975 24.4912 56.4152 24.5739 56.4495Z" fill="#DD996B"/>
<path d="M19.0117 73.3651C19.0184 73.4074 19.0251 73.4473 19.0293 73.4951C19.2766 75.861 21.2174 75.8604 22.1004 75.6838C22.7233 75.5598 23.1853 74.9423 23.3704 74.0085C23.3704 73.9602 23.3752 73.9154 23.3758 73.8658C23.4115 71.1957 23.457 70.213 22.8365 70.04C22.32 69.8961 23.1842 69.3143 23.1842 69.3143C23.1842 69.3143 23.9364 69.2598 24.0453 69.4878C24.1541 69.7158 24.9676 69.8011 25.0462 70.7065C25.0462 70.721 25.0498 70.7307 25.0511 70.7446C25.2361 70.7228 25.4049 70.7071 25.5011 70.6956C25.5011 70.6956 26.4142 71.4661 26.6023 71.6705C26.7904 71.8749 26.7275 72.7712 26.7275 73.0542C26.7649 73.4733 26.7546 73.8953 26.6966 74.3121C26.466 74.6184 26.1965 74.8933 25.8947 75.1298C25.8609 75.1649 25.7587 75.1256 25.6275 75.0258C25.6438 75.0633 25.6576 75.0959 25.6685 75.1201C25.5629 75.5048 25.3775 75.8629 25.1243 76.1712C25.1361 76.3326 25.1077 76.4944 25.0418 76.6421C24.9758 76.7899 24.8743 76.919 24.7463 77.0179C24.1542 77.6063 25.5324 77.8954 25.2107 77.9783C24.6413 78.1002 24.0568 78.1359 23.4768 78.0841C22.957 78.0955 22.4403 78.0008 21.9582 77.8059C21.8808 77.7672 21.801 77.7237 21.7199 77.6771C21.5782 77.6014 21.4409 77.5176 21.3087 77.4261H21.3196C20.9423 77.1772 20.6015 76.8767 20.3072 76.5335C19.4854 75.6823 19.0217 74.5482 19.0117 73.3651Z" fill="#F7D8CD"/>
<path d="M68.0601 49.8119C68.0601 49.8119 67.2581 49.3982 66.8342 49.123C66.4103 48.8479 64.9945 47.8373 64.7593 47.7454C64.524 47.6534 64.2398 47.3783 64.0039 47.3323C63.768 47.2863 46.2689 53.9903 45.9864 55.4593C45.704 56.9283 44.2881 59.775 43.2503 63.2651C42.2125 66.7553 41.4584 71.3461 41.8364 73.458C42.2144 75.5699 42.7799 78.4172 42.7799 78.4172L43.6265 81.9986C43.6265 81.9986 45.2304 84.7068 45.3725 84.9832C45.5146 85.2596 46.0323 85.5801 46.1738 85.8553C47.3387 87.3018 48.6344 88.638 50.0444 89.8468C50.829 90.4684 51.5696 91.1435 52.261 91.8674C53.4658 92.6887 54.7263 93.425 56.0334 94.0712C57.2335 94.6359 58.3864 95.296 59.4808 96.0452C60.4702 96.734 61.9253 95.6974 62.5857 96.662C63.2461 97.6267 65.3241 99.1598 65.6096 99.9405C65.895 100.721 71.5714 117.686 71.7474 117.908C71.9234 118.13 100.408 95.4984 100.408 95.4984C100.101 94.5913 91.2526 81.5777 90.7809 80.8429C90.3091 80.1081 88.4223 77.5372 88.4223 77.5372L88.1392 76.2515C88.1392 76.2515 87.4063 68.4051 86.6515 65.1907C85.8968 61.9763 84.4869 57.8288 84.1985 57.0178C81.1002 48.3054 69.4504 35.004 62.2488 26.5522C55.5527 18.6901 30.5156 27.1927 30.5156 29.3578C30.5156 31.5229 31.7857 39.2543 33.375 40.4917C34.9644 41.7291 42.9075 45.1309 42.9075 45.1309" fill="#F7D8CD"/>
<path d="M53.2042 38.7199C50.8033 37.4499 51.5109 34.9099 50.0981 31.9416C48.6853 28.9734 51.5096 26.7164 52.6381 24.5984C52.9364 24.0935 53.3429 23.661 53.8283 23.332C57.3856 23.5413 56.9127 26.8827 58.6919 29.029C60.5456 31.2667 64.9556 26.9601 65.3124 30.4061C65.4709 31.9416 65.5768 36.7611 67.0597 38.3492C71.2472 42.8366 75.0149 46.6667 77.968 51.4825C76.2292 52.0268 75.8386 51.3089 73.8205 51.0059C70.9962 50.5826 65.9112 44.9334 62.2409 42.1097C62.2427 42.1091 55.6046 39.9906 53.2042 38.7199Z" fill="#E8C6BC"/>
<path d="M68.0601 50.5385C68.0601 50.5385 67.2589 50.1152 66.8343 49.831C66.4098 49.5467 64.9945 48.5101 64.7593 48.4158C64.524 48.3214 64.2397 48.0384 64.0039 47.9924C63.9501 47.9815 62.9836 48.3372 61.5273 48.9081C63.1645 51.4935 66.0184 55.508 66.0184 55.508C66.6268 52.9927 67.5104 51.7747 68.9927 50.9274L68.0601 50.5385Z" fill="#F09880"/>
<path d="M53.6258 52.1561C54.0026 51.2381 58.2476 46.5547 58.2476 46.5547C58.2476 46.5547 61.7395 47.0536 62.4465 47.1716C63.5735 47.4117 64.6664 47.7905 65.7002 48.2995C66.5064 48.8649 69.5865 50.4766 69.5865 50.4766C67.5908 51.9886 70.4157 52.1906 70.1157 68.2093C69.8333 83.3607 55.1837 86.973 60.2663 91.0964C62.7017 93.0728 50.5426 88.9307 50.4912 90.7184C49.0377 89.3599 47.6893 87.8931 46.4574 86.3308C45.8738 85.6655 45.4801 84.9573 45.1354 84.5721C36.0268 74.3943 53.2479 53.0748 53.6258 52.1561Z" fill="#F09880"/>
<path opacity="0.3" d="M24.9861 71.0234C25.2077 71.3682 25.4955 71.6657 25.8328 71.8985V73.6699C25.7263 73.6911 25.6193 73.7056 25.5431 73.7274C25.3507 73.7448 25.1574 73.7086 24.9844 73.6228L24.9861 71.0234Z" fill="#BBB9C6"/>
<path opacity="0.3" d="M24.9861 56.9375C25.2076 57.2824 25.4954 57.5798 25.8328 57.8126V59.584C25.7263 59.6058 25.6193 59.6197 25.5431 59.6445C25.3507 59.6616 25.1575 59.6254 24.9844 59.5399L24.9861 56.9375Z" fill="#BBB9C6"/>
<path d="M26.977 62.1094C26.9165 63.2409 26.8197 66.7946 25.1855 68.2412V65.5391L26.977 62.1094Z" fill="#9896AA"/>
<path opacity="0.5" d="M26.9768 75.4336C26.9163 76.5651 26.86 78.5258 25.2229 79.9694L25.1836 78.8584L26.9768 75.4336Z" fill="#9896AA"/>
<path d="M45.8235 80.1141C46.8988 81.6944 47.3295 86.9076 48.7585 88.3209C48.7368 88.2627 48.724 88.2015 48.7204 88.1395C48.7204 87.9327 49.2866 87.4507 49.4983 87.2438C49.7099 87.037 54.6631 85.9357 54.6631 85.9357C52.9437 86.4885 52.2438 87.2469 52.1924 88.0978C53.708 87.7192 55.7281 87.2698 55.7281 87.2698C53.0979 88.1165 52.8457 89.4422 53.6766 90.8453C55.2784 92.3337 57.0389 93.6414 58.9266 94.7449C61.4062 96.1516 63.8562 94.6844 64.6587 96.1721C65.1286 97.0448 66.5699 102.931 66.6013 104.533C66.6013 104.533 65.1945 101.159 63.7334 99.6345C62.0775 97.9103 60.6158 97.5522 59.1522 96.9021C56.9369 95.8171 54.8241 94.5342 52.8396 93.069C47.4365 89.184 43.0337 81.6388 42.4707 79.7422L45.8235 80.1141Z" fill="#E8C6BC"/>
<path d="M42.5586 77.4263C45.1664 76.96 52.0355 75.7414 53.2904 75.6059C54.8453 75.4384 62.3439 77.8799 62.3439 77.8799C62.2012 79.4712 61.915 81.0464 61.4887 82.5862C58.1455 91.5786 49.6544 90.3074 46.5271 86.4568C45.2575 84.8015 44.2009 82.9931 43.3823 81.0743L43.0733 81.6416C42.8563 80.6185 42.7533 79.5745 42.766 78.5288C42.7007 78.1931 42.6294 77.8158 42.5586 77.4263Z" fill="#E8C6BC"/>
<path d="M60.9981 1.06641H28.2205C26.2164 1.06641 24.5918 2.69101 24.5918 4.69506V78.0265C24.5918 80.0306 26.2164 81.6552 28.2205 81.6552H60.9981C63.0021 81.6552 64.6267 80.0306 64.6267 78.0265V4.69506C64.6267 2.69101 63.0021 1.06641 60.9981 1.06641Z" fill="#3B6BB2"/>
<path d="M60.7274 1.06591C61.7607 1.06894 62.7509 1.48077 63.4815 2.21142C64.2122 2.94208 64.624 3.9322 64.627 4.96551V77.7551C64.624 78.7884 64.2122 79.7785 63.4815 80.5092C62.7509 81.2398 61.7607 81.6516 60.7274 81.6547H28.4928C27.4595 81.6516 26.4694 81.2398 25.7387 80.5092C25.0081 79.7785 24.5963 78.7884 24.5933 77.7551V4.96551C24.5963 3.9322 25.0081 2.94208 25.7387 2.21142C26.4694 1.48077 27.4595 1.06894 28.4928 1.06591H60.7274ZM60.7274 0.430297H28.4928C27.2902 0.431417 26.1372 0.909656 25.2868 1.76004C24.4364 2.61043 23.9582 3.76348 23.957 4.96611V77.7551C23.9582 78.9577 24.4364 80.1108 25.2868 80.9612C26.1372 81.8115 27.2902 82.2898 28.4928 82.2909H60.7274C61.93 82.2898 63.0831 81.8115 63.9335 80.9612C64.7839 80.1108 65.2621 78.9577 65.2632 77.7551V4.96551C65.2621 3.76288 64.7839 2.60983 63.9335 1.75944C63.0831 0.909052 61.93 0.430808 60.7274 0.429688V0.430297Z" fill="#14ADE2"/>
<path d="M61.824 11.1016H27.2356C26.9016 11.1016 26.6309 11.3723 26.6309 11.7063V68.4192C26.6309 68.7532 26.9016 69.0239 27.2356 69.0239H61.824C62.158 69.0239 62.4287 68.7532 62.4287 68.4192V11.7063C62.4287 11.3723 62.158 11.1016 61.824 11.1016Z" fill="white"/>
<path d="M39.5938 6.24609H49.6203" stroke="#194A92" stroke-width="1.20955" stroke-miterlimit="10" stroke-linecap="round"/>
<path d="M41.9258 74.9451C41.9258 74.4144 42.083 73.8956 42.3779 73.4543C42.6727 73.013 43.0919 72.6691 43.5823 72.466C44.0726 72.2629 44.6121 72.2097 45.1326 72.3133C45.6531 72.4168 46.1312 72.6724 46.5065 73.0477C46.8818 73.423 47.1374 73.9011 47.2409 74.4216C47.3444 74.9421 47.2913 75.4817 47.0882 75.972C46.8851 76.4623 46.5411 76.8814 46.0999 77.1763C45.6586 77.4711 45.1399 77.6285 44.6092 77.6285C44.2568 77.6286 43.9077 77.5592 43.5821 77.4244C43.2565 77.2896 42.9606 77.0919 42.7114 76.8427C42.4622 76.5935 42.2647 76.2977 42.1298 75.9721C41.995 75.6465 41.9257 75.2975 41.9258 74.9451Z" fill="#194A92"/>
<path d="M69.039 26.3633H20.0721C19.0701 26.3633 18.2578 27.1756 18.2578 28.1776V42.9384C18.2578 43.9404 19.0701 44.7527 20.0721 44.7527H69.039C70.041 44.7527 70.8533 43.9404 70.8533 42.9384V28.1776C70.8533 27.1756 70.041 26.3633 69.039 26.3633Z" fill="#14ADE2"/>
<path d="M28.9947 33.6627H28.3023C28.2613 33.4636 28.1897 33.2886 28.0873 33.1378C27.9868 32.9871 27.8639 32.8605 27.7188 32.7581C27.5754 32.6539 27.4163 32.5757 27.2413 32.5236C27.0664 32.4715 26.884 32.4454 26.6941 32.4454C26.3479 32.4454 26.0343 32.5329 25.7532 32.7079C25.474 32.8828 25.2516 33.1406 25.086 33.4812C24.9222 33.8218 24.8403 34.2397 24.8403 34.7348C24.8403 35.2299 24.9222 35.6478 25.086 35.9884C25.2516 36.329 25.474 36.5868 25.7532 36.7618C26.0343 36.9367 26.3479 37.0242 26.6941 37.0242C26.884 37.0242 27.0664 36.9981 27.2413 36.946C27.4163 36.8939 27.5754 36.8167 27.7188 36.7143C27.8639 36.6101 27.9868 36.4826 28.0873 36.3318C28.1897 36.1792 28.2613 36.0042 28.3023 35.8069H28.9947C28.9426 36.0991 28.8476 36.3606 28.7099 36.5914C28.5722 36.8222 28.4009 37.0186 28.1962 37.1805C27.9914 37.3406 27.7616 37.4625 27.5066 37.5463C27.2534 37.63 26.9826 37.6719 26.6941 37.6719C26.2065 37.6719 25.7728 37.5528 25.3931 37.3146C25.0134 37.0763 24.7146 36.7376 24.4969 36.2983C24.2791 35.859 24.1702 35.3379 24.1702 34.7348C24.1702 34.1318 24.2791 33.6106 24.4969 33.1713C24.7146 32.7321 25.0134 32.3933 25.3931 32.1551C25.7728 31.9168 26.2065 31.7977 26.6941 31.7977C26.9826 31.7977 27.2534 31.8396 27.5066 31.9233C27.7616 32.0071 27.9914 32.1299 28.1962 32.2919C28.4009 32.4519 28.5722 32.6474 28.7099 32.8782C28.8476 33.1071 28.9426 33.3686 28.9947 33.6627ZM31.7664 37.6831C31.3792 37.6831 31.0395 37.591 30.7473 37.4067C30.457 37.2224 30.2299 36.9646 30.0661 36.6333C29.9041 36.302 29.8232 35.9149 29.8232 35.4719C29.8232 35.0252 29.9041 34.6352 30.0661 34.3021C30.2299 33.9689 30.457 33.7102 30.7473 33.5259C31.0395 33.3416 31.3792 33.2495 31.7664 33.2495C32.1535 33.2495 32.4923 33.3416 32.7826 33.5259C33.0749 33.7102 33.3019 33.9689 33.4639 34.3021C33.6277 34.6352 33.7096 35.0252 33.7096 35.4719C33.7096 35.9149 33.6277 36.302 33.4639 36.6333C33.3019 36.9646 33.0749 37.2224 32.7826 37.4067C32.4923 37.591 32.1535 37.6831 31.7664 37.6831ZM31.7664 37.0912C32.0605 37.0912 32.3024 37.0158 32.4923 36.8651C32.6821 36.7143 32.8226 36.5161 32.9139 36.2704C33.0051 36.0247 33.0507 35.7585 33.0507 35.4719C33.0507 35.1852 33.0051 34.9181 32.9139 34.6706C32.8226 34.423 32.6821 34.223 32.4923 34.0703C32.3024 33.9177 32.0605 33.8414 31.7664 33.8414C31.4723 33.8414 31.2303 33.9177 31.0405 34.0703C30.8506 34.223 30.7101 34.423 30.6189 34.6706C30.5277 34.9181 30.4821 35.1852 30.4821 35.4719C30.4821 35.7585 30.5277 36.0247 30.6189 36.2704C30.7101 36.5161 30.8506 36.7143 31.0405 36.8651C31.2303 37.0158 31.4723 37.0912 31.7664 37.0912ZM35.3742 35.014V37.5938H34.7153V33.3053H35.3519V33.9754H35.4077C35.5083 33.7576 35.6609 33.5827 35.8656 33.4505C36.0704 33.3165 36.3347 33.2495 36.6585 33.2495C36.9489 33.2495 37.203 33.3091 37.4207 33.4282C37.6385 33.5454 37.8079 33.7241 37.9289 33.9642C38.0498 34.2025 38.1103 34.504 38.1103 34.8688V37.5938H37.4514V34.9135C37.4514 34.5766 37.364 34.3142 37.189 34.1262C37.014 33.9363 36.7739 33.8414 36.4687 33.8414C36.2584 33.8414 36.0704 33.887 35.9047 33.9782C35.7409 34.0694 35.6116 34.2025 35.5166 34.3774C35.4217 34.5524 35.3742 34.7646 35.3742 35.014ZM42.352 34.2658L41.7601 34.4333C41.7229 34.3346 41.668 34.2388 41.5954 34.1457C41.5246 34.0508 41.4278 33.9726 41.305 33.9112C41.1822 33.8498 41.0249 33.8191 40.8332 33.8191C40.5707 33.8191 40.352 33.8795 40.1771 34.0005C40.004 34.1197 39.9174 34.2714 39.9174 34.4556C39.9174 34.6194 39.977 34.7488 40.0961 34.8437C40.2152 34.9386 40.4013 35.0177 40.6545 35.081L41.291 35.2374C41.6745 35.3304 41.9602 35.4728 42.1482 35.6645C42.3362 35.8544 42.4302 36.0991 42.4302 36.3988C42.4302 36.6445 42.3594 36.8641 42.218 37.0577C42.0784 37.2513 41.8829 37.4039 41.6317 37.5156C41.3804 37.6273 41.0882 37.6831 40.755 37.6831C40.3176 37.6831 39.9556 37.5882 39.6689 37.3983C39.3823 37.2085 39.2008 36.9311 39.1245 36.5663L39.7499 36.41C39.8095 36.6408 39.9221 36.8139 40.0877 36.9293C40.2552 37.0447 40.4739 37.1024 40.7438 37.1024C41.0509 37.1024 41.2948 37.0372 41.4753 36.9069C41.6577 36.7748 41.7489 36.6166 41.7489 36.4323C41.7489 36.2834 41.6968 36.1587 41.5926 36.0582C41.4883 35.9558 41.3283 35.8795 41.1124 35.8292L40.3976 35.6617C40.0049 35.5687 39.7164 35.4244 39.5321 35.229C39.3497 35.0317 39.2585 34.7851 39.2585 34.4891C39.2585 34.2472 39.3265 34.0331 39.4623 33.847C39.6001 33.6608 39.7871 33.5147 40.0235 33.4086C40.2618 33.3025 40.5316 33.2495 40.8332 33.2495C41.2575 33.2495 41.5907 33.3426 41.8327 33.5287C42.0765 33.7148 42.2496 33.9605 42.352 34.2658ZM46.1246 35.8404V33.3053H46.7835V37.5938H46.1246V36.8678H46.0799C45.9794 37.0856 45.823 37.2708 45.6109 37.4234C45.3987 37.5742 45.1306 37.6496 44.8068 37.6496C44.5388 37.6496 44.3005 37.591 44.092 37.4737C43.8836 37.3546 43.7198 37.1759 43.6007 36.9376C43.4815 36.6975 43.422 36.3951 43.422 36.0303V33.3053H44.0809V35.9856C44.0809 36.2983 44.1684 36.5477 44.3433 36.7338C44.5201 36.92 44.7454 37.013 45.019 37.013C45.1828 37.013 45.3493 36.9711 45.5187 36.8874C45.69 36.8036 45.8333 36.6752 45.9487 36.5021C46.0659 36.329 46.1246 36.1084 46.1246 35.8404ZM48.6492 31.8759V37.5938H47.9903V31.8759H48.6492ZM51.721 33.3053V33.8637H49.4986V33.3053H51.721ZM50.1464 32.2779H50.8053V36.3653C50.8053 36.5514 50.8322 36.691 50.8862 36.7841C50.9421 36.8753 51.0128 36.9367 51.0984 36.9684C51.1859 36.9981 51.278 37.013 51.3748 37.013C51.4474 37.013 51.507 37.0093 51.5535 37.0019C51.6 36.9926 51.6372 36.9851 51.6652 36.9795L51.7992 37.5714C51.7545 37.5882 51.6922 37.6049 51.6121 37.6217C51.5321 37.6403 51.4306 37.6496 51.3078 37.6496C51.1217 37.6496 50.9393 37.6096 50.7606 37.5295C50.5838 37.4495 50.4367 37.3276 50.3195 37.1638C50.2041 37 50.1464 36.7934 50.1464 36.544V32.2779ZM53.9741 37.6943C53.7023 37.6943 53.4557 37.6431 53.2342 37.5407C53.0127 37.4365 52.8368 37.2866 52.7066 37.0912C52.5763 36.8939 52.5111 36.6557 52.5111 36.3765C52.5111 36.1308 52.5595 35.9316 52.6563 35.779C52.7531 35.6245 52.8824 35.5035 53.0444 35.416C53.2063 35.3286 53.385 35.2634 53.5804 35.2206C53.7777 35.1759 53.976 35.1406 54.1751 35.1145C54.4357 35.081 54.6469 35.0559 54.8089 35.0391C54.9727 35.0205 55.0918 34.9898 55.1662 34.947C55.2426 34.9042 55.2807 34.8297 55.2807 34.7236V34.7013C55.2807 34.4258 55.2053 34.2118 55.0546 34.0592C54.9057 33.9065 54.6795 33.8302 54.3761 33.8302C54.0616 33.8302 53.815 33.8991 53.6363 34.0368C53.4576 34.1746 53.3319 34.3216 53.2594 34.478L52.634 34.2546C52.7456 33.994 52.8945 33.7911 53.0807 33.646C53.2687 33.4989 53.4734 33.3965 53.6949 33.3388C53.9183 33.2793 54.1379 33.2495 54.3538 33.2495C54.4915 33.2495 54.6497 33.2663 54.8284 33.2998C55.009 33.3314 55.183 33.3975 55.3505 33.498C55.5199 33.5985 55.6604 33.7502 55.7721 33.9531C55.8838 34.156 55.9396 34.4277 55.9396 34.7683V37.5938H55.2807V37.013H55.2472C55.2025 37.1061 55.1281 37.2057 55.0239 37.3118C54.9196 37.4179 54.781 37.5081 54.6079 37.5826C54.4348 37.657 54.2235 37.6943 53.9741 37.6943ZM54.0746 37.1024C54.3352 37.1024 54.5548 37.0512 54.7335 36.9488C54.914 36.8464 55.0499 36.7143 55.1411 36.5524C55.2342 36.3904 55.2807 36.2201 55.2807 36.0414V35.4384C55.2528 35.4719 55.1914 35.5026 55.0965 35.5305C55.0034 35.5566 54.8954 35.5798 54.7726 35.6003C54.6516 35.6189 54.5334 35.6357 54.418 35.6506C54.3045 35.6636 54.2123 35.6748 54.1416 35.6841C53.9704 35.7064 53.8103 35.7427 53.6614 35.793C53.5144 35.8413 53.3952 35.9149 53.304 36.0135C53.2147 36.1103 53.17 36.2425 53.17 36.41C53.17 36.6389 53.2547 36.812 53.4241 36.9293C53.5953 37.0447 53.8122 37.1024 54.0746 37.1024ZM59.0072 33.3053V33.8637H56.7849V33.3053H59.0072ZM57.4326 32.2779H58.0915V36.3653C58.0915 36.5514 58.1185 36.691 58.1725 36.7841C58.2283 36.8753 58.299 36.9367 58.3846 36.9684C58.4721 36.9981 58.5643 37.013 58.661 37.013C58.7336 37.013 58.7932 37.0093 58.8397 37.0019C58.8863 36.9926 58.9235 36.9851 58.9514 36.9795L59.0854 37.5714C59.0408 37.5882 58.9784 37.6049 58.8984 37.6217C58.8183 37.6403 58.7169 37.6496 58.594 37.6496C58.4079 37.6496 58.2255 37.6096 58.0468 37.5295C57.87 37.4495 57.723 37.3276 57.6057 37.1638C57.4903 37 57.4326 36.7934 57.4326 36.544V32.2779ZM59.9984 37.5938V33.3053H60.6573V37.5938H59.9984ZM60.3334 32.5906C60.205 32.5906 60.0942 32.5469 60.0012 32.4594C59.91 32.3719 59.8644 32.2667 59.8644 32.1439C59.8644 32.0211 59.91 31.9159 60.0012 31.8284C60.0942 31.7409 60.205 31.6972 60.3334 31.6972C60.4618 31.6972 60.5717 31.7409 60.6629 31.8284C60.7559 31.9159 60.8025 32.0211 60.8025 32.1439C60.8025 32.2667 60.7559 32.3719 60.6629 32.4594C60.5717 32.5469 60.4618 32.5906 60.3334 32.5906ZM63.6063 37.6831C63.2191 37.6831 62.8794 37.591 62.5872 37.4067C62.2968 37.2224 62.0698 36.9646 61.906 36.6333C61.744 36.302 61.6631 35.9149 61.6631 35.4719C61.6631 35.0252 61.744 34.6352 61.906 34.3021C62.0698 33.9689 62.2968 33.7102 62.5872 33.5259C62.8794 33.3416 63.2191 33.2495 63.6063 33.2495C63.9934 33.2495 64.3322 33.3416 64.6225 33.5259C64.9147 33.7102 65.1418 33.9689 65.3038 34.3021C65.4676 34.6352 65.5494 35.0252 65.5494 35.4719C65.5494 35.9149 65.4676 36.302 65.3038 36.6333C65.1418 36.9646 64.9147 37.2224 64.6225 37.4067C64.3322 37.591 63.9934 37.6831 63.6063 37.6831ZM63.6063 37.0912C63.9003 37.0912 64.1423 37.0158 64.3322 36.8651C64.522 36.7143 64.6625 36.5161 64.7537 36.2704C64.845 36.0247 64.8906 35.7585 64.8906 35.4719C64.8906 35.1852 64.845 34.9181 64.7537 34.6706C64.6625 34.423 64.522 34.223 64.3322 34.0703C64.1423 33.9177 63.9003 33.8414 63.6063 33.8414C63.3122 33.8414 63.0702 33.9177 62.8804 34.0703C62.6905 34.223 62.55 34.423 62.4588 34.6706C62.3676 34.9181 62.322 35.1852 62.322 35.4719C62.322 35.7585 62.3676 36.0247 62.4588 36.2704C62.55 36.5161 62.6905 36.7143 62.8804 36.8651C63.0702 37.0158 63.3122 37.0912 63.6063 37.0912ZM67.2141 35.014V37.5938H66.5552V33.3053H67.1918V33.9754H67.2476C67.3481 33.7576 67.5008 33.5827 67.7055 33.4505C67.9103 33.3165 68.1746 33.2495 68.4984 33.2495C68.7888 33.2495 69.0429 33.3091 69.2606 33.4282C69.4784 33.5454 69.6478 33.7241 69.7688 33.9642C69.8897 34.2025 69.9502 34.504 69.9502 34.8688V37.5938H69.2913V34.9135C69.2913 34.5766 69.2039 34.3142 69.0289 34.1262C68.8539 33.9363 68.6138 33.8414 68.3086 33.8414C68.0982 33.8414 67.9103 33.887 67.7446 33.9782C67.5808 34.0694 67.4515 34.2025 67.3565 34.3774C67.2616 34.5524 67.2141 34.7646 67.2141 35.014Z" fill="white"/>
<path opacity="0.12" d="M68.8896 26.3633L48.7312 44.7527L26.4707 65.0623V48.0681L30.1029 44.7551L50.2613 26.3657L68.8896 26.3633Z" fill="white"/>
<path opacity="0.06" d="M41.2666 40.5604C40.1369 40.3488 40.5469 40.8023 39.3954 41.4434C37.878 42.2901 37.4893 45.7857 39.9955 48.3983C42.6752 51.1912 48.1151 53.7645 53.8338 54.541C53.8338 54.541 56.588 61.8134 59.907 66.2616C63.2248 70.7804 61.3893 78.2645 61.8133 81.9361C62.2372 85.6077 67.7444 65.6967 67.8151 65.4863C67.8859 65.2758 67.7444 60.2616 67.8151 60.0493C67.8859 59.8371 67.6028 58.4963 67.1795 58.2138C66.7562 57.9314 59.413 51.0823 59.3422 50.8707C58.6356 50.0698 57.8555 49.337 57.012 48.682C56.2737 48.4847 55.5164 48.3665 54.7531 48.3294C54.3987 48.3983 41.2666 40.5604 41.2666 40.5604Z" fill="#4C4C4C"/>
<path d="M42.4323 39.3731C42.4323 39.3731 44.8931 39.1917 46.8653 39.1512C47.735 39.1324 48.5024 38.9697 48.9215 39.1336C49.0097 39.114 49.0968 39.0894 49.1822 39.0599C50.3682 38.6432 56.2539 36.6553 58.884 36.9812C61.8142 37.3441 68.8023 42.6589 71.9272 44.1019C75.052 45.5449 78.1637 46.9256 81.6387 50.7544C85.1138 54.5833 88.0179 69.2363 87.1706 69.855C83.2698 72.7035 85.3816 72.4411 78.8428 77.0519C78.3548 79.1039 77.5818 82.5801 77.107 84.3128C76.541 86.3799 74.619 85.22 71.0218 86.9303C68.0064 88.3642 68.0584 86.2505 68.0584 86.2505C68.0584 82.9514 64.6554 86.6841 65.1344 83.1692C65.1622 82.9672 63.427 81.5889 63.4554 81.3857L67.1011 62.1321C66.9801 61.4855 65.3835 57.3156 65.3835 57.3156C61.4615 55.3483 56.9439 50.2567 56.9439 50.2567C43.7042 49.8569 39.1296 44.9123 38.6942 42.9837C38.4414 41.8618 38.2352 40.5778 39.432 39.7783C40.4106 39.5153 41.4189 39.3791 42.4323 39.3731Z" fill="#F7D8CD"/>
<path d="M38.5375 41.0703C38.4843 44.0077 39.8232 45.2844 45.19 46.979C48.2369 47.9412 52.9976 47.6829 55.6755 47.5614C57.4899 47.4791 57.6859 47.3195 58.287 48.1788C61.9586 53.4041 70.0802 59.1253 70.0802 59.1253C69.6568 64.3499 64.0844 70.0911 64.0844 70.0911C64.9183 66.7252 65.2962 63.2625 65.208 59.796C61.6398 57.2559 56.9437 50.9929 56.9437 50.9929C42.2241 51.1096 37.1755 45.4797 38.5375 41.0703Z" fill="#E8C6BC"/>
<path d="M54.0215 87.6692C54.6052 88.3946 55.3215 89.0025 56.1321 89.4605C56.7224 87.8645 59.6587 86.9114 59.7639 86.0587C61.3551 73.2029 64.281 60.6018 65.5516 59.9838C66.3017 59.6155 67.1623 59.5406 67.9647 59.7739C67.9647 66.2686 61.2515 74.0587 69.9422 99.1236L69.9205 99.1351C72.7726 107.058 75.7547 114.972 75.7547 114.972C75.7547 114.972 71.7027 118.081 71.6598 118.031C71.4838 117.809 64.7248 99.631 64.3952 98.8049C64.0656 97.9788 63.2099 97.195 62.5489 96.231C61.8879 95.267 60.3855 96.8569 59.3955 96.1705C58.3021 95.4214 57.1505 94.7613 55.9514 94.1965C54.644 93.5504 53.3832 92.8141 52.1782 91.9927C51.4871 91.2687 50.7464 90.5935 49.9617 89.9722C49.3921 89.5159 48.8537 89.0221 48.3499 88.4941C48.0899 88.0746 47.853 87.6411 47.6405 87.1956C47.5359 86.8842 51.9937 85.0033 54.0215 87.6692Z" fill="#E8C6BC"/>
<path d="M39.5357 40.1837C39.523 40.3519 39.1474 41.0945 39.2133 41.3044C39.6524 42.7202 39.8853 43.4779 43.2823 43.4544C46.6793 43.4308 47.1976 41.3818 47.4794 40.696C47.5918 40.4142 47.737 40.1467 47.9119 39.8989C48.2717 39.9025 48.6375 39.4628 49.2 39.4894C48.7427 39.6237 48.3841 39.7047 47.7388 41.21C47.3566 42.1015 46.7918 44.2768 43.2309 44.3023C39.67 44.3277 39.3173 43.5632 38.8571 42.0797C38.7363 41.7337 38.7379 41.3568 38.8613 41.0118C38.9848 40.6667 39.2228 40.3745 39.5357 40.1837Z" fill="#E8C6BC"/>
<path d="M39.223 41.6129C39.1364 41.3625 39.1212 41.0929 39.1788 40.8343C39.2365 40.5756 39.3648 40.3381 39.5496 40.1482C42.7398 39.564 45.986 39.3428 49.226 39.489C48.5426 39.6008 48.1121 40.3471 47.8629 40.9543C47.572 41.6625 47.0361 43.7762 43.5297 43.8016C40.0232 43.827 39.6778 43.0741 39.223 41.6129Z" fill="#E8C6BC"/>
<path d="M60.2654 52.2751C60.6185 52.1341 61.5353 52.1341 60.4068 50.722C59.2783 49.3098 57.6527 47.5445 57.3007 46.2031C57.3007 46.2031 56.6651 48.11 56.8774 49.0982C57.0897 50.0864 59.9134 52.9083 59.9134 52.9083L60.2654 52.2751Z" fill="#E8C6BC"/>
<path d="M49.2245 39.4888C48.5412 39.6007 48.1105 40.347 47.8613 40.9541C47.6867 41.4916 47.4207 41.9948 47.0751 42.4419C47.1543 41.9627 47.1543 41.4738 47.0751 40.9947C47.092 40.4637 46.9058 39.8553 47.6019 39.461C48.1232 39.4604 48.6651 39.4706 49.2245 39.4888Z" fill="#FFE4DC"/>
<path d="M60.0072 82.7853C59.6624 85.4405 59.6402 88.1277 59.9408 90.7882C59.9408 90.7882 53.8997 89.4354 50.9375 84.5863C50.9375 84.5863 52.2075 83.1856 58.0067 82.8518C60.3097 82.7211 60.0072 82.7853 60.0072 82.7853Z" fill="#E8C6BC"/>
<path d="M68.942 79.0109C67.4398 75.1059 65.0369 73.3037 66.639 67.2958C68.241 61.288 70.2435 59.3859 70.5441 59.2856C70.8446 59.1852 80.3565 78.31 78.2543 79.6115C76.1521 80.9129 68.942 79.0109 68.942 79.0109Z" fill="#E8C6BC"/>
<path d="M65.4389 79.3095C66.0394 85.1153 69.844 91.7255 74.45 90.724C79.056 89.7225 68.9435 96.4313 68.9435 96.4313C68.9435 96.4313 63.3361 80.3104 63.6367 79.6094C63.9372 78.9085 65.4389 79.3095 65.4389 79.3095Z" fill="#E8C6BC"/>
<path d="M71.3224 92.2988C74.5749 91.9843 75.309 91.6692 73.0012 93.6625C70.6934 95.6559 78.3524 112.967 78.3524 112.967L71.6611 118.032L63.3496 95.8657L71.3224 92.2988Z" fill="#E8C6BC"/>
<path d="M75.0993 91.457C73.2106 93.5556 72.1619 95.8634 73.9454 101.529C75.7289 107.194 66.6016 94.0799 66.6016 94.0799L75.0993 91.457Z" fill="#E8C6BC"/>
</g>
<defs>
<clipPath id="clip0_240_26296">
<rect width="101.602" height="117.6" fill="white" transform="translate(0.113281 0.429688)"/>
</clipPath>
</defs>
</svg>
