<svg width="103" height="120" viewBox="0 0 103 120" fill="none" xmlns="http://www.w3.org/2000/svg">
<g clip-path="url(#clip0_240_26352)">
<path d="M51.0453 119.993C79.2368 119.993 102.091 97.1391 102.091 68.9476C102.091 40.7561 79.2368 17.9023 51.0453 17.9023C22.8537 17.9023 0 40.7561 0 68.9476C0 97.1391 22.8537 119.993 51.0453 119.993Z" fill="#707070" fill-opacity="0.1"/>
<path opacity="0.89" d="M75.6571 8.91385V96.6941C75.6555 98.1657 75.0702 99.5766 74.0296 100.617C72.9891 101.658 71.5782 102.243 70.1066 102.245H34.2005C32.7291 102.243 31.3186 101.657 30.2785 100.617C29.2383 99.5762 28.6535 98.1654 28.6523 96.6941V8.91385C28.6538 7.44261 29.2387 6.03201 30.2788 4.99146C31.3189 3.95091 32.7292 3.36537 34.2005 3.36328H38.1814L39.2904 3.86827C39.4145 3.92382 39.5213 4.01188 39.5995 4.12312C39.6777 4.23436 39.7244 4.36467 39.7346 4.50025L39.8313 5.71562C39.8706 6.20235 40.0917 6.65646 40.4505 6.98769C40.8093 7.31892 41.2796 7.50302 41.7679 7.50342H62.5415C63.0299 7.50302 63.5002 7.31892 63.859 6.98769C64.2178 6.65646 64.4389 6.20235 64.4782 5.71562L64.5749 4.50025C64.5851 4.36506 64.6314 4.2351 64.709 4.12393C64.7866 4.01276 64.8926 3.92446 65.016 3.86827L66.1281 3.36328H70.106C71.5775 3.36521 72.9883 3.9506 74.0289 4.9911C75.0695 6.0316 75.6551 7.44228 75.6571 8.91385Z" fill="#14ADE2"/>
<path d="M70.1082 1.68359H34.2021C32.2848 1.68536 30.4465 2.44781 29.0907 3.80358C27.7349 5.15935 26.9725 6.99766 26.9707 8.91501V96.6946C26.9725 98.612 27.7349 100.45 29.0907 101.806C30.4465 103.162 32.2848 103.924 34.2021 103.926H70.1082C72.0255 103.924 73.8636 103.161 75.2193 101.806C76.575 100.45 77.3375 98.6119 77.3396 96.6946V8.9144C77.3374 6.99726 76.5747 5.15929 75.2191 3.80372C73.8634 2.44815 72.0253 1.68568 70.1082 1.68359ZM70.1082 101.531H34.2021C32.9204 101.529 31.6918 101.018 30.7858 100.112C29.8798 99.2052 29.3703 97.9763 29.3692 96.6946V8.9144C29.3703 7.63276 29.8798 6.40389 30.7858 5.49741C31.6919 4.59092 32.9205 4.08085 34.2021 4.07908H70.1082C71.3903 4.08036 72.6195 4.59019 73.5261 5.4967C74.4327 6.4032 74.9427 7.63233 74.9441 8.9144V96.6946C74.9427 97.9768 74.4327 99.206 73.5261 100.113C72.6195 101.019 71.3903 101.529 70.1082 101.531Z" fill="#3B6BB2"/>
<path d="M61.4332 5.61195C61.4773 5.64055 61.5083 5.68529 61.5197 5.73656C61.5311 5.78782 61.5219 5.84151 61.4942 5.88607C61.4724 5.91786 61.4429 5.94347 61.4083 5.96038C61.3499 5.94433 61.2955 5.9164 61.2485 5.87836C61.2014 5.84031 61.1627 5.79295 61.1348 5.73926C61.1378 5.71472 61.1463 5.69118 61.1598 5.67043C61.1891 5.62745 61.2339 5.5974 61.2848 5.58652C61.3357 5.57563 61.3889 5.58474 61.4332 5.61195Z" fill="white"/>
<path d="M61.1315 5.73828C61.1594 5.79202 61.1982 5.83941 61.2453 5.87749C61.2924 5.91556 61.3468 5.94351 61.4052 5.95958C61.3719 5.97467 61.3351 5.98021 61.2989 5.97558C61.2627 5.97095 61.2285 5.95634 61.2001 5.93338C61.1717 5.91042 61.1502 5.88001 61.1381 5.84556C61.126 5.81111 61.1237 5.77396 61.1315 5.73828Z" fill="white"/>
<path d="M61.5219 4.76562C61.674 4.76575 61.8227 4.81097 61.9491 4.89557C62.0756 4.98018 62.1741 5.10037 62.2322 5.24096C62.2903 5.38155 62.3055 5.53621 62.2758 5.68541C62.246 5.8346 62.1727 5.97163 62.0651 6.07916C61.9575 6.18669 61.8204 6.2599 61.6712 6.28954C61.5219 6.31917 61.3673 6.3039 61.2267 6.24565C61.0862 6.18741 60.9661 6.0888 60.8816 5.9623C60.7971 5.8358 60.752 5.68708 60.752 5.53495C60.7523 5.33091 60.8335 5.13532 60.9778 4.99109C61.1222 4.84687 61.3178 4.76579 61.5219 4.76562ZM61.9631 5.53495C61.9631 5.41786 61.9165 5.30557 61.8338 5.22278C61.751 5.13998 61.6387 5.09347 61.5216 5.09347C61.4045 5.09347 61.2922 5.13998 61.2094 5.22278C61.1266 5.30557 61.0801 5.41786 61.0801 5.53495C61.0801 5.60632 61.0981 5.67653 61.1324 5.73913C61.1246 5.7747 61.1269 5.81172 61.139 5.84606C61.151 5.88041 61.1724 5.91071 61.2007 5.9336C61.2291 5.95649 61.2632 5.97105 61.2993 5.97567C61.3354 5.98028 61.3721 5.97475 61.4052 5.95972C61.4429 5.971 61.482 5.97653 61.5213 5.97613C61.5793 5.9762 61.6367 5.96485 61.6903 5.94272C61.7439 5.92058 61.7926 5.8881 61.8336 5.84712C61.8747 5.80615 61.9072 5.75749 61.9294 5.70392C61.9516 5.65036 61.9631 5.59294 61.9631 5.53495Z" fill="#4F4E4A"/>
<path d="M38.1836 3.36328H66.1309L65.0188 3.86827C64.8955 3.92451 64.7895 4.01282 64.7119 4.12398C64.6343 4.23514 64.5879 4.36508 64.5776 4.50025L64.481 5.71562C64.4416 6.20235 64.2206 6.65646 63.8618 6.98769C63.503 7.31892 63.0327 7.50302 62.5443 7.50342H41.7689C41.2806 7.50302 40.8103 7.31892 40.4515 6.98769C40.0927 6.65646 39.8716 6.20235 39.8322 5.71562L39.7356 4.50025C39.7254 4.36467 39.6787 4.23437 39.6005 4.12312C39.5223 4.01188 39.4155 3.92382 39.2914 3.86827L38.1836 3.36328Z" fill="#3B6BB2"/>
<path d="M15.5669 82.4217C15.5669 82.4217 15.9583 81.5958 15.1677 80.2407C14.7513 79.5824 14.4436 78.8614 14.2562 78.1053L14.2525 78.0822L14.0806 76.9586C14.0474 76.741 13.9291 76.5455 13.7518 76.4152C13.5744 76.2848 13.3526 76.2302 13.135 76.2634C12.9174 76.2966 12.722 76.4149 12.5916 76.5922C12.4612 76.7695 12.4066 76.9914 12.4398 77.209C12.4398 77.209 12.87 79.4683 12.8354 79.4428L9.30357 76.8474C9.23673 76.7983 9.16087 76.7628 9.08033 76.743C8.99979 76.7232 8.91614 76.7194 8.83415 76.732C8.66856 76.7573 8.5198 76.8473 8.4206 76.9823C8.3214 77.1173 8.27989 77.2861 8.30519 77.4517C8.33049 77.6173 8.42053 77.766 8.55551 77.8652L9.94345 78.8849L10.8392 79.5431C10.8746 79.5694 10.8981 79.6086 10.9047 79.6522C10.9113 79.6958 10.9004 79.7402 10.8744 79.7758C10.8481 79.8112 10.8089 79.8348 10.7653 79.8414C10.7217 79.848 10.6773 79.8371 10.6417 79.811L10.6034 79.7831L9.74657 79.1529L7.22165 77.2977C7.08622 77.2089 6.92184 77.1755 6.7625 77.2045C6.60315 77.2334 6.46103 77.3225 6.36551 77.4533C6.27 77.5841 6.2284 77.7466 6.2493 77.9072C6.27021 78.0678 6.35202 78.2142 6.47784 78.3161L8.91161 80.1046L9.80733 80.7627C9.84272 80.789 9.86629 80.8282 9.87289 80.8718C9.87949 80.9154 9.86859 80.9598 9.84258 80.9954C9.81628 81.0308 9.77706 81.0544 9.73347 81.061C9.68987 81.0676 9.64543 81.0567 9.60984 81.0307L8.71411 80.3725L6.75921 78.9354C6.62423 78.8363 6.4554 78.7948 6.28987 78.8202C6.12434 78.8455 5.97567 78.9356 5.87655 79.0706C5.77743 79.2056 5.73599 79.3744 5.76135 79.5399C5.7867 79.7054 5.87677 79.8541 6.01175 79.9532L8.27537 81.6171L9.17109 82.2752C9.20648 82.3015 9.23005 82.3407 9.23665 82.3843C9.24325 82.4279 9.23235 82.4723 9.20634 82.5079C9.19341 82.5256 9.17714 82.5405 9.15844 82.5518C9.13975 82.5632 9.11901 82.5707 9.09739 82.5741C9.07578 82.5774 9.05373 82.5764 9.03249 82.5712C9.01124 82.566 8.99123 82.5567 8.9736 82.5438L8.07787 81.8857L6.47238 80.7062C6.33724 80.6122 6.17073 80.5747 6.00834 80.6017C5.84595 80.6286 5.70053 80.718 5.60306 80.8506C5.50558 80.9833 5.46377 81.1488 5.48654 81.3118C5.5093 81.4748 5.59484 81.6225 5.72492 81.7234L9.10729 84.2088C9.12552 84.2222 9.14253 84.2332 9.16076 84.2441L10.8143 85.4595C11.1012 85.6701 11.4481 85.7833 11.8041 85.7824C12.16 85.7815 12.5064 85.6667 12.7923 85.4546L13.4546 85.9407L15.807 82.59L15.5669 82.4217Z" fill="white"/>
<path d="M15.5669 82.4217C15.5669 82.4217 15.9583 81.5958 15.1677 80.2407C14.7513 79.5824 14.4436 78.8614 14.2562 78.1053L14.2525 78.0822L14.0806 76.9586C14.0474 76.741 13.9291 76.5455 13.7518 76.4152C13.5744 76.2848 13.3526 76.2302 13.135 76.2634C12.9174 76.2966 12.722 76.4149 12.5916 76.5922C12.4612 76.7695 12.4066 76.9914 12.4398 77.209C12.4398 77.209 12.87 79.4683 12.8354 79.4428L9.30357 76.8474C9.23673 76.7983 9.16087 76.7628 9.08033 76.743C8.99979 76.7232 8.91614 76.7194 8.83415 76.732C8.66856 76.7573 8.5198 76.8473 8.4206 76.9823C8.3214 77.1173 8.27989 77.2861 8.30519 77.4517C8.33049 77.6173 8.42053 77.766 8.55551 77.8652L9.94345 78.8849L10.8392 79.5431C10.8746 79.5694 10.8981 79.6086 10.9047 79.6522C10.9113 79.6958 10.9004 79.7402 10.8744 79.7758C10.8481 79.8112 10.8089 79.8348 10.7653 79.8414C10.7217 79.848 10.6773 79.8371 10.6417 79.811L10.6034 79.7831L9.74657 79.1529L7.22165 77.2977C7.08622 77.2089 6.92184 77.1755 6.7625 77.2045C6.60315 77.2334 6.46103 77.3225 6.36551 77.4533C6.27 77.5841 6.2284 77.7466 6.2493 77.9072C6.27021 78.0678 6.35202 78.2142 6.47784 78.3161L8.91161 80.1046L9.80733 80.7627C9.84272 80.789 9.86629 80.8282 9.87289 80.8718C9.87949 80.9154 9.86859 80.9598 9.84258 80.9954C9.81628 81.0308 9.77706 81.0544 9.73347 81.061C9.68987 81.0676 9.64543 81.0567 9.60984 81.0307L8.71411 80.3725L6.75921 78.9354C6.62423 78.8363 6.4554 78.7948 6.28987 78.8202C6.12434 78.8455 5.97567 78.9356 5.87655 79.0706C5.77743 79.2056 5.73599 79.3744 5.76135 79.5399C5.7867 79.7054 5.87677 79.8541 6.01175 79.9532L8.27537 81.6171L9.17109 82.2752C9.20648 82.3015 9.23005 82.3407 9.23665 82.3843C9.24325 82.4279 9.23235 82.4723 9.20634 82.5079C9.19341 82.5256 9.17714 82.5405 9.15844 82.5518C9.13975 82.5632 9.11901 82.5707 9.09739 82.5741C9.07578 82.5774 9.05373 82.5764 9.03249 82.5712C9.01124 82.566 8.99123 82.5567 8.9736 82.5438L8.07787 81.8857L6.47238 80.7062C6.33724 80.6122 6.17073 80.5747 6.00834 80.6017C5.84595 80.6286 5.70053 80.718 5.60306 80.8506C5.50558 80.9833 5.46377 81.1488 5.48654 81.3118C5.5093 81.4748 5.59484 81.6225 5.72492 81.7234L9.10729 84.2088C9.12552 84.2222 9.14253 84.2332 9.16076 84.2441L10.8143 85.4595C11.1012 85.6701 11.4481 85.7833 11.8041 85.7824C12.16 85.7815 12.5064 85.6667 12.7923 85.4546L13.4546 85.9407L15.807 82.59L15.5669 82.4217Z" fill="#ECD0D0"/>
<path d="M46.5149 63.0579C46.2837 62.8867 46.0652 62.6993 45.8606 62.497C45.2793 61.9275 44.8172 61.2477 44.5017 60.4975C44.1861 59.7473 44.0232 58.9417 44.0228 58.1278V56.453H43.8358C43.4941 56.453 43.1663 56.3173 42.9246 56.0757C42.6829 55.8341 42.547 55.5064 42.5469 55.1647V53.812C42.5478 53.5371 42.6368 53.2698 42.8009 53.0492C42.9649 52.8286 43.1954 52.6664 43.4584 52.5864C43.6076 53.1832 43.7969 53.7693 44.0248 54.3407C44.369 53.5579 44.9345 52.8929 45.652 52.4276C46.3696 51.9623 47.2077 51.7171 48.0629 51.7222C49.2931 51.685 50.506 51.4236 51.6425 50.9511C52.5478 50.5973 53.4183 50.1599 54.2424 49.6445C54.2424 49.6445 56.422 54.3413 59.2124 54.3413C59.4408 53.7699 59.6307 53.1838 59.7806 52.587C59.8177 52.5991 59.8543 52.607 59.8901 52.6216L59.91 52.6301C60.1413 52.7296 60.3384 52.8947 60.4768 53.1049C60.6151 53.3152 60.6888 53.5615 60.6886 53.8132V55.166C60.6887 55.3351 60.6553 55.5025 60.5907 55.6587C60.5261 55.815 60.4313 55.957 60.3118 56.0767C60.1923 56.1963 60.0505 56.2912 59.8943 56.356C59.7381 56.4207 59.5705 56.4542 59.4014 56.4542H59.2124V58.129C59.2122 58.9428 59.0499 59.7483 58.7347 60.4985C58.4195 61.2488 57.9577 61.9285 57.3766 62.4982C57.1721 62.7005 56.9536 62.888 56.7224 63.0592C55.251 64.144 53.4717 64.7311 51.6437 64.7351H51.6215C49.7838 64.7362 47.994 64.1484 46.5149 63.0579Z" fill="#FFE1E1"/>
<path d="M53.625 42.4375C53.7059 42.4472 53.7868 42.457 53.8683 42.4679C53.7868 42.457 53.7053 42.4472 53.625 42.4375Z" fill="black"/>
<path d="M51.6875 42.3203C51.9235 42.3203 52.1503 42.327 52.3735 42.3355C52.1503 42.327 51.9229 42.3209 51.6875 42.3203Z" fill="black"/>
<path d="M48.0596 51.7205C49.2903 51.6836 50.5039 51.4222 51.6407 50.9494V42.3203H51.617C41.9755 42.3203 42.5978 49.2509 43.4558 52.5865C43.6052 53.1832 43.7946 53.7691 44.0228 54.3403C44.3666 53.5573 44.932 52.8921 45.6493 52.4266C46.3667 51.9611 47.2045 51.7156 48.0596 51.7205Z" fill="#03214D"/>
<path opacity="0.05" d="M52.3711 42.3359C52.4638 42.3396 52.554 42.3439 52.6473 42.3487C52.5562 42.3431 52.4642 42.3388 52.3711 42.3359Z" fill="black"/>
<path opacity="0.05" d="M59.7772 52.5891C59.8137 52.6006 59.8514 52.6085 59.8866 52.6231C59.8574 52.6122 59.8307 52.5982 59.8009 52.5891C60.5867 49.5355 61.1713 43.4739 53.8633 42.4688C61.1488 43.4787 60.5624 49.5367 59.7772 52.5891Z" fill="black"/>
<path opacity="0.05" d="M59.212 58.1261C59.2116 58.94 59.049 59.7457 58.7335 60.496C58.4181 61.2463 57.9563 61.9262 57.375 62.4959V65.5106L57.3829 65.5051L57.3993 65.5137V62.4923C57.9799 61.9232 58.4413 61.2442 58.7566 60.4948C59.0719 59.7455 59.2348 58.9409 59.2357 58.1279V56.4531H59.2114L59.212 58.1261Z" fill="black"/>
<path opacity="0.05" d="M60.6867 53.8121V55.1648C60.6866 55.5064 60.5508 55.834 60.3092 56.0755C60.0677 56.3171 59.7401 56.4529 59.3984 56.453H59.4227C59.7644 56.4529 60.092 56.3171 60.3335 56.0755C60.5751 55.834 60.7109 55.5064 60.711 55.1648V53.8121C60.7102 53.5573 60.6333 53.3085 60.4901 53.0977C60.347 52.8869 60.1442 52.7237 59.9077 52.6289C60.1389 52.7284 60.336 52.8935 60.4744 53.1038C60.6129 53.3141 60.6867 53.5603 60.6867 53.8121Z" fill="black"/>
<path opacity="0.05" d="M53.123 42.3828C53.2941 42.3978 53.4612 42.415 53.6242 42.4345C53.4594 42.415 53.2946 42.3974 53.123 42.3828Z" fill="black"/>
<path d="M46.8 84.8482L42.5726 67.4685L42.5462 67.3676V67.2892C42.5455 67.2688 42.5432 67.2484 42.5391 67.2284L45.8478 65.5069H45.854L45.8588 65.5129V62.4922C46.0636 62.6946 46.2823 62.8824 46.5133 63.0542C47.9981 64.1487 49.7958 64.7359 51.6403 64.729C53.4682 64.7252 55.2472 64.1385 56.7187 63.0542C56.9499 62.8827 57.1687 62.6949 57.3733 62.4922V65.5069L51.6403 69.777L51.6178 69.7935L45.8599 65.5129L47.5993 72.5864L47.8859 73.7531L48.1444 74.802L48.1833 74.9618L49.3924 79.884L51.6178 88.93L46.8 84.8482Z" fill="#F2F2F2"/>
<path d="M51.6411 50.9488C52.5462 50.5952 53.4163 50.158 54.2402 49.6429C54.2402 49.6429 56.4199 54.3384 59.211 54.3384C59.4392 53.7673 59.6287 53.1813 59.778 52.5847C60.5625 49.5335 61.1495 43.4755 53.864 42.4643C53.785 42.4534 53.7042 42.4437 53.6209 42.4339C53.4589 42.4141 53.292 42.3969 53.1202 42.3823C52.9646 42.3689 52.8072 42.3574 52.645 42.3483C52.5545 42.3434 52.4627 42.3391 52.3697 42.3355C52.1467 42.327 51.92 42.3209 51.6843 42.3203H51.6387L51.6411 50.9488Z" fill="black"/>
<path d="M51.6411 50.9488C52.5462 50.5952 53.4163 50.158 54.2402 49.6429C54.2402 49.6429 56.4199 54.3384 59.211 54.3384C59.4392 53.7673 59.6287 53.1813 59.778 52.5847C60.5625 49.5335 61.1495 43.4755 53.864 42.4643C53.785 42.4534 53.7042 42.4437 53.6209 42.4339C53.4589 42.4141 53.292 42.3969 53.1202 42.3823C52.9646 42.3689 52.8072 42.3574 52.645 42.3483C52.5545 42.3434 52.4627 42.3391 52.3697 42.3355C52.1467 42.327 51.92 42.3209 51.6843 42.3203H51.6387L51.6411 50.9488Z" fill="#03214D"/>
<path d="M51.6253 69.8042L51.6192 69.7969L50.1359 71.6594L49.4292 72.5527L50.8366 74.2287L49.3945 79.8874L51.6192 88.9328H51.6253V69.8042Z" fill="black"/>
<path d="M47.8867 73.7579L48.1444 74.8074L48.1839 74.9672L49.3932 79.8894L50.8352 74.2307L49.4278 72.5547L48.2124 74.0848L47.8867 73.7579Z" fill="#A5CEC3"/>
<path d="M47.5999 72.589L47.8867 73.7552L48.2137 74.0821L49.429 72.552L50.1358 71.6587L51.6191 69.7961L45.8613 65.5156L47.5999 72.589Z" fill="#6FC6C1"/>
<path d="M57.3817 65.5078L57.3738 65.5133L51.6403 69.7829L51.6172 69.7999L51.6233 69.8072V69.7956L57.3817 65.5078Z" fill="#6FC6C1"/>
<path d="M57.3828 65.5078L60.7287 67.2482L57.3992 65.5163L57.3828 65.5078Z" fill="#F2F2F2"/>
<path d="M52.6971 102.454H51.6274V88.9348L56.4512 84.8524L60.6741 67.4727L61.261 67.655V76.4664H60.786C60.303 76.4664 59.8397 76.6581 59.4979 76.9993C59.1561 77.3405 58.9638 77.8034 58.9629 78.2864V83.1229C58.9629 83.6064 59.1549 84.0701 59.4967 84.412C59.8386 84.7539 60.3025 84.946 60.786 84.946C60.9021 84.9456 61.0135 84.8993 61.0955 84.817C61.1775 84.7348 61.2234 84.6234 61.2234 84.5073C61.2234 84.3912 61.1772 84.2799 61.0952 84.1979C61.0131 84.1158 60.902 84.0697 60.786 84.0697C60.5354 84.0697 60.295 83.9701 60.1178 83.7929C59.9406 83.6157 59.8409 83.3754 59.8409 83.1248V78.2882C59.8413 78.0378 59.9409 77.7978 60.1181 77.6208C60.2953 77.4439 60.5356 77.3445 60.786 77.3445H61.6026C61.6247 77.3494 61.6475 77.3518 61.6702 77.3518C61.6933 77.3518 61.7162 77.3493 61.7388 77.3445H62.5556C62.8058 77.3448 63.0454 77.4444 63.2224 77.6213C63.3993 77.7982 63.4989 78.038 63.4992 78.2882V83.1248C63.4992 83.3752 63.3999 83.6154 63.2229 83.7925C63.046 83.9697 62.806 84.0693 62.5556 84.0697C62.4981 84.0696 62.4411 84.0809 62.388 84.1028C62.3349 84.1248 62.2865 84.1571 62.2459 84.1977C62.2052 84.2383 62.1732 84.2866 62.1512 84.3397C62.1292 84.3928 62.1179 84.4498 62.118 84.5073C62.1179 84.5648 62.1293 84.6218 62.1512 84.675C62.1731 84.7282 62.2052 84.7765 62.2459 84.8173C62.2865 84.858 62.3349 84.8903 62.388 84.9124C62.4411 84.9345 62.4981 84.9459 62.5556 84.946C63.0386 84.9452 63.5013 84.7528 63.8425 84.411C64.1837 84.0692 64.3754 83.6059 64.3754 83.1229V78.2864C64.3746 77.8039 64.1828 77.3415 63.8416 77.0003C63.5005 76.6592 63.0381 76.4672 62.5556 76.4664H62.0791V67.9053L66.472 69.2544C67.5507 69.5837 68.5324 70.172 69.3315 70.9679C70.1306 71.7638 70.7227 72.7432 71.0564 73.8205L75.7258 87.587V96.6937C75.7236 98.1311 75.164 99.5117 74.1648 100.545C73.1655 101.578 71.8045 102.184 70.368 102.235L65.4219 88.9336L65.9341 95.4145L66.4732 102.244L66.4895 102.452L52.6971 102.454ZM50.5593 102.454H36.7648L36.7802 102.245L37.8327 88.9372L33.5222 95.9967C33.0527 96.7666 32.4087 97.4152 31.6422 97.8902C30.8757 98.3652 30.0084 98.6534 29.11 98.7313C28.7677 98.7615 28.4232 98.7615 28.081 98.7313C26.9295 98.6297 25.836 98.1816 24.9443 97.446L12.5293 87.2588L13.4518 85.9456L15.8048 82.5955L17.0851 80.7724L27.6587 88.3994L27.751 88.0993L28.7174 84.9934L32.1896 73.823C32.5253 72.7467 33.1181 71.7684 33.9168 70.9728C34.7156 70.1772 35.6964 69.5882 36.774 69.2568L41.7289 67.7376V75.4084C41.3152 75.5008 40.9454 75.7314 40.6803 76.0621C40.4152 76.3928 40.2707 76.804 40.2705 77.2278C40.2706 77.4728 40.3191 77.7154 40.4129 77.9417C40.5068 78.168 40.6441 78.3736 40.8174 78.5468C40.9906 78.72 41.1963 78.8574 41.4227 78.951C41.649 79.0447 41.8919 79.0929 42.1369 79.0928C42.6315 79.0928 43.1059 78.8963 43.4558 78.5466C43.8056 78.1969 44.0022 77.7225 44.0023 77.2278C44.0022 76.804 43.8577 76.3928 43.5926 76.0621C43.3275 75.7314 42.9576 75.5008 42.544 75.4084V67.4861L42.5701 67.4776L46.7977 84.8572L51.6153 88.9397V102.459L50.5593 102.454ZM40.1319 86.82H40.9464V89.932C40.9464 90.3709 41.1207 90.7917 41.431 91.1021C41.7413 91.4124 42.1621 91.5867 42.6009 91.5867H44.2557C44.473 91.5866 44.688 91.5438 44.8886 91.4606C45.0893 91.3774 45.2716 91.2555 45.4251 91.1018C45.5787 90.9482 45.7005 90.7658 45.7836 90.5651C45.8666 90.3644 45.9094 90.1493 45.9094 89.932V86.82H46.3595V85.8964H40.1313L40.1319 86.82Z" fill="#FEFDFF"/>
<path d="M53.7513 80.2848L52.2096 74.2292L53.716 72.4366L53.0968 71.6599L51.625 69.8047V88.9333L52.6878 84.609L53.7513 80.2848Z" fill="black"/>
<path opacity="0.07" d="M53.7513 80.2848L52.2096 74.2292L53.716 72.4366L53.0968 71.6599L51.625 69.8047V88.9333L52.6878 84.609L53.7513 80.2848Z" fill="black"/>
<path d="M53.7154 72.4375L52.209 74.2302L53.7507 80.2857L55.3568 73.7398L55.0183 74.0843L53.7154 72.4375Z" fill="#A5CEC3"/>
<path opacity="0.07" d="M53.7154 72.4375L52.209 74.2302L53.7507 80.2857L55.3568 73.7398L55.0183 74.0843L53.7154 72.4375Z" fill="black"/>
<path d="M53.0962 71.6624L53.7154 72.439L55.0177 74.0858L55.3562 73.7413L57.3828 65.5078L51.625 69.7956V69.8072L53.0962 71.6624Z" fill="#6FC6C1"/>
<path opacity="0.07" d="M53.0962 71.6624L53.7154 72.439L55.0177 74.0858L55.3562 73.7413L57.3828 65.5078L51.625 69.7956V69.8072L53.0962 71.6624Z" fill="black"/>
<path d="M57.3834 65.5078L55.3568 73.7413L53.7507 80.2872L52.6878 84.6115L51.625 88.9358L56.4482 84.854L60.6703 67.4743L60.7311 67.2464L57.3834 65.5078Z" fill="#F2F2F2"/>
<path opacity="0.07" d="M57.3834 65.5078L55.3568 73.7413L53.7507 80.2872L52.6878 84.6115L51.625 88.9358L56.4482 84.854L60.6703 67.4743L60.7311 67.2464L57.3834 65.5078Z" fill="black"/>
<path d="M42.1394 75.358C42.2771 75.3583 42.4142 75.3738 42.5484 75.4042V67.2965C42.5478 67.2761 42.5456 67.2558 42.5417 67.2358C42.5269 67.1336 42.4738 67.0409 42.3933 66.9763C42.3127 66.9118 42.2107 66.8801 42.1078 66.8879C42.0048 66.8956 41.9086 66.942 41.8386 67.0179C41.7686 67.0937 41.73 67.1933 41.7305 67.2965V75.4042C41.8647 75.3738 42.0018 75.3583 42.1394 75.358Z" fill="#303030"/>
<path d="M41.7302 75.4056C41.275 75.5099 40.877 75.7844 40.6179 76.1729C40.3587 76.5613 40.2581 77.0342 40.3365 77.4945C40.415 77.9548 40.6667 78.3676 41.0399 78.6483C41.4131 78.9289 41.8796 79.056 42.3436 79.0036C42.8076 78.9512 43.2339 78.7233 43.5352 78.3665C43.8364 78.0097 43.9897 77.5511 43.9635 77.0849C43.9373 76.6187 43.7338 76.1802 43.3945 75.8593C43.0553 75.5384 42.6061 75.3595 42.1391 75.3594C42.0015 75.3596 41.8644 75.3751 41.7302 75.4056ZM43.4256 77.225C43.4256 77.4795 43.3501 77.7284 43.2086 77.9401C43.0672 78.1518 42.8662 78.3167 42.6309 78.4141C42.3957 78.5115 42.1369 78.537 41.8872 78.4873C41.6375 78.4376 41.4082 78.3149 41.2282 78.1349C41.0482 77.9548 40.9257 77.7254 40.8761 77.4757C40.8265 77.226 40.8521 76.9672 40.9496 76.732C41.0471 76.4968 41.2122 76.2959 41.4239 76.1545C41.6357 76.0132 41.8846 75.9378 42.1391 75.9379C42.3083 75.9377 42.4758 75.9709 42.632 76.0355C42.7883 76.1001 42.9304 76.1949 43.05 76.3144C43.1697 76.434 43.2646 76.5759 43.3293 76.7321C43.3941 76.8884 43.4274 77.0558 43.4274 77.225H43.4256Z" fill="black"/>
<path d="M42.1406 78.5116C42.8514 78.5116 43.4277 77.9354 43.4277 77.2246C43.4277 76.5137 42.8514 75.9375 42.1406 75.9375C41.4298 75.9375 40.8535 76.5137 40.8535 77.2246C40.8535 77.9354 41.4298 78.5116 42.1406 78.5116Z" fill="#4F93CE"/>
<path d="M61.2593 76.4676H60.7829C60.3004 76.4684 59.838 76.6604 59.4968 77.0016C59.1557 77.3427 58.9637 77.8052 58.9629 78.2876V83.1211C58.9629 83.6041 59.1546 84.0673 59.4958 84.4091C59.837 84.7509 60.2999 84.9433 60.7829 84.9441C60.8962 84.9399 61.0035 84.892 61.0821 84.8103C61.1608 84.7287 61.2047 84.6197 61.2047 84.5063C61.2047 84.3929 61.1608 84.284 61.0821 84.2023C61.0035 84.1207 60.8962 84.0727 60.7829 84.0685C60.5326 84.0682 60.2927 83.9685 60.1157 83.7915C59.9388 83.6145 59.8393 83.3744 59.8392 83.1241V78.2876C59.8395 78.0374 59.939 77.7976 60.1159 77.6206C60.2929 77.4437 60.5327 77.3442 60.7829 77.3439H61.5996C61.6447 77.3534 61.6913 77.3534 61.7363 77.3439H62.5531C62.8033 77.3442 63.0431 77.4437 63.22 77.6206C63.397 77.7976 63.4965 78.0374 63.4968 78.2876V83.1211C63.4966 83.3714 63.3972 83.6114 63.2203 83.7885C63.0433 83.9655 62.8034 84.0651 62.5531 84.0654C62.4398 84.0697 62.3325 84.1176 62.2539 84.1993C62.1752 84.2809 62.1312 84.3899 62.1312 84.5033C62.1312 84.6166 62.1752 84.7256 62.2539 84.8073C62.3325 84.8889 62.4398 84.9369 62.5531 84.9411C63.036 84.9403 63.499 84.7479 63.8402 84.4061C64.1814 84.0643 64.3731 83.601 64.3731 83.1181V78.2815C64.3723 77.7991 64.1803 77.3366 63.8391 76.9955C63.498 76.6543 63.0355 76.4623 62.5531 76.4615H62.0766V67.8993V67.4168C62.0766 67.3083 62.0336 67.2043 61.9569 67.1276C61.8802 67.0509 61.7761 67.0078 61.6677 67.0078C61.5592 67.0078 61.4552 67.0509 61.3785 67.1276C61.3018 67.2043 61.2587 67.3083 61.2587 67.4168V67.6477L61.2593 76.4676Z" fill="#303030"/>
<path d="M40.944 89.9323C40.944 90.3711 41.1183 90.792 41.4286 91.1023C41.7389 91.4126 42.1598 91.587 42.5987 91.587H44.2522C44.691 91.587 45.1119 91.4126 45.4222 91.1023C45.7326 90.792 45.9069 90.3711 45.9069 89.9323V86.8203H40.9434L40.944 89.9323Z" fill="#FEFDFF"/>
<path opacity="0.07" d="M40.944 89.9323C40.944 90.3711 41.1183 90.792 41.4286 91.1023C41.7389 91.4126 42.1598 91.587 42.5987 91.587H44.2522C44.691 91.587 45.1119 91.4126 45.4222 91.1023C45.7326 90.792 45.9069 90.3711 45.9069 89.9323V86.8203H40.9434L40.944 89.9323Z" fill="black"/>
<path d="M45.9091 86.8188H46.3587V85.8945H40.127V86.8188H45.906H45.9091Z" fill="black"/>
<g filter="url(#filter0_d_240_26352)">
<path d="M81.0641 12.2812H22.1822C21.5109 12.2812 20.9668 12.8254 20.9668 13.4966V37.2776C20.9668 37.9489 21.5109 38.493 22.1822 38.493H81.0641C81.7353 38.493 82.2795 37.9489 82.2795 37.2776V13.4966C82.2795 12.8254 81.7353 12.2812 81.0641 12.2812Z" fill="white"/>
</g>
<path d="M45.9518 21.6875V18.1519H46.6993V19.6107H48.2168V18.1519H48.9626V21.6875H48.2168V20.227H46.6993V21.6875H45.9518ZM49.5651 21.6875V19.0358H50.3005V21.6875H49.5651ZM49.9346 18.694C49.8252 18.694 49.7314 18.6577 49.6532 18.5852C49.576 18.5116 49.5375 18.4235 49.5375 18.3211C49.5375 18.2198 49.576 18.1329 49.6532 18.0604C49.7314 17.9867 49.8252 17.9499 49.9346 17.9499C50.0439 17.9499 50.1371 17.9867 50.2142 18.0604C50.2925 18.1329 50.3316 18.2198 50.3316 18.3211C50.3316 18.4235 50.2925 18.5116 50.2142 18.5852C50.1371 18.6577 50.0439 18.694 49.9346 18.694ZM53.7153 20.5585V19.0358H54.4507V21.6875H53.7447V21.2058H53.717C53.6572 21.3612 53.5576 21.4861 53.4184 21.5805C53.2803 21.6748 53.1116 21.722 52.9125 21.722C52.7353 21.722 52.5794 21.6817 52.4447 21.6012C52.31 21.5206 52.2047 21.4061 52.1288 21.2576C52.054 21.1092 52.016 20.9314 52.0148 20.7242V19.0358H52.7503V20.593C52.7514 20.7495 52.7934 20.8732 52.8763 20.9642C52.9592 21.0551 53.0702 21.1005 53.2095 21.1005C53.2981 21.1005 53.381 21.0804 53.4581 21.0401C53.5352 20.9987 53.5973 20.9377 53.6445 20.8571C53.6929 20.7766 53.7165 20.677 53.7153 20.5585ZM57.2453 19.7919L56.572 19.8334C56.5605 19.7758 56.5358 19.724 56.4978 19.678C56.4598 19.6308 56.4097 19.5934 56.3476 19.5658C56.2866 19.537 56.2135 19.5226 56.1283 19.5226C56.0144 19.5226 55.9183 19.5468 55.84 19.5951C55.7618 19.6423 55.7226 19.7056 55.7226 19.785C55.7226 19.8483 55.748 19.9019 55.7986 19.9456C55.8492 19.9893 55.9361 20.0244 56.0593 20.0509L56.5392 20.1476C56.797 20.2005 56.9892 20.2857 57.1158 20.4031C57.2424 20.5205 57.3057 20.6747 57.3057 20.8657C57.3057 21.0395 57.2545 21.192 57.1521 21.3232C57.0508 21.4544 56.9115 21.5569 56.7343 21.6305C56.5582 21.703 56.3551 21.7393 56.1249 21.7393C55.7739 21.7393 55.4942 21.6662 55.2859 21.52C55.0787 21.3727 54.9573 21.1725 54.9216 20.9193L55.645 20.8813C55.6668 20.9883 55.7198 21.07 55.8038 21.1264C55.8878 21.1817 55.9954 21.2093 56.1266 21.2093C56.2555 21.2093 56.3591 21.1846 56.4374 21.1351C56.5168 21.0844 56.557 21.0194 56.5582 20.94C56.557 20.8732 56.5289 20.8186 56.4736 20.776C56.4184 20.7322 56.3332 20.6989 56.2181 20.6758L55.7589 20.5844C55.4999 20.5326 55.3072 20.4428 55.1806 20.315C55.0551 20.1873 54.9924 20.0244 54.9924 19.8265C54.9924 19.6561 55.0384 19.5094 55.1305 19.3863C55.2237 19.2631 55.3543 19.1682 55.5224 19.1014C55.6916 19.0346 55.8895 19.0013 56.1163 19.0013C56.4512 19.0013 56.7147 19.0721 56.9069 19.2136C57.1003 19.3552 57.2131 19.548 57.2453 19.7919ZM58.9773 21.7393C58.7045 21.7393 58.4697 21.684 58.2729 21.5736C58.0773 21.4619 57.9265 21.3042 57.8206 21.1005C57.7147 20.8957 57.6618 20.6534 57.6618 20.3737C57.6618 20.101 57.7147 19.8616 57.8206 19.6556C57.9265 19.4496 58.0755 19.289 58.2677 19.1739C58.4611 19.0588 58.6878 19.0013 58.9479 19.0013C59.1229 19.0013 59.2857 19.0295 59.4365 19.0859C59.5884 19.1411 59.7208 19.2245 59.8336 19.3362C59.9475 19.4478 60.0361 19.5882 60.0994 19.7574C60.1627 19.9255 60.1944 20.1223 60.1944 20.3478V20.5498H57.9553V20.0941H59.5021C59.5021 19.9882 59.4791 19.8944 59.433 19.8127C59.387 19.7309 59.3231 19.6671 59.2414 19.621C59.1608 19.5738 59.067 19.5503 58.96 19.5503C58.8484 19.5503 58.7494 19.5762 58.6631 19.6279C58.5779 19.6786 58.5112 19.7471 58.4628 19.8334C58.4145 19.9185 58.3897 20.0135 58.3886 20.1182V20.5515C58.3886 20.6828 58.4128 20.7961 58.4611 20.8916C58.5106 20.9872 58.5802 21.0608 58.67 21.1126C58.7598 21.1644 58.8662 21.1903 58.9894 21.1903C59.0711 21.1903 59.1459 21.1788 59.2138 21.1558C59.2817 21.1328 59.3398 21.0982 59.3882 21.0522C59.4365 21.0062 59.4733 20.9498 59.4986 20.883L60.1788 20.9279C60.1443 21.0913 60.0735 21.234 59.9665 21.356C59.8606 21.4769 59.7236 21.5713 59.5556 21.6392C59.3887 21.7059 59.1959 21.7393 58.9773 21.7393ZM60.6743 21.6875V19.0358H61.3873V19.4985H61.4149C61.4632 19.3339 61.5444 19.2096 61.6583 19.1256C61.7723 19.0404 61.9035 18.9978 62.0519 18.9978C62.0888 18.9978 62.1285 19.0001 62.1711 19.0047C62.2136 19.0093 62.251 19.0157 62.2833 19.0237V19.6763C62.2487 19.6659 62.201 19.6567 62.14 19.6487C62.079 19.6406 62.0232 19.6366 61.9725 19.6366C61.8643 19.6366 61.7677 19.6602 61.6825 19.7074C61.5985 19.7534 61.5317 19.8178 61.4822 19.9007C61.4339 19.9836 61.4097 20.0791 61.4097 20.1873V21.6875H60.6743ZM63.5422 18.1519L63.4749 20.6275H62.843L62.774 18.1519H63.5422ZM63.159 21.7324C63.045 21.7324 62.9472 21.6921 62.8655 21.6115C62.7838 21.5298 62.7435 21.432 62.7446 21.3181C62.7435 21.2053 62.7838 21.1086 62.8655 21.028C62.9472 20.9475 63.045 20.9072 63.159 20.9072C63.2683 20.9072 63.3644 20.9475 63.4473 21.028C63.5301 21.1086 63.5721 21.2053 63.5733 21.3181C63.5721 21.394 63.552 21.4636 63.5129 21.5269C63.4749 21.5891 63.4248 21.6392 63.3627 21.6771C63.3005 21.714 63.2326 21.7324 63.159 21.7324Z" fill="#8D8D8D"/>
<path d="M46.9513 27.5703H45.6979V24.0347H46.9616C47.3173 24.0347 47.6234 24.1055 47.88 24.2471C48.1367 24.3875 48.3341 24.5894 48.4722 24.853C48.6115 25.1166 48.6811 25.4319 48.6811 25.7991C48.6811 26.1674 48.6115 26.4839 48.4722 26.7486C48.3341 27.0133 48.1356 27.2164 47.8766 27.358C47.6188 27.4995 47.3103 27.5703 46.9513 27.5703ZM46.4454 26.9298H46.9202C47.1412 26.9298 47.327 26.8907 47.4778 26.8124C47.6297 26.733 47.7437 26.6105 47.8196 26.4447C47.8967 26.2778 47.9353 26.0626 47.9353 25.7991C47.9353 25.5378 47.8967 25.3243 47.8196 25.1586C47.7437 24.9928 47.6303 24.8708 47.4795 24.7926C47.3288 24.7143 47.1429 24.6752 46.9219 24.6752H46.4454V26.9298ZM50.4295 27.6221C50.1567 27.6221 49.9219 27.5669 49.7251 27.4564C49.5294 27.3447 49.3787 27.1871 49.2728 26.9833C49.1669 26.7785 49.114 26.5362 49.114 26.2565C49.114 25.9838 49.1669 25.7444 49.2728 25.5384C49.3787 25.3324 49.5277 25.1718 49.7199 25.0567C49.9133 24.9416 50.14 24.8841 50.4001 24.8841C50.5751 24.8841 50.7379 24.9123 50.8887 24.9687C51.0406 25.0239 51.173 25.1074 51.2857 25.219C51.3997 25.3306 51.4883 25.471 51.5516 25.6402C51.6149 25.8083 51.6466 26.0051 51.6466 26.2307V26.4326H49.4075V25.9769H50.9543C50.9543 25.871 50.9313 25.7772 50.8852 25.6955C50.8392 25.6138 50.7753 25.5499 50.6936 25.5038C50.613 25.4567 50.5192 25.4331 50.4122 25.4331C50.3006 25.4331 50.2016 25.459 50.1153 25.5108C50.0301 25.5614 49.9633 25.6299 49.915 25.7162C49.8667 25.8014 49.8419 25.8963 49.8408 26.001V26.4344C49.8408 26.5656 49.8649 26.6789 49.9133 26.7745C49.9628 26.87 50.0324 26.9436 50.1222 26.9954C50.2119 27.0472 50.3184 27.0731 50.4415 27.0731C50.5233 27.0731 50.5981 27.0616 50.666 27.0386C50.7339 27.0156 50.792 26.981 50.8403 26.935C50.8887 26.889 50.9255 26.8326 50.9508 26.7658L51.631 26.8107C51.5965 26.9741 51.5257 27.1169 51.4187 27.2388C51.3128 27.3597 51.1758 27.4541 51.0078 27.522C50.8409 27.5887 50.6481 27.6221 50.4295 27.6221ZM54.3328 25.6748L53.6595 25.7162C53.648 25.6586 53.6232 25.6069 53.5853 25.5608C53.5473 25.5136 53.4972 25.4762 53.4351 25.4486C53.3741 25.4198 53.301 25.4054 53.2158 25.4054C53.1019 25.4054 53.0058 25.4296 52.9275 25.478C52.8493 25.5251 52.8101 25.5884 52.8101 25.6679C52.8101 25.7312 52.8354 25.7847 52.8861 25.8284C52.9367 25.8721 53.0236 25.9072 53.1468 25.9337L53.6267 26.0304C53.8845 26.0833 54.0767 26.1685 54.2033 26.2859C54.3299 26.4033 54.3932 26.5575 54.3932 26.7486C54.3932 26.9223 54.342 27.0748 54.2396 27.206C54.1383 27.3373 53.999 27.4397 53.8218 27.5133C53.6457 27.5858 53.4426 27.6221 53.2124 27.6221C52.8613 27.6221 52.5817 27.549 52.3734 27.4029C52.1662 27.2555 52.0448 27.0553 52.0091 26.8021L52.7324 26.7641C52.7543 26.8711 52.8072 26.9528 52.8913 27.0092C52.9753 27.0645 53.0829 27.0921 53.2141 27.0921C53.343 27.0921 53.4466 27.0674 53.5248 27.0179C53.6043 26.9672 53.6445 26.9022 53.6457 26.8228C53.6445 26.756 53.6163 26.7014 53.5611 26.6588C53.5059 26.6151 53.4207 26.5817 53.3056 26.5587L52.8464 26.4672C52.5874 26.4154 52.3946 26.3256 52.268 26.1978C52.1426 26.0701 52.0799 25.9072 52.0799 25.7093C52.0799 25.539 52.1259 25.3922 52.218 25.2691C52.3112 25.1459 52.4418 25.051 52.6099 24.9842C52.7791 24.9175 52.977 24.8841 53.2037 24.8841C53.5387 24.8841 53.8022 24.9549 53.9944 25.0964C54.1878 25.238 54.3006 25.4308 54.3328 25.6748ZM56.0544 27.6221C55.7828 27.6221 55.5492 27.5646 55.3535 27.4495C55.159 27.3332 55.0094 27.1721 54.9046 26.9661C54.8011 26.7601 54.7493 26.523 54.7493 26.2548C54.7493 25.9832 54.8016 25.745 54.9064 25.5401C55.0123 25.3341 55.1624 25.1735 55.3569 25.0584C55.5515 24.9422 55.7828 24.8841 56.051 24.8841C56.2823 24.8841 56.4848 24.9261 56.6586 25.0101C56.8324 25.0941 56.97 25.2121 57.0712 25.364C57.1725 25.5159 57.2283 25.6943 57.2387 25.8992H56.5447C56.5251 25.7668 56.4733 25.6604 56.3893 25.5798C56.3065 25.4981 56.1977 25.4572 56.063 25.4572C55.9491 25.4572 55.8495 25.4883 55.7644 25.5505C55.6804 25.6115 55.6148 25.7007 55.5676 25.818C55.5204 25.9354 55.4968 26.0776 55.4968 26.2445C55.4968 26.4136 55.5198 26.5575 55.5658 26.6761C55.613 26.7946 55.6792 26.8849 55.7644 26.9471C55.8495 27.0092 55.9491 27.0403 56.063 27.0403C56.1471 27.0403 56.2224 27.0231 56.2892 26.9885C56.3571 26.954 56.4129 26.9039 56.4566 26.8383C56.5015 26.7716 56.5309 26.6916 56.5447 26.5984H57.2387C57.2272 26.8009 57.1719 26.9793 57.073 27.1335C56.9751 27.2866 56.8399 27.4063 56.6673 27.4926C56.4946 27.5789 56.2903 27.6221 56.0544 27.6221ZM57.7096 27.5703V24.9186H58.4225V25.3813H58.4502C58.4985 25.2167 58.5796 25.0924 58.6936 25.0084C58.8075 24.9232 58.9387 24.8806 59.0872 24.8806C59.124 24.8806 59.1637 24.8829 59.2063 24.8875C59.2489 24.8921 59.2863 24.8985 59.3185 24.9065V25.5591C59.284 25.5487 59.2362 25.5395 59.1752 25.5315C59.1142 25.5234 59.0584 25.5194 59.0078 25.5194C58.8996 25.5194 58.8029 25.543 58.7178 25.5902C58.6337 25.6362 58.567 25.7007 58.5175 25.7835C58.4692 25.8664 58.445 25.9619 58.445 26.0701V27.5703H57.7096ZM59.6988 27.5703V24.9186H60.4342V27.5703H59.6988ZM60.0682 24.5768C59.9589 24.5768 59.8651 24.5405 59.7868 24.468C59.7097 24.3944 59.6711 24.3063 59.6711 24.2039C59.6711 24.1026 59.7097 24.0157 59.7868 23.9432C59.8651 23.8696 59.9589 23.8327 60.0682 23.8327C60.1775 23.8327 60.2708 23.8696 60.3479 23.9432C60.4261 24.0157 60.4653 24.1026 60.4653 24.2039C60.4653 24.3063 60.4261 24.3944 60.3479 24.468C60.2708 24.5405 60.1775 24.5768 60.0682 24.5768ZM61.0371 27.5703V24.0347H61.7726V25.364H61.795C61.8272 25.2927 61.8738 25.2201 61.9348 25.1465C61.997 25.0717 62.0776 25.0095 62.1765 24.96C62.2767 24.9094 62.401 24.8841 62.5494 24.8841C62.7428 24.8841 62.9212 24.9347 63.0846 25.036C63.248 25.1361 63.3787 25.2875 63.4765 25.49C63.5743 25.6914 63.6232 25.9441 63.6232 26.2479C63.6232 26.5437 63.5755 26.7934 63.4799 26.9972C63.3856 27.1997 63.2567 27.3534 63.0932 27.4581C62.931 27.5617 62.7491 27.6135 62.5477 27.6135C62.405 27.6135 62.2836 27.5899 62.1834 27.5427C62.0845 27.4955 62.0033 27.4362 61.94 27.3649C61.8767 27.2924 61.8284 27.2193 61.795 27.1456H61.7622V27.5703H61.0371ZM61.757 26.2445C61.757 26.4021 61.7789 26.5397 61.8226 26.6571C61.8664 26.7745 61.9297 26.866 62.0125 26.9316C62.0954 26.996 62.1961 27.0282 62.3146 27.0282C62.4343 27.0282 62.5356 26.9954 62.6185 26.9298C62.7014 26.8631 62.7641 26.771 62.8067 26.6536C62.8504 26.5351 62.8723 26.3987 62.8723 26.2445C62.8723 26.0914 62.851 25.9567 62.8084 25.8405C62.7658 25.7242 62.7031 25.6333 62.6202 25.5677C62.5373 25.5021 62.4355 25.4693 62.3146 25.4693C62.195 25.4693 62.0937 25.501 62.0108 25.5643C61.9291 25.6276 61.8664 25.7173 61.8226 25.8336C61.7789 25.9498 61.757 26.0868 61.757 26.2445ZM65.3224 27.6221C65.0496 27.6221 64.8149 27.5669 64.6181 27.4564C64.4224 27.3447 64.2716 27.1871 64.1657 26.9833C64.0599 26.7785 64.0069 26.5362 64.0069 26.2565C64.0069 25.9838 64.0599 25.7444 64.1657 25.5384C64.2716 25.3324 64.4207 25.1718 64.6129 25.0567C64.8062 24.9416 65.033 24.8841 65.2931 24.8841C65.468 24.8841 65.6309 24.9123 65.7816 24.9687C65.9335 25.0239 66.0659 25.1074 66.1787 25.219C66.2926 25.3306 66.3813 25.471 66.4446 25.6402C66.5079 25.8083 66.5395 26.0051 66.5395 26.2307V26.4326H64.3004V25.9769H65.8472C65.8472 25.871 65.8242 25.7772 65.7782 25.6955C65.7321 25.6138 65.6683 25.5499 65.5865 25.5038C65.506 25.4567 65.4122 25.4331 65.3051 25.4331C65.1935 25.4331 65.0945 25.459 65.0082 25.5108C64.923 25.5614 64.8563 25.6299 64.808 25.7162C64.7596 25.8014 64.7349 25.8963 64.7337 26.001V26.4344C64.7337 26.5656 64.7579 26.6789 64.8062 26.7745C64.8557 26.87 64.9253 26.9436 65.0151 26.9954C65.1049 27.0472 65.2113 27.0731 65.3345 27.0731C65.4162 27.0731 65.491 27.0616 65.5589 27.0386C65.6268 27.0156 65.6849 26.981 65.7333 26.935C65.7816 26.889 65.8185 26.8326 65.8438 26.7658L66.524 26.8107C66.4894 26.9741 66.4187 27.1169 66.3116 27.2388C66.2057 27.3597 66.0688 27.4541 65.9007 27.522C65.7339 27.5887 65.5411 27.6221 65.3224 27.6221ZM68.5986 28.5647C68.5054 28.5647 68.4179 28.5572 68.3362 28.5423C68.2557 28.5284 68.1889 28.5106 68.136 28.4887L68.3017 27.9398C68.388 27.9662 68.4657 27.9806 68.5348 27.9829C68.605 27.9852 68.6654 27.9691 68.716 27.9346C68.7678 27.9 68.8098 27.8414 68.842 27.7585L68.8852 27.6463L67.934 24.9186H68.7074L69.2564 26.866H69.284L69.8382 24.9186H70.6168L69.5861 27.8569C69.5366 27.9996 69.4693 28.1239 69.3841 28.2298C69.3001 28.3368 69.1936 28.4191 69.0647 28.4767C68.9358 28.5354 68.7805 28.5647 68.5986 28.5647ZM72.1057 27.6221C71.8376 27.6221 71.6057 27.5651 71.41 27.4512C71.2155 27.3361 71.0653 27.1761 70.9594 26.9713C70.8536 26.7652 70.8006 26.5264 70.8006 26.2548C70.8006 25.9809 70.8536 25.7415 70.9594 25.5367C71.0653 25.3306 71.2155 25.1707 71.41 25.0567C71.6057 24.9416 71.8376 24.8841 72.1057 24.8841C72.3739 24.8841 72.6052 24.9416 72.7997 25.0567C72.9954 25.1707 73.1462 25.3306 73.2521 25.5367C73.3579 25.7415 73.4109 25.9809 73.4109 26.2548C73.4109 26.5264 73.3579 26.7652 73.2521 26.9713C73.1462 27.1761 72.9954 27.3361 72.7997 27.4512C72.6052 27.5651 72.3739 27.6221 72.1057 27.6221ZM72.1092 27.0524C72.2312 27.0524 72.3331 27.0179 72.4148 26.9488C72.4965 26.8786 72.5581 26.7831 72.5995 26.6622C72.6421 26.5414 72.6634 26.4039 72.6634 26.2496C72.6634 26.0954 72.6421 25.9579 72.5995 25.837C72.5581 25.7162 72.4965 25.6207 72.4148 25.5505C72.3331 25.4803 72.2312 25.4452 72.1092 25.4452C71.986 25.4452 71.8825 25.4803 71.7985 25.5505C71.7156 25.6207 71.6529 25.7162 71.6103 25.837C71.5688 25.9579 71.5481 26.0954 71.5481 26.2496C71.5481 26.4039 71.5688 26.5414 71.6103 26.6622C71.6529 26.7831 71.7156 26.8786 71.7985 26.9488C71.8825 27.0179 71.986 27.0524 72.1092 27.0524ZM75.5896 26.4413V24.9186H76.325V27.5703H75.6189V27.0887H75.5913C75.5314 27.244 75.4319 27.3689 75.2926 27.4633C75.1545 27.5577 74.9859 27.6048 74.7868 27.6048C74.6096 27.6048 74.4536 27.5646 74.3189 27.484C74.1843 27.4034 74.079 27.2889 74.003 27.1404C73.9282 26.992 73.8902 26.8142 73.8891 26.607V24.9186H74.6245V26.4758C74.6257 26.6323 74.6677 26.756 74.7505 26.847C74.8334 26.9379 74.9445 26.9833 75.0837 26.9833C75.1724 26.9833 75.2552 26.9632 75.3323 26.9229C75.4094 26.8815 75.4716 26.8205 75.5188 26.7399C75.5671 26.6594 75.5907 26.5598 75.5896 26.4413ZM76.9132 27.5703V24.9186H77.6262V25.3813H77.6539C77.7022 25.2167 77.7833 25.0924 77.8973 25.0084C78.0112 24.9232 78.1424 24.8806 78.2909 24.8806C78.3277 24.8806 78.3674 24.8829 78.41 24.8875C78.4526 24.8921 78.49 24.8985 78.5222 24.9065V25.5591C78.4877 25.5487 78.4399 25.5395 78.3789 25.5315C78.3179 25.5234 78.2621 25.5194 78.2115 25.5194C78.1033 25.5194 78.0066 25.543 77.9214 25.5902C77.8374 25.6362 77.7707 25.7007 77.7212 25.7835C77.6729 25.8664 77.6487 25.9619 77.6487 26.0701V27.5703H76.9132ZM45.6979 33.5703V30.0347H47.0928C47.361 30.0347 47.5894 30.0859 47.7782 30.1884C47.9669 30.2896 48.1108 30.4306 48.2098 30.6113C48.3099 30.7909 48.36 30.998 48.36 31.2328C48.36 31.4676 48.3093 31.6748 48.2081 31.8543C48.1068 32.0338 47.96 32.1737 47.7678 32.2738C47.5768 32.3739 47.3454 32.424 47.0738 32.424H46.1848V31.825H46.953C47.0969 31.825 47.2154 31.8002 47.3086 31.7507C47.403 31.7001 47.4732 31.6304 47.5192 31.5418C47.5664 31.4521 47.59 31.3491 47.59 31.2328C47.59 31.1154 47.5664 31.013 47.5192 30.9255C47.4732 30.8369 47.403 30.7684 47.3086 30.7201C47.2142 30.6706 47.0946 30.6458 46.9495 30.6458H46.4454V33.5703H45.6979ZM48.8317 33.5703V30.9186H49.5447V31.3813H49.5723C49.6207 31.2167 49.7018 31.0924 49.8157 31.0084C49.9297 30.9232 50.0609 30.8806 50.2094 30.8806C50.2462 30.8806 50.2859 30.8829 50.3285 30.8875C50.3711 30.8921 50.4085 30.8985 50.4407 30.9065V31.5591C50.4062 31.5487 50.3584 31.5395 50.2974 31.5315C50.2364 31.5234 50.1806 31.5194 50.1299 31.5194C50.0218 31.5194 49.9251 31.543 49.8399 31.5902C49.7559 31.6362 49.6891 31.7007 49.6396 31.7835C49.5913 31.8664 49.5671 31.9619 49.5671 32.0701V33.5703H48.8317ZM51.8956 33.6221C51.6274 33.6221 51.3955 33.5651 51.1999 33.4512C51.0054 33.3361 50.8552 33.1761 50.7493 32.9713C50.6434 32.7652 50.5904 32.5264 50.5904 32.2548C50.5904 31.9809 50.6434 31.7415 50.7493 31.5367C50.8552 31.3306 51.0054 31.1707 51.1999 31.0567C51.3955 30.9416 51.6274 30.8841 51.8956 30.8841C52.1637 30.8841 52.3951 30.9416 52.5896 31.0567C52.7852 31.1707 52.936 31.3306 53.0419 31.5367C53.1478 31.7415 53.2007 31.9809 53.2007 32.2548C53.2007 32.5264 53.1478 32.7652 53.0419 32.9713C52.936 33.1761 52.7852 33.3361 52.5896 33.4512C52.3951 33.5651 52.1637 33.6221 51.8956 33.6221ZM51.899 33.0524C52.021 33.0524 52.1229 33.0179 52.2046 32.9488C52.2863 32.8786 52.3479 32.7831 52.3893 32.6622C52.4319 32.5414 52.4532 32.4039 52.4532 32.2496C52.4532 32.0954 52.4319 31.9579 52.3893 31.837C52.3479 31.7162 52.2863 31.6207 52.2046 31.5505C52.1229 31.4803 52.021 31.4452 51.899 31.4452C51.7759 31.4452 51.6723 31.4803 51.5883 31.5505C51.5054 31.6207 51.4427 31.7162 51.4001 31.837C51.3587 31.9579 51.338 32.0954 51.338 32.2496C51.338 32.4039 51.3587 32.5414 51.4001 32.6622C51.4427 32.7831 51.5054 32.8786 51.5883 32.9488C51.6723 33.0179 51.7759 33.0524 51.899 33.0524ZM53.6927 33.5703V30.0347H54.4282V31.364H54.4506C54.4828 31.2927 54.5294 31.2201 54.5904 31.1465C54.6526 31.0717 54.7332 31.0095 54.8321 30.96C54.9323 30.9094 55.0566 30.8841 55.205 30.8841C55.3984 30.8841 55.5768 30.9347 55.7402 31.036C55.9036 31.1361 56.0343 31.2875 56.1321 31.49C56.2299 31.6914 56.2788 31.9441 56.2788 32.2479C56.2788 32.5437 56.2311 32.7934 56.1355 32.9972C56.0412 33.1997 55.9123 33.3534 55.7488 33.4581C55.5866 33.5617 55.4047 33.6135 55.2033 33.6135C55.0606 33.6135 54.9392 33.5899 54.839 33.5427C54.7401 33.4955 54.6589 33.4362 54.5956 33.3649C54.5323 33.2924 54.484 33.2193 54.4506 33.1456H54.4178V33.5703H53.6927ZM54.4126 32.2445C54.4126 32.4021 54.4345 32.5397 54.4782 32.6571C54.522 32.7745 54.5853 32.866 54.6681 32.9316C54.751 32.996 54.8517 33.0282 54.9702 33.0282C55.0899 33.0282 55.1912 32.9954 55.2741 32.9298C55.357 32.8631 55.4197 32.771 55.4623 32.6536C55.506 32.5351 55.5279 32.3987 55.5279 32.2445C55.5279 32.0914 55.5066 31.9567 55.464 31.8405C55.4214 31.7242 55.3587 31.6333 55.2758 31.5677C55.1929 31.5021 55.0911 31.4693 54.9702 31.4693C54.8505 31.4693 54.7493 31.501 54.6664 31.5643C54.5847 31.6276 54.522 31.7173 54.4782 31.8336C54.4345 31.9498 54.4126 32.0868 54.4126 32.2445ZM57.505 30.0347V33.5703H56.7696V30.0347H57.505ZM59.3026 33.6221C59.0298 33.6221 58.795 33.5669 58.5982 33.4564C58.4026 33.3447 58.2518 33.1871 58.1459 32.9833C58.04 32.7785 57.9871 32.5362 57.9871 32.2565C57.9871 31.9838 58.04 31.7444 58.1459 31.5384C58.2518 31.3324 58.4008 31.1718 58.593 31.0567C58.7864 30.9416 59.0131 30.8841 59.2732 30.8841C59.4482 30.8841 59.611 30.9123 59.7618 30.9687C59.9137 31.0239 60.0461 31.1074 60.1588 31.219C60.2728 31.3306 60.3614 31.471 60.4247 31.6402C60.488 31.8083 60.5197 32.0051 60.5197 32.2307V32.4326H58.2806V31.9769H59.8274C59.8274 31.871 59.8044 31.7772 59.7583 31.6955C59.7123 31.6138 59.6484 31.5499 59.5667 31.5038C59.4861 31.4567 59.3923 31.4331 59.2853 31.4331C59.1737 31.4331 59.0747 31.459 58.9884 31.5108C58.9032 31.5614 58.8364 31.6299 58.7881 31.7162C58.7398 31.8014 58.715 31.8963 58.7139 32.001V32.4344C58.7139 32.5656 58.738 32.6789 58.7864 32.7745C58.8359 32.87 58.9055 32.9436 58.9953 32.9954C59.085 33.0472 59.1915 33.0731 59.3146 33.0731C59.3964 33.0731 59.4712 33.0616 59.5391 33.0386C59.607 33.0156 59.6651 32.981 59.7134 32.935C59.7618 32.889 59.7986 32.8326 59.8239 32.7658L60.5041 32.8107C60.4696 32.9741 60.3988 33.1169 60.2918 33.2388C60.1859 33.3597 60.0489 33.4541 59.8809 33.522C59.714 33.5887 59.5212 33.6221 59.3026 33.6221ZM60.9996 33.5703V30.9186H61.7005V31.3865H61.7316C61.7868 31.2311 61.8789 31.1085 62.0078 31.0187C62.1367 30.929 62.2909 30.8841 62.4705 30.8841C62.6523 30.8841 62.8071 30.9295 62.9348 31.0205C63.0626 31.1102 63.1478 31.2322 63.1903 31.3865H63.218C63.2721 31.2345 63.3699 31.1131 63.5115 31.0222C63.6542 30.9301 63.8228 30.8841 64.0173 30.8841C64.2647 30.8841 64.4656 30.9629 64.6198 31.1206C64.7752 31.2771 64.8528 31.4992 64.8528 31.787V33.5703H64.1191V31.932C64.1191 31.7847 64.08 31.6742 64.0017 31.6005C63.9235 31.5269 63.8257 31.49 63.7083 31.49C63.5748 31.49 63.4706 31.5326 63.3958 31.6178C63.321 31.7018 63.2836 31.8129 63.2836 31.951V33.5703H62.5706V31.9165C62.5706 31.7864 62.5332 31.6828 62.4584 31.6057C62.3847 31.5286 62.2875 31.49 62.1666 31.49C62.0849 31.49 62.0112 31.5108 61.9456 31.5522C61.8812 31.5925 61.83 31.6494 61.792 31.7231C61.754 31.7956 61.735 31.8808 61.735 31.9786V33.5703H60.9996ZM66.0656 32.5103V32.4516C66.0668 32.2502 66.0846 32.0897 66.1191 31.97C66.1548 31.8503 66.2066 31.7536 66.2745 31.6799C66.3424 31.6063 66.4241 31.5395 66.5196 31.4797C66.591 31.4336 66.6549 31.3859 66.7113 31.3364C66.7677 31.2869 66.8126 31.2322 66.8459 31.1724C66.8793 31.1114 66.896 31.0435 66.896 30.9687C66.896 30.8893 66.877 30.8196 66.839 30.7598C66.801 30.6999 66.7498 30.6539 66.6854 30.6217C66.6221 30.5894 66.5519 30.5733 66.4748 30.5733C66.4 30.5733 66.3292 30.59 66.2624 30.6234C66.1957 30.6556 66.141 30.704 66.0984 30.7684C66.0558 30.8317 66.0328 30.9106 66.0294 31.0049H65.325C65.3308 30.7747 65.386 30.5848 65.4907 30.4352C65.5955 30.2845 65.7342 30.1722 65.9068 30.0986C66.0794 30.0238 66.2699 29.9864 66.4782 29.9864C66.7072 29.9864 66.9098 30.0244 67.0859 30.1003C67.262 30.1751 67.4001 30.2839 67.5002 30.4266C67.6004 30.5693 67.6504 30.7414 67.6504 30.9428C67.6504 31.0774 67.628 31.1971 67.5831 31.3019C67.5394 31.4054 67.4778 31.4975 67.3984 31.5781C67.319 31.6575 67.2252 31.7294 67.117 31.7939C67.026 31.848 66.9512 31.9044 66.8925 31.9631C66.835 32.0218 66.7918 32.0897 66.7631 32.1668C66.7354 32.2439 66.7211 32.3388 66.7199 32.4516V32.5103H66.0656ZM66.4074 33.6152C66.2923 33.6152 66.1939 33.5749 66.1122 33.4944C66.0317 33.4126 65.992 33.3148 65.9931 33.2009C65.992 33.0881 66.0317 32.9914 66.1122 32.9108C66.1939 32.8303 66.2923 32.79 66.4074 32.79C66.5168 32.79 66.6129 32.8303 66.6957 32.9108C66.7786 32.9914 66.8206 33.0881 66.8218 33.2009C66.8206 33.2768 66.8005 33.3465 66.7613 33.4098C66.7234 33.4719 66.6733 33.522 66.6111 33.56C66.549 33.5968 66.4811 33.6152 66.4074 33.6152Z" fill="#8D8D8D"/>
<path d="M33.4213 33.7021C37.7843 33.7021 41.3212 30.1652 41.3212 25.8022C41.3212 21.4392 37.7843 17.9023 33.4213 17.9023C29.0584 17.9023 25.5215 21.4392 25.5215 25.8022C25.5215 30.1652 29.0584 33.7021 33.4213 33.7021Z" fill="#ECECEC"/>
</g>
<defs>
<filter id="filter0_d_240_26352" x="13.0669" y="4.38139" width="77.1122" height="42.0107" filterUnits="userSpaceOnUse" color-interpolation-filters="sRGB">
<feFlood flood-opacity="0" result="BackgroundImageFix"/>
<feColorMatrix in="SourceAlpha" type="matrix" values="0 0 0 0 0 0 0 0 0 0 0 0 0 0 0 0 0 0 127 0" result="hardAlpha"/>
<feOffset/>
<feGaussianBlur stdDeviation="3.94993"/>
<feColorMatrix type="matrix" values="0 0 0 0 0 0 0 0 0 0 0 0 0 0 0 0 0 0 0.161 0"/>
<feBlend mode="normal" in2="BackgroundImageFix" result="effect1_dropShadow_240_26352"/>
<feBlend mode="normal" in="SourceGraphic" in2="effect1_dropShadow_240_26352" result="shape"/>
</filter>
<clipPath id="clip0_240_26352">
<rect width="102.091" height="119.564" fill="white" transform="translate(0 0.429688)"/>
</clipPath>
</defs>
</svg>
