<svg width="19" height="19" viewBox="0 0 19 19" fill="none" xmlns="http://www.w3.org/2000/svg">
<path d="M15.0664 7.57544C15.0664 7.57544 14.6537 12.694 14.4143 14.8502C14.3003 15.88 13.6642 16.4834 12.6223 16.5024C10.6394 16.5381 8.65429 16.5404 6.67221 16.4986C5.66977 16.4781 5.04429 15.867 4.93257 14.8555C4.69165 12.6804 4.28125 7.57544 4.28125 7.57544" stroke="#53545C" stroke-width="1.14" stroke-linecap="round" stroke-linejoin="round"/>
<path d="M16.1176 5.1217H3.22949" stroke="#53545C" stroke-width="1.14" stroke-linecap="round" stroke-linejoin="round"/>
<path d="M13.6344 5.12185C13.0378 5.12185 12.524 4.70005 12.407 4.11561L12.2223 3.19145C12.1083 2.76509 11.7222 2.47021 11.2822 2.47021H8.06509C7.62505 2.47021 7.23897 2.76509 7.12497 3.19145L6.94029 4.11561C6.82325 4.70005 6.30949 5.12185 5.71289 5.12185" stroke="#53545C" stroke-width="1.14" stroke-linecap="round" stroke-linejoin="round"/>
</svg>
