<svg width="268" height="200" viewBox="0 0 268 200" fill="none" xmlns="http://www.w3.org/2000/svg">
<path d="M267.632 175.004H0.368408V175.138H267.632V175.004Z" fill="#EBEBEB"/>
<path d="M46.1132 180.093H28.4097V180.226H46.1132V180.093Z" fill="#EBEBEB"/>
<path d="M114.581 178.644H91.8472V178.778H114.581V178.644Z" fill="#EBEBEB"/>
<path d="M60.5881 181.969H50.3306V182.103H60.5881V181.969Z" fill="#EBEBEB"/>
<path d="M240.852 184.16H232.711V184.294H240.852V184.16Z" fill="#EBEBEB"/>
<path d="M227.948 184.16H209.619V184.294H227.948V184.16Z" fill="#EBEBEB"/>
<path d="M177.74 180.312H165.003V180.445H177.74V180.312Z" fill="#EBEBEB"/>
<path d="M127.051 151.164H23.8449C23.0354 151.164 22.2591 150.842 21.6867 150.27C21.1143 149.698 20.7927 148.921 20.7927 148.112V3.02542C20.7998 2.22058 21.1244 1.4511 21.6961 0.884483C22.2677 0.317863 23.04 -3.0856e-05 23.8449 2.24637e-09H127.051C127.861 2.24638e-09 128.637 0.321565 129.209 0.893953C129.782 1.46634 130.103 2.24267 130.103 3.05215V148.112C130.103 148.921 129.782 149.698 129.209 150.27C128.637 150.842 127.861 151.164 127.051 151.164ZM23.8449 0.106906C23.0713 0.108319 22.3298 0.416257 21.7827 0.963279C21.2357 1.5103 20.9278 2.25182 20.9264 3.02542V148.112C20.9278 148.886 21.2357 149.627 21.7827 150.174C22.3298 150.721 23.0713 151.029 23.8449 151.03H127.051C127.825 151.029 128.566 150.721 129.113 150.174C129.66 149.627 129.968 148.886 129.97 148.112V3.02542C129.968 2.25182 129.66 1.5103 129.113 0.963279C128.566 0.416257 127.825 0.108319 127.051 0.106906H23.8449Z" fill="#EBEBEB"/>
<path d="M242.674 151.164H139.457C138.648 151.163 137.873 150.841 137.301 150.269C136.729 149.696 136.407 148.921 136.405 148.112V3.02542C136.414 2.22102 136.739 1.45235 137.31 0.886027C137.881 0.319705 138.653 0.00136213 139.457 0H242.674C243.477 0.00278194 244.247 0.321918 244.816 0.888237C245.386 1.45456 245.709 2.22243 245.716 3.02542V148.112C245.716 148.92 245.396 149.694 244.826 150.266C244.256 150.838 243.482 151.161 242.674 151.164ZM139.457 0.106906C138.684 0.108319 137.942 0.416257 137.395 0.963279C136.848 1.5103 136.54 2.25182 136.539 3.02542V148.112C136.54 148.886 136.848 149.627 137.395 150.174C137.942 150.721 138.684 151.029 139.457 151.03H242.674C243.448 151.029 244.19 150.721 244.737 150.174C245.284 149.627 245.592 148.886 245.593 148.112V3.02542C245.592 2.25182 245.284 1.5103 244.737 0.963279C244.19 0.416257 243.448 0.108319 242.674 0.106906H139.457Z" fill="#EBEBEB"/>
<path d="M164.735 75.5662H222.395V17.7518L164.735 17.7518V75.5662Z" fill="#F0F0F0"/>
<path d="M164.735 17.757H163.741V75.5713H164.735V17.757Z" fill="#E0E0E0"/>
<path d="M169.829 71.9153H217.306V21.4025L169.829 21.4025V71.9153Z" fill="#FAFAFA"/>
<path d="M188.522 60.936H203.558C206.818 60.936 208.999 58.2954 208.427 55.0562L205.504 38.3095C205.179 36.6891 204.315 35.2263 203.054 34.1588C201.792 33.0913 200.207 32.4819 198.555 32.4297H183.556C180.295 32.4297 178.114 35.0702 178.686 38.3095L181.61 55.0562C181.933 56.6709 182.79 58.1297 184.045 59.1967C185.299 60.2637 186.876 60.8765 188.522 60.936Z" fill="#F0F0F0"/>
<path d="M56.4777 93.1251H43.6491V172.262H56.4777V93.1251Z" fill="#F0F0F0"/>
<path d="M112.769 172.267H44.9586V174.999H112.769V172.267Z" fill="#F0F0F0"/>
<path d="M56.4777 172.267H113.896L113.896 93.1306H56.4777L56.4777 172.267Z" fill="#F5F5F5"/>
<path d="M58.7868 148.465H111.587V134.332H58.7868V148.465Z" fill="#F0F0F0"/>
<path d="M58.7868 166.959H111.587V152.826H58.7868V166.959Z" fill="#F0F0F0"/>
<path d="M105.339 133.466H65.0355C64.6871 133.466 64.4047 133.748 64.4047 134.097V134.776C64.4047 135.124 64.6871 135.406 65.0355 135.406H105.339C105.687 135.406 105.969 135.124 105.969 134.776V134.097C105.969 133.748 105.687 133.466 105.339 133.466Z" fill="#F5F5F5"/>
<path d="M105.339 151.966H65.0355C64.6871 151.966 64.4047 152.248 64.4047 152.596V153.275C64.4047 153.624 64.6871 153.906 65.0355 153.906H105.339C105.687 153.906 105.969 153.624 105.969 153.275V152.596C105.969 152.248 105.687 151.966 105.339 151.966Z" fill="#F5F5F5"/>
<path d="M58.7868 111.62H111.587V97.487H58.7868V111.62Z" fill="#F0F0F0"/>
<path d="M58.7868 129.975H111.587V115.843H58.7868V129.975Z" fill="#F0F0F0"/>
<path d="M105.339 96.6263H65.0355C64.6871 96.6263 64.4047 96.9087 64.4047 97.2571V97.9359C64.4047 98.2843 64.6871 98.5667 65.0355 98.5667H105.339C105.687 98.5667 105.969 98.2843 105.969 97.9359V97.2571C105.969 96.9087 105.687 96.6263 105.339 96.6263Z" fill="#F5F5F5"/>
<path d="M105.339 114.971H65.0355C64.6871 114.971 64.4047 115.254 64.4047 115.602V116.281C64.4047 116.629 64.6871 116.912 65.0355 116.912H105.339C105.687 116.912 105.969 116.629 105.969 116.281V115.602C105.969 115.254 105.687 114.971 105.339 114.971Z" fill="#F5F5F5"/>
<path d="M111.817 13.395H39.8111V76.6081H111.817V13.395Z" fill="#E6E6E6"/>
<path d="M119.536 10.9364H35.15C35.0562 10.9364 34.9633 10.955 34.8767 10.991C34.7901 11.0271 34.7115 11.0799 34.6454 11.1465C34.5793 11.2131 34.5271 11.2921 34.4917 11.379C34.4563 11.4658 34.4384 11.5589 34.4391 11.6527C34.4391 11.8412 34.514 12.022 34.6473 12.1554C34.7807 12.2887 34.9615 12.3636 35.15 12.3636H119.536C119.725 12.3636 119.906 12.2889 120.04 12.1557C120.174 12.0225 120.251 11.8417 120.252 11.6527C120.252 11.4627 120.177 11.2805 120.042 11.1462C119.908 11.0119 119.726 10.9364 119.536 10.9364Z" fill="#E6E6E6"/>
<path d="M114.875 13.395H41.2383V76.6081H114.875V13.395Z" fill="#F0F0F0"/>
<path d="M111.817 76.6084H39.8111V78.6342H113.923L111.817 76.6084Z" fill="#E6E6E6"/>
<path d="M119.963 76.6084H46.3324L48.4331 78.6342H122.069L119.963 76.6084Z" fill="#F0F0F0"/>
<path d="M110.598 72.3319V17.6713L45.5198 17.6713V72.3319H110.598Z" fill="#FAFAFA"/>
<path d="M60.2943 72.3319L85.3956 17.6713H97.2514L72.1447 72.3319H60.2943Z" fill="white"/>
<path d="M74.6889 72.3319L99.7956 17.6713H104.414L79.3126 72.3319H74.6889Z" fill="white"/>
<path d="M110.598 72.3319V17.6713H110.053V72.3319H110.598Z" fill="#E6E6E6"/>
<g opacity="0.4">
<path d="M45.5681 9.65906H38.2076V61.8235H45.5681V9.65906Z" fill="#F0F0F0"/>
<path d="M48.4385 9.65894H42.703V61.8234H48.4385V9.65894Z" fill="#E6E6E6"/>
<path d="M52.9285 9.65894H45.5681V61.8234H52.9285V9.65894Z" fill="#F0F0F0"/>
<path d="M55.7991 9.65894H50.0637V61.8234H55.7991V9.65894Z" fill="#E6E6E6"/>
<path d="M60.289 9.65894H52.9285V61.8234H60.289V9.65894Z" fill="#F0F0F0"/>
</g>
<g opacity="0.4">
<path d="M107.862 9.65906H103.618V61.8235H107.862V9.65906Z" fill="#F0F0F0"/>
<path d="M109.508 9.65894H106.205V61.8234H109.508V9.65894Z" fill="#E6E6E6"/>
<path d="M112.1 9.65894H107.856V61.8234H112.1V9.65894Z" fill="#F0F0F0"/>
<path d="M113.752 9.65894H110.449V61.8234H113.752V9.65894Z" fill="#E6E6E6"/>
<path d="M116.345 9.65894H112.101V61.8234H116.345V9.65894Z" fill="#F0F0F0"/>
</g>
<path d="M191.114 114.501C191.051 115.274 191.219 116.048 191.596 116.726C191.973 117.404 192.543 117.955 193.233 118.309C193.923 118.664 194.703 118.805 195.474 118.716C196.244 118.628 196.971 118.312 197.563 117.81C198.154 117.309 198.584 116.643 198.797 115.897C199.01 115.151 198.997 114.358 198.76 113.62C198.523 112.881 198.072 112.229 197.465 111.747C196.857 111.264 196.121 110.973 195.347 110.909C194.31 110.824 193.281 111.155 192.488 111.829C191.694 112.502 191.2 113.463 191.114 114.501Z" fill="#E0E0E0"/>
<path d="M202.023 120.749C204.17 120.433 205.654 118.437 205.338 116.29C205.022 114.144 203.026 112.66 200.879 112.975C198.733 113.291 197.248 115.287 197.564 117.434C197.88 119.581 199.876 121.065 202.023 120.749Z" fill="#E0E0E0"/>
<path d="M204.408 117.355C204.345 118.128 204.513 118.903 204.89 119.581C205.267 120.259 205.837 120.81 206.527 121.164C207.217 121.518 207.997 121.66 208.767 121.571C209.538 121.482 210.265 121.167 210.857 120.665C211.448 120.163 211.878 119.497 212.091 118.751C212.304 118.005 212.291 117.213 212.054 116.474C211.817 115.735 211.366 115.084 210.759 114.601C210.151 114.119 209.414 113.827 208.641 113.763C208.127 113.72 207.61 113.779 207.118 113.936C206.627 114.093 206.172 114.346 205.779 114.68C205.385 115.014 205.062 115.422 204.826 115.881C204.591 116.34 204.449 116.841 204.408 117.355Z" fill="#E0E0E0"/>
<path d="M183.818 116.559C183.755 117.332 183.923 118.107 184.3 118.785C184.677 119.462 185.247 120.013 185.937 120.368C186.627 120.722 187.407 120.863 188.178 120.775C188.948 120.686 189.675 120.371 190.267 119.869C190.858 119.367 191.288 118.701 191.501 117.955C191.714 117.209 191.701 116.417 191.464 115.678C191.227 114.939 190.776 114.287 190.169 113.805C189.561 113.322 188.825 113.031 188.051 112.967C187.014 112.883 185.985 113.214 185.192 113.887C184.398 114.561 183.904 115.521 183.818 116.559Z" fill="#E0E0E0"/>
<path d="M214.563 120.747C216.71 120.431 218.194 118.435 217.878 116.288C217.562 114.141 215.566 112.657 213.419 112.973C211.273 113.289 209.788 115.285 210.104 117.432C210.42 119.578 212.416 121.063 214.563 120.747Z" fill="#E0E0E0"/>
<path d="M184.991 116.544C186.64 115.134 186.833 112.653 185.423 111.004C184.013 109.355 181.533 109.162 179.884 110.572C178.235 111.983 178.041 114.463 179.451 116.112C180.862 117.761 183.342 117.954 184.991 116.544Z" fill="#E0E0E0"/>
<path d="M172.978 115.666C172.915 116.439 173.082 117.214 173.46 117.892C173.837 118.57 174.406 119.12 175.097 119.475C175.787 119.829 176.567 119.971 177.337 119.882C178.108 119.793 178.835 119.478 179.426 118.976C180.018 118.474 180.447 117.808 180.661 117.062C180.874 116.316 180.861 115.524 180.624 114.785C180.387 114.046 179.936 113.395 179.328 112.912C178.721 112.43 177.984 112.138 177.211 112.074C176.173 111.99 175.145 112.321 174.351 112.994C173.557 113.668 173.063 114.629 172.978 115.666Z" fill="#E0E0E0"/>
<path d="M168.493 116.724C168.493 116.724 169.166 132.798 194.995 132.798C220.823 132.798 221.497 116.724 221.497 116.724H168.493Z" fill="#F0F0F0"/>
<path d="M236.234 132.798H231.321V174.999H236.234V132.798Z" fill="#E6E6E6"/>
<path d="M237.543 132.798H234.651V174.999H237.543V132.798Z" fill="#F0F0F0"/>
<path d="M215.333 132.798H210.421V174.999H215.333V132.798Z" fill="#E6E6E6"/>
<path d="M216.253 132.798H213.361V174.999H216.253V132.798Z" fill="#F0F0F0"/>
<path d="M168.707 137.918H238.441V132.803H168.707V137.918Z" fill="#F0F0F0"/>
<path d="M147.395 132.798H142.483V174.999H147.395V132.798Z" fill="#E6E6E6"/>
<path d="M148.315 132.798H145.423V174.999H148.315V132.798Z" fill="#F0F0F0"/>
<path d="M141.606 137.918H166.606V132.803H141.606V137.918Z" fill="#E6E6E6"/>
<path d="M168.29 132.798H163.378V174.999H168.29V132.798Z" fill="#E6E6E6"/>
<path d="M169.605 132.798H166.713V174.999H169.605V132.798Z" fill="#F0F0F0"/>
<path d="M134 199.143C191.239 199.143 237.639 196.434 237.639 193.092C237.639 189.751 191.239 187.042 134 187.042C76.7617 187.042 30.3608 189.751 30.3608 193.092C30.3608 196.434 76.7617 199.143 134 199.143Z" fill="#F5F5F5"/>
<path d="M190.382 187.784C190.382 188.852 190.004 189.886 189.314 190.701C188.624 191.517 187.667 192.061 186.613 192.237C173.645 194.425 160.401 194.425 147.432 192.237C146.383 192.056 145.432 191.51 144.747 190.695C144.062 189.88 143.688 188.849 143.691 187.784V144.488H190.403L190.382 187.784Z" fill="#CC5F5F"/>
<path opacity="0.3" d="M143.664 145.268V151.346C146.476 152.388 155.707 153.152 167.023 153.152C178.339 153.152 187.586 152.388 190.382 151.346V145.268H143.664Z" fill="black"/>
<path d="M191.258 149.903C191.258 151.276 180.653 152.388 167.023 152.388C153.392 152.388 142.787 151.276 142.787 149.903L142.344 144.504H191.729L191.258 149.903Z" fill="#CC5F5F"/>
<path d="M167.023 146.984C180.653 146.984 191.702 145.873 191.702 144.504C191.702 143.134 180.653 142.023 167.023 142.023C153.393 142.023 142.344 143.134 142.344 144.504C142.344 145.873 153.393 146.984 167.023 146.984Z" fill="#CC5F5F"/>
<path opacity="0.3" d="M167.023 146.984C180.653 146.984 191.702 145.873 191.702 144.504C191.702 143.134 180.653 142.023 167.023 142.023C153.393 142.023 142.344 143.134 142.344 144.504C142.344 145.873 153.393 146.984 167.023 146.984Z" fill="black"/>
<path opacity="0.2" d="M149.929 184.737C149.448 184.736 148.988 184.545 148.649 184.205C148.309 183.866 148.118 183.406 148.117 182.925V158.102C148.118 157.622 148.309 157.162 148.649 156.822C148.988 156.483 149.448 156.291 149.929 156.29C150.408 156.293 150.868 156.485 151.207 156.824C151.546 157.163 151.738 157.622 151.741 158.102V182.925C151.738 183.405 151.546 183.864 151.207 184.204C150.868 184.543 150.408 184.735 149.929 184.737Z" fill="black"/>
<path opacity="0.2" d="M184.122 184.737C183.642 184.736 183.182 184.545 182.843 184.205C182.503 183.866 182.312 183.406 182.31 182.925V158.102C182.312 157.622 182.503 157.162 182.843 156.822C183.182 156.483 183.642 156.291 184.122 156.29C184.602 156.293 185.061 156.485 185.4 156.824C185.74 157.163 185.932 157.622 185.934 158.102V182.925C185.932 183.405 185.74 183.864 185.4 184.204C185.061 184.543 184.602 184.735 184.122 184.737Z" fill="black"/>
<path opacity="0.2" d="M172.721 184.737C172.241 184.735 171.782 184.543 171.443 184.204C171.103 183.864 170.912 183.405 170.909 182.925V158.102C170.912 157.622 171.103 157.163 171.443 156.824C171.782 156.485 172.241 156.293 172.721 156.29C173.201 156.291 173.661 156.483 174.001 156.822C174.34 157.162 174.532 157.622 174.533 158.102V182.925C174.532 183.406 174.34 183.866 174.001 184.205C173.661 184.545 173.201 184.736 172.721 184.737Z" fill="black"/>
<path opacity="0.2" d="M161.325 184.737C160.845 184.735 160.386 184.543 160.047 184.204C159.707 183.864 159.516 183.405 159.513 182.925V158.102C159.516 157.622 159.707 157.163 160.047 156.824C160.386 156.485 160.845 156.293 161.325 156.29C161.805 156.291 162.265 156.483 162.604 156.822C162.944 157.162 163.135 157.622 163.137 158.102V182.925C163.135 183.406 162.944 183.866 162.604 184.205C162.265 184.545 161.805 184.736 161.325 184.737Z" fill="black"/>
<path d="M103.468 44.9856C103.468 45.4761 103.323 45.9556 103.05 46.3635C102.778 46.7714 102.39 47.0893 101.937 47.277C101.484 47.4647 100.985 47.5138 100.504 47.4181C100.023 47.3224 99.5809 47.0862 99.2341 46.7393C98.8872 46.3925 98.651 45.9505 98.5553 45.4694C98.4596 44.9883 98.5087 44.4896 98.6964 44.0364C98.8841 43.5832 99.202 43.1959 99.6099 42.9234C100.018 42.6508 100.497 42.5054 100.988 42.5054C101.646 42.5054 102.276 42.7667 102.742 43.2318C103.207 43.6969 103.468 44.3278 103.468 44.9856Z" fill="#263238"/>
<path d="M98.9941 45.3436C98.9699 45.3442 98.9461 45.338 98.9253 45.3258C98.9045 45.3135 98.8876 45.2955 98.8765 45.2741C98.7126 44.9729 98.6096 44.6425 98.5734 44.3015C98.5372 43.9606 98.5686 43.6159 98.6656 43.287C98.7626 42.9582 98.9235 42.6517 99.139 42.385C99.3545 42.1183 99.6204 41.8967 99.9215 41.7328C100.223 41.5689 100.553 41.4659 100.894 41.4297C101.235 41.3936 101.58 41.4249 101.909 41.5219C102.237 41.6189 102.544 41.7798 102.811 41.9953C103.077 42.2108 103.299 42.4767 103.463 42.7778C103.478 42.8093 103.482 42.8455 103.472 42.8792C103.462 42.9129 103.44 42.9416 103.409 42.9596C103.394 42.968 103.377 42.9734 103.359 42.9753C103.342 42.9772 103.324 42.9756 103.307 42.9706C103.29 42.9656 103.275 42.9574 103.261 42.9463C103.247 42.9352 103.236 42.9216 103.228 42.9061C102.931 42.3603 102.429 41.9549 101.833 41.7789C101.237 41.603 100.596 41.671 100.05 41.968C99.504 42.265 99.0985 42.7667 98.9226 43.3626C98.7467 43.9586 98.8147 44.6 99.1117 45.1458C99.1202 45.1612 99.1255 45.1782 99.1274 45.1957C99.1293 45.2132 99.1277 45.2309 99.1227 45.2478C99.1178 45.2646 99.1095 45.2804 99.0984 45.2941C99.0874 45.3078 99.0737 45.3191 99.0582 45.3275C99.0384 45.3378 99.0164 45.3432 98.9941 45.3436Z" fill="#263238"/>
<path d="M96.5833 56.3173C96.1001 56.3153 95.6269 56.1795 95.2163 55.9249C94.8057 55.6702 94.4737 55.3068 94.2572 54.8748C94.0407 54.4429 93.9481 53.9594 93.9898 53.478C94.0315 52.9967 94.2057 52.5363 94.4933 52.148C94.6982 51.8735 94.9552 51.642 95.2496 51.4669C95.544 51.2917 95.8701 51.1762 96.2091 51.127C96.2264 51.124 96.2441 51.1246 96.2611 51.1286C96.2782 51.1327 96.2942 51.1403 96.3082 51.1508C96.3223 51.1613 96.334 51.1746 96.3427 51.1898C96.3514 51.205 96.3568 51.2219 96.3588 51.2393C96.3634 51.274 96.3542 51.3091 96.3332 51.3371C96.3122 51.365 96.2811 51.3837 96.2465 51.389C95.632 51.479 95.0783 51.8095 94.7074 52.3077C94.3365 52.8059 94.1787 53.431 94.2688 54.0456C94.3588 54.6601 94.6893 55.2137 95.1875 55.5846C95.6857 55.9555 96.3108 56.1133 96.9254 56.0233C96.9608 56.0176 96.997 56.0263 97.0261 56.0473C97.0552 56.0684 97.0747 56.1001 97.0804 56.1356C97.086 56.171 97.0774 56.2073 97.0564 56.2363C97.0353 56.2654 97.0036 56.2849 96.9681 56.2906C96.8405 56.3075 96.712 56.3164 96.5833 56.3173Z" fill="#263238"/>
<path d="M110.059 60.3583C109.557 60.3576 109.067 60.2108 108.648 59.936C108.618 59.9163 108.597 59.8859 108.589 59.8511C108.581 59.8162 108.586 59.7797 108.605 59.749C108.625 59.72 108.656 59.7 108.691 59.6931C108.726 59.6861 108.762 59.6927 108.792 59.7115C109.313 60.0497 109.947 60.167 110.554 60.0376C111.162 59.9083 111.693 59.543 112.031 59.022C112.369 58.501 112.486 57.8671 112.357 57.2596C112.228 56.6521 111.862 56.1209 111.342 55.7828C111.312 55.7631 111.291 55.7326 111.283 55.6978C111.275 55.663 111.28 55.6264 111.299 55.5957C111.319 55.5668 111.35 55.5468 111.385 55.5398C111.42 55.5329 111.456 55.5395 111.486 55.5583C112.065 55.9356 112.472 56.5271 112.616 57.2033C112.76 57.8796 112.631 58.5854 112.256 59.1663C112.07 59.4553 111.829 59.7045 111.547 59.8991C111.264 60.0937 110.945 60.2298 110.609 60.2995C110.428 60.3376 110.244 60.3573 110.059 60.3583Z" fill="#263238"/>
<path d="M99.5981 52.7203C101.535 52.7203 103.105 51.1504 103.105 49.2138C103.105 47.2772 101.535 45.7073 99.5981 45.7073C97.6615 45.7073 96.0916 47.2772 96.0916 49.2138C96.0916 51.1504 97.6615 52.7203 99.5981 52.7203Z" fill="#263238"/>
<path d="M102.889 57.222C104.705 55.4059 104.705 52.4615 102.889 50.6454C101.073 48.8293 98.1286 48.8293 96.3125 50.6454C94.4965 52.4615 94.4965 55.4059 96.3125 57.222C98.1286 59.0381 101.073 59.0381 102.889 57.222Z" fill="#263238"/>
<path d="M100.09 64.9875C102.93 64.9875 105.232 62.6853 105.232 59.8454C105.232 57.0055 102.93 54.7032 100.09 54.7032C97.2499 54.7032 94.9477 57.0055 94.9477 59.8454C94.9477 62.6853 97.2499 64.9875 100.09 64.9875Z" fill="#263238"/>
<path d="M110.239 61.3752C110.891 58.6112 109.179 55.8417 106.415 55.1894C103.651 54.537 100.882 56.2488 100.23 59.0128C99.5772 61.7768 101.289 64.5463 104.053 65.1987C106.817 65.851 109.587 64.1392 110.239 61.3752Z" fill="#263238"/>
<path d="M122.289 70.8033C122.289 71.2203 122.289 71.7494 122.326 72.2305C122.364 72.7116 122.364 73.2247 122.396 73.7218C122.465 74.7161 122.535 75.721 122.642 76.7205C122.834 78.7268 123.103 80.7241 123.449 82.7126C123.54 83.2044 123.62 83.7068 123.721 84.1986L123.956 85.4119C124.015 85.6044 123.956 85.567 123.882 85.5616C123.807 85.5563 123.882 85.6578 124.197 85.6578C125.004 85.5769 125.79 85.3505 126.517 84.9897C126.944 84.7972 127.383 84.5888 127.821 84.3643C128.259 84.1398 128.703 83.8832 129.104 83.6587L130.665 85.4601C130.292 85.8866 129.896 86.2916 129.478 86.6734C129.066 87.0653 128.631 87.4313 128.174 87.7692C127.695 88.1296 127.189 88.4531 126.661 88.7367C126.06 89.0647 125.416 89.3058 124.748 89.453C124.335 89.5428 123.913 89.5788 123.491 89.5599C122.977 89.53 122.473 89.4031 122.005 89.1857C121.508 88.9524 121.066 88.6173 120.707 88.2022C120.398 87.8413 120.146 87.4358 119.958 86.9995C119.813 86.6657 119.695 86.3207 119.605 85.9678L119.397 85.1874C119.247 84.6529 119.124 84.1451 118.996 83.6213C118.496 81.5199 118.111 79.3929 117.841 77.2497C117.708 76.1807 117.601 75.1116 117.537 74.0158C117.505 73.4813 117.478 72.9468 117.462 72.3802C117.446 71.8136 117.462 71.3111 117.462 70.675L122.289 70.8033Z" fill="#FFB573"/>
<path d="M119.696 65.0407C124.256 68.5312 124.074 75.1112 124.074 75.1112L115.917 77.0622C115.917 77.0622 113.415 70.4448 114.431 68.0234C115.489 65.5004 117.13 63.0737 119.696 65.0407Z" fill="#CC5F5F"/>
<path opacity="0.7" d="M119.696 65.0407C124.256 68.5312 124.074 75.1112 124.074 75.1112L115.917 77.0622C115.917 77.0622 113.415 70.4448 114.431 68.0234C115.489 65.5004 117.13 63.0737 119.696 65.0407Z" fill="white"/>
<path d="M128.799 84.2734L130.146 82.007L133.524 85.6204C133.524 85.6204 131.103 87.1705 128.591 86.064L128.799 84.2734Z" fill="#FFB573"/>
<path d="M131.809 80.9216L136.144 83.4767L133.524 85.6201L130.146 82.0067L131.809 80.9216Z" fill="#FFB573"/>
<path d="M94.1725 189.147L98.8336 189.596L101.731 178.676L97.0643 178.227L94.1725 189.147Z" fill="#FFB573"/>
<path d="M70.2793 179.969L74.4646 182.161L79.4411 172.294L75.2557 170.102L70.2793 179.969Z" fill="#FFB573"/>
<path d="M75.5818 180.242L71.8401 176.442C71.7779 176.375 71.6932 176.334 71.6024 176.326C71.5116 176.318 71.4211 176.344 71.3483 176.399L67.9113 178.927C67.828 178.994 67.7596 179.078 67.7107 179.173C67.6618 179.268 67.6334 179.373 67.6273 179.48C67.6213 179.586 67.6377 179.693 67.6756 179.793C67.7135 179.893 67.7719 179.984 67.8472 180.06C69.1728 181.365 69.8784 181.926 71.5247 183.599C72.5403 184.625 74.625 187.047 76.0254 188.469C77.4259 189.89 78.9012 188.581 78.4468 187.865C76.4049 184.657 76.0628 182.642 75.9345 181.012C75.9113 180.722 75.7864 180.449 75.5818 180.242Z" fill="#263238"/>
<path d="M99.5605 188.18H93.9106C93.8095 188.181 93.7115 188.215 93.6314 188.276C93.5514 188.338 93.4936 188.424 93.4669 188.522L92.2589 192.964C92.2287 193.069 92.2237 193.18 92.2444 193.288C92.2651 193.396 92.3108 193.497 92.3779 193.584C92.4451 193.671 92.5317 193.741 92.6308 193.788C92.7299 193.836 92.8387 193.859 92.9484 193.856C94.9315 193.856 95.8723 193.856 98.3471 193.856H105.921C107.979 193.856 108.412 191.777 107.557 191.585C103.741 190.74 101.538 189.575 100.362 188.463C100.139 188.272 99.8537 188.171 99.5605 188.18Z" fill="#263238"/>
<path opacity="0.2" d="M101.725 178.681L100.234 184.31H95.4501L97.059 178.232L101.725 178.681Z" fill="black"/>
<path opacity="0.2" d="M75.2504 170.102L79.4411 172.299L76.8754 177.382L72.6847 175.185L75.2504 170.102Z" fill="black"/>
<path d="M118.317 64.3674C118.317 64.3674 120.38 65.2707 113.464 92.6385L94.2527 90.9761C95.2523 83.188 95.6746 78.3666 93.328 61.9941C96.0666 61.6734 98.8248 61.5501 101.581 61.6252C104.503 61.6694 107.418 61.9213 110.305 62.3789C113.007 62.9059 115.682 63.5696 118.317 64.3674Z" fill="#CC5F5F"/>
<path opacity="0.7" d="M118.317 64.3674C118.317 64.3674 120.38 65.2707 113.464 92.6385L94.2527 90.9761C95.2523 83.188 95.6746 78.3666 93.328 61.9941C96.0666 61.6734 98.8248 61.5501 101.581 61.6252C104.503 61.6694 107.418 61.9213 110.305 62.3789C113.007 62.9059 115.682 63.5696 118.317 64.3674Z" fill="white"/>
<path d="M101.581 61.4703C101.581 61.4703 100.512 61.4703 99.2025 61.4703C98.4275 62.6623 101.699 66.1421 105.857 69.5631C106.862 66.4468 108.445 66.4575 108.445 66.4575L101.581 61.4703Z" fill="white"/>
<path d="M110.299 62.3096C110.299 62.3096 110.786 62.3791 111.951 62.6463C112.721 63.8383 113.154 66.821 110.882 69.4188C109.989 66.2116 108.45 66.5003 108.45 66.5003L110.299 62.3096Z" fill="white"/>
<path d="M103.292 51.8755C103.602 54.7299 103.703 59.8934 101.581 61.6252C101.581 61.6252 103.848 63.9451 108.444 66.5001C111.78 64.191 110.305 62.3789 110.305 62.3789C107.236 61.3633 107.52 59.0488 108.252 56.9107L103.292 51.8755Z" fill="#FFB573"/>
<path opacity="0.2" d="M105.317 53.9337L108.252 56.911C108.072 57.4059 107.936 57.9156 107.846 58.4344C106.67 58.1618 104.959 56.9324 104.938 55.6709C104.958 55.0737 105.087 54.4851 105.317 53.9337Z" fill="black"/>
<path d="M114.313 42.5642C116.28 44.3068 116.858 48.5509 114.987 51.432C114.425 48.5114 114.199 45.5361 114.313 42.5642Z" fill="#263238"/>
<path d="M102.693 45.8835C102.351 50.582 102.11 52.5651 104.141 55.2752C107.199 59.3536 113.047 58.7389 114.784 54.2382C116.35 50.1811 116.644 43.1788 112.33 40.7093C111.383 40.156 110.309 39.8552 109.211 39.8356C108.114 39.8161 107.03 40.0784 106.063 40.5976C105.096 41.1167 104.278 41.8754 103.688 42.8009C103.098 43.7263 102.755 44.7877 102.693 45.8835Z" fill="#FFB573"/>
<path d="M102.067 49.668C105.542 49.5343 107.466 44.9909 106.595 43.0719C110.534 45.1245 116.5 46.7388 115.837 44.0982C114.944 40.5329 110.631 37.9191 105.323 39.822C102.249 41.1583 99.6193 44.0982 102.067 49.668Z" fill="#263238"/>
<path d="M101.009 49.6627C101.158 50.5611 101.653 51.3654 102.388 51.9024C103.372 52.6026 104.27 51.8222 104.339 50.6836C104.403 49.652 103.971 48.0484 102.816 47.8025C102.563 47.7523 102.302 47.7662 102.056 47.8428C101.809 47.9195 101.586 48.0565 101.407 48.2414C101.227 48.4264 101.097 48.6533 101.027 48.9015C100.958 49.1498 100.952 49.4114 101.009 49.6627Z" fill="#FFB573"/>
<path d="M113.464 92.6387C113.464 92.6387 117.809 120.995 115.388 139.212C113.555 152.976 101.725 182.674 101.725 182.674L94.0443 182.466C94.0443 182.466 101.977 153.682 103.618 142.376C106.424 123.016 99.3949 91.4414 99.3949 91.4414L113.464 92.6387Z" fill="#263238"/>
<path opacity="0.2" d="M105.97 98.4489L101.87 104.911C103.104 112.574 103.888 120.302 104.216 128.056C109.978 117.74 107.274 103.906 105.97 98.4489Z" fill="black"/>
<path d="M102.923 183.102L93.2693 182.84L93.8573 179.734L103.832 179.793L102.923 183.102Z" fill="#CC5F5F"/>
<path d="M109.262 92.3338C109.262 92.3338 106.055 123.732 98.7268 140.815C92.7989 154.606 78.666 176.666 78.666 176.666L73.0214 173.363C73.0214 173.363 82.1084 148.833 86.593 139.639C97.5348 117.098 87.3574 99.0153 94.2528 90.9974L109.262 92.3338Z" fill="#263238"/>
<path d="M79.2808 177.147L72.0807 173.197L73.2513 170.118L80.9218 174.448L79.2808 177.147Z" fill="#CC5F5F"/>
<path d="M94.0604 89.8268L93.0448 91.4731C92.9699 91.5961 93.1142 91.7511 93.3387 91.7671L113.485 93.5097C113.656 93.5097 113.811 93.4509 113.827 93.344L114.153 91.6388C114.153 91.5213 114.03 91.409 113.843 91.393L94.3864 89.7092C94.3266 89.7001 94.2654 89.7061 94.2085 89.7266C94.1515 89.7472 94.1006 89.7816 94.0604 89.8268Z" fill="#CC5F5F"/>
<path d="M96.487 92.2269L95.9525 92.1841C95.8509 92.1841 95.7761 92.1146 95.7868 92.0505L96.2251 89.8376C96.2251 89.7681 96.3373 89.7253 96.4389 89.736L96.9734 89.7788C97.0803 89.7788 97.1552 89.8483 97.1391 89.9124L96.7062 92.1253C96.6848 92.1895 96.5832 92.2376 96.487 92.2269Z" fill="#263238"/>
<path d="M112.004 93.5688L111.47 93.526C111.363 93.526 111.288 93.4566 111.304 93.3924L111.742 91.1795C111.742 91.1153 111.849 91.0672 111.951 91.0779L112.485 91.1207C112.587 91.1207 112.662 91.1902 112.651 91.2543L112.213 93.4672C112.202 93.5421 112.085 93.5795 112.004 93.5688Z" fill="#263238"/>
<path d="M104.243 92.9006L103.709 92.8525C103.607 92.8525 103.532 92.783 103.543 92.7188L103.981 90.5059C103.981 90.4417 104.088 90.3936 104.195 90.4043L104.729 90.4524C104.831 90.4524 104.906 90.5219 104.895 90.5861L104.457 92.799C104.446 92.8631 104.35 92.9059 104.243 92.9006Z" fill="#263238"/>
<path d="M110.053 48.2192C110 48.5987 110.16 48.9355 110.406 48.9676C110.652 48.9996 110.898 48.7217 110.941 48.3422C110.983 47.9627 110.828 47.6259 110.583 47.5938C110.337 47.5618 110.101 47.8397 110.053 48.2192Z" fill="#263238"/>
<path d="M114.34 48.7967C114.292 49.1762 114.452 49.513 114.698 49.5451C114.944 49.5771 115.19 49.2992 115.233 48.9197C115.276 48.5402 115.126 48.2034 114.88 48.1713C114.634 48.1393 114.394 48.4172 114.34 48.7967Z" fill="#263238"/>
<path d="M114.757 48.1767L115.709 48.0377C115.709 48.0377 115.153 48.6845 114.757 48.1767Z" fill="#263238"/>
<path d="M112.656 49.2135C112.879 50.1236 113.225 50.9993 113.683 51.8166C113.471 51.929 113.238 51.994 112.999 52.0069C112.76 52.0198 112.521 51.9804 112.298 51.8915L112.656 49.2135Z" fill="#ED893E"/>
<path d="M110.075 53.025C109.323 52.7799 108.692 52.2583 108.311 51.5657C108.301 51.5436 108.3 51.5187 108.308 51.4959C108.316 51.4731 108.332 51.4542 108.354 51.4428C108.376 51.4316 108.402 51.4298 108.426 51.4378C108.45 51.4458 108.47 51.463 108.482 51.4855C108.719 51.902 109.052 52.2565 109.452 52.5203C109.852 52.784 110.309 52.9496 110.786 53.0036C110.81 53.0036 110.833 53.0131 110.85 53.0302C110.867 53.0472 110.876 53.0703 110.876 53.0944C110.876 53.1185 110.867 53.1417 110.85 53.1587C110.833 53.1757 110.81 53.1853 110.786 53.1853C110.543 53.1586 110.305 53.1048 110.075 53.025Z" fill="#263238"/>
<path d="M108.102 46.0226C108.071 46.0098 108.044 45.9896 108.022 45.9638C108.005 45.9469 107.991 45.9265 107.981 45.904C107.971 45.8815 107.967 45.8573 107.967 45.8329C107.967 45.8084 107.971 45.7842 107.981 45.7617C107.991 45.7392 108.005 45.7189 108.022 45.7019C108.284 45.4677 108.599 45.3005 108.94 45.2149C109.281 45.1292 109.637 45.1276 109.979 45.2101C110.002 45.2168 110.024 45.2282 110.043 45.2435C110.062 45.2587 110.077 45.2776 110.089 45.2991C110.1 45.3205 110.107 45.344 110.109 45.3682C110.112 45.3924 110.109 45.4168 110.102 45.44C110.088 45.4873 110.056 45.5274 110.013 45.5514C109.97 45.5754 109.919 45.5815 109.872 45.5683C109.591 45.5057 109.298 45.5109 109.02 45.5834C108.741 45.6558 108.483 45.7936 108.268 45.9852C108.245 46.003 108.218 46.0156 108.189 46.0221C108.161 46.0285 108.131 46.0287 108.102 46.0226Z" fill="#263238"/>
<path d="M116.142 47.1611C116.114 47.1502 116.088 47.1338 116.067 47.113C115.879 46.8931 115.643 46.7204 115.376 46.6089C115.11 46.4975 114.821 46.4504 114.533 46.4715C114.508 46.477 114.483 46.4771 114.459 46.4721C114.434 46.467 114.411 46.4568 114.391 46.4422C114.371 46.4275 114.354 46.4087 114.341 46.3871C114.329 46.3654 114.321 46.3414 114.319 46.3165C114.311 46.2676 114.323 46.2177 114.352 46.1776C114.381 46.1375 114.425 46.1106 114.474 46.1027C114.823 46.0713 115.174 46.1238 115.499 46.2559C115.823 46.3879 116.112 46.5956 116.339 46.8617C116.365 46.8926 116.381 46.9311 116.383 46.9714C116.385 47.0116 116.375 47.0516 116.352 47.0853C116.33 47.1189 116.298 47.1445 116.26 47.1582C116.222 47.1718 116.18 47.1728 116.142 47.1611Z" fill="#263238"/>
<path d="M120.37 87.4909C120.716 86.4127 121.271 85.4133 122.003 84.5496C122.735 83.6859 123.631 82.9749 124.638 82.4572C125.645 81.9395 126.744 81.6252 127.873 81.5324C129.001 81.4395 130.137 81.5698 131.215 81.9158C132.293 82.2619 133.293 82.8169 134.157 83.5493C135.02 84.2816 135.731 85.1769 136.249 86.184C136.767 87.1911 137.081 88.2903 137.174 89.4188C137.267 90.5474 137.136 91.6832 136.79 92.7614L133.466 103.163L117.045 97.8875L120.37 87.4909Z" fill="#CC5F5F"/>
<path opacity="0.3" d="M120.37 87.4909C120.716 86.4127 121.271 85.4133 122.003 84.5496C122.735 83.6859 123.631 82.9749 124.638 82.4572C125.645 81.9395 126.744 81.6252 127.873 81.5324C129.001 81.4395 130.137 81.5698 131.215 81.9158C132.293 82.2619 133.293 82.8169 134.157 83.5493C135.02 84.2816 135.731 85.1769 136.249 86.184C136.767 87.1911 137.081 88.2903 137.174 89.4188C137.267 90.5474 137.136 91.6832 136.79 92.7614L133.466 103.163L117.045 97.8875L120.37 87.4909Z" fill="black"/>
<path d="M104.168 82.2848L101.164 91.6391C101.12 91.7734 101.103 91.9152 101.114 92.0562C101.126 92.1972 101.165 92.3345 101.229 92.4603C101.294 92.5861 101.383 92.6978 101.491 92.789C101.599 92.8801 101.724 92.9489 101.859 92.9914L117.04 97.8663L120.375 87.4858C121.075 85.3103 122.61 83.5017 124.642 82.4573C126.675 81.413 129.039 81.2183 131.215 81.916L115.014 76.7097C112.836 76.0135 110.471 76.2095 108.438 77.2547C106.405 78.2999 104.869 80.1089 104.168 82.2848Z" fill="#CC5F5F"/>
<path d="M112.314 89.3779L116.5 76.3515C116.514 76.3048 116.518 76.2555 116.512 76.2069C116.506 76.1584 116.489 76.1118 116.463 76.0703C116.437 76.0287 116.403 75.9932 116.362 75.9661C116.321 75.939 116.275 75.921 116.227 75.9132L111.951 75.2825L111.416 76.9716L114.533 77.9711L111.005 88.9503L112.314 89.3779Z" fill="#263238"/>
<path d="M110.091 88.6618C109.994 88.9637 109.989 89.2875 110.076 89.5922C110.164 89.8969 110.339 90.1689 110.581 90.3739C110.823 90.5788 111.12 90.7076 111.435 90.7438C111.75 90.78 112.068 90.7221 112.35 90.5774C112.632 90.4326 112.865 90.2076 113.019 89.9306C113.173 89.6537 113.242 89.3373 113.216 89.0213C113.191 88.7054 113.072 88.4042 112.876 88.1556C112.679 87.9071 112.413 87.7224 112.111 87.6249C111.911 87.56 111.699 87.5353 111.489 87.5523C111.278 87.5694 111.074 87.6277 110.886 87.724C110.698 87.8204 110.531 87.9528 110.395 88.1137C110.258 88.2746 110.155 88.4609 110.091 88.6618Z" fill="#263238"/>
<path d="M117.831 99.4218L138.891 106.184C138.968 106.208 139.048 106.218 139.128 106.212C139.209 106.205 139.287 106.183 139.358 106.146C139.43 106.109 139.493 106.059 139.545 105.997C139.597 105.936 139.637 105.865 139.661 105.788C139.686 105.712 139.697 105.631 139.69 105.55C139.684 105.47 139.662 105.391 139.625 105.32C139.589 105.248 139.538 105.184 139.476 105.133C139.414 105.081 139.342 105.042 139.265 105.018L117.04 97.8823C116.94 98.1914 116.968 98.5272 117.116 98.8159C117.265 99.1045 117.522 99.3225 117.831 99.4218Z" fill="#CC5F5F"/>
<path opacity="0.2" d="M117.831 99.4218L126.437 102.185C126.513 102.21 126.594 102.22 126.675 102.214C126.756 102.207 126.834 102.185 126.906 102.148C126.978 102.111 127.042 102.061 127.095 101.999C127.147 101.938 127.187 101.867 127.212 101.79C127.261 101.635 127.246 101.468 127.172 101.323C127.098 101.179 126.97 101.07 126.816 101.02L117.04 97.8823C116.94 98.1914 116.968 98.5272 117.116 98.8159C117.265 99.1045 117.522 99.3225 117.831 99.4218Z" fill="black"/>
<path d="M95.5891 69.5417L95.2951 69.8678L94.9637 70.2473C94.7392 70.5038 94.5147 70.7818 94.3009 71.0437C93.8625 71.5782 93.4456 72.1502 93.0554 72.7275C91.4403 75.0136 90.1689 77.524 89.2816 80.1788C89.0678 80.8416 88.8701 81.5044 88.7151 82.1832C88.6616 82.381 88.6563 82.4612 88.6295 82.5521C88.6254 82.6304 88.6254 82.7089 88.6295 82.7873C88.6209 82.8708 88.6209 82.955 88.6295 83.0385C88.6295 83.1347 88.8113 83.3592 89.2496 83.573C89.7765 83.8101 90.3316 83.9789 90.9013 84.0755C92.2761 84.294 93.6682 84.3853 95.0599 84.3481C96.5138 84.3481 97.9891 84.2198 99.4644 84.0648C100.94 83.9098 102.436 83.7173 103.885 83.4982L104.468 85.8127C101.484 86.7837 98.4143 87.4657 95.3004 87.8492C93.6609 88.0626 92.0032 88.0984 90.3561 87.9561C89.4143 87.8678 88.4896 87.6483 87.6086 87.304C87.0801 87.0921 86.5836 86.8079 86.1333 86.4595C85.6029 86.0436 85.1659 85.5209 84.8504 84.9254C84.3074 83.8081 84.1622 82.539 84.4388 81.328C84.5671 80.5102 84.7542 79.7244 84.9734 78.9013C85.3928 77.3211 85.9509 75.781 86.6411 74.299C87.3331 72.8135 88.1391 71.3838 89.0518 70.0228C89.5115 69.3439 90.0033 68.6865 90.5164 68.0397C90.7783 67.719 91.0509 67.4036 91.3182 67.0882L91.7512 66.6232C91.9062 66.4575 92.0291 66.3238 92.2429 66.1207L95.5891 69.5417Z" fill="#FFB573"/>
<path d="M102.72 83.9901L106.461 82.007L106.627 86.0266C106.627 86.0266 103.954 87.1331 102.426 85.9143L102.72 83.9901Z" fill="#FFB573"/>
<path d="M109.545 81.702L108.984 85.4063L106.632 86.0263L106.467 82.0067L109.545 81.702Z" fill="#FFB573"/>
<path d="M93.328 62.005C90.9708 62.4219 87.6727 69.1783 87.6727 69.1783L93.6113 74.5236C93.6113 74.5236 98.3312 69.3707 98.08 66.3026C97.8661 63.7101 96.3267 61.4704 93.328 62.005Z" fill="#CC5F5F"/>
<path opacity="0.7" d="M93.328 62.005C90.9708 62.4219 87.6727 69.1783 87.6727 69.1783L93.6113 74.5236C93.6113 74.5236 98.3312 69.3707 98.08 66.3026C97.8661 63.7101 96.3267 61.4704 93.328 62.005Z" fill="white"/>
<path d="M77.4204 182.305C77.3584 182.313 77.2955 182.313 77.2334 182.305C76.64 182.273 76.0093 181.365 75.6832 180.83C75.6731 180.815 75.6677 180.797 75.6677 180.779C75.6677 180.761 75.6731 180.743 75.6832 180.728C75.693 180.713 75.7077 180.7 75.7251 180.694C75.7424 180.687 75.7615 180.686 75.7795 180.691C75.9719 180.728 77.6343 181.103 77.8427 181.664C77.8644 181.725 77.8698 181.79 77.8586 181.854C77.8474 181.918 77.8198 181.977 77.7786 182.027C77.693 182.157 77.5672 182.255 77.4204 182.305ZM75.9612 180.948C76.4369 181.68 76.9073 182.118 77.2441 182.14C77.3208 182.141 77.3965 182.123 77.464 182.086C77.5314 182.05 77.5883 181.996 77.6289 181.931C77.652 181.908 77.6678 181.878 77.6744 181.846C77.681 181.814 77.6782 181.78 77.6663 181.749C77.538 181.407 76.5385 181.087 75.9612 180.948Z" fill="#CC5F5F"/>
<path d="M77.2495 180.83C76.7566 180.965 76.2394 180.987 75.7368 180.894C75.721 180.889 75.7068 180.88 75.6956 180.868C75.6844 180.856 75.6765 180.841 75.6727 180.825C75.6652 180.811 75.6613 180.795 75.6613 180.779C75.6613 180.763 75.6652 180.748 75.6727 180.734C75.7154 180.696 76.6883 179.745 77.3671 179.793C77.451 179.794 77.5334 179.815 77.6077 179.854C77.682 179.893 77.7461 179.949 77.7947 180.017C77.8531 180.08 77.889 180.16 77.8968 180.245C77.9045 180.33 77.8836 180.416 77.8375 180.488C77.684 180.663 77.4775 180.783 77.2495 180.83ZM75.9613 180.744C76.4958 180.819 77.4954 180.686 77.7039 180.381C77.7359 180.333 77.7627 180.258 77.6664 180.135C77.6341 180.088 77.5911 180.05 77.5409 180.023C77.4907 179.996 77.4348 179.981 77.3778 179.98C76.9128 179.948 76.2393 180.493 75.9613 180.744Z" fill="#CC5F5F"/>
<path d="M101.554 188.896C101.038 188.884 100.523 188.818 100.02 188.698C100.003 188.692 99.9875 188.681 99.9767 188.665C99.9659 188.65 99.9601 188.632 99.9601 188.613C99.9601 188.594 99.9659 188.576 99.9767 188.561C99.9875 188.545 100.003 188.534 100.02 188.527C100.25 188.415 102.297 187.458 102.811 187.822C102.857 187.853 102.894 187.897 102.917 187.948C102.941 187.999 102.95 188.055 102.944 188.11C102.942 188.215 102.915 188.317 102.867 188.41C102.819 188.503 102.75 188.583 102.666 188.645C102.331 188.843 101.942 188.931 101.554 188.896ZM100.341 188.576C100.945 188.688 102.068 188.837 102.533 188.49C102.592 188.443 102.641 188.384 102.676 188.317C102.711 188.249 102.731 188.175 102.736 188.1C102.74 188.076 102.738 188.052 102.728 188.03C102.719 188.008 102.703 187.989 102.682 187.977C102.394 187.779 101.186 188.201 100.325 188.576H100.341Z" fill="#CC5F5F"/>
<path d="M100.036 188.688C100.017 188.693 99.9968 188.693 99.9775 188.688C99.9646 188.676 99.9549 188.661 99.9493 188.644C99.9437 188.627 99.9424 188.609 99.9454 188.592C99.9454 188.506 100.432 186.491 101.549 186.619C101.827 186.657 101.902 186.79 101.918 186.902C101.987 187.437 100.699 188.447 100.084 188.704L100.036 188.688ZM101.437 186.78C100.731 186.78 100.32 187.955 100.181 188.426C100.849 188.073 101.784 187.234 101.725 186.908C101.725 186.881 101.725 186.806 101.517 186.785L101.437 186.78Z" fill="#CC5F5F"/>
<path d="M110.481 47.5996L111.427 47.4606C111.427 47.4606 110.866 48.1074 110.481 47.5996Z" fill="#263238"/>
<path d="M143.37 92.3179L122.673 96.5941C122.319 96.6606 121.954 96.586 121.654 96.3862C121.354 96.1864 121.145 95.8774 121.07 95.5251L120.102 91.0351L119.755 89.378L120.364 87.4858C120.449 87.2142 120.551 86.9482 120.669 86.6894C120.682 86.6483 120.7 86.6088 120.722 86.5718C121.064 85.7931 121.524 85.0718 122.085 84.4337L123.155 84.2092L140.901 80.5263C141.255 80.4598 141.621 80.5344 141.92 80.7342C142.22 80.934 142.43 81.243 142.504 81.5953L144.391 90.6823C144.469 91.0342 144.405 91.4025 144.214 91.7082C144.023 92.0139 143.72 92.2327 143.37 92.3179Z" fill="#CC5F5F"/>
<path opacity="0.3" d="M142.344 81.1142L132.359 91.2702L130.221 90.4043L121.904 87.0314L120.733 86.5557C121.074 85.777 121.534 85.0558 122.096 84.4176L123.165 84.1931L140.911 80.5102C141.183 80.4559 141.465 80.4845 141.72 80.5922C141.976 80.6999 142.193 80.8817 142.344 81.1142Z" fill="black"/>
<path d="M142.344 81.1142L130.221 90.4203L129.43 91.0297L121.813 87.2506L120.68 86.7161C120.693 86.675 120.711 86.6355 120.733 86.5985C121.074 85.8198 121.534 85.0985 122.096 84.4604L123.165 84.2359L140.911 80.553C141.179 80.4943 141.458 80.5164 141.713 80.6163C141.968 80.7162 142.187 80.8895 142.344 81.1142Z" fill="#CC5F5F"/>
<path opacity="0.2" d="M142.344 81.1142L130.221 90.4203L129.43 91.0297L121.813 87.2506L120.68 86.7161C120.693 86.675 120.711 86.6355 120.733 86.5985C121.074 85.8198 121.534 85.0985 122.096 84.4604L123.165 84.2359L140.911 80.553C141.179 80.4943 141.458 80.5164 141.713 80.6163C141.968 80.7162 142.187 80.8895 142.344 81.1142Z" fill="white"/>
<path d="M168.637 111.064L162.33 117.863C162.081 118.128 161.737 118.284 161.374 118.297C161.011 118.31 160.657 118.179 160.39 117.932L144.92 103.527C144.654 103.279 144.497 102.935 144.484 102.571C144.471 102.207 144.603 101.853 144.851 101.586L151.18 94.7873C151.302 94.654 151.45 94.5463 151.615 94.4706C151.779 94.3949 151.957 94.3526 152.138 94.3461C152.319 94.3396 152.499 94.3691 152.669 94.433C152.838 94.4968 152.994 94.5936 153.125 94.7178L168.589 109.123C168.79 109.31 168.93 109.552 168.992 109.818C169.054 110.085 169.034 110.364 168.937 110.62C168.87 110.788 168.768 110.939 168.637 111.064Z" fill="#CC5F5F"/>
<path opacity="0.3" d="M168.915 110.647L154.847 108.354L151.581 94.4559C151.83 94.3411 152.108 94.3027 152.379 94.3455C152.65 94.3883 152.902 94.5104 153.104 94.6965L168.568 109.102C168.778 109.292 168.924 109.543 168.986 109.819C169.049 110.096 169.024 110.385 168.915 110.647Z" fill="black"/>
<path d="M168.915 110.647L155.215 106.563L151.581 94.5039C151.83 94.3891 152.108 94.3507 152.379 94.3935C152.65 94.4363 152.902 94.5584 153.104 94.7445L168.568 109.15C168.768 109.336 168.908 109.578 168.97 109.845C169.032 110.112 169.013 110.391 168.915 110.647Z" fill="#CC5F5F"/>
<path opacity="0.2" d="M168.915 110.647L155.215 106.563L151.581 94.5039C151.83 94.3891 152.108 94.3507 152.379 94.3935C152.65 94.4363 152.902 94.5584 153.104 94.7445L168.568 109.15C168.768 109.336 168.908 109.578 168.97 109.845C169.032 110.112 169.013 110.391 168.915 110.647Z" fill="white"/>
<path d="M174.137 122.262L181.086 130.376C181.219 130.531 181.319 130.712 181.379 130.907C181.44 131.102 181.46 131.307 181.439 131.51C181.417 131.714 181.354 131.91 181.254 132.088C181.154 132.266 181.019 132.422 180.856 132.546L165.761 144.306C165.508 144.458 165.206 144.511 164.916 144.454C164.625 144.397 164.367 144.233 164.19 143.996L158.754 137.795C158.652 137.676 158.567 137.543 158.503 137.4C158.402 137.203 158.36 136.981 158.381 136.761C158.403 136.541 158.488 136.332 158.626 136.16L171.989 122.203C172.197 121.977 172.473 121.824 172.775 121.766C173.077 121.709 173.39 121.749 173.667 121.882C173.847 121.978 174.006 122.107 174.137 122.262Z" fill="#CC5F5F"/>
<path opacity="0.3" d="M173.667 121.899L170.348 136.662L158.524 137.416C158.423 137.219 158.381 136.998 158.403 136.778C158.425 136.558 158.51 136.349 158.647 136.176L172.01 122.219C172.217 121.998 172.489 121.848 172.787 121.79C173.084 121.733 173.393 121.771 173.667 121.899Z" fill="black"/>
<path d="M173.667 121.898L168.103 137.565L158.513 137.416C158.413 137.219 158.37 136.997 158.392 136.778C158.414 136.558 158.499 136.349 158.636 136.176L172 122.219C172.207 121.996 172.481 121.844 172.781 121.786C173.081 121.729 173.391 121.768 173.667 121.898Z" fill="#CC5F5F"/>
<path opacity="0.2" d="M173.667 121.898L168.103 137.565L158.513 137.416C158.413 137.219 158.37 136.997 158.392 136.778C158.414 136.558 158.499 136.349 158.636 136.176L172 122.219C172.207 121.996 172.481 121.844 172.781 121.786C173.081 121.729 173.391 121.768 173.667 121.898Z" fill="white"/>
</svg>
