<svg width="20" height="20" viewBox="0 0 20 20" fill="none" xmlns="http://www.w3.org/2000/svg">
<path d="M2.79489 5.05589C2.79489 3.80689 3.80689 2.79489 5.05589 2.79389H6.08489C6.68189 2.79389 7.25389 2.55689 7.67789 2.13689L8.39689 1.41689C9.27789 0.53089 10.7099 0.52689 11.5959 1.40789L11.5969 1.40889L11.6059 1.41689L12.3259 2.13689C12.7499 2.55789 13.3219 2.79389 13.9189 2.79389H14.9469C16.1959 2.79389 17.2089 3.80589 17.2089 5.05589V6.08289C17.2089 6.67989 17.4449 7.25289 17.8659 7.67689L18.5859 8.39689C19.4719 9.27789 19.4769 10.7099 18.5959 11.5959L18.5949 11.5969L18.5859 11.6059L17.8659 12.3259C17.4449 12.7489 17.2089 13.3209 17.2089 13.9179V14.9469C17.2089 16.1959 16.1969 17.2079 14.9479 17.2079H14.9469H13.9169C13.3199 17.2079 12.7469 17.4449 12.3239 17.8659L11.6039 18.5849C10.7239 19.4709 9.29289 19.4759 8.40689 18.5969C8.40589 18.5959 8.40489 18.5949 8.40389 18.5939L8.39489 18.5849L7.67589 17.8659C7.25289 17.4449 6.67989 17.2089 6.08289 17.2079H5.05589C3.80689 17.2079 2.79489 16.1959 2.79489 14.9469V13.9159C2.79489 13.3189 2.55789 12.7469 2.13689 12.3239L1.41789 11.6039C0.531886 10.7239 0.526886 9.29289 1.40689 8.40689C1.40689 8.40589 1.40789 8.40489 1.40889 8.40389L1.41789 8.39489L2.13689 7.67489C2.55789 7.25089 2.79489 6.67889 2.79489 6.08089V5.05589" stroke="#53545C" stroke-width="1.5" stroke-linecap="round" stroke-linejoin="round"/>
<path d="M7.43164 12.5716L12.5716 7.43164" stroke="#53545C" stroke-width="1.5" stroke-linecap="round" stroke-linejoin="round"/>
<path d="M12.4955 12.5H12.5045" stroke="#53545C" stroke-width="2" stroke-linecap="round" stroke-linejoin="round"/>
<path d="M7.4955 7.5H7.5045" stroke="#53545C" stroke-width="2" stroke-linecap="round" stroke-linejoin="round"/>
</svg>
