<svg width="24" height="25" viewBox="0 0 24 25" fill="none" xmlns="http://www.w3.org/2000/svg">
<path d="M14 2.68945H6C5.46957 2.68945 4.96086 2.90017 4.58579 3.27524C4.21071 3.65031 4 4.15902 4 4.68945V20.6895C4 21.2199 4.21071 21.7286 4.58579 22.1037C4.96086 22.4787 5.46957 22.6895 6 22.6895H18C18.5304 22.6895 19.0391 22.4787 19.4142 22.1037C19.7893 21.7286 20 21.2199 20 20.6895V8.68945L14 2.68945Z" stroke="#3B6BB3" stroke-width="2" stroke-linecap="round" stroke-linejoin="round"/>
<path d="M16 17.6895H8" stroke="#3B6BB3" stroke-width="2" stroke-linecap="round" stroke-linejoin="round"/>
<path d="M16 13.6895H8" stroke="#3B6BB3" stroke-width="2" stroke-linecap="round" stroke-linejoin="round"/>
<path d="M10 9.68945H9H8" stroke="#3B6BB3" stroke-width="2" stroke-linecap="round" stroke-linejoin="round"/>
<path d="M14 2.68945V8.68945H20" stroke="#3B6BB3" stroke-width="2" stroke-linecap="round" stroke-linejoin="round"/>
</svg>
