<svg width="19" height="19" viewBox="0 0 19 19" fill="none" xmlns="http://www.w3.org/2000/svg">
<path d="M8.73941 3.41992H3.41941C3.01628 3.41992 2.62967 3.58006 2.34461 3.86512C2.05956 4.15017 1.89941 4.53679 1.89941 4.93992V15.5799C1.89941 15.9831 2.05956 16.3697 2.34461 16.6547C2.62967 16.9398 3.01628 17.0999 3.41941 17.0999H14.0594C14.4625 17.0999 14.8492 16.9398 15.1342 16.6547C15.4193 16.3697 15.5794 15.9831 15.5794 15.5799V10.2599" stroke="#53545C" stroke-width="1.52" stroke-linecap="round" stroke-linejoin="round"/>
<path d="M14.44 2.28006C14.7423 1.97772 15.1524 1.80786 15.58 1.80786C16.0075 1.80786 16.4176 1.97772 16.72 2.28006C17.0223 2.58241 17.1922 2.99248 17.1922 3.42006C17.1922 3.84765 17.0223 4.25772 16.72 4.56006L9.49996 11.7801L6.45996 12.5401L7.21996 9.50006L14.44 2.28006Z" stroke="#53545C" stroke-width="1.52" stroke-linecap="round" stroke-linejoin="round"/>
</svg>
