<svg width="20" height="20" viewBox="0 0 20 20" fill="none" xmlns="http://www.w3.org/2000/svg">
<rect x="5.32812" y="6.66406" width="9.33272" height="7.99948" fill="#F2CF96"/>
<path d="M0 7.99731C0 7.26098 0.596915 6.66406 1.33325 6.66406H5.33299V14.6635H0V7.99731Z" fill="#EDD19A"/>
<rect y="14.6641" width="7.99948" height="5.33299" fill="#E2C58D"/>
<rect x="12" y="14.6641" width="7.99948" height="5.33299" fill="#E2C58D"/>
<rect x="5.32812" y="1.33594" width="9.33272" height="5.33299" fill="#E9D5A0"/>
<path d="M5.32812 1.33325C5.32812 0.596915 5.92504 0 6.66137 0H13.3276C14.0639 0 14.6608 0.596915 14.6608 1.33325H5.32812Z" fill="#F7ECD2"/>
<rect x="9.32812" y="2.66406" width="1.33325" height="1.33325" fill="#7EA594"/>
<rect x="8" y="4" width="3.99974" height="1.33325" fill="#A3C3B1"/>
<rect x="10.6719" y="2.66406" width="1.33325" height="1.33325" fill="#A6C5B5"/>
<rect x="8" y="2.66406" width="1.33325" height="1.33325" fill="#A6C5B5"/>
<rect x="8" y="1.33594" width="3.99974" height="1.33325" fill="#D0D1AF"/>
<path d="M14.6641 6.66406H18.6638C19.4001 6.66406 19.997 7.26098 19.997 7.99731V14.6635H14.6641V6.66406Z" fill="#EDD19A"/>
<rect x="8" y="14.6641" width="1.33325" height="5.33299" fill="#9B866D"/>
<rect x="10.6719" y="14.6641" width="1.33325" height="5.33299" fill="#9B866D"/>
<rect x="9.32812" y="14.6641" width="1.33325" height="5.33299" fill="#3F2A15"/>
</svg>
