<svg width="56" height="56" viewBox="0 0 56 56" fill="none" xmlns="http://www.w3.org/2000/svg">
    <path opacity="0.4"
        d="M38.1097 51.3334H17.8876C9.97926 51.3334 4.6665 45.7868 4.6665 37.5301V18.4724C4.6665 10.2157 9.97926 4.66675 17.8876 4.66675H38.1121C46.0204 4.66675 51.3332 10.2157 51.3332 18.4724V37.5301C51.3332 45.7868 46.0204 51.3334 38.1097 51.3334Z"
        fill="#5593F1" />
    <path fillRule="evenodd" clipRule="evenodd"
        d="M26.2382 20.2418C26.2382 23.4385 23.6366 26.0402 20.4399 26.0402C17.2409 26.0402 14.6416 23.4385 14.6416 20.2418C14.6416 17.0452 17.2409 14.4412 20.4399 14.4412C23.6366 14.4412 26.2382 17.0452 26.2382 20.2418ZM45.2675 32.8712C45.8112 33.3986 46.2008 34.0006 46.4575 34.6422C47.2345 36.5836 46.8308 38.9169 46.0002 40.8396C45.0155 43.1286 43.1302 44.8576 40.7548 45.6136C39.7002 45.9519 38.5942 46.0966 37.4905 46.0966H17.9348C15.9888 46.0966 14.2668 45.6439 12.8552 44.7946C11.9708 44.2626 11.8145 43.0376 12.4702 42.2396C13.5668 40.9096 14.6495 39.5749 15.7415 38.2286C17.8228 35.6526 19.2252 34.9059 20.7838 35.5616C21.4162 35.8322 22.0508 36.2406 22.7042 36.6699C24.4448 37.8226 26.8645 39.4046 30.0518 37.6872C32.2305 36.4959 33.4952 34.4574 34.596 32.683L34.6182 32.6472C34.6922 32.5285 34.7657 32.4098 34.8389 32.2915C35.2132 31.6866 35.5819 31.0909 35.9995 30.5426C36.5175 29.8636 38.4402 27.7402 40.9252 29.2522C42.5095 30.2042 43.8418 31.4922 45.2675 32.8712Z"
        fill="#5593F1" />
</svg>