<svg width="286" height="213" viewBox="0 0 286 213" fill="none" xmlns="http://www.w3.org/2000/svg">
<path d="M285.598 186.993H0.401855V187.136H285.598V186.993Z" fill="#E6E6E6"/>
<path d="M267.573 192.024H256.867V192.167H267.573V192.024Z" fill="#E6E6E6"/>
<path d="M218.154 195.938H213.198V196.08H218.154V195.938Z" fill="#E6E6E6"/>
<path d="M171.131 193.969H160.088V194.112H171.131V193.969Z" fill="#E6E6E6"/>
<path d="M71.1992 193.895H46.564V194.038H71.1992V193.895Z" fill="#E6E6E6"/>
<path d="M41.487 193.895H37.8765V194.038H41.487V193.895Z" fill="#E6E6E6"/>
<path d="M161.811 190.518H108.377V190.661H161.811V190.518Z" fill="#E6E6E6"/>
<path d="M135.585 161.554H25.448C24.5852 161.552 23.7583 161.208 23.1487 160.598C22.5391 159.987 22.1968 159.16 22.1968 158.297V3.47548C22.2043 2.61763 22.55 1.79738 23.1587 1.1929C23.7675 0.588426 24.5901 0.24854 25.448 0.24707H135.585C136.449 0.24707 137.277 0.590211 137.888 1.201C138.499 1.8118 138.842 2.64021 138.842 3.504V158.297C138.842 159.161 138.499 159.989 137.888 160.6C137.277 161.211 136.449 161.554 135.585 161.554ZM25.448 0.361149C24.623 0.36266 23.8323 0.691442 23.2495 1.27533C22.6667 1.85922 22.3394 2.6505 22.3394 3.47548V158.297C22.3394 159.122 22.6667 159.913 23.2495 160.497C23.8323 161.081 24.623 161.41 25.448 161.411H135.585C136.41 161.41 137.202 161.081 137.785 160.497C138.369 159.914 138.698 159.122 138.699 158.297V3.47548C138.698 2.64997 138.369 1.85871 137.785 1.27498C137.202 0.691257 136.41 0.362657 135.585 0.361149H25.448Z" fill="#E6E6E6"/>
<path d="M258.966 161.554H148.823C147.96 161.552 147.132 161.209 146.522 160.598C145.912 159.988 145.568 159.16 145.566 158.297V3.47548C145.575 2.61711 145.922 1.79687 146.532 1.19255C147.142 0.588226 147.965 0.248524 148.823 0.24707H258.966C259.823 0.250039 260.644 0.590588 261.252 1.19491C261.859 1.79922 262.204 2.61862 262.211 3.47548V158.297C262.211 159.159 261.87 159.985 261.262 160.596C260.653 161.206 259.828 161.551 258.966 161.554ZM148.823 0.361149C147.998 0.362657 147.207 0.691257 146.623 1.27498C146.039 1.85871 145.711 2.64997 145.709 3.47548V158.297C145.711 159.122 146.039 159.914 146.623 160.497C147.207 161.081 147.998 161.41 148.823 161.411H258.966C259.791 161.41 260.583 161.081 261.166 160.497C261.75 159.914 262.079 159.122 262.08 158.297V3.47548C262.079 2.64997 261.75 1.85871 261.166 1.27498C260.583 0.691257 259.791 0.362657 258.966 0.361149H148.823Z" fill="#E6E6E6"/>
<path d="M149.251 10.9019H33.8896V93.1124H149.251V10.9019Z" fill="#FAFAFA"/>
<path d="M151.385 10.9019H34.8882V93.1124H151.385V10.9019Z" fill="#F5F5F5"/>
<path d="M148.396 89.7533V14.2563L37.8765 14.2563V89.7533H148.396Z" fill="#FAFAFA"/>
<path d="M58 89.7533L75.5338 14.2563H98.5206L80.9868 89.7533H58Z" fill="white"/>
<path d="M84.7056 89.7533L102.245 14.2563H112.626L95.0867 89.7533H84.7056Z" fill="white"/>
<path d="M148.396 89.7533V14.2563H148.013V89.7533H148.396Z" fill="#FAFAFA"/>
<path d="M31.6475 10.7652V43.346H40.2661C40.2661 43.346 55.7294 33.2444 59.2715 12.465C59.3573 11.9673 59.3331 11.4569 59.2005 10.9696C59.0678 10.4824 58.83 10.0301 58.5038 9.64456C58.1776 9.25906 57.7708 8.94973 57.3122 8.73833C56.8536 8.52692 56.3542 8.41859 55.8492 8.42094H33.9918C33.37 8.42094 32.7737 8.66792 32.3341 9.10757C31.8945 9.54721 31.6475 10.1435 31.6475 10.7652Z" fill="#E0E0E0"/>
<path d="M31.6475 103.169V45.9756H40.2661C40.2661 45.9756 57.76 79.6572 59.7849 103.169H31.6475Z" fill="#E0E0E0"/>
<path d="M40.0158 43.3457H31.9619C31.4862 43.3457 31.1006 43.7313 31.1006 44.207V45.1139C31.1006 45.5896 31.4862 45.9752 31.9619 45.9752H40.0158C40.4915 45.9752 40.8771 45.5896 40.8771 45.1139V44.207C40.8771 43.7313 40.4915 43.3457 40.0158 43.3457Z" fill="#F5F5F5"/>
<path d="M153.837 10.7652V43.346H145.202C145.202 43.346 129.716 33.2443 126.196 12.465C126.111 11.9675 126.136 11.4574 126.269 10.9706C126.402 10.4837 126.64 10.0318 126.966 9.64657C127.292 9.26131 127.699 8.95199 128.157 8.74027C128.615 8.52855 129.114 8.41955 129.619 8.42091H151.499C152.119 8.42392 152.713 8.67206 153.151 9.11121C153.589 9.55036 153.836 10.1449 153.837 10.7652Z" fill="#E0E0E0"/>
<path d="M153.837 103.169V45.9756H145.201C145.201 45.9756 127.713 79.6572 125.683 103.169H153.837Z" fill="#E0E0E0"/>
<path d="M145.453 45.9697H153.507C153.983 45.9697 154.368 45.5841 154.368 45.1084V44.2015C154.368 43.7258 153.983 43.3402 153.507 43.3402H145.453C144.977 43.3402 144.592 43.7258 144.592 44.2015V45.1084C144.592 45.5841 144.977 45.9697 145.453 45.9697Z" fill="#F5F5F5"/>
<path d="M151.23 113.561H132.276V186.993H151.23V113.561Z" fill="#FAFAFA"/>
<path d="M146.171 186.993H151.23V178.512H140.866L146.171 186.993Z" fill="#F4F8FF"/>
<path d="M60.5498 113.561H41.5957V186.993H60.5498V113.561Z" fill="#E0E0E0"/>
<path d="M151.23 113.561H56.1348V184.073H151.23V113.561Z" fill="#FAFAFA"/>
<path d="M84.7056 101.092C84.7056 107.937 91.2993 113.561 99.3646 113.561H106.643C114.702 113.561 121.296 107.948 121.296 101.092H84.7056Z" fill="#EBEBEB"/>
<path d="M80.4849 85.4238H94.1743C94.1743 85.4238 91.7958 91.6981 91.7958 95.3943C91.7958 99.0904 102.211 113.561 87.3296 113.561C72.4481 113.561 82.8635 99.0847 82.8635 95.3943C82.8635 91.7038 80.4849 85.4238 80.4849 85.4238Z" fill="#E0E0E0"/>
<path d="M147.306 117.856H60.0591V135.635H147.306V117.856Z" fill="#EBEBEB"/>
<path d="M61.1941 186.993H56.1348V178.512H66.5045L61.1941 186.993Z" fill="#FAFAFA"/>
<path d="M101.002 126.743C101.002 127.273 101.159 127.791 101.454 128.232C101.748 128.673 102.167 129.017 102.657 129.22C103.147 129.423 103.686 129.476 104.206 129.372C104.726 129.269 105.204 129.013 105.578 128.638C105.953 128.264 106.209 127.786 106.312 127.266C106.416 126.746 106.362 126.207 106.16 125.717C105.957 125.227 105.613 124.808 105.172 124.514C104.731 124.219 104.213 124.062 103.683 124.062C102.972 124.062 102.29 124.344 101.787 124.847C101.284 125.35 101.002 126.032 101.002 126.743Z" fill="#FAFAFA"/>
<path d="M147.306 139.93H60.0591V157.709H147.306V139.93Z" fill="#EBEBEB"/>
<path d="M101.002 148.817C101.002 149.347 101.159 149.866 101.454 150.306C101.748 150.747 102.167 151.091 102.657 151.294C103.147 151.497 103.686 151.55 104.206 151.446C104.726 151.343 105.204 151.088 105.578 150.713C105.953 150.338 106.209 149.86 106.312 149.34C106.416 148.82 106.362 148.281 106.16 147.791C105.957 147.301 105.613 146.883 105.172 146.588C104.731 146.293 104.213 146.136 103.683 146.136C102.972 146.136 102.29 146.419 101.787 146.921C101.284 147.424 101.002 148.106 101.002 148.817Z" fill="#FAFAFA"/>
<path d="M147.306 161.999H60.0591V179.778H147.306V161.999Z" fill="#EBEBEB"/>
<path d="M103.683 173.572C105.163 173.572 106.364 172.372 106.364 170.891C106.364 169.411 105.163 168.21 103.683 168.21C102.202 168.21 101.002 169.411 101.002 170.891C101.002 172.372 102.202 173.572 103.683 173.572Z" fill="#FAFAFA"/>
<path d="M211.378 9.90967H169.038V40.0491H211.378V9.90967Z" fill="#E0E0E0"/>
<path d="M214.834 9.90967H171.445V40.0491H214.834V9.90967Z" fill="#F5F5F5"/>
<path d="M212.068 37.283V12.6763L174.211 12.6763V37.283H212.068Z" fill="white"/>
<path d="M205.406 30.1126V19.8398H180.874V30.1126H205.406Z" fill="#F5F5F5"/>
<path d="M245.727 24.9795H219.957V52.0046H245.727V24.9795Z" fill="#E0E0E0"/>
<path d="M249.195 24.9795H222.369V52.0046H249.195V24.9795Z" fill="#F5F5F5"/>
<path d="M246.429 49.2384V27.7461H225.136V49.2384H246.429Z" fill="white"/>
<path d="M231.798 38.4917C231.798 37.5427 232.175 36.6324 232.845 35.9608C233.516 35.2892 234.426 34.9112 235.375 34.9097H236.185C237.134 34.9112 238.043 35.2892 238.714 35.9608C239.384 36.6324 239.761 37.5427 239.761 38.4917C239.761 39.4402 239.384 40.3499 238.714 41.0206C238.043 41.6913 237.133 42.0681 236.185 42.0681H235.403C234.931 42.0718 234.463 41.9821 234.026 41.8041C233.589 41.626 233.191 41.3632 232.856 41.0307C232.521 40.6983 232.255 40.3027 232.073 39.867C231.892 39.4312 231.798 38.9638 231.798 38.4917Z" fill="#F5F5F5"/>
<path d="M285.598 61.1934H217.55H205.178V76.919H192.806V92.6447H180.435V108.37H168.063V124.096H155.691V139.816H143.319V155.542H130.947V171.267H118.576V186.993H130.947H285.598V61.1934Z" fill="#FAFAFA"/>
<path d="M187.821 171.268H117.303V175.985H187.821V171.268Z" fill="#EBEBEB"/>
<path d="M200.193 155.542H129.675V160.259H200.193V155.542Z" fill="#EBEBEB"/>
<path d="M212.565 139.816H142.047V144.534H212.565V139.816Z" fill="#EBEBEB"/>
<path d="M224.936 124.091H154.419V128.808H224.936V124.091Z" fill="#EBEBEB"/>
<path d="M237.308 108.371H166.791V113.088H237.308V108.371Z" fill="#EBEBEB"/>
<path d="M249.68 92.645H179.163V97.3621H249.68V92.645Z" fill="#EBEBEB"/>
<path d="M262.052 76.9194H191.534V81.6366H262.052V76.9194Z" fill="#EBEBEB"/>
<path d="M274.424 61.1934H203.906V65.9105H274.424V61.1934Z" fill="#EBEBEB"/>
<path d="M273.226 61.1934V76.919H260.854V92.6447H248.482V108.37H236.11V124.096H223.738V139.816H211.367V155.542H198.995V171.267H186.623V186.993H198.995H285.597V76.919V61.1934H273.226Z" fill="white"/>
<path d="M142.999 212.753C204.078 212.753 253.593 209.862 253.593 206.296C253.593 202.73 204.078 199.839 142.999 199.839C81.9205 199.839 32.4062 202.73 32.4062 206.296C32.4062 209.862 81.9205 212.753 142.999 212.753Z" fill="#F5F5F5"/>
<path d="M208.68 61.2789C209.478 63.954 213.597 68.962 213.922 72.6068C214.247 76.2516 207.225 82.081 207.225 82.081C207.225 82.081 201.978 64.5358 205.263 62.4881C208.549 60.4404 208.68 61.2789 208.68 61.2789Z" fill="#263238"/>
<path d="M194.261 80.233C193.017 81.2711 191.797 82.1438 190.525 83.0393C189.253 83.9348 187.941 84.7505 186.606 85.5148C185.267 86.3074 183.886 87.029 182.471 87.6766C181.752 88.0017 181.039 88.3211 180.298 88.6006C179.933 88.7489 179.562 88.8915 179.185 89.017L178.045 89.4163C177.069 89.689 176.049 89.7627 175.044 89.633C174.205 89.5348 173.373 89.3747 172.557 89.1539C171.036 88.733 169.548 88.2031 168.103 87.5682C165.298 86.3435 162.592 84.9038 160.009 83.2618L161.075 81.2768C162.422 81.8472 163.802 82.4176 165.171 82.9138C166.54 83.4101 167.92 83.9348 169.3 84.3626C170.646 84.8037 172.018 85.1618 173.407 85.435C174.045 85.5597 174.692 85.6378 175.341 85.6688C175.825 85.7063 176.312 85.6561 176.778 85.5205C178.08 85.0226 179.352 84.4513 180.588 83.8093C181.222 83.4785 181.849 83.142 182.465 82.7769C183.081 82.4119 183.709 82.0582 184.319 81.6818C185.545 80.9232 186.743 80.1189 187.929 79.2918C189.116 78.4648 190.297 77.5807 191.352 76.7422L194.261 80.233Z" fill="#E58A7B"/>
<path d="M197.272 74.1585C195.857 73.052 190.005 76.6739 188.231 78.1855L189.526 86.0169C189.526 86.0169 197.939 82.4919 198.441 80.0849C198.971 77.5695 198.327 75.0027 197.272 74.1585Z" fill="#5593F1"/>
<path opacity="0.2" d="M197.272 74.1585C195.857 73.052 190.005 76.6739 188.231 78.1855L189.526 86.0169C189.526 86.0169 197.939 82.4919 198.441 80.0849C198.971 77.5695 198.327 75.0027 197.272 74.1585Z" fill="black"/>
<path d="M216.957 97.8578L199.195 101.32C190.017 76.4681 192.014 75.6525 192.014 75.6525C193.304 74.9432 194.638 74.3146 196.006 73.7702L196.246 73.6789C197.387 73.2626 197.615 73.1998 199.132 72.7549C201.744 72.1332 204.18 71.6141 207.197 71.1863L207.768 71.1065C208.338 71.038 208.857 70.981 209.382 70.9296C209.736 70.8897 210.089 70.8669 210.426 70.8441L211.567 70.7813C213.517 70.6844 214.915 70.7129 214.915 70.7129C214.373 86.2332 215.251 90.688 216.957 97.8578Z" fill="#5593F1"/>
<path opacity="0.2" d="M216.957 97.8578L199.195 101.32C190.017 76.4681 192.014 75.6525 192.014 75.6525C193.304 74.9432 194.638 74.3146 196.006 73.7702L196.246 73.6789C197.387 73.2626 197.615 73.1998 199.132 72.7549C201.744 72.1332 204.18 71.6141 207.197 71.1863L207.768 71.1065C208.338 71.038 208.857 70.981 209.382 70.9296C209.736 70.8897 210.089 70.8669 210.426 70.8441L211.567 70.7813C213.517 70.6844 214.915 70.7129 214.915 70.7129C214.373 86.2332 215.251 90.688 216.957 97.8578Z" fill="black"/>
<path d="M203.045 63.0641C201.904 64.9521 206.039 65.8248 208.486 63.8912C210.442 62.3397 209.98 58.7576 208.304 57.9249C206.627 57.0921 203.045 63.0641 203.045 63.0641Z" fill="#5593F1"/>
<path opacity="0.4" d="M203.045 63.0641C201.904 64.9521 206.039 65.8248 208.486 63.8912C210.442 62.3397 209.98 58.7576 208.304 57.9249C206.627 57.0921 203.045 63.0641 203.045 63.0641Z" fill="black"/>
<path d="M220.333 200.723L215.89 201.054L214.264 190.826L218.708 190.496L220.333 200.723Z" fill="#E58A7B"/>
<path d="M251.762 186.428L247.992 188.801L241.278 180.838L245.049 178.46L251.762 186.428Z" fill="#E58A7B"/>
<path d="M214.264 190.826L215.165 196.507L219.546 195.771L218.713 190.501L214.264 190.826Z" fill="#CF6F64"/>
<path d="M245.054 178.465L241.278 180.838L244.062 184.135L247.918 181.859L245.054 178.465Z" fill="#CF6F64"/>
<path d="M199.468 101.32C199.468 101.32 199.406 136.582 202.286 149.86C205.286 163.675 214.11 195.104 214.11 195.104L220.51 194.277C220.51 194.277 215.508 162.529 213.375 148.8C211.053 133.838 212.479 98.7876 212.479 98.7876L199.468 101.32Z" fill="#5593F1"/>
<path opacity="0.7" d="M199.468 101.32C199.468 101.32 199.406 136.582 202.286 149.86C205.286 163.675 214.11 195.104 214.11 195.104L220.51 194.277C220.51 194.277 215.508 162.529 213.375 148.8C211.053 133.838 212.479 98.7876 212.479 98.7876L199.468 101.32Z" fill="black"/>
<path opacity="0.5" d="M212.08 114.417L208.942 111.291C209.062 124.838 209.821 131.529 212.427 138.818C212.017 131.112 211.983 121.997 212.08 114.417Z" fill="black"/>
<path d="M203.883 100.408C203.883 100.408 213.449 129.549 218.194 146.335C223.202 164.046 242.402 183.633 242.402 183.633L247.912 180.451C247.912 180.451 234.793 161.856 229.967 145.332C220.157 111.787 224.189 104.68 216.951 97.8579L203.883 100.408Z" fill="#5593F1"/>
<path opacity="0.7" d="M203.883 100.408C203.883 100.408 213.449 129.549 218.194 146.335C223.202 164.046 242.402 183.633 242.402 183.633L247.912 180.451C247.912 180.451 234.793 161.856 229.967 145.332C220.157 111.787 224.189 104.68 216.951 97.8579L203.883 100.408Z" fill="black"/>
<path d="M196.365 52.7744C198.909 53.6243 201.219 59.9385 201.316 62.4254C201.413 64.9123 193.947 68.3404 193.947 68.3404C193.947 68.3404 190.656 60.3549 191.574 55.2214C191.973 52.9912 196.365 52.7744 196.365 52.7744Z" fill="#263238"/>
<path d="M161.451 81.4876L158.434 78.2021L157.447 82.3204C157.447 82.3204 159.592 84.2141 161.326 83.5638L161.451 81.4876Z" fill="#E58A7B"/>
<path d="M155.377 77.2612L153.267 78.9382L157.448 82.3206L158.434 78.2024L155.377 77.2612Z" fill="#E58A7B"/>
<path d="M246.81 187.951L250.335 184.398C250.396 184.337 250.477 184.3 250.563 184.294C250.649 184.288 250.734 184.312 250.803 184.364L254.014 186.748C254.094 186.81 254.159 186.889 254.206 186.978C254.253 187.068 254.28 187.166 254.286 187.267C254.292 187.368 254.277 187.469 254.241 187.563C254.205 187.658 254.149 187.743 254.077 187.815C252.822 189.029 252.161 189.554 250.609 191.117C249.657 192.081 248.362 193.581 247.044 194.91C245.727 196.239 244.341 195.001 244.763 194.34C246.685 191.334 246.343 190.21 246.474 188.681C246.494 188.405 246.613 188.146 246.81 187.951Z" fill="#263238"/>
<path d="M215.593 200.414H220.601C220.689 200.414 220.775 200.445 220.843 200.501C220.91 200.557 220.956 200.635 220.972 200.722L221.759 204.681C221.777 204.778 221.773 204.878 221.747 204.974C221.722 205.069 221.676 205.158 221.612 205.234C221.548 205.31 221.469 205.37 221.379 205.412C221.289 205.453 221.191 205.474 221.092 205.473C219.341 205.445 218.497 205.342 216.295 205.342C214.943 205.342 212.148 205.479 210.277 205.479C208.406 205.479 208.207 203.631 208.977 203.466C212.399 202.713 213.74 201.68 214.863 200.688C215.067 200.514 215.325 200.417 215.593 200.414Z" fill="#263238"/>
<g style="mix-blend-mode:multiply" opacity="0.27">
<path d="M215.491 79.708L212.753 81.3393L215.913 93.2206C215.223 89.6214 215.531 85.6686 215.491 79.708Z" fill="#5593F1"/>
</g>
<path d="M199.93 61.1588C201.875 62.7844 204.699 65.1515 208.024 62.3851C210.876 60.0009 212.872 53.7437 207.756 53.5155C205.081 53.3958 199.93 61.1588 199.93 61.1588Z" fill="#263238"/>
<path d="M204.63 62.271C204.63 64.9632 205.047 69.8173 207.197 71.1976C207.197 71.1976 207.003 73.9697 202.178 74.9052C196.879 75.9376 199.132 72.7662 199.132 72.7662C201.892 71.5113 201.413 69.3781 200.501 67.4616L204.63 62.271Z" fill="#E58A7B"/>
<path d="M202.948 64.3877L200.506 67.4621C200.72 67.9064 200.896 68.3682 201.031 68.8424C202.103 68.466 203.387 66.9602 203.278 65.7795C203.255 65.2991 203.143 64.8272 202.948 64.3877Z" fill="#CF6F64"/>
<path d="M204.887 56.0883C205.457 60.4746 205.805 62.317 204.048 64.9693C201.407 68.9621 195.897 68.7054 194.021 64.5814C192.31 60.8682 191.671 54.3144 195.572 51.7762C196.43 51.2083 197.419 50.8693 198.445 50.7916C199.471 50.7139 200.5 50.9001 201.433 51.3323C202.367 51.7645 203.174 52.4284 203.779 53.2609C204.383 54.0934 204.765 55.0668 204.887 56.0883Z" fill="#E58A7B"/>
<path d="M197.267 48.4051C194.301 50.5099 200.25 51.1316 200.256 54.1832C200.256 55.4438 202.326 59.4422 205.269 59.214L208.121 54.149C211.121 49.3006 204.031 43.5967 197.267 48.4051Z" fill="#263238"/>
<path d="M197.267 48.4054C192.048 48.1316 189.772 52.2841 190.371 56.0145C194.012 55.1067 197.778 54.8079 201.516 55.1303C208.669 55.8604 197.267 48.4054 197.267 48.4054Z" fill="#263238"/>
<path d="M206.313 59.8698C206.386 60.7212 206.117 61.5665 205.566 62.2198C204.83 63.0811 203.855 62.5734 203.513 61.5524C203.222 60.6284 203.256 59.0712 204.248 58.5807C204.468 58.4793 204.709 58.4341 204.95 58.4491C205.191 58.4642 205.424 58.5391 205.629 58.667C205.834 58.7949 206.004 58.9719 206.123 59.1819C206.243 59.3918 206.308 59.6283 206.313 59.8698Z" fill="#E58A7B"/>
<path d="M198.55 58.5807C198.618 58.9343 198.487 59.2537 198.259 59.2994C198.031 59.345 197.785 59.094 197.717 58.729C197.648 58.3639 197.78 58.0502 198.008 58.0046C198.236 57.9589 198.481 58.227 198.55 58.5807Z" fill="#263238"/>
<path d="M194.563 59.3561C194.631 59.7097 194.5 60.0348 194.272 60.0804C194.044 60.1261 193.799 59.8751 193.73 59.5101C193.662 59.145 193.793 58.8313 194.021 58.7914C194.249 58.7514 194.494 58.9967 194.563 59.3561Z" fill="#263238"/>
<path d="M194.13 58.7973L193.234 58.7231C193.234 58.7231 193.799 59.2992 194.13 58.7973Z" fill="#263238"/>
<path d="M195.738 59.7617C195.578 60.6258 195.301 61.4643 194.917 62.2543C195.121 62.3497 195.344 62.3991 195.57 62.3991C195.795 62.3991 196.018 62.3497 196.223 62.2543L195.738 59.7617Z" fill="#DF5753"/>
<path d="M197.712 63.3953C197.687 63.3956 197.663 63.3872 197.645 63.3715C197.626 63.3558 197.613 63.3339 197.609 63.3097C197.607 63.2962 197.607 63.2824 197.61 63.269C197.613 63.2556 197.619 63.2429 197.627 63.2318C197.635 63.2206 197.645 63.2112 197.656 63.204C197.668 63.1968 197.681 63.192 197.695 63.19C198.135 63.1132 198.552 62.9339 198.911 62.6663C199.27 62.3988 199.56 62.0506 199.759 61.6499C199.765 61.6372 199.772 61.6256 199.782 61.6158C199.792 61.6061 199.803 61.5983 199.816 61.593C199.829 61.5877 199.842 61.585 199.856 61.585C199.87 61.5849 199.884 61.5876 199.896 61.5929C199.909 61.5981 199.921 61.6058 199.93 61.6155C199.94 61.6252 199.948 61.6368 199.953 61.6495C199.959 61.6622 199.961 61.6758 199.961 61.6896C199.961 61.7034 199.959 61.717 199.953 61.7298C199.745 62.1652 199.434 62.5439 199.048 62.8338C198.661 63.1237 198.211 63.3163 197.735 63.3953H197.712Z" fill="#263238"/>
<path d="M199.468 57.0641C199.416 57.0647 199.366 57.0465 199.326 57.0128C199.134 56.8304 198.901 56.696 198.648 56.6207C198.394 56.5453 198.126 56.5311 197.866 56.5793C197.808 56.5937 197.747 56.5846 197.696 56.5541C197.646 56.5236 197.609 56.4742 197.595 56.4167C197.58 56.3592 197.589 56.2984 197.62 56.2476C197.65 56.1968 197.7 56.1602 197.757 56.1458C198.086 56.0811 198.426 56.0954 198.748 56.1876C199.07 56.2798 199.366 56.4473 199.611 56.6762C199.65 56.7157 199.672 56.769 199.672 56.8246C199.672 56.8801 199.65 56.9334 199.611 56.9729C199.595 56.9973 199.574 57.0181 199.549 57.0339C199.525 57.0496 199.497 57.0599 199.468 57.0641Z" fill="#263238"/>
<path d="M192.355 57.8571C192.329 57.863 192.301 57.863 192.275 57.8571C192.249 57.8465 192.225 57.8308 192.205 57.8109C192.186 57.7911 192.17 57.7674 192.159 57.7414C192.149 57.7153 192.143 57.6874 192.144 57.6593C192.144 57.6312 192.15 57.6034 192.161 57.5776C192.282 57.2657 192.477 56.9874 192.728 56.766C192.979 56.5447 193.279 56.3868 193.604 56.3056C193.631 56.2999 193.66 56.2998 193.687 56.3054C193.715 56.311 193.741 56.3222 193.764 56.3382C193.787 56.3542 193.806 56.3748 193.821 56.3986C193.836 56.4224 193.845 56.449 193.849 56.4768C193.855 56.5038 193.855 56.5317 193.85 56.5588C193.845 56.5859 193.834 56.6117 193.819 56.6346C193.803 56.6575 193.783 56.677 193.76 56.692C193.737 56.7071 193.711 56.7173 193.684 56.722C193.428 56.7919 193.191 56.9206 192.993 57.0978C192.795 57.275 192.641 57.4959 192.543 57.743C192.525 57.7771 192.498 57.8057 192.465 57.8257C192.432 57.8458 192.394 57.8566 192.355 57.8571Z" fill="#263238"/>
<path d="M245.487 190.022C245.39 190.019 245.294 189.993 245.208 189.946C245.123 189.898 245.05 189.83 244.997 189.748C244.956 189.7 244.929 189.642 244.918 189.58C244.907 189.518 244.913 189.454 244.934 189.395C245.134 188.858 246.708 188.516 246.885 188.476C246.905 188.473 246.927 188.475 246.946 188.483C246.965 188.491 246.981 188.505 246.993 188.522C247.005 188.538 247.012 188.558 247.012 188.579C247.012 188.599 247.005 188.619 246.993 188.636C246.685 189.144 246.081 189.993 245.516 190.022H245.487ZM246.679 188.739C246.058 188.898 245.236 189.184 245.134 189.469C245.124 189.495 245.122 189.524 245.128 189.551C245.134 189.578 245.148 189.603 245.168 189.623C245.203 189.682 245.254 189.73 245.314 189.763C245.374 189.796 245.442 189.813 245.51 189.811C245.813 189.794 246.24 189.4 246.679 188.739Z" fill="#5593F1"/>
<path d="M246.423 188.738C245.852 188.738 245.139 188.596 244.928 188.288C244.881 188.218 244.86 188.134 244.867 188.05C244.874 187.966 244.91 187.887 244.968 187.826C245.018 187.762 245.081 187.71 245.153 187.672C245.225 187.635 245.304 187.613 245.385 187.609H245.43C246.069 187.609 246.947 188.47 246.982 188.504C246.995 188.517 247.005 188.534 247.01 188.552C247.015 188.57 247.015 188.589 247.01 188.607C247.005 188.625 246.996 188.641 246.983 188.654C246.97 188.667 246.954 188.676 246.936 188.681C246.768 188.722 246.596 188.741 246.423 188.738ZM245.43 187.82H245.396C245.345 187.822 245.295 187.835 245.249 187.859C245.204 187.882 245.164 187.916 245.134 187.957C245.054 188.065 245.077 188.128 245.105 188.168C245.276 188.43 246.149 188.579 246.685 188.516C246.343 188.167 245.907 187.925 245.43 187.82Z" fill="#5593F1"/>
<path d="M213.956 201.196C213.572 201.23 213.188 201.133 212.866 200.922C212.79 200.863 212.73 200.785 212.692 200.696C212.654 200.607 212.64 200.51 212.649 200.414C212.649 200.357 212.664 200.301 212.692 200.251C212.72 200.201 212.76 200.159 212.809 200.129C213.334 199.821 215.171 200.734 215.376 200.836C215.395 200.847 215.411 200.862 215.421 200.882C215.431 200.901 215.435 200.923 215.433 200.945C215.43 200.966 215.421 200.986 215.407 201.003C215.393 201.019 215.374 201.031 215.353 201.036C214.893 201.132 214.425 201.186 213.956 201.196ZM213.111 200.272C213.044 200.267 212.977 200.281 212.918 200.312C212.898 200.322 212.882 200.338 212.872 200.357C212.862 200.376 212.858 200.398 212.86 200.42C212.855 200.484 212.865 200.549 212.89 200.609C212.914 200.668 212.953 200.721 213.003 200.762C213.288 201.008 214.024 201.047 214.994 200.888C214.405 200.579 213.769 200.371 213.111 200.272Z" fill="#5593F1"/>
<path d="M215.33 201.025H215.29C214.72 200.779 213.619 199.81 213.699 199.313C213.699 199.199 213.802 199.051 214.087 199.022H214.172C215.165 199.022 215.422 200.836 215.433 200.916C215.435 200.935 215.433 200.955 215.426 200.973C215.419 200.991 215.408 201.006 215.393 201.019C215.373 201.027 215.351 201.029 215.33 201.025ZM214.189 199.222H214.127C213.944 199.222 213.933 199.308 213.933 199.33C213.887 199.633 214.64 200.391 215.21 200.728C215.096 200.283 214.805 199.234 214.167 199.234L214.189 199.222Z" fill="#5593F1"/>
<path d="M198.116 58.0217L197.221 57.9419C197.221 57.9419 197.785 58.5237 198.116 58.0217Z" fill="#263238"/>
<path d="M202.034 78.6984C192.492 80.826 195.441 75.0536 196.011 73.7817L196.251 73.6904C197.391 73.274 197.62 73.2113 199.137 72.7664C201.784 72.0517 204.48 71.5275 207.202 71.1978L207.773 71.1179C208.343 71.0438 208.862 70.9867 209.387 70.9411C209.74 70.9012 210.094 70.8784 210.431 70.8556L211.571 70.7871C211.765 71.6769 212.239 76.434 202.034 78.6984Z" fill="#E58A7B"/>
<path d="M217.014 96.7627L218.126 98.2001C218.211 98.3085 218.092 98.4625 217.886 98.5024L199.257 102.13C199.098 102.164 198.949 102.13 198.921 102.01L198.447 100.453C198.447 100.345 198.539 100.225 198.71 100.191L216.7 96.6886C216.754 96.6726 216.811 96.671 216.866 96.684C216.922 96.697 216.972 96.7241 217.014 96.7627Z" fill="#26395A"/>
<path d="M214.989 99.2442L215.474 99.1529C215.571 99.1529 215.633 99.0731 215.616 99.0103L214.989 96.9912C214.989 96.9284 214.875 96.8999 214.778 96.917L214.299 97.0083C214.202 97.0083 214.139 97.0938 214.156 97.1509L214.784 99.1758C214.801 99.2328 214.898 99.267 214.989 99.2442Z" fill="#5593F1"/>
<path d="M204.077 105.975L200.364 104.594L200.934 108.125C200.934 108.125 203.626 109.095 205.001 107.851L204.077 105.975Z" fill="#E58A7B"/>
<path d="M196.827 105.53L195.943 107.845L200.934 108.125L200.363 104.594L196.827 105.53Z" fill="#E58A7B"/>
<path d="M200.643 102.039L201.128 101.947C201.219 101.947 201.288 101.868 201.265 101.805L200.637 99.7856C200.637 99.7228 200.529 99.6943 200.432 99.7114L199.947 99.8027C199.85 99.8027 199.788 99.8882 199.81 99.9453L200.438 101.97C200.455 102.027 200.546 102.061 200.643 102.039Z" fill="#5593F1"/>
<path d="M207.819 100.636L208.298 100.545C208.395 100.545 208.458 100.465 208.441 100.402L207.813 98.3828C207.813 98.32 207.699 98.2915 207.602 98.3086L207.123 98.3999C207.026 98.3999 206.963 98.4854 206.98 98.5425L207.608 100.567C207.631 100.6 207.664 100.625 207.702 100.637C207.74 100.65 207.781 100.649 207.819 100.636Z" fill="#5593F1"/>
<path d="M205.789 68.9335C206.194 68.7795 206.701 70.2055 206.576 70.388C206.285 70.8044 200.957 72.2589 200.718 71.4432C200.703 71.0011 200.771 70.56 200.917 70.1427C201.071 69.8689 202.252 70.3709 205.789 68.9335Z" fill="#5593F1"/>
<path d="M204.888 68.9677C205.093 68.4942 205.68 67.7356 206.194 68.1691C206.707 68.6026 206.924 69.538 206.587 69.6921C206.251 69.8461 204.534 69.7605 204.888 68.9677Z" fill="#5593F1"/>
<path d="M205.977 69.213C206.33 68.8366 207.118 68.3175 207.477 68.8993C207.836 69.4811 207.705 70.4337 207.34 70.4622C206.975 70.4907 205.378 69.8347 205.977 69.213Z" fill="#5593F1"/>
<path d="M206.171 69.1276C206.142 68.8243 206.201 68.5192 206.342 68.249C206.483 67.9788 206.699 67.7551 206.963 67.6046C207.614 67.1826 208.247 66.9088 208.498 66.4639C208.606 66.881 208.627 67.3158 208.561 67.7415C208.429 68.3519 206.404 68.8196 206.541 69.35L206.171 69.1276Z" fill="#5593F1"/>
<path d="M206.085 69.0992C205.896 68.8598 205.78 68.5709 205.752 68.2672C205.724 67.9636 205.784 67.6582 205.925 67.388C206.233 66.6807 206.621 66.1103 206.598 65.6084C206.915 65.9002 207.169 66.2534 207.345 66.6465C207.562 67.2169 206.119 68.717 206.524 69.0935L206.085 69.0992Z" fill="#5593F1"/>
<path d="M245.755 180.525C245.744 180.525 245.732 180.522 245.722 180.516C245.712 180.51 245.704 180.501 245.698 180.491C245.567 180.309 232.528 161.702 227.748 145.355C224.628 134.869 222.231 124.181 220.572 113.367C219.586 107.276 218.987 103.597 217.025 100.579C217.011 100.565 217.004 100.547 217.004 100.528C217.004 100.509 217.011 100.49 217.025 100.477C217.038 100.465 217.055 100.458 217.073 100.458C217.091 100.458 217.108 100.465 217.122 100.477C219.106 103.522 219.705 107.213 220.692 113.322C222.359 124.12 224.76 134.792 227.879 145.264C232.653 161.588 245.681 180.172 245.812 180.36C245.823 180.374 245.829 180.391 245.829 180.408C245.829 180.426 245.823 180.443 245.812 180.457C245.811 180.473 245.805 180.488 245.795 180.501C245.785 180.513 245.771 180.522 245.755 180.525Z" fill="#5593F1"/>
<path opacity="0.4" d="M245.755 180.525C245.744 180.525 245.732 180.522 245.722 180.516C245.712 180.51 245.704 180.501 245.698 180.491C245.567 180.309 232.528 161.702 227.748 145.355C224.628 134.869 222.231 124.181 220.572 113.367C219.586 107.276 218.987 103.597 217.025 100.579C217.011 100.565 217.004 100.547 217.004 100.528C217.004 100.509 217.011 100.49 217.025 100.477C217.038 100.465 217.055 100.458 217.073 100.458C217.091 100.458 217.108 100.465 217.122 100.477C219.106 103.522 219.705 107.213 220.692 113.322C222.359 124.12 224.76 134.792 227.879 145.264C232.653 161.588 245.681 180.172 245.812 180.36C245.823 180.374 245.829 180.391 245.829 180.408C245.829 180.426 245.823 180.443 245.812 180.457C245.811 180.473 245.805 180.488 245.795 180.501C245.785 180.513 245.771 180.522 245.755 180.525Z" fill="black"/>
<path d="M221.656 194.254L212.941 195.383L212.37 192.953L221.445 191.031L221.656 194.254Z" fill="#5593F1"/>
<path d="M248.374 180.257L241.945 183.97L239.778 182.116L246.811 177.359L248.374 180.257Z" fill="#5593F1"/>
<path d="M218.205 76.7534C218.513 78.3391 218.69 79.8335 218.861 81.3793C219.032 82.9251 219.095 84.4537 219.14 85.9995C219.186 87.5574 219.152 89.1166 219.038 90.671C218.975 91.4524 218.907 92.2338 218.798 93.021C218.753 93.4088 218.701 93.8024 218.627 94.196L218.416 95.4052C218.182 96.3909 217.754 97.3198 217.156 98.1374C216.665 98.8253 216.123 99.4754 215.536 100.082C214.435 101.213 213.253 102.262 211.999 103.22C209.574 105.087 207.007 106.763 204.322 108.233L203.101 106.34C204.242 105.433 205.383 104.497 206.523 103.545C207.664 102.592 208.748 101.628 209.792 100.624C210.823 99.658 211.797 98.6314 212.706 97.5499C213.124 97.0494 213.506 96.5195 213.847 95.9642C214.117 95.5596 214.31 95.1092 214.418 94.6352C214.603 93.2505 214.712 91.8566 214.743 90.4599C214.743 89.7469 214.743 89.0339 214.743 88.321C214.743 87.608 214.714 86.8836 214.68 86.1649C214.612 84.7275 214.48 83.3129 214.326 81.8527C214.172 80.3925 213.973 78.9494 213.756 77.5976L218.205 76.7534Z" fill="#E58A7B"/>
<path d="M217.516 71.9054C219.951 73.8789 219.369 79.7425 219.369 79.7425L211.156 82.4462C211.156 82.4462 211.532 75.6871 211.943 73.2572C212.422 70.3653 215.114 69.9603 217.516 71.9054Z" fill="#5593F1"/>
<path opacity="0.2" d="M217.516 71.9054C219.951 73.8789 219.369 79.7425 219.369 79.7425L211.156 82.4462C211.156 82.4462 211.532 75.6871 211.943 73.2572C212.422 70.3653 215.114 69.9603 217.516 71.9054Z" fill="black"/>
<path d="M109.01 96.3757C108.691 94.9927 107.913 93.7586 106.803 92.8749C105.692 91.9912 104.315 91.5101 102.895 91.5103H57.2641C55.6 91.5103 54.0041 92.1713 52.8274 93.348C51.6508 94.5246 50.9897 96.1205 50.9897 97.7846V199.212C50.9897 200.876 51.6508 202.471 52.8274 203.648C54.0041 204.825 55.6 205.486 57.2641 205.486H202.143C203.807 205.486 205.403 204.825 206.58 203.648C207.757 202.471 208.418 200.876 208.418 199.212V114.012C208.418 112.348 207.757 110.752 206.58 109.576C205.403 108.399 203.807 107.738 202.143 107.738H123.287C119.973 107.738 116.756 106.615 114.163 104.551C111.57 102.488 109.753 99.6054 109.01 96.3757Z" fill="#5593F1"/>
<path opacity="0.6" d="M109.01 96.3757C108.691 94.9927 107.913 93.7586 106.803 92.8749C105.692 91.9912 104.315 91.5101 102.895 91.5103H57.2641C55.6 91.5103 54.0041 92.1713 52.8274 93.348C51.6508 94.5246 50.9897 96.1205 50.9897 97.7846V199.212C50.9897 200.876 51.6508 202.471 52.8274 203.648C54.0041 204.825 55.6 205.486 57.2641 205.486H202.143C203.807 205.486 205.403 204.825 206.58 203.648C207.757 202.471 208.418 200.876 208.418 199.212V114.012C208.418 112.348 207.757 110.752 206.58 109.576C205.403 108.399 203.807 107.738 202.143 107.738H123.287C119.973 107.738 116.756 106.615 114.163 104.551C111.57 102.488 109.753 99.6054 109.01 96.3757Z" fill="black"/>
<path opacity="0.22" d="M92.9028 64.7871L96.9697 77.9574C97.4889 79.6337 98.6521 81.0353 100.204 81.8545C101.756 82.6737 103.569 82.8435 105.246 82.3266L118.411 78.2598L92.9028 64.7871Z" fill="#5593F1"/>
<path d="M92.9025 64.7871L45.8452 79.3264C45.0145 79.5816 44.2423 79.9981 43.5727 80.552C42.9031 81.1059 42.3493 81.7865 41.943 82.5546C41.5366 83.3228 41.2857 84.1636 41.2046 85.0288C41.1235 85.894 41.2138 86.7668 41.4703 87.5971L68.3358 174.57C68.5922 175.401 69.0097 176.172 69.5644 176.841C70.1191 177.511 70.8003 178.064 71.5688 178.469C72.3374 178.875 73.1784 179.126 74.0437 179.206C74.9091 179.287 75.7818 179.196 76.6121 178.94L136.84 160.333C137.67 160.078 138.442 159.661 139.111 159.106C139.78 158.552 140.333 157.872 140.738 157.104C141.144 156.335 141.395 155.495 141.475 154.63C141.556 153.765 141.466 152.893 141.209 152.063L118.393 78.2598L92.9025 64.7871Z" fill="#5593F1"/>
<path opacity="0.8" d="M92.9025 64.7871L45.8452 79.3264C45.0145 79.5816 44.2423 79.9981 43.5727 80.552C42.9031 81.1059 42.3493 81.7865 41.943 82.5546C41.5366 83.3228 41.2857 84.1636 41.2046 85.0288C41.1235 85.894 41.2138 86.7668 41.4703 87.5971L68.3358 174.57C68.5922 175.401 69.0097 176.172 69.5644 176.841C70.1191 177.511 70.8003 178.064 71.5688 178.469C72.3374 178.875 73.1784 179.126 74.0437 179.206C74.9091 179.287 75.7818 179.196 76.6121 178.94L136.84 160.333C137.67 160.078 138.442 159.661 139.111 159.106C139.78 158.552 140.333 157.872 140.738 157.104C141.144 156.335 141.395 155.495 141.475 154.63C141.556 153.765 141.466 152.893 141.209 152.063L118.393 78.2598L92.9025 64.7871Z" fill="white"/>
<g opacity="0.28">
<path d="M118.222 156.535L79.0705 168.627C78.3383 168.852 77.5469 168.778 76.8692 168.421C76.1916 168.064 75.6828 167.453 75.4542 166.722C75.2313 165.99 75.3071 165.199 75.6652 164.523C76.0232 163.846 76.6343 163.339 77.365 163.111L116.517 151.013C117.25 150.789 118.042 150.864 118.72 151.222C119.397 151.58 119.906 152.192 120.133 152.924C120.356 153.656 120.28 154.447 119.922 155.124C119.564 155.8 118.953 156.307 118.222 156.535Z" fill="#5593F1"/>
</g>
<g opacity="0.28">
<path d="M76.0874 85.567L55.3822 91.9611C54.65 92.1844 53.8593 92.1096 53.182 91.7528C52.5048 91.396 51.9958 90.7862 51.7659 90.056C51.5429 89.3231 51.6185 88.5317 51.9765 87.8543C52.3344 87.1769 52.9455 86.6684 53.6768 86.4397L74.382 80.0456C75.1141 79.8192 75.9063 79.8926 76.5843 80.2498C77.2624 80.6071 77.7709 81.2188 77.9982 81.9507C78.2213 82.6837 78.1456 83.4751 77.7877 84.1525C77.4298 84.8299 76.8186 85.3383 76.0874 85.567Z" fill="#5593F1"/>
</g>
<g opacity="0.28">
<path d="M92.9819 92.3483L58.7584 102.918C58.0278 103.137 57.24 103.06 56.5662 102.702C55.8924 102.344 55.3868 101.735 55.1593 101.007C54.9345 100.275 55.0089 99.4848 55.3659 98.808C55.723 98.1313 56.3338 97.6236 57.0644 97.3963L91.2878 86.8269C92.02 86.602 92.8115 86.6762 93.4891 87.0332C94.1668 87.3902 94.6755 88.001 94.9041 88.732C95.1252 89.4665 95.0472 90.2585 94.6872 90.9358C94.3272 91.613 93.7143 92.1207 92.9819 92.3483Z" fill="#5593F1"/>
</g>
<g opacity="0.28">
<path d="M112.091 98.4463L62.1475 113.847C61.4161 114.072 60.6254 113.997 59.9487 113.64C59.2719 113.283 58.7643 112.672 58.5369 111.942C58.3136 111.21 58.3885 110.419 58.7453 109.742C59.1021 109.064 59.7119 108.555 60.4421 108.326L110.386 92.9249C111.117 92.7018 111.907 92.7768 112.583 93.1337C113.26 93.4906 113.767 94.1003 113.996 94.8301C114.221 95.5622 114.147 96.3537 113.79 97.0313C113.433 97.709 112.822 98.2177 112.091 98.4463Z" fill="#5593F1"/>
</g>
<g opacity="0.28">
<path d="M115.473 109.398L86.4398 118.37C85.7076 118.593 84.917 118.517 84.2405 118.159C83.5641 117.801 83.0567 117.19 82.8292 116.459C82.6061 115.728 82.6811 114.938 83.038 114.261C83.3949 113.585 84.0046 113.077 84.7344 112.849L113.767 103.876C114.5 103.655 115.291 103.731 115.968 104.089C116.645 104.447 117.154 105.057 117.384 105.787C117.606 106.519 117.531 107.31 117.173 107.986C116.815 108.663 116.204 109.17 115.473 109.398Z" fill="#5593F1"/>
</g>
<g opacity="0.28">
<path d="M73.1274 122.483L65.5355 124.827C64.8033 125.052 64.0119 124.978 63.3342 124.621C62.6565 124.264 62.1478 123.653 61.9192 122.922C61.6946 122.189 61.7695 121.397 62.1277 120.719C62.4858 120.041 63.0979 119.533 63.83 119.306L71.4219 116.961C72.1541 116.738 72.9449 116.813 73.6221 117.17C74.2994 117.526 74.8083 118.136 75.0382 118.866C75.2597 119.599 75.1833 120.39 74.8256 121.067C74.4679 121.744 73.8577 122.253 73.1274 122.483Z" fill="#5593F1"/>
</g>
<g opacity="0.28">
<path d="M118.862 120.355L68.9183 135.784C68.1861 136.007 67.3955 135.931 66.719 135.573C66.0425 135.215 65.5352 134.604 65.3077 133.873C65.083 133.141 65.1573 132.351 65.5144 131.674C65.8715 130.997 66.4822 130.49 67.2128 130.262L117.156 114.833C117.888 114.61 118.678 114.685 119.354 115.042C120.03 115.399 120.538 116.009 120.767 116.738C120.992 117.47 120.918 118.262 120.561 118.94C120.204 119.617 119.593 120.126 118.862 120.355Z" fill="#5593F1"/>
</g>
<g opacity="0.28">
<path d="M102.97 137.261L72.2999 146.736C71.5684 146.959 70.7785 146.884 70.1021 146.527C69.4258 146.17 68.9179 145.56 68.6893 144.831C68.466 144.098 68.5408 143.308 68.8976 142.63C69.2544 141.953 69.8642 141.444 70.5944 141.214L101.264 131.74C101.997 131.517 102.789 131.593 103.466 131.951C104.143 132.309 104.652 132.92 104.881 133.651C105.105 134.383 105.03 135.174 104.672 135.851C104.314 136.528 103.701 137.035 102.97 137.261Z" fill="#5593F1"/>
</g>
<g opacity="0.28">
<path d="M122.244 131.312L114.059 133.839C113.326 134.062 112.534 133.986 111.857 133.628C111.18 133.27 110.671 132.659 110.443 131.928C110.22 131.196 110.295 130.405 110.653 129.729C111.011 129.052 111.623 128.545 112.353 128.317L120.538 125.791C121.27 125.566 122.061 125.64 122.737 125.997C123.414 126.354 123.922 126.965 124.149 127.696C124.374 128.428 124.3 129.219 123.943 129.897C123.586 130.575 122.975 131.083 122.244 131.312Z" fill="#5593F1"/>
</g>
<g opacity="0.28">
<path d="M125.627 142.275L75.6945 157.676C74.9615 157.901 74.1695 157.826 73.4917 157.468C72.8139 157.109 72.3056 156.497 72.0782 155.765C71.8537 155.033 71.9288 154.242 72.287 153.565C72.6453 152.888 73.2573 152.381 73.989 152.155L123.927 136.725C124.66 136.504 125.45 136.58 126.127 136.938C126.804 137.296 127.313 137.906 127.543 138.636C127.658 139.001 127.699 139.385 127.664 139.766C127.63 140.146 127.521 140.517 127.342 140.855C127.164 141.193 126.921 141.493 126.626 141.737C126.332 141.98 125.992 142.164 125.627 142.275Z" fill="#5593F1"/>
</g>
<path d="M126.699 32.0814L141.632 65.358C142.019 66.2266 142.047 67.2134 141.71 68.1027C141.372 68.992 140.696 69.7114 139.829 70.1036L76.4816 98.5377C75.6131 98.9269 74.6257 98.9557 73.736 98.6178C72.8463 98.2799 72.127 97.6028 71.7359 96.7352L56.7974 63.4586C56.4063 62.5895 56.3766 61.6007 56.7146 60.7096C57.0526 59.8186 57.7307 59.0983 58.5998 58.7072L121.947 30.2732C122.818 29.8857 123.806 29.8583 124.696 30.1971C125.586 30.5359 126.306 31.2134 126.699 32.0814Z" fill="#5593F1"/>
<path opacity="0.3" d="M126.699 32.0814L141.632 65.358C142.019 66.2266 142.047 67.2134 141.71 68.1027C141.372 68.992 140.696 69.7114 139.829 70.1036L76.4816 98.5377C75.6131 98.9269 74.6257 98.9557 73.736 98.6178C72.8463 98.2799 72.127 97.6028 71.7359 96.7352L56.7974 63.4586C56.4063 62.5895 56.3766 61.6007 56.7146 60.7096C57.0526 59.8186 57.7307 59.0983 58.5998 58.7072L121.947 30.2732C122.818 29.8857 123.806 29.8583 124.696 30.1971C125.586 30.5359 126.306 31.2134 126.699 32.0814Z" fill="black"/>
<path d="M116.714 30.4366L114.69 31.3447L114.923 31.8652L116.948 30.957L116.714 30.4366Z" fill="#5593F1"/>
<path d="M111.855 32.614L105.542 35.4458L105.775 35.9662L112.088 33.1344L111.855 32.614Z" fill="#5593F1"/>
<path d="M56.7406 66.8118L56.2202 67.0454L57.9491 70.896L58.4695 70.6623L56.7406 66.8118Z" fill="#5593F1"/>
<path opacity="0.6" d="M124.577 30.1532L108.241 62.1522C106.725 65.1181 104.242 67.4779 101.203 68.8418C98.1647 70.2056 94.7515 70.4917 91.528 69.6528L56.7627 60.5893C57.1193 59.7552 57.7742 59.084 58.5994 58.707L121.947 30.273C122.777 29.9019 123.716 29.8591 124.577 30.1532Z" fill="#5593F1"/>
<path d="M147.033 71.1069L97.8763 74.1414C97.0079 74.193 96.1582 74.4154 95.3758 74.7958C94.5934 75.1762 93.8937 75.7071 93.3167 76.3583C92.7398 77.0094 92.2969 77.7679 92.0134 78.5904C91.73 79.4129 91.6115 80.2832 91.6648 81.1515L97.2717 172.003C97.324 172.872 97.5473 173.723 97.9287 174.505C98.3101 175.288 98.8422 175.987 99.4945 176.564C100.147 177.14 100.906 177.582 101.73 177.865C102.553 178.147 103.424 178.264 104.293 178.209L167.207 174.325C168.075 174.273 168.923 174.05 169.705 173.669C170.486 173.288 171.184 172.757 171.759 172.105C172.335 171.454 172.776 170.696 173.058 169.874C173.34 169.052 173.457 168.182 173.402 167.315L168.668 90.215L147.033 71.1069Z" fill="#5593F1"/>
<path opacity="0.8" d="M147.033 71.1069L97.8763 74.1414C97.0079 74.193 96.1582 74.4154 95.3758 74.7958C94.5934 75.1762 93.8937 75.7071 93.3167 76.3583C92.7398 77.0094 92.2969 77.7679 92.0134 78.5904C91.73 79.4129 91.6115 80.2832 91.6648 81.1515L97.2717 172.003C97.324 172.872 97.5473 173.723 97.9287 174.505C98.3101 175.288 98.8422 175.987 99.4945 176.564C100.147 177.14 100.906 177.582 101.73 177.865C102.553 178.147 103.424 178.264 104.293 178.209L167.207 174.325C168.075 174.273 168.923 174.05 169.705 173.669C170.486 173.288 171.184 172.757 171.759 172.105C172.335 171.454 172.776 170.696 173.058 169.874C173.34 169.052 173.457 168.182 173.402 167.315L168.668 90.215L147.033 71.1069Z" fill="white"/>
<g opacity="0.22">
<path d="M150.005 166.232L109.102 168.759C108.338 168.802 107.588 168.542 107.015 168.034C106.442 167.527 106.093 166.813 106.045 166.049C106.001 165.285 106.26 164.535 106.767 163.962C107.273 163.388 107.985 163.038 108.748 162.986L149.651 160.465C150.415 160.42 151.166 160.679 151.74 161.185C152.314 161.692 152.664 162.405 152.714 163.169C152.76 163.934 152.5 164.686 151.992 165.26C151.484 165.834 150.77 166.183 150.005 166.232Z" fill="#5593F1"/>
</g>
<g opacity="0.22">
<path d="M125.797 87.3349L104.162 88.6582C103.399 88.702 102.649 88.4426 102.075 87.9363C101.501 87.4301 101.151 86.7179 101.099 85.9545C101.056 85.1898 101.316 84.4388 101.823 83.8651C102.331 83.2914 103.045 82.9415 103.809 82.8915L125.444 81.5568C126.207 81.5115 126.958 81.7706 127.531 82.2773C128.104 82.784 128.453 83.4971 128.501 84.2605C128.55 85.0265 128.292 85.7805 127.785 86.3569C127.278 86.9333 126.563 87.2851 125.797 87.3349Z" fill="#5593F1"/>
</g>
<g opacity="0.22">
<path d="M140.616 97.9098L104.869 100.111C104.105 100.158 103.353 99.9 102.779 99.3931C102.204 98.8862 101.855 98.1722 101.806 97.4078C101.761 96.6428 102.021 95.8909 102.528 95.3168C103.036 94.7428 103.751 94.3933 104.516 94.3448L140.256 92.1431C141.021 92.0963 141.773 92.3546 142.347 92.8615C142.921 93.3684 143.271 94.0824 143.319 94.8468C143.365 95.6109 143.106 96.362 142.599 96.9359C142.093 97.5098 141.38 97.8599 140.616 97.9098Z" fill="#5593F1"/>
</g>
<g opacity="0.22">
<path d="M157.745 108.343L105.577 111.56C104.81 111.606 104.056 111.348 103.48 110.84C102.904 110.332 102.552 109.617 102.502 108.85C102.457 108.087 102.716 107.336 103.223 106.763C103.729 106.19 104.442 105.841 105.206 105.793L157.379 102.57C158.144 102.526 158.894 102.787 159.467 103.294C160.04 103.802 160.388 104.516 160.437 105.28C160.482 106.042 160.225 106.791 159.721 107.365C159.217 107.938 158.506 108.29 157.745 108.343Z" fill="#5593F1"/>
</g>
<g opacity="0.22">
<path d="M158.452 119.784L128.124 121.655C127.36 121.7 126.609 121.442 126.035 120.935C125.461 120.428 125.111 119.715 125.061 118.951C125.014 118.187 125.273 117.435 125.779 116.861C126.286 116.287 127 115.937 127.765 115.889L158.092 114.018C158.857 113.971 159.609 114.229 160.183 114.736C160.757 115.243 161.107 115.957 161.155 116.721C161.201 117.485 160.942 118.236 160.435 118.81C159.929 119.384 159.216 119.734 158.452 119.784Z" fill="#5593F1"/>
</g>
<g opacity="0.22">
<path d="M114.212 122.511L106.278 123.002C105.515 123.047 104.764 122.788 104.191 122.281C103.618 121.774 103.269 121.061 103.221 120.298C103.176 119.534 103.434 118.783 103.941 118.209C104.448 117.635 105.161 117.285 105.925 117.235L113.859 116.744C114.623 116.701 115.374 116.961 115.948 117.468C116.522 117.976 116.872 118.69 116.922 119.454C116.965 120.218 116.705 120.968 116.197 121.541C115.69 122.114 114.976 122.463 114.212 122.511Z" fill="#5593F1"/>
</g>
<g opacity="0.22">
<path d="M159.159 131.226L106.986 134.443C106.222 134.489 105.471 134.23 104.897 133.723C104.323 133.217 103.973 132.504 103.923 131.74C103.879 130.975 104.139 130.224 104.647 129.65C105.154 129.077 105.868 128.727 106.632 128.677L158.8 125.46C159.565 125.414 160.317 125.674 160.891 126.182C161.465 126.69 161.815 127.404 161.863 128.169C161.908 128.933 161.649 129.683 161.143 130.256C160.636 130.829 159.923 131.178 159.159 131.226Z" fill="#5593F1"/>
</g>
<g opacity="0.22">
<path d="M139.732 143.912L107.693 145.891C106.929 145.935 106.178 145.674 105.604 145.167C105.03 144.659 104.68 143.946 104.63 143.181C104.587 142.417 104.847 141.667 105.355 141.094C105.862 140.521 106.576 140.173 107.34 140.124L139.378 138.145C140.143 138.101 140.893 138.362 141.466 138.869C142.039 139.377 142.387 140.09 142.436 140.854C142.483 141.618 142.224 142.369 141.717 142.943C141.21 143.516 140.496 143.865 139.732 143.912Z" fill="#5593F1"/>
</g>
<g opacity="0.22">
<path d="M159.861 142.674L151.305 143.199C150.542 143.244 149.791 142.985 149.218 142.479C148.645 141.972 148.297 141.259 148.248 140.496C148.201 139.731 148.46 138.979 148.966 138.405C149.473 137.831 150.187 137.481 150.952 137.433L159.508 136.908C160.272 136.861 161.024 137.119 161.598 137.626C162.172 138.133 162.522 138.847 162.571 139.611C162.614 140.376 162.354 141.127 161.847 141.701C161.339 142.275 160.626 142.625 159.861 142.674Z" fill="#5593F1"/>
</g>
<g opacity="0.22">
<path d="M160.568 154.116L108.4 157.333C107.636 157.379 106.885 157.12 106.311 156.613C105.737 156.107 105.387 155.394 105.337 154.63C105.292 153.866 105.551 153.115 106.057 152.541C106.564 151.967 107.277 151.617 108.041 151.567L160.214 148.35C160.978 148.305 161.728 148.564 162.301 149.07C162.874 149.577 163.223 150.29 163.272 151.053C163.319 151.818 163.06 152.57 162.553 153.144C162.047 153.718 161.333 154.068 160.568 154.116Z" fill="#5593F1"/>
</g>
<path opacity="0.22" d="M147.033 71.1069L147.883 84.8648C147.936 85.7322 148.159 86.5807 148.54 87.3618C148.921 88.1429 149.452 88.8412 150.103 89.417C150.754 89.9928 151.512 90.4346 152.334 90.7174C153.156 91.0002 154.025 91.1182 154.893 91.0649L168.668 90.215L147.033 71.1069Z" fill="#5593F1"/>
<path opacity="0.5" d="M130.936 105.428C130.928 104.768 130.787 104.117 130.523 103.513C130.258 102.909 129.875 102.365 129.397 101.911C128.918 101.457 128.354 101.104 127.736 100.873C127.119 100.641 126.462 100.535 125.803 100.562H80.1144C76.6521 100.562 73.2697 103.374 72.6194 106.836L54.5893 199.211C53.9163 202.674 56.175 205.486 59.6373 205.486H204.517C207.979 205.486 211.333 202.679 212.012 199.211L226.882 123.064C227.555 119.596 225.296 116.79 221.834 116.79H143C136.155 116.79 131.17 112.078 130.936 105.428Z" fill="#5593F1"/>
</svg>
