<svg width="19" height="16" viewBox="0 0 19 16" fill="none" xmlns="http://www.w3.org/2000/svg">
<mask id="mask0_3674_16999" style="mask-type:alpha" maskUnits="userSpaceOnUse" x="0" y="0" width="19" height="16">
<rect x="0.349609" y="0.941406" width="18.3544" height="14.4541" fill="#D9D9D9"/>
</mask>
<g mask="url(#mask0_3674_16999)">
<path d="M9.52536 8.16707C9.94598 8.16707 10.3062 8.04902 10.606 7.81294C10.9053 7.57726 11.0549 7.2938 11.0549 6.96256C11.0549 6.63132 10.9053 6.34766 10.606 6.11157C10.3062 5.87589 9.94598 5.75805 9.52536 5.75805C9.10474 5.75805 8.74479 5.87589 8.44551 6.11157C8.14572 6.34766 7.99582 6.63132 7.99582 6.96256C7.99582 7.2938 8.14572 7.57726 8.44551 7.81294C8.74479 8.04902 9.10474 8.16707 9.52536 8.16707ZM9.52536 12.5936C11.0804 11.4694 12.2339 10.448 12.9859 9.52936C13.7379 8.61113 14.114 7.79568 14.114 7.08301C14.114 5.98892 13.6709 5.09296 12.7848 4.39515C11.8992 3.69774 10.8127 3.34904 9.52536 3.34904C8.238 3.34904 7.15127 3.69774 6.26516 4.39515C5.37956 5.09296 4.93676 5.98892 4.93676 7.08301C4.93676 7.79568 5.31277 8.61113 6.06479 9.52936C6.81681 10.448 7.97033 11.4694 9.52536 12.5936ZM9.52536 14.1896C7.47323 12.8145 5.94064 11.5371 4.92758 10.3575C3.91401 9.17825 3.40723 8.08677 3.40723 7.08301C3.40723 5.57738 4.02235 4.37789 5.25261 3.48455C6.48235 2.5912 7.9066 2.14453 9.52536 2.14453C11.1441 2.14453 12.5684 2.5912 13.7981 3.48455C15.0284 4.37789 15.6435 5.57738 15.6435 7.08301C15.6435 8.08677 15.137 9.17825 14.1239 10.3575C13.1103 11.5371 11.5775 12.8145 9.52536 14.1896Z" fill="#605E5E"/>
</g>
</svg>
