<svg width="416" height="310" viewBox="0 0 416 310" fill="none" xmlns="http://www.w3.org/2000/svg">
<path d="M415.364 271.543H0.666016V271.75H415.364V271.543Z" fill="#E6E6E6"/>
<path d="M88.5738 281.383H43.5044V281.59H88.5738V281.383Z" fill="#E6E6E6"/>
<path d="M208.845 276.879H191.875V277.086H208.845V276.879Z" fill="#E6E6E6"/>
<path d="M151.02 276.879H126.188V277.086H151.02V276.879Z" fill="#E6E6E6"/>
<path d="M356.403 279.27H303.869V279.477H356.403V279.27Z" fill="#E6E6E6"/>
<path d="M199.075 279.27H187.223V279.477H199.075V279.27Z" fill="#E6E6E6"/>
<path d="M107.658 281.383H96.6021V281.59H107.658V281.383Z" fill="#E6E6E6"/>
<path d="M370.236 279.27H363.178V279.477H370.236V279.27Z" fill="#E6E6E6"/>
<path d="M197.234 234.553H37.0855C35.8309 234.551 34.6284 234.051 33.7421 233.163C32.8557 232.275 32.3579 231.072 32.3579 229.818V4.69438C32.3688 3.44699 32.8715 2.25428 33.7566 1.37532C34.6418 0.496359 35.838 0.00213685 37.0855 0H197.234C198.49 0 199.694 0.498955 200.582 1.3871C201.471 2.27524 201.97 3.47983 201.97 4.73585V229.818C201.97 231.074 201.471 232.278 200.582 233.166C199.694 234.054 198.49 234.553 197.234 234.553ZM37.0855 0.16588C35.8859 0.168077 34.7362 0.646154 33.8887 1.49518C33.0412 2.3442 32.5653 3.49479 32.5653 4.69438V229.818C32.5653 231.017 33.0412 232.168 33.8887 233.017C34.7362 233.866 35.8859 234.344 37.0855 234.346H197.234C198.434 234.344 199.585 233.866 200.433 233.017C201.282 232.168 201.76 231.018 201.762 229.818V4.69438C201.76 3.49402 201.282 2.34345 200.433 1.49467C199.585 0.645885 198.434 0.168072 197.234 0.16588H37.0855Z" fill="#E6E6E6"/>
<path d="M376.639 234.553H216.483C215.228 234.551 214.024 234.052 213.137 233.164C212.249 232.276 211.749 231.073 211.747 229.818V4.69438C211.76 3.44624 212.265 2.25353 213.151 1.3748C214.038 0.496069 215.235 0.00211354 216.483 0H376.639C377.885 0.00431659 379.079 0.499503 379.963 1.37823C380.846 2.25696 381.348 3.44843 381.359 4.69438V229.818C381.359 231.071 380.862 232.273 379.977 233.16C379.093 234.048 377.893 234.549 376.639 234.553ZM216.483 0.16588C215.283 0.168072 214.132 0.645885 213.283 1.49467C212.434 2.34345 211.957 3.49402 211.954 4.69438V229.818C211.957 231.018 212.434 232.168 213.283 233.017C214.132 233.866 215.283 234.344 216.483 234.346H376.639C377.84 234.344 378.99 233.866 379.839 233.017C380.688 232.168 381.166 231.018 381.168 229.818V4.69438C381.166 3.49402 380.688 2.34345 379.839 1.49467C378.99 0.645885 377.84 0.168072 376.639 0.16588H216.483Z" fill="#E6E6E6"/>
<path d="M342.51 25.3477H157.646V132.804H342.51V25.3477Z" fill="#E6E6E6"/>
<path d="M345.007 25.3477H160.143V132.804H345.007V25.3477Z" fill="#F5F5F5"/>
<path d="M340.519 127.762V30.3906L164.629 30.3906V127.762L340.519 127.762Z" fill="white"/>
<path d="M340.528 127.762V30.3906H338.637V127.762H340.528Z" fill="#E6E6E6"/>
<path d="M343.157 97.4961H162V104.264H343.157V97.4961Z" fill="#F5F5F5"/>
<path d="M210.503 199.977H180.147V267.282H210.503V199.977Z" fill="#E6E6E6"/>
<path d="M319.603 267.281H185.97V271.544H319.603V267.281Z" fill="#E6E6E6"/>
<path d="M210.495 267.281H325.433V199.976H210.495V267.281Z" fill="#F5F5F5"/>
<path d="M222.439 230.332H313.507V208.262H222.439V230.332Z" fill="#E6E6E6"/>
<path d="M222.439 258.988H313.507V236.918H222.439V258.988Z" fill="#E6E6E6"/>
<path d="M281.624 217.781H254.321C253.583 217.781 252.985 218.379 252.985 219.117V219.473C252.985 220.211 253.583 220.809 254.321 220.809H281.624C282.362 220.809 282.96 220.211 282.96 219.473V219.117C282.96 218.379 282.362 217.781 281.624 217.781Z" fill="#F5F5F5"/>
<path d="M281.624 246.445H254.321C253.583 246.445 252.985 247.043 252.985 247.781V248.137C252.985 248.875 253.583 249.473 254.321 249.473H281.624C282.362 249.473 282.96 248.875 282.96 248.137V247.781C282.96 247.043 282.362 246.445 281.624 246.445Z" fill="#F5F5F5"/>
<path d="M119.585 271.544H54.9165L46.0005 57.0039H110.669L119.585 271.544Z" fill="#E6E6E6"/>
<path d="M128.949 271.544H56.5762L47.6602 57.0039H120.033L128.949 271.544Z" fill="#F5F5F5"/>
<path d="M63.7246 264.084L55.4307 64.4727H112.875L121.177 264.084H63.7246Z" fill="white"/>
<path d="M236.985 189.594C237.815 166.935 238.644 135.542 236.894 124.179L234.033 121.965C234.033 121.965 234.655 124.08 234.987 158.798C235.318 193.517 235.725 184.435 235.376 189.594H236.985Z" fill="#E0E0E0"/>
<path d="M242.311 114.528C247.603 107.353 258.742 102.253 270.279 102.277C274.807 102.277 256.793 110.621 249.502 119.819C243.837 126.96 237.592 138.978 235.552 145.647C236.53 131.613 237.045 121.694 242.311 114.528Z" fill="#E0E0E0"/>
<path d="M231.694 133.22C226.834 125.755 216.01 120.008 204.498 119.361C199.978 119.104 217.47 128.484 224.213 138.08C229.446 145.545 234.995 157.903 236.654 164.687C236.471 150.621 236.563 140.693 231.694 133.22Z" fill="#E0E0E0"/>
<path d="M233.867 102.555C229.438 93.8468 219.104 85.445 207.865 82.0279C203.445 80.6843 221.75 96.0115 226.983 107.739C231.047 116.863 235.974 128.325 237.268 135.565C237.749 121.283 238.288 111.272 233.867 102.555Z" fill="#E0E0E0"/>
<path d="M235.916 199.978C238.609 199.977 241.2 198.946 243.156 197.095C245.112 195.244 246.285 192.714 246.433 190.025L247.362 173.852H224.471L225.408 190.025C225.554 192.713 226.725 195.243 228.68 197.094C230.634 198.945 233.224 199.977 235.916 199.978Z" fill="#F0F0F0"/>
<path d="M222.994 177.542H248.846L249.584 170.832H222.248L222.994 177.542Z" fill="#EBEBEB"/>
<path d="M332.898 66.4844H350.017V20.0382H332.898V66.4844Z" fill="#E6E6E6"/>
<path d="M332.897 20.0469H324.413V62.7608H332.897V20.0469Z" fill="#F5F5F5"/>
<path d="M307.294 66.4844H324.413V20.0382H307.294V66.4844Z" fill="#E6E6E6"/>
<path d="M307.294 20.0469H298.81V62.7608H307.294V20.0469Z" fill="#F5F5F5"/>
<path d="M281.691 66.4844H298.81V20.0382H281.691V66.4844Z" fill="#E6E6E6"/>
<path d="M281.69 20.0469H273.206V62.7608H281.69V20.0469Z" fill="#F5F5F5"/>
<path d="M256.078 66.4844H273.197V20.0382H256.078V66.4844Z" fill="#E6E6E6"/>
<path d="M256.079 20.0469H247.594V62.7608H256.079V20.0469Z" fill="#F5F5F5"/>
<path d="M230.483 66.4844H247.602V20.0382H230.483V66.4844Z" fill="#E6E6E6"/>
<path d="M230.475 20.0469H221.99V62.7608H230.475V20.0469Z" fill="#F5F5F5"/>
<path d="M204.871 66.4844H221.99V20.0382H204.871V66.4844Z" fill="#E6E6E6"/>
<path d="M204.872 20.0469H196.387V62.7608H204.872V20.0469Z" fill="#F5F5F5"/>
<path d="M179.268 66.4844H196.387V20.0382H179.268V66.4844Z" fill="#E6E6E6"/>
<path d="M179.268 20.0469H170.784V62.7608H179.268V20.0469Z" fill="#F5F5F5"/>
<path d="M153.665 66.4844H170.784V20.0382H153.665V66.4844Z" fill="#E6E6E6"/>
<path d="M208.015 309.004C296.829 309.004 368.827 304.801 368.827 299.615C368.827 294.43 296.829 290.227 208.015 290.227C119.201 290.227 47.2036 294.43 47.2036 299.615C47.2036 304.801 119.201 309.004 208.015 309.004Z" fill="#F5F5F5"/>
<path d="M292.962 136.463L296.487 141.854L301.729 140.768L297.772 134.066L292.962 136.463Z" fill="#9F5B53"/>
<path d="M302.956 90.2539C303.702 91.1579 304.325 91.9625 304.963 92.8416C305.602 93.7208 306.216 94.5668 306.821 95.4459C308.032 97.196 309.185 98.9957 310.263 100.845C311.341 102.695 312.386 104.586 313.299 106.568C313.788 107.539 314.203 108.567 314.65 109.571C315.098 110.574 315.48 111.627 315.803 112.714L316.069 113.543L316.201 113.95C316.276 114.19 316.351 114.447 316.401 114.688C316.583 115.549 316.644 116.431 316.583 117.309C316.473 118.684 316.175 120.038 315.696 121.331C314.884 123.487 313.844 125.55 312.594 127.486C310.264 131.078 307.562 134.414 304.532 137.438L300.907 134.602C302.9 131.201 304.722 127.702 306.365 124.118C307.119 122.482 307.722 120.78 308.165 119.034C308.33 118.378 308.405 117.703 308.389 117.027C308.388 116.884 308.357 116.742 308.297 116.612L308.165 116.297L307.891 115.667C306.338 112.177 304.508 108.819 302.417 105.623C301.372 103.964 300.269 102.363 299.157 100.746C298.046 99.1284 296.835 97.5111 295.74 96.0431L302.956 90.2539Z" fill="#9F5B53"/>
<path d="M300.908 86.1738C306.622 87.4842 313.174 103.052 313.174 103.052L301.737 110.915C298.882 106.823 296.347 102.517 294.156 98.0342C290.764 90.9096 295.102 84.8385 300.908 86.1738Z" fill="#13ADE1"/>
<path opacity="0.8" d="M300.908 86.1738C306.622 87.4842 313.174 103.052 313.174 103.052L301.737 110.915C298.882 106.823 296.347 102.517 294.156 98.0342C290.764 90.9096 295.102 84.8385 300.908 86.1738Z" fill="white"/>
<path d="M296.843 96.1016L302.268 110.541L301.728 110.915C301.728 110.915 299.381 107.597 296.843 103.176V96.1016Z" fill="#13ADE1"/>
<path opacity="0.6" d="M296.843 96.1016L302.268 110.541L301.728 110.915C301.728 110.915 299.381 107.597 296.843 103.176V96.1016Z" fill="white"/>
<path d="M282.363 294.139H276.267L275.661 280.031H281.757L282.363 294.139Z" fill="#9F5B53"/>
<path d="M318.947 294.139H312.851L309.791 280.031H315.878L318.947 294.139Z" fill="#9F5B53"/>
<path d="M275.661 280.039L275.976 287.305H282.072L281.757 280.039H275.661Z" fill="#8A4743"/>
<path d="M315.887 280.039H309.791L311.366 287.305H317.462L315.887 280.039Z" fill="#8A4743"/>
<path d="M278 139.158C278 139.158 284.917 185.721 288.707 203.163C292.854 222.239 308.53 285.903 308.53 285.903H319.693C319.693 285.903 309.359 223.806 306.987 204.863C304.416 184.335 299.033 139.125 299.033 139.125L278 139.158Z" fill="#13ADE1"/>
<path opacity="0.5" d="M278 139.158C278 139.158 284.917 185.721 288.707 203.163C292.854 222.239 308.53 285.903 308.53 285.903H319.693C319.693 285.903 309.359 223.806 306.987 204.863C304.416 184.335 299.033 139.125 299.033 139.125L278 139.158Z" fill="black"/>
<path opacity="0.4" d="M282.371 155.745C290.366 157.313 289.52 187.129 288.558 202.465C286.253 191.625 282.877 170.765 280.571 155.961C281.129 155.686 281.764 155.61 282.371 155.745Z" fill="black"/>
<path d="M266.438 139.152C266.438 139.152 265.609 184.703 266.264 203.29C266.952 222.615 273.728 285.897 273.728 285.897H284.046C284.046 285.897 284.428 223.743 284.875 204.766C285.373 184.072 287.87 139.152 287.87 139.152H266.438Z" fill="#13ADE1"/>
<path opacity="0.5" d="M266.438 139.152C266.438 139.152 265.609 184.703 266.264 203.29C266.952 222.615 273.728 285.897 273.728 285.897H284.046C284.046 285.897 284.428 223.743 284.875 204.766C285.373 184.072 287.87 139.152 287.87 139.152H266.438Z" fill="black"/>
<path d="M302.227 133.301L297.773 134.064L301.729 140.765C301.729 140.765 304.831 139.272 305.395 136.378L302.227 133.301Z" fill="#9F5B53"/>
<path d="M272.791 63.532C272.791 64.0213 272.534 64.4194 272.21 64.4194C271.887 64.4194 271.63 64.0213 271.63 63.532C271.63 63.0426 271.887 62.6445 272.21 62.6445C272.534 62.6445 272.791 63.0344 272.791 63.532Z" fill="#263238"/>
<path d="M272.575 64.418C271.988 65.9201 271.198 67.3349 270.228 68.623C270.564 68.863 270.947 69.0267 271.353 69.1027C271.758 69.1786 272.176 69.1649 272.575 69.0626V64.418Z" fill="#892B29"/>
<path d="M274.533 60.8105C274.472 60.8113 274.413 60.7907 274.367 60.7525C274.078 60.5308 273.741 60.3813 273.384 60.3163C273.026 60.2514 272.658 60.273 272.31 60.3792C272.275 60.3925 272.238 60.3987 272.201 60.3976C272.163 60.3964 272.127 60.3879 272.093 60.3724C272.059 60.357 272.028 60.335 272.003 60.3077C271.977 60.2804 271.958 60.2483 271.945 60.2134C271.93 60.1786 271.922 60.1412 271.922 60.1034C271.922 60.0656 271.93 60.0282 271.945 59.9934C271.959 59.9586 271.981 59.927 272.008 59.9007C272.035 59.8744 272.067 59.8538 272.102 59.8401C272.539 59.6993 273.003 59.6664 273.456 59.7444C273.908 59.8224 274.334 60.009 274.698 60.288C274.73 60.3087 274.757 60.3358 274.778 60.3675C274.799 60.3993 274.813 60.435 274.819 60.4725C274.825 60.5099 274.824 60.5482 274.814 60.585C274.805 60.6218 274.788 60.6562 274.765 60.6861C274.74 60.7253 274.706 60.7574 274.665 60.7792C274.624 60.801 274.579 60.8118 274.533 60.8105Z" fill="#263238"/>
<path d="M288.657 69.1992C287.778 73.6614 286.907 81.8226 290.026 84.8002C290.026 84.8002 288.807 89.3204 280.521 89.3204C271.398 89.3204 276.175 84.8002 276.175 84.8002C281.151 83.6141 281.019 79.9233 280.148 76.4647L288.657 69.1992Z" fill="#9F5B53"/>
<path d="M291.221 86.352C291.876 84.9255 292.589 83.2832 291.104 82.769C289.446 82.205 280.513 81.6328 277.428 82.6861C277.021 82.7989 276.64 82.9913 276.308 83.2522C275.976 83.5131 275.699 83.8374 275.493 84.2061C275.287 84.5748 275.156 84.9807 275.108 85.4003C275.06 85.8199 275.096 86.2449 275.213 86.6506L291.221 86.352Z" fill="#13ADE1"/>
<path d="M310.404 294.434C310.147 294.468 309.885 294.451 309.634 294.383C309.384 294.314 309.149 294.196 308.945 294.036C308.871 293.936 308.832 293.816 308.832 293.692C308.832 293.568 308.871 293.447 308.945 293.348C308.99 293.262 309.054 293.187 309.131 293.129C309.209 293.07 309.298 293.029 309.392 293.008C310.288 292.809 311.964 293.953 312.038 294.003C312.061 294.02 312.079 294.043 312.089 294.069C312.099 294.096 312.102 294.124 312.096 294.152C312.092 294.179 312.079 294.204 312.059 294.223C312.04 294.242 312.015 294.255 311.988 294.26C311.468 294.372 310.937 294.431 310.404 294.434ZM309.65 293.273H309.467C309.411 293.285 309.358 293.308 309.312 293.343C309.266 293.377 309.229 293.421 309.202 293.472C309.069 293.704 309.152 293.804 309.202 293.837C309.459 294.185 310.703 294.185 311.615 294.036C311.024 293.644 310.352 293.389 309.65 293.29V293.273Z" fill="#13ADE1"/>
<path d="M311.964 294.289H311.898C311.267 293.94 310.048 292.63 310.172 291.933C310.194 291.826 310.251 291.729 310.336 291.659C310.421 291.589 310.527 291.552 310.637 291.552C310.746 291.54 310.857 291.55 310.962 291.581C311.067 291.613 311.166 291.665 311.251 291.734C311.956 292.315 312.08 294.073 312.08 294.148C312.083 294.174 312.079 294.201 312.067 294.224C312.055 294.248 312.037 294.267 312.014 294.28C311.998 294.287 311.981 294.29 311.964 294.289ZM310.736 291.8H310.67C310.479 291.8 310.463 291.917 310.454 291.95C310.38 292.356 311.159 293.36 311.781 293.832C311.738 293.14 311.49 292.476 311.068 291.925C310.973 291.853 310.856 291.815 310.736 291.817V291.8Z" fill="#13ADE1"/>
<path d="M273.82 294.439C273.04 294.439 272.285 294.332 272.028 293.983C271.964 293.891 271.93 293.781 271.93 293.668C271.93 293.556 271.964 293.446 272.028 293.353C272.076 293.267 272.141 293.193 272.22 293.134C272.299 293.076 272.389 293.034 272.484 293.013C273.488 292.739 275.628 293.95 275.719 294C275.743 294.016 275.763 294.038 275.774 294.065C275.786 294.091 275.79 294.121 275.785 294.149C275.782 294.179 275.768 294.206 275.747 294.227C275.726 294.248 275.699 294.262 275.669 294.265C275.059 294.38 274.44 294.439 273.82 294.439ZM272.849 293.262C272.759 293.249 272.666 293.249 272.576 293.262C272.517 293.273 272.462 293.297 272.413 293.331C272.365 293.365 272.324 293.41 272.294 293.461C272.194 293.643 272.227 293.726 272.294 293.776C272.576 294.157 274.11 294.182 275.255 294.025C274.509 293.622 273.692 293.369 272.849 293.278V293.262Z" fill="#13ADE1"/>
<path d="M275.661 294.284H275.603C274.864 293.96 273.413 292.625 273.521 291.953C273.521 291.787 273.662 291.588 274.06 291.547C274.208 291.524 274.359 291.535 274.503 291.578C274.646 291.621 274.778 291.695 274.889 291.795C275.669 292.426 275.827 294.068 275.835 294.143C275.838 294.168 275.834 294.194 275.824 294.217C275.814 294.24 275.798 294.261 275.777 294.275C275.759 294.285 275.74 294.291 275.72 294.292C275.7 294.293 275.679 294.291 275.661 294.284ZM274.176 291.795H274.085C273.828 291.795 273.811 291.928 273.803 291.961C273.736 292.376 274.732 293.413 275.462 293.861C275.39 293.164 275.1 292.508 274.632 291.986C274.505 291.877 274.344 291.815 274.176 291.812V291.795Z" fill="#13ADE1"/>
<path d="M312.419 293.434H319.262C319.384 293.435 319.502 293.477 319.597 293.554C319.692 293.631 319.758 293.737 319.785 293.857L320.987 299.273C321.015 299.404 321.012 299.541 320.979 299.672C320.947 299.802 320.885 299.924 320.799 300.028C320.713 300.131 320.605 300.214 320.482 300.27C320.36 300.326 320.226 300.354 320.091 300.351C317.703 300.309 316.542 300.168 313.531 300.168C311.681 300.168 307.866 300.367 305.303 300.367C302.74 300.367 302.417 297.879 303.462 297.605C308.156 296.577 309.923 295.159 311.432 293.815C311.701 293.568 312.054 293.431 312.419 293.434Z" fill="#263238"/>
<path d="M276.307 293.434H282.943C283.065 293.434 283.183 293.477 283.278 293.554C283.373 293.631 283.439 293.737 283.465 293.857L284.668 299.273C284.697 299.403 284.695 299.539 284.664 299.669C284.633 299.799 284.573 299.92 284.489 300.024C284.404 300.128 284.297 300.211 284.176 300.268C284.055 300.324 283.922 300.353 283.789 300.351C281.392 300.309 277.925 300.168 274.906 300.168C271.381 300.168 268.329 300.367 264.19 300.367C261.702 300.367 260.997 297.879 262.042 297.605C266.811 296.56 270.701 296.453 274.823 293.915C275.262 293.616 275.777 293.449 276.307 293.434Z" fill="#263238"/>
<path d="M267.607 98.6407C265.194 102.207 262.697 105.533 260.002 108.834C257.309 112.169 254.429 115.348 251.376 118.355L250.182 119.483L249.875 119.765L249.667 119.956L249.361 120.222C248.967 120.532 248.548 120.809 248.108 121.051C246.708 121.787 245.167 122.217 243.588 122.312C241.178 122.462 238.759 122.263 236.405 121.723C232.141 120.778 228.006 119.325 224.089 117.393L225.607 113.08C229.493 113.854 233.424 114.388 237.376 114.681C239.112 114.823 240.858 114.75 242.576 114.466C243.069 114.394 243.54 114.213 243.953 113.935V113.877L244.011 113.81L244.26 113.537L245.238 112.458C247.834 109.497 250.348 106.354 252.786 103.128C255.224 99.9014 257.663 96.617 259.993 93.3906L267.607 98.6407Z" fill="#9F5B53"/>
<path d="M270.419 99.5938C269.571 104.739 267.347 109.56 263.983 113.544C263.85 110.625 263.8 108.004 263.808 105.657L270.419 99.5938Z" fill="#BED3FC"/>
<path d="M289.18 62.4879C288.815 68.5259 288.906 72.0757 285.862 75.1777C281.276 79.8389 273.828 77.0687 272.384 71.0307C271.091 65.6064 271.912 56.649 277.825 54.2437C279.126 53.7092 280.542 53.5163 281.938 53.6834C283.334 53.8504 284.665 54.3718 285.803 55.198C286.94 56.0242 287.848 57.1278 288.439 58.4038C289.03 59.6797 289.285 61.0857 289.18 62.4879Z" fill="#9F5B53"/>
<path d="M277.452 58.4729C277.502 65.5726 279.808 74.2812 286.675 73.6758C291.237 73.2777 294.704 64.9588 295.177 61.4339C295.898 56.0428 296.006 55.0143 292.97 54.3923C294.297 53.6707 294.779 50.2453 291.677 49.4159C287.364 48.2796 279.236 47.1682 281.79 44.5391C276.698 45.4597 275.42 47.5 276.349 49.9799C273.372 49.7477 271.539 48.1884 271.63 45.8329C266.695 47.8318 263.494 59.1364 277.452 58.4729Z" fill="#263238"/>
<path d="M281.002 64.2449C280.666 65.709 279.855 67.0211 278.696 67.9772C277.162 69.2213 275.934 68.1099 275.967 66.3184C275.967 64.7011 276.847 62.105 278.572 61.5576C280.297 61.0102 281.425 62.4783 281.002 64.2449Z" fill="#9F5B53"/>
<path d="M297.59 55.6269C296.778 55.11 295.851 54.8029 294.891 54.7334C293.931 54.664 292.969 54.8342 292.091 55.2288C292.091 55.2288 295.542 50.5924 297.59 55.6269Z" fill="#263238"/>
<path d="M306.714 281.785C306.664 281.785 307.867 286.073 307.867 286.073H320.424L320.192 282.25L306.714 281.785Z" fill="#13ADE1"/>
<path d="M271.721 281.785C271.671 281.785 272.301 286.073 272.301 286.073H284.858L285.198 282.25L271.721 281.785Z" fill="#13ADE1"/>
<path d="M275.852 278.488C275.827 278.488 275.803 278.479 275.784 278.462C275.766 278.445 275.754 278.422 275.752 278.397C273.928 260.88 269.64 218.498 269.117 203.295C268.561 187.777 269.067 152.959 269.233 142.658C269.233 142.6 269.283 142.567 269.341 142.559C269.367 142.561 269.391 142.572 269.409 142.59C269.427 142.608 269.439 142.632 269.44 142.658C269.275 152.959 268.769 187.777 269.324 203.287C269.863 218.49 274.151 260.855 275.96 278.372C275.96 278.4 275.95 278.428 275.932 278.449C275.913 278.47 275.888 278.484 275.86 278.488H275.852Z" fill="#13ADE1"/>
<path opacity="0.3" d="M275.852 278.488C275.827 278.488 275.803 278.479 275.784 278.462C275.766 278.445 275.754 278.422 275.752 278.397C273.928 260.88 269.64 218.498 269.117 203.295C268.561 187.777 269.067 152.959 269.233 142.658C269.233 142.6 269.283 142.567 269.341 142.559C269.367 142.561 269.391 142.572 269.409 142.59C269.427 142.608 269.439 142.632 269.44 142.658C269.275 152.959 268.769 187.777 269.324 203.287C269.863 218.49 274.151 260.855 275.96 278.372C275.96 278.4 275.95 278.428 275.932 278.449C275.913 278.47 275.888 278.484 275.86 278.488H275.852Z" fill="black"/>
<path d="M273.23 91.4259C274.06 97.2316 262.664 111.937 262.664 111.937L251.243 104.074C251.243 104.074 254.411 95.9544 259.744 90.6297C265.832 84.5999 272.351 85.1473 273.23 91.4259Z" fill="#13ADE1"/>
<path opacity="0.8" d="M273.23 91.4259C274.06 97.2316 262.664 111.937 262.664 111.937L251.243 104.074C251.243 104.074 254.411 95.9544 259.744 90.6297C265.832 84.5999 272.351 85.1473 273.23 91.4259Z" fill="white"/>
<path d="M266.802 86.4888C266.802 86.4888 260.317 93.8124 266.438 139.156H299.033C299.257 134.179 296.113 109.745 300.932 86.1736C297.33 85.48 293.687 85.0201 290.026 84.7969C285.412 84.5313 280.788 84.5313 276.175 84.7969C273.011 85.1156 269.878 85.6813 266.802 86.4888Z" fill="#13ADE1"/>
<path opacity="0.8" d="M266.802 86.4888C266.802 86.4888 260.317 93.8124 266.438 139.156H299.033C299.257 134.179 296.113 109.745 300.932 86.1736C297.33 85.48 293.687 85.0201 290.026 84.7969C285.412 84.5313 280.788 84.5313 276.175 84.7969C273.011 85.1156 269.878 85.6813 266.802 86.4888Z" fill="white"/>
<path d="M170.907 53.2033C173.51 41.7365 166.325 30.3307 154.858 27.7276C143.391 25.1246 131.985 32.31 129.382 43.7767C126.779 55.2434 133.965 66.6493 145.431 69.2523C156.898 71.8554 168.304 64.67 170.907 53.2033Z" fill="#13ADE1"/>
<path opacity="0.2" d="M170.907 53.2033C173.51 41.7365 166.325 30.3307 154.858 27.7276C143.391 25.1246 131.985 32.31 129.382 43.7767C126.779 55.2434 133.965 66.6493 145.431 69.2523C156.898 71.8554 168.304 64.67 170.907 53.2033Z" fill="white"/>
<path d="M147.959 76.1011C142.452 75.6758 137.2 73.6061 132.883 70.1604C128.567 66.7147 125.384 62.0518 123.749 56.7762L124.537 56.5273C126.124 61.6449 129.212 66.1678 133.4 69.5099C137.588 72.852 142.683 74.8593 148.025 75.2717L147.959 76.1011Z" fill="#13ADE1"/>
<path opacity="0.2" d="M147.959 76.1011C142.452 75.6758 137.2 73.6061 132.883 70.1604C128.567 66.7147 125.384 62.0518 123.749 56.7762L124.537 56.5273C126.124 61.6449 129.212 66.1678 133.4 69.5099C137.588 72.852 142.683 74.8593 148.025 75.2717L147.959 76.1011Z" fill="white"/>
<path d="M124.421 40.8236L123.592 40.5914C124.661 37.019 126.441 33.6995 128.824 30.8319C131.208 27.9643 134.146 25.6078 137.463 23.9038C140.78 22.1997 144.406 21.1832 148.126 20.9153C151.845 20.6474 155.58 21.1336 159.107 22.3446L158.841 23.1326C155.418 21.959 151.793 21.4889 148.183 21.7507C144.574 22.0124 141.054 23.0005 137.836 24.6557C134.618 26.3109 131.767 28.5992 129.455 31.3831C127.142 34.1671 125.416 37.3894 124.38 40.8568L124.421 40.8236Z" fill="#13ADE1"/>
<path opacity="0.2" d="M124.421 40.8236L123.592 40.5914C124.661 37.019 126.441 33.6995 128.824 30.8319C131.208 27.9643 134.146 25.6078 137.463 23.9038C140.78 22.1997 144.406 21.1832 148.126 20.9153C151.845 20.6474 155.58 21.1336 159.107 22.3446L158.841 23.1326C155.418 21.959 151.793 21.4889 148.183 21.7507C144.574 22.0124 141.054 23.0005 137.836 24.6557C134.618 26.3109 131.767 28.5992 129.455 31.3831C127.142 34.1671 125.416 37.3894 124.38 40.8568L124.421 40.8236Z" fill="white"/>
<path d="M175.785 40.4672C173.846 34.2661 169.719 28.9811 164.173 25.5961L164.605 24.8828C170.316 28.3784 174.566 33.8273 176.565 40.2184L175.785 40.4672Z" fill="#13ADE1"/>
<path opacity="0.2" d="M175.785 40.4672C173.846 34.2661 169.719 28.9811 164.173 25.5961L164.605 24.8828C170.316 28.3784 174.566 33.8273 176.565 40.2184L175.785 40.4672Z" fill="white"/>
<path d="M170.917 111.973C173.52 100.506 166.334 89.1002 154.868 86.4972C143.401 83.8941 131.995 91.0795 129.392 102.546C126.789 114.013 133.974 125.419 145.441 128.022C156.908 130.625 168.314 123.44 170.917 111.973Z" fill="#13ADE1"/>
<path opacity="0.6" d="M170.917 111.973C173.52 100.506 166.334 89.1002 154.868 86.4972C143.401 83.8941 131.995 91.0795 129.392 102.546C126.789 114.013 133.974 125.419 145.441 128.022C156.908 130.625 168.314 123.44 170.917 111.973Z" fill="white"/>
<path d="M170.91 170.742C173.513 159.276 166.328 147.87 154.861 145.267C143.395 142.664 131.989 149.849 129.386 161.316C126.783 172.783 133.968 184.188 145.435 186.791C156.901 189.394 168.307 182.209 170.91 170.742Z" fill="#13ADE1"/>
<path opacity="0.6" d="M170.91 170.742C173.513 159.276 166.328 147.87 154.861 145.267C143.395 142.664 131.989 149.849 129.386 161.316C126.783 172.783 133.968 184.188 145.435 186.791C156.901 189.394 168.307 182.209 170.91 170.742Z" fill="white"/>
<path d="M170.911 229.52C173.514 218.053 166.329 206.647 154.862 204.044C143.396 201.441 131.99 208.626 129.387 220.093C126.784 231.56 133.969 242.966 145.436 245.569C156.902 248.172 168.308 240.986 170.911 229.52Z" fill="#13ADE1"/>
<path opacity="0.6" d="M170.911 229.52C173.514 218.053 166.329 206.647 154.862 204.044C143.396 201.441 131.99 208.626 129.387 220.093C126.784 231.56 133.969 242.966 145.436 245.569C156.902 248.172 168.308 240.986 170.911 229.52Z" fill="white"/>
<path d="M112.139 53.1955C114.742 41.7287 107.557 30.3229 96.0898 27.7198C84.6231 25.1168 73.2172 32.3022 70.6142 43.7689C68.0111 55.2356 75.1965 66.6415 86.6632 69.2445C98.13 71.8476 109.536 64.6622 112.139 53.1955Z" fill="#13ADE1"/>
<path opacity="0.6" d="M112.139 53.1955C114.742 41.7287 107.557 30.3229 96.0898 27.7198C84.6231 25.1168 73.2172 32.3022 70.6142 43.7689C68.0111 55.2356 75.1965 66.6415 86.6632 69.2445C98.13 71.8476 109.536 64.6622 112.139 53.1955Z" fill="white"/>
<path d="M112.149 111.973C114.752 100.506 107.566 89.1002 96.0995 86.4972C84.6328 83.8941 73.227 91.0795 70.6239 102.546C68.0209 114.013 75.2063 125.419 86.673 128.022C98.1397 130.625 109.546 123.44 112.149 111.973Z" fill="#13ADE1"/>
<path opacity="0.6" d="M112.149 111.973C114.752 100.506 107.566 89.1002 96.0995 86.4972C84.6328 83.8941 73.227 91.0795 70.6239 102.546C68.0209 114.013 75.2063 125.419 86.673 128.022C98.1397 130.625 109.546 123.44 112.149 111.973Z" fill="white"/>
<path d="M112.142 170.742C114.745 159.276 107.56 147.87 96.0932 145.267C84.6265 142.664 73.2206 149.849 70.6176 161.316C68.0145 172.783 75.1999 184.188 86.6666 186.791C98.1334 189.394 109.539 182.209 112.142 170.742Z" fill="#13ADE1"/>
<path opacity="0.6" d="M112.142 170.742C114.745 159.276 107.56 147.87 96.0932 145.267C84.6265 142.664 73.2206 149.849 70.6176 161.316C68.0145 172.783 75.1999 184.188 86.6666 186.791C98.1334 189.394 109.539 182.209 112.142 170.742Z" fill="white"/>
<path d="M112.143 229.512C114.746 218.045 107.561 206.639 96.0942 204.036C84.6275 201.433 73.2216 208.619 70.6186 220.085C68.0155 231.552 75.2009 242.958 86.6676 245.561C98.1344 248.164 109.54 240.979 112.143 229.512Z" fill="#13ADE1"/>
<path opacity="0.6" d="M112.143 229.512C114.746 218.045 107.561 206.639 96.0942 204.036C84.6275 201.433 73.2216 208.619 70.6186 220.085C68.0155 231.552 75.2009 242.958 86.6676 245.561C98.1344 248.164 109.54 240.979 112.143 229.512Z" fill="white"/>
<path d="M226.428 113.526L221.958 108.898L217.189 115.053C217.189 115.053 220.822 118.553 225.143 117.541L226.428 113.526Z" fill="#9F5B53"/>
<path d="M215.811 106.363L213.771 112.816L217.188 115.055L221.957 108.901L215.811 106.363Z" fill="#9F5B53"/>
<path d="M154.933 106.708C155.303 105.61 155.906 104.604 156.701 103.761C157.497 102.918 158.465 102.257 159.54 101.824C160.615 101.39 161.771 101.195 162.928 101.25C164.086 101.306 165.218 101.612 166.246 102.147L161.27 99.5588C159.428 98.628 158.003 97.0375 157.281 95.1039C156.559 93.1704 156.591 91.0358 157.372 89.125C157.813 88.1177 158.457 87.2117 159.263 86.4629C160.068 85.7141 161.019 85.1385 162.056 84.7716C163.093 84.4047 164.194 84.2544 165.291 84.3298C166.389 84.4053 167.459 84.7049 168.436 85.2103L163.459 82.6309C161.615 81.6999 160.19 80.1079 159.467 78.1725C158.745 76.2371 158.778 74.1005 159.561 72.1887C160.002 71.1726 160.648 70.2584 161.459 69.5038C162.27 68.7491 163.228 68.1702 164.273 67.8034C165.318 67.4366 166.428 67.2898 167.532 67.3722C168.637 67.4546 169.713 67.7644 170.692 68.2823L147.062 55.9243C145.324 55.0553 143.951 53.5956 143.192 51.8067C142.432 50.0179 142.334 48.0168 142.915 46.1623C143.287 45.0644 143.892 44.0599 144.688 43.2175C145.484 42.3751 146.453 41.7147 147.528 41.2815C148.603 40.8483 149.759 40.6525 150.917 40.7076C152.075 40.7627 153.207 41.0673 154.236 41.6006L204 67.6188L198.891 46.6516C198.388 44.5452 198.703 42.3262 199.772 40.4428C200.841 38.5594 202.585 37.1519 204.652 36.5044C206.718 35.8569 208.954 36.0177 210.906 36.9544C212.859 37.8911 214.384 39.5338 215.172 41.5508L231.495 83.9496C232.893 87.5734 235.56 90.5654 239.001 92.368L241.846 93.8526C242.282 94.0799 242.668 94.391 242.984 94.7683C243.299 95.1455 243.537 95.5812 243.683 96.0506C243.83 96.52 243.882 97.0136 243.837 97.5032C243.792 97.9928 243.651 98.4688 243.421 98.9036L223.516 136.931C223.055 137.81 222.265 138.47 221.318 138.767C220.371 139.064 219.345 138.974 218.465 138.516L211.481 134.866C208.836 133.509 205.872 132.895 202.905 133.091C195.733 133.492 188.585 131.945 182.22 128.613L158.997 116.47C157.274 115.588 155.919 114.122 155.175 112.334C154.431 110.547 154.345 108.553 154.933 106.708Z" fill="#13ADE1"/>
<path d="M220.24 140.169C219.438 140.17 218.647 139.976 217.935 139.605L210.951 135.956C208.504 134.703 205.766 134.13 203.022 134.297C195.626 134.712 188.255 133.118 181.69 129.685L158.467 117.543C156.478 116.525 154.914 114.835 154.053 112.773C153.192 110.711 153.089 108.41 153.764 106.28C154.191 105.009 154.888 103.846 155.809 102.872C156.73 101.898 157.852 101.136 159.097 100.64C159.435 100.5 159.781 100.384 160.134 100.291C158.195 99.1291 156.738 97.3089 156.029 95.1624C155.319 93.0158 155.405 90.6859 156.269 88.597C156.771 87.4263 157.511 86.3735 158.444 85.5065C159.377 84.6394 160.481 83.9772 161.685 83.5625C161.909 83.4879 162.133 83.4133 162.357 83.3552C160.417 82.1941 158.959 80.3739 158.249 78.2269C157.539 76.0799 157.626 73.7494 158.492 71.6607C158.994 70.4915 159.736 69.4404 160.668 68.5748C161.601 67.7092 162.705 67.0483 163.908 66.6346C164.115 66.5599 164.331 66.4936 164.538 66.4355L146.491 56.997C144.501 55.9791 142.937 54.2889 142.076 52.2268C141.215 50.1647 141.113 47.8641 141.788 45.7338C142.217 44.4663 142.916 43.3066 143.835 42.334C144.754 41.3614 145.873 40.599 147.114 40.0988C148.355 39.5987 149.69 39.3727 151.027 39.4362C152.364 39.4998 153.671 39.8514 154.859 40.4671L202.209 65.2495L197.739 46.9447C197.166 44.5322 197.529 41.992 198.757 39.8374C199.984 37.6827 201.983 36.0743 204.351 35.3371C206.718 34.5999 209.278 34.7888 211.511 35.8658C213.745 36.9427 215.486 38.8274 216.384 41.1389L232.706 83.5377C233.996 86.8804 236.457 89.6397 239.632 91.3008L242.468 92.7854C243.049 93.088 243.564 93.5022 243.985 94.0043C244.405 94.5064 244.722 95.0865 244.918 95.7114C245.114 96.3363 245.184 96.9936 245.125 97.6458C245.066 98.2979 244.879 98.9321 244.575 99.5118L224.669 137.548C224.24 138.347 223.601 139.013 222.82 139.475C222.039 139.937 221.147 140.177 220.24 140.169ZM203.959 131.8C206.792 131.785 209.586 132.453 212.104 133.749L219.088 137.399C219.378 137.553 219.696 137.648 220.024 137.678C220.351 137.709 220.681 137.674 220.995 137.576C221.309 137.478 221.6 137.319 221.852 137.108C222.104 136.896 222.312 136.637 222.463 136.345L242.369 98.3092C242.521 98.0186 242.615 97.7008 242.644 97.3739C242.673 97.047 242.637 96.7176 242.539 96.4046C242.44 96.0916 242.28 95.8013 242.069 95.5502C241.858 95.2992 241.599 95.0924 241.307 94.9419L238.471 93.4572C234.772 91.518 231.906 88.2985 230.409 84.4002L214.078 42.0015C213.422 40.2553 212.123 38.8265 210.447 38.0083C208.771 37.1901 206.845 37.0447 205.065 37.602C203.285 38.1592 201.786 39.3769 200.875 41.0048C199.965 42.6327 199.712 44.5475 200.169 46.3558L205.295 67.3312C205.352 67.5626 205.34 67.8055 205.262 68.0307C205.184 68.2558 205.043 68.4536 204.855 68.6002C204.668 68.75 204.441 68.8415 204.202 68.8636C203.963 68.8857 203.723 68.8374 203.512 68.7246L153.748 42.7065C152.88 42.2555 151.926 41.9976 150.949 41.9504C149.973 41.9031 148.998 42.0677 148.091 42.4328C147.173 42.7905 146.346 43.3483 145.67 44.0656C144.995 44.783 144.487 45.6418 144.185 46.5798C143.689 48.1527 143.769 49.8506 144.411 51.37C145.052 52.8893 146.212 54.1312 147.685 54.8737L171.323 67.2317C171.615 67.3846 171.835 67.6474 171.934 67.9624C172.033 68.2774 172.002 68.6187 171.849 68.9113C171.774 69.0561 171.67 69.1846 171.545 69.2895C171.419 69.3944 171.275 69.4735 171.119 69.5224C170.804 69.6212 170.462 69.5908 170.17 69.4379C169.345 69.0097 168.44 68.7556 167.513 68.6914C166.586 68.6272 165.655 68.7542 164.779 69.0647C163.899 69.3678 163.092 69.8512 162.409 70.4838C161.726 71.1165 161.183 71.8845 160.814 72.7389C160.154 74.3598 160.129 76.1699 160.744 77.8085C161.359 79.4471 162.568 80.7938 164.132 81.5803L169.108 84.168C169.376 84.3336 169.571 84.5944 169.654 84.8979C169.737 85.2015 169.701 85.5252 169.555 85.8038C169.409 86.0825 169.163 86.2954 168.866 86.3997C168.569 86.504 168.244 86.4919 167.955 86.3659C167.131 85.9393 166.228 85.6861 165.303 85.6219C164.377 85.5577 163.448 85.6839 162.573 85.9927C161.692 86.2976 160.885 86.7826 160.203 87.4166C159.52 88.0506 158.977 88.8198 158.608 89.6752C157.95 91.2951 157.926 93.1032 158.541 94.7399C159.156 96.3766 160.364 97.7219 161.926 98.5083L166.902 101.096C167.195 101.249 167.414 101.512 167.513 101.827C167.612 102.142 167.582 102.483 167.429 102.776C167.276 103.068 167.013 103.288 166.698 103.387C166.383 103.485 166.042 103.455 165.749 103.302C164.881 102.855 163.926 102.599 162.95 102.554C161.974 102.508 160.999 102.673 160.093 103.037C159.178 103.399 158.354 103.958 157.68 104.675C157.006 105.392 156.499 106.248 156.194 107.184C155.697 108.757 155.777 110.455 156.418 111.975C157.059 113.495 158.221 114.737 159.695 115.478L182.918 127.62C189.071 130.801 195.966 132.27 202.881 131.875C203.246 131.875 203.603 131.817 203.959 131.817V131.8Z" fill="#13ADE1"/>
<path d="M172.459 106.638C172.257 106.639 172.057 106.591 171.878 106.497L165.716 103.254C165.571 103.178 165.443 103.075 165.338 102.949C165.233 102.824 165.154 102.679 165.105 102.523C165.056 102.367 165.038 102.203 165.053 102.04C165.067 101.878 165.114 101.719 165.189 101.574C165.265 101.43 165.369 101.301 165.494 101.196C165.619 101.091 165.764 101.012 165.92 100.963C166.076 100.914 166.24 100.897 166.403 100.911C166.566 100.926 166.724 100.972 166.869 101.048L173.065 104.291C173.311 104.419 173.508 104.627 173.622 104.88C173.737 105.134 173.764 105.418 173.698 105.689C173.632 105.959 173.477 106.199 173.259 106.371C173.04 106.543 172.77 106.637 172.492 106.638H172.459Z" fill="#13ADE1"/>
<path d="M174.682 89.7016C174.479 89.7042 174.28 89.6557 174.101 89.5606L167.906 86.3177C167.749 86.2493 167.608 86.1494 167.492 86.0242C167.376 85.899 167.287 85.7512 167.23 85.5901C167.173 85.4289 167.151 85.2578 167.163 85.0874C167.175 84.9171 167.223 84.7511 167.302 84.5998C167.381 84.4485 167.491 84.3152 167.624 84.2082C167.757 84.1011 167.911 84.0226 168.076 83.9776C168.241 83.9326 168.413 83.922 168.582 83.9464C168.751 83.9709 168.913 84.0299 169.058 84.1198L175.254 87.3544C175.501 87.4831 175.697 87.6907 175.812 87.944C175.927 88.1974 175.953 88.482 175.887 88.7522C175.822 89.0225 175.667 89.2629 175.448 89.435C175.23 89.6071 174.96 89.7009 174.682 89.7016Z" fill="#13ADE1"/>
<path d="M176.896 72.7746C176.696 72.7723 176.501 72.724 176.323 72.6336L170.128 69.3907C169.983 69.315 169.854 69.2115 169.749 69.0861C169.645 68.9608 169.565 68.816 169.516 68.66C169.468 68.504 169.45 68.34 169.464 68.1772C169.479 68.0144 169.525 67.856 169.601 67.7112C169.677 67.5663 169.78 67.4378 169.906 67.3329C170.031 67.228 170.176 67.1489 170.332 67.1C170.488 67.0511 170.652 67.0334 170.815 67.0479C170.977 67.0624 171.136 67.1088 171.281 67.1845L177.476 70.4274C177.723 70.5564 177.92 70.7647 178.035 71.0189C178.15 71.2731 178.176 71.5585 178.109 71.8293C178.042 72.1 177.886 72.3404 177.666 72.5118C177.446 72.6833 177.174 72.7758 176.896 72.7746Z" fill="#13ADE1"/>
<path opacity="0.3" d="M220.24 140.169C219.438 140.17 218.647 139.976 217.935 139.605L210.951 135.956C208.504 134.703 205.766 134.13 203.022 134.297C195.626 134.712 188.255 133.118 181.69 129.685L158.467 117.543C156.478 116.525 154.914 114.835 154.053 112.773C153.192 110.711 153.089 108.41 153.764 106.28C154.191 105.009 154.888 103.846 155.809 102.872C156.73 101.898 157.852 101.136 159.097 100.64C159.435 100.5 159.781 100.384 160.134 100.291C158.195 99.1291 156.738 97.3089 156.029 95.1624C155.319 93.0158 155.405 90.6859 156.269 88.597C156.771 87.4263 157.511 86.3735 158.444 85.5065C159.377 84.6394 160.481 83.9772 161.685 83.5625C161.909 83.4879 162.133 83.4133 162.357 83.3552C160.417 82.1941 158.959 80.3739 158.249 78.2269C157.539 76.0799 157.626 73.7494 158.492 71.6607C158.994 70.4915 159.736 69.4404 160.668 68.5748C161.601 67.7092 162.705 67.0483 163.908 66.6346C164.115 66.5599 164.331 66.4936 164.538 66.4355L146.491 56.997C144.501 55.9791 142.937 54.2889 142.076 52.2268C141.215 50.1647 141.113 47.8641 141.788 45.7338C142.217 44.4663 142.916 43.3066 143.835 42.334C144.754 41.3614 145.873 40.599 147.114 40.0988C148.355 39.5987 149.69 39.3727 151.027 39.4362C152.364 39.4998 153.671 39.8514 154.859 40.4671L202.209 65.2495L197.739 46.9447C197.166 44.5322 197.529 41.992 198.757 39.8374C199.984 37.6827 201.983 36.0743 204.351 35.3371C206.718 34.5999 209.278 34.7888 211.511 35.8658C213.745 36.9427 215.486 38.8274 216.384 41.1389L232.706 83.5377C233.996 86.8804 236.457 89.6397 239.632 91.3008L242.468 92.7854C243.049 93.088 243.564 93.5022 243.985 94.0043C244.405 94.5064 244.722 95.0865 244.918 95.7114C245.114 96.3363 245.184 96.9936 245.125 97.6458C245.066 98.2979 244.879 98.9321 244.575 99.5118L224.669 137.548C224.24 138.347 223.601 139.013 222.82 139.475C222.039 139.937 221.147 140.177 220.24 140.169ZM203.959 131.8C206.792 131.785 209.586 132.453 212.104 133.749L219.088 137.399C219.378 137.553 219.696 137.648 220.024 137.678C220.351 137.709 220.681 137.674 220.995 137.576C221.309 137.478 221.6 137.319 221.852 137.108C222.104 136.896 222.312 136.637 222.463 136.345L242.369 98.3092C242.521 98.0186 242.615 97.7008 242.644 97.3739C242.673 97.047 242.637 96.7176 242.539 96.4046C242.44 96.0916 242.28 95.8013 242.069 95.5502C241.858 95.2992 241.599 95.0924 241.307 94.9419L238.471 93.4572C234.772 91.518 231.906 88.2985 230.409 84.4002L214.078 42.0015C213.422 40.2553 212.123 38.8265 210.447 38.0083C208.771 37.1901 206.845 37.0447 205.065 37.602C203.285 38.1592 201.786 39.3769 200.875 41.0048C199.965 42.6327 199.712 44.5475 200.169 46.3558L205.295 67.3312C205.352 67.5626 205.34 67.8055 205.262 68.0307C205.184 68.2558 205.043 68.4536 204.855 68.6002C204.668 68.75 204.441 68.8415 204.202 68.8636C203.963 68.8857 203.723 68.8374 203.512 68.7246L153.748 42.7065C152.88 42.2555 151.926 41.9976 150.949 41.9504C149.973 41.9031 148.998 42.0677 148.091 42.4328C147.173 42.7905 146.346 43.3483 145.67 44.0656C144.995 44.783 144.487 45.6418 144.185 46.5798C143.689 48.1527 143.769 49.8506 144.411 51.37C145.052 52.8893 146.212 54.1312 147.685 54.8737L171.323 67.2317C171.615 67.3846 171.835 67.6474 171.934 67.9624C172.033 68.2774 172.002 68.6187 171.849 68.9113C171.774 69.0561 171.67 69.1846 171.545 69.2895C171.419 69.3944 171.275 69.4735 171.119 69.5224C170.804 69.6212 170.462 69.5908 170.17 69.4379C169.345 69.0097 168.44 68.7556 167.513 68.6914C166.586 68.6272 165.655 68.7542 164.779 69.0647C163.899 69.3678 163.092 69.8512 162.409 70.4838C161.726 71.1165 161.183 71.8845 160.814 72.7389C160.154 74.3598 160.129 76.1699 160.744 77.8085C161.359 79.4471 162.568 80.7938 164.132 81.5803L169.108 84.168C169.376 84.3336 169.571 84.5944 169.654 84.8979C169.737 85.2015 169.701 85.5252 169.555 85.8038C169.409 86.0825 169.163 86.2954 168.866 86.3997C168.569 86.504 168.244 86.4919 167.955 86.3659C167.131 85.9393 166.228 85.6861 165.303 85.6219C164.377 85.5577 163.448 85.6839 162.573 85.9927C161.692 86.2976 160.885 86.7826 160.203 87.4166C159.52 88.0506 158.977 88.8198 158.608 89.6752C157.95 91.2951 157.926 93.1032 158.541 94.7399C159.156 96.3766 160.364 97.7219 161.926 98.5083L166.902 101.096C167.195 101.249 167.414 101.512 167.513 101.827C167.612 102.142 167.582 102.483 167.429 102.776C167.276 103.068 167.013 103.288 166.698 103.387C166.383 103.485 166.042 103.455 165.749 103.302C164.881 102.855 163.926 102.599 162.95 102.554C161.974 102.508 160.999 102.673 160.093 103.037C159.178 103.399 158.354 103.958 157.68 104.675C157.006 105.392 156.499 106.248 156.194 107.184C155.697 108.757 155.777 110.455 156.418 111.975C157.059 113.495 158.221 114.737 159.695 115.478L182.918 127.62C189.071 130.801 195.966 132.27 202.881 131.875C203.246 131.875 203.603 131.817 203.959 131.817V131.8Z" fill="black"/>
</svg>
