<svg width="26" height="27" viewBox="0 0 26 27" fill="none" xmlns="http://www.w3.org/2000/svg">
<path d="M21.4144 13.6132C20.623 12.689 20.2634 11.8882 20.2634 10.5276V10.065C20.2634 8.29206 19.8553 7.14972 18.9681 6.00737C17.6008 4.2333 15.2988 3.16406 13.0453 3.16406H12.9495C10.7434 3.16406 8.51355 4.18421 7.12247 5.88627C6.18684 7.05152 5.7314 8.24296 5.7314 10.065V10.5276C5.7314 11.8882 5.39547 12.689 4.58042 13.6132C3.98071 14.294 3.78906 15.169 3.78906 16.1161C3.78906 17.0642 4.10022 17.9622 4.7247 18.6921C5.53975 19.5671 6.69072 20.1257 7.86646 20.2228C9.5687 20.417 11.2709 20.4901 12.9979 20.4901C14.7239 20.4901 16.4261 20.3679 18.1294 20.2228C19.3041 20.1257 20.455 19.5671 21.2701 18.6921C21.8935 17.9622 22.2057 17.0642 22.2057 16.1161C22.2057 15.169 22.0141 14.294 21.4144 13.6132" fill="#5593F1"/>
<path opacity="0.4" d="M15.1749 21.8289C14.6334 21.7133 11.3333 21.7133 10.7918 21.8289C10.3288 21.9359 9.82812 22.1846 9.82812 22.7301C9.85504 23.2506 10.1597 23.7099 10.5818 24.0012L10.5807 24.0023C11.1266 24.4278 11.7672 24.6984 12.438 24.7955C12.7955 24.8446 13.1594 24.8424 13.5298 24.7955C14.1995 24.6984 14.8401 24.4278 15.386 24.0023L15.3849 24.0012C15.8069 23.7099 16.1116 23.2506 16.1386 22.7301C16.1386 22.1846 15.6379 21.9359 15.1749 21.8289" fill="#5593F1"/>
<circle cx="20" cy="5" r="5" fill="#F51D1D"/>
</svg>
