<svg width="22" height="22" viewBox="0 0 22 22" fill="none" xmlns="http://www.w3.org/2000/svg">
<path fill-rule="evenodd" clip-rule="evenodd" d="M14.9729 2.52051H7.02629C4.25704 2.52051 2.52087 4.48126 2.52087 7.25601V14.7433C2.52087 17.5181 4.24879 19.4788 7.02629 19.4788H14.972C17.7504 19.4788 19.4792 17.5181 19.4792 14.7433V7.25601C19.4792 4.48126 17.7504 2.52051 14.9729 2.52051Z" stroke="#17C147" stroke-width="1.5" stroke-linecap="round" stroke-linejoin="round"/>
<path fill-rule="evenodd" clip-rule="evenodd" d="M9.79829 10.9994C9.79829 11.9372 9.03837 12.6971 8.10062 12.6971C7.16287 12.6971 6.40295 11.9372 6.40295 10.9994C6.40295 10.0617 7.16287 9.30176 8.10062 9.30176H8.10337C9.03929 9.30267 9.79829 10.0626 9.79829 10.9994Z" stroke="#17C147" stroke-width="1.5" stroke-linecap="round" stroke-linejoin="round"/>
<path d="M9.8009 11H15.5924V12.6977" stroke="#17C147" stroke-width="1.5" stroke-linecap="round" stroke-linejoin="round"/>
<path d="M13 12.6977V11" stroke="#17C147" stroke-width="1.5" stroke-linecap="round" stroke-linejoin="round"/>
</svg>
