<svg width="19" height="15" viewBox="0 0 19 15" fill="none" xmlns="http://www.w3.org/2000/svg">
<mask id="mask0_3674_17006" style="mask-type:alpha" maskUnits="userSpaceOnUse" x="0" y="0" width="19" height="15">
<rect x="0.0185547" y="0.128906" width="18.5212" height="14.5855" fill="#D9D9D9"/>
</mask>
<g mask="url(#mask0_3674_17006)">
<path d="M10.8234 8.02815C10.1803 8.02815 9.63363 7.8509 9.18346 7.49639C8.73329 7.14188 8.5082 6.7114 8.5082 6.20496C8.5082 5.69852 8.73329 5.26805 9.18346 4.91354C9.63363 4.55903 10.1803 4.38178 10.8234 4.38178C11.4665 4.38178 12.0131 4.55903 12.4633 4.91354C12.9134 5.26805 13.1385 5.69852 13.1385 6.20496C13.1385 6.7114 12.9134 7.14188 12.4633 7.49639C12.0131 7.8509 11.4665 8.02815 10.8234 8.02815ZM5.42133 9.85133C4.99688 9.85133 4.63366 9.73222 4.33166 9.49399C4.02915 9.25617 3.87789 8.97013 3.87789 8.63588V3.77405C3.87789 3.4398 4.02915 3.15376 4.33166 2.91594C4.63366 2.67771 4.99688 2.55859 5.42133 2.55859H16.2254C16.6498 2.55859 17.0133 2.67771 17.3158 2.91594C17.6178 3.15376 17.7688 3.4398 17.7688 3.77405V8.63588C17.7688 8.97013 17.6178 9.25617 17.3158 9.49399C17.0133 9.73222 16.6498 9.85133 16.2254 9.85133H5.42133ZM6.96477 8.63588H14.682C14.682 8.30163 14.833 8.01539 15.135 7.77716C15.4375 7.53933 15.8009 7.42042 16.2254 7.42042V4.98951C15.8009 4.98951 15.4375 4.87039 15.135 4.63216C14.833 4.39434 14.682 4.1083 14.682 3.77405H6.96477C6.96477 4.1083 6.81351 4.39434 6.51099 4.63216C6.209 4.87039 5.84577 4.98951 5.42133 4.98951V7.42042C5.84577 7.42042 6.209 7.53933 6.51099 7.77716C6.81351 8.01539 6.96477 8.30163 6.96477 8.63588ZM15.4537 12.2822H2.33445C1.91001 12.2822 1.54679 12.1633 1.24479 11.9255C0.942273 11.6873 0.791016 11.401 0.791016 11.0668V4.38178H2.33445V11.0668H15.4537V12.2822Z" fill="#605E5E"/>
</g>
</svg>
