<svg width="34" height="34" viewBox="0 0 34 34" fill="none" xmlns="http://www.w3.org/2000/svg">
<rect width="34" height="34" rx="17" fill="white"/>
<path d="M20.75 19.5C20.5511 19.5 20.3603 19.579 20.2197 19.7197C20.079 19.8603 20 20.0511 20 20.25C20 20.4489 20.079 20.6397 20.2197 20.7803C20.3603 20.921 20.5511 21 20.75 21H23.25C23.4489 21 23.6397 20.921 23.7803 20.7803C23.921 20.6397 24 20.4489 24 20.25C24 20.0511 23.921 19.8603 23.7803 19.7197C23.6397 19.579 23.4489 19.5 23.25 19.5H20.75ZM7 13.25C7 12.388 7.34241 11.5614 7.9519 10.9519C8.5614 10.3424 9.38805 10 10.25 10H23.75C24.1768 10 24.5994 10.0841 24.9937 10.2474C25.388 10.4107 25.7463 10.6501 26.0481 10.9519C26.3499 11.2537 26.5893 11.612 26.7526 12.0063C26.9159 12.4006 27 12.8232 27 13.25V20.75C27 21.1768 26.9159 21.5994 26.7526 21.9937C26.5893 22.388 26.3499 22.7463 26.0481 23.0481C25.7463 23.3499 25.388 23.5893 24.9937 23.7526C24.5994 23.9159 24.1768 24 23.75 24H10.25C9.38805 24 8.5614 23.6576 7.9519 23.0481C7.34241 22.4386 7 21.612 7 20.75V13.25ZM25.5 14.5V13.25C25.5 12.7859 25.3156 12.3408 24.9874 12.0126C24.6592 11.6844 24.2141 11.5 23.75 11.5H10.25C9.78587 11.5 9.34075 11.6844 9.01256 12.0126C8.68437 12.3408 8.5 12.7859 8.5 13.25V14.5H25.5ZM8.5 16V20.75C8.5 21.716 9.284 22.5 10.25 22.5H23.75C24.2141 22.5 24.6592 22.3156 24.9874 21.9874C25.3156 21.6592 25.5 21.2141 25.5 20.75V16H8.5Z" fill="#3B6BB3"/>
</svg>
