<svg width="24" height="24" viewBox="0 0 24 24" fill="none" xmlns="http://www.w3.org/2000/svg">
<path d="M7.17467 13.7344C7.1675 13.7445 7.16169 13.756 7.15592 13.7676C7.14725 13.7633 7.14003 13.7604 7.13281 13.756C7.1458 13.7488 7.16023 13.7415 7.17467 13.7344Z" fill="#DD636E"/>
<path d="M14.5921 5.89762V12L8.92353 14.0772L2.79688 12V5.89762C2.79688 4.26881 3.45697 2.79455 4.52422 1.72734C5.59147 0.660141 7.0662 0 8.6945 0C11.9517 0 14.5921 2.64047 14.5921 5.89762Z" fill="#E28086"/>
<path d="M10.4745 13.509L8.92339 14.0774L2.79688 12V5.89762C2.79688 4.26881 3.45697 2.79455 4.52422 1.72734C5.59142 0.660094 7.0662 0 8.6945 0C9.25419 0 9.7955 0.0777188 10.3084 0.223125C9.32858 0.50175 8.45258 1.02666 7.75189 1.72734C6.68469 2.79455 6.02455 4.26881 6.02455 5.89762V12L10.4745 13.509Z" fill="#DD636E"/>
<path d="M14.5921 12V18.1024C14.5921 19.7312 13.932 21.2055 12.8648 22.2727C11.7976 23.3399 10.3228 24 8.6945 24C5.43734 24 2.79688 21.3595 2.79688 18.1024V12H14.5921Z" fill="#B1E4FA"/>
<path d="M10.3084 23.7769C9.79555 23.9222 9.25372 24 8.6945 24C5.43734 24 2.79688 21.3595 2.79688 18.1024V12H6.02455V18.1024C6.02459 20.7998 7.83594 23.0748 10.3084 23.7769Z" fill="#9DC6FB"/>
<path d="M15.8513 14.0463C18.8024 14.0463 21.1947 11.654 21.1947 8.70284C21.1947 5.75173 18.8024 3.35938 15.8513 3.35938C12.9002 3.35938 10.5078 5.75173 10.5078 8.70284C10.5078 11.654 12.9002 14.0463 15.8513 14.0463Z" fill="#F9F6F6"/>
<path d="M16.3805 14.0204C16.2065 14.0375 16.0295 14.0463 15.8511 14.0463C12.9002 14.0463 10.5078 11.6539 10.5078 8.70303C10.5078 5.75178 12.9002 3.35938 15.8511 3.35938C16.0295 3.35938 16.2064 3.36814 16.3805 3.38525C13.6782 3.65131 11.5666 5.93061 11.5666 8.70303C11.5666 11.475 13.6782 13.7543 16.3805 14.0204Z" fill="#DDDAEC"/>
<path d="M18.948 7.45908H17.0978V5.60897C17.0978 5.25539 16.8112 4.96875 16.4576 4.96875H15.2477C14.8942 4.96875 14.6075 5.25539 14.6075 5.60897V7.45908H12.7574C12.4038 7.45908 12.1172 7.74572 12.1172 8.0993V9.30919C12.1172 9.66277 12.4038 9.94941 12.7574 9.94941H14.6075V11.7995C14.6075 12.1531 14.8942 12.4397 15.2477 12.4397H16.4576C16.8112 12.4397 17.0978 12.1531 17.0978 11.7995V9.94941H18.948C19.3015 9.94941 19.5882 9.66277 19.5882 9.30919V8.0993C19.5881 7.74572 19.3015 7.45908 18.948 7.45908Z" fill="#E28086"/>
</svg>
