<svg width="34" height="34" viewBox="0 0 34 34" fill="none" xmlns="http://www.w3.org/2000/svg">
<rect width="33.9999" height="34.0002" rx="16.9999" fill="white"/>
<path d="M9.72787 21.1372C8.18287 19.5912 7.40987 18.8192 7.12287 17.8162C6.83487 16.8132 7.08087 15.7482 7.57287 13.6192L7.85587 12.3912C8.26887 10.5992 8.47587 9.70325 9.08887 9.08925C9.70287 8.47625 10.5989 8.26925 12.3909 7.85625L13.6189 7.57225C15.7489 7.08125 16.8129 6.83525 17.8159 7.12225C18.8189 7.41025 19.5909 8.18325 21.1359 9.72825L22.9659 11.5582C25.6569 14.2482 26.9999 15.5922 26.9999 17.2622C26.9999 18.9332 25.6549 20.2772 22.9659 22.9662C20.2769 25.6572 18.9329 27.0002 17.2619 27.0002C15.5919 27.0002 14.2469 25.6552 11.5579 22.9662L9.72787 21.1372Z" stroke="#3B6BB3" stroke-width="1.5"/>
<path d="M20.3923 20.3924C20.9773 19.8054 21.0563 18.9354 20.5683 18.4464C20.0803 17.9584 19.2093 18.0374 18.6233 18.6234C18.0383 19.2094 17.1673 19.2884 16.6793 18.8004C16.1913 18.3124 16.2703 17.4414 16.8563 16.8564M16.8563 16.8564L16.5023 16.5024M16.8563 16.8564C17.1873 16.5244 17.6093 16.3564 18.0023 16.3594M20.7453 20.7454L20.3913 20.3914C19.9913 20.7924 19.4563 20.9564 19.0023 20.8624" stroke="#3B6BB3" stroke-width="1.5" stroke-linecap="round"/>
<path d="M15.0239 15.297C15.8049 14.516 15.8049 13.2496 15.0239 12.4686C14.2428 11.6875 12.9765 11.6876 12.1955 12.4686C11.4144 13.2496 11.4144 14.516 12.1955 15.297C12.9765 16.0781 14.2428 16.0781 15.0239 15.297Z" stroke="#3B6BB3" stroke-width="1.5"/>
</svg>
