<svg width="17" height="16" viewBox="0 0 17 16" fill="none" xmlns="http://www.w3.org/2000/svg">
<mask id="mask0_3682_1498" style="mask-type:alpha" maskUnits="userSpaceOnUse" x="0" y="0" width="17" height="16">
<rect x="0.417969" width="16" height="15.9066" fill="#D9D9D9"/>
</mask>
<g mask="url(#mask0_3682_1498)">
<path d="M13.4846 13.9182L9.28464 9.74275C8.9513 10.0079 8.56797 10.2177 8.13464 10.3724C7.7013 10.527 7.24019 10.6044 6.7513 10.6044C5.54019 10.6044 4.5153 10.1875 3.67664 9.3537C2.83752 8.51948 2.41797 7.50036 2.41797 6.29632C2.41797 5.09228 2.83752 4.07315 3.67664 3.23894C4.5153 2.40517 5.54019 1.98828 6.7513 1.98828C7.96241 1.98828 8.98752 2.40517 9.82664 3.23894C10.6653 4.07315 11.0846 5.09228 11.0846 6.29632C11.0846 6.78235 11.0069 7.24077 10.8513 7.67157C10.6957 8.10238 10.4846 8.48347 10.218 8.81486L14.418 12.9903L13.4846 13.9182ZM6.7513 9.2788C7.58464 9.2788 8.29308 8.98895 8.87664 8.40924C9.45975 7.82909 9.7513 7.12479 9.7513 6.29632C9.7513 5.46785 9.45975 4.76354 8.87664 4.18339C8.29308 3.60368 7.58464 3.31383 6.7513 3.31383C5.91797 3.31383 5.20952 3.60368 4.62597 4.18339C4.04286 4.76354 3.7513 5.46785 3.7513 6.29632C3.7513 7.12479 4.04286 7.82909 4.62597 8.40924C5.20952 8.98895 5.91797 9.2788 6.7513 9.2788Z" fill="#979797"/>
</g>
</svg>
