<svg width="19" height="16" viewBox="0 0 19 16" fill="none" xmlns="http://www.w3.org/2000/svg">
<mask id="mask0_3674_16996" style="mask-type:alpha" maskUnits="userSpaceOnUse" x="0" y="0" width="19" height="16">
<rect x="0.349609" y="0.535156" width="18.5239" height="14.5875" fill="#D9D9D9"/>
</mask>
<g mask="url(#mask0_3674_16996)">
<path d="M10.7696 13.9063C9.38028 13.9063 8.19681 13.5213 7.21916 12.7514C6.24151 11.9815 5.75269 11.0496 5.75269 9.95549V9.606C4.64641 9.46417 3.72664 9.05633 2.99341 8.38247C2.26017 7.70901 1.89355 6.91642 1.89355 6.0047V2.35781H4.20904V1.75H5.75269V4.18126H4.20904V3.57344H3.43721V6.0047C3.43721 6.67329 3.73951 7.24565 4.34411 7.72177C4.9487 8.19789 5.67551 8.43595 6.52452 8.43595C7.37353 8.43595 8.10033 8.19789 8.70493 7.72177C9.30953 7.24565 9.61183 6.67329 9.61183 6.0047V3.57344H8.84V4.18126H7.29635V1.75H8.84V2.35781H11.1555V6.0047C11.1555 6.91642 10.7889 7.70901 10.0556 8.38247C9.32239 9.05633 8.40263 9.46417 7.29635 9.606V9.95549C7.29635 10.7153 7.63389 11.3612 8.30898 11.8932C8.98459 12.4248 9.80478 12.6907 10.7696 12.6907C11.7344 12.6907 12.5545 12.4248 13.2302 11.8932C13.9052 11.3612 14.2428 10.7153 14.2428 9.95549V8.9374C13.7926 8.81584 13.4226 8.59804 13.1329 8.284C12.8437 7.96996 12.6991 7.6154 12.6991 7.22033C12.6991 6.71381 12.9243 6.28328 13.3745 5.92872C13.8247 5.57416 14.3714 5.39688 15.0146 5.39688C15.6578 5.39688 16.2045 5.57416 16.6548 5.92872C17.105 6.28328 17.3301 6.71381 17.3301 7.22033C17.3301 7.6154 17.1855 7.96996 16.8963 8.284C16.6066 8.59804 16.2367 8.81584 15.7864 8.9374V9.95549C15.7864 11.0496 15.2976 11.9815 14.32 12.7514C13.3423 13.5213 12.1589 13.9063 10.7696 13.9063ZM15.0146 7.82814C15.2333 7.82814 15.4165 7.76979 15.5642 7.65309C15.7123 7.53679 15.7864 7.39254 15.7864 7.22033C15.7864 7.04811 15.7123 6.90365 15.5642 6.78695C15.4165 6.67066 15.2333 6.61251 15.0146 6.61251C14.7959 6.61251 14.6128 6.67066 14.4651 6.78695C14.3169 6.90365 14.2428 7.04811 14.2428 7.22033C14.2428 7.39254 14.3169 7.53679 14.4651 7.65309C14.6128 7.76979 14.7959 7.82814 15.0146 7.82814Z" fill="#605E5E"/>
</g>
</svg>
