<svg width="19" height="14" viewBox="0 0 19 14" fill="none" xmlns="http://www.w3.org/2000/svg">
<path d="M8.006 0.400056C8.46063 0.138973 8.97574 0.00158691 9.5 0.00158691C10.0243 0.00158691 10.5394 0.138973 10.994 0.400056L18.249 4.56606C18.3252 4.60987 18.3886 4.67302 18.4326 4.74913C18.4767 4.82524 18.4998 4.91162 18.4998 4.99956C18.4998 5.08749 18.4767 5.17387 18.4326 5.24998C18.3886 5.32609 18.3252 5.38924 18.249 5.43306L15.5 7.01006V11.5001C15.5001 11.5658 15.4873 11.6308 15.4622 11.6916C15.4372 11.7523 15.4004 11.8075 15.354 11.8541L15.352 11.8551L15.35 11.8581L15.343 11.8641L15.32 11.8861L15.24 11.9601C15.17 12.0221 15.07 12.1071 14.939 12.2081C14.5798 12.4839 14.1982 12.7291 13.798 12.9411C12.4745 13.6428 10.998 14.0066 9.5 14.0001C8.00188 14.0062 6.52546 13.6421 5.202 12.9401C4.80217 12.728 4.42083 12.4828 4.062 12.2071C3.93009 12.1053 3.80263 11.9978 3.68 11.8851C3.6251 11.8367 3.58078 11.7776 3.5498 11.7113C3.51883 11.6451 3.50187 11.5732 3.5 11.5001V7.01206L1.5 5.86306V10.4991C1.5 10.6317 1.44732 10.7588 1.35355 10.8526C1.25979 10.9464 1.13261 10.9991 1 10.9991C0.867392 10.9991 0.740215 10.9464 0.646447 10.8526C0.552679 10.7588 0.5 10.6317 0.5 10.4991V5.00006C0.499934 4.91028 0.524042 4.82214 0.569791 4.7449C0.615539 4.66765 0.681242 4.60415 0.76 4.56106L8.007 0.400056H8.006ZM10.994 9.59805C10.5394 9.85914 10.0243 9.99652 9.5 9.99652C8.97574 9.99652 8.46063 9.85914 8.006 9.59805L4.5 7.58506V11.2761C4.86409 11.575 5.25703 11.8369 5.673 12.0581C6.553 12.5281 7.848 12.9991 9.5 12.9991C10.8336 13.0059 12.1483 12.683 13.327 12.0591C13.743 11.8376 14.136 11.5754 14.5 11.2761V7.58406L10.994 9.59805ZM10.496 1.26806C10.1929 1.094 9.84951 1.00241 9.5 1.00241C9.15049 1.00241 8.80709 1.094 8.504 1.26806L2.004 4.99906L8.504 8.73106C8.80709 8.90511 9.15049 8.9967 9.5 8.9967C9.84951 8.9967 10.1929 8.90511 10.496 8.73106L16.996 4.99906L10.496 1.26806Z" fill="#8B8D97"/>
</svg>
