<svg width="17" height="16" viewBox="0 0 17 16" fill="none" xmlns="http://www.w3.org/2000/svg">
    <g clip-path="url(#clip0_967_5744)">
        <path d="M11.1668 10.6667L8.50016 8L5.8335 10.6667" stroke="#5593F1" stroke-width="2" stroke-linecap="round"
            stroke-linejoin="round" />
        <path d="M8.5 8V14" stroke="#5593F1" stroke-width="2" stroke-linecap="round" stroke-linejoin="round" />
        <path
            d="M14.0933 12.2601C14.7435 11.9056 15.2572 11.3447 15.5532 10.6658C15.8493 9.98698 15.9108 9.22889 15.7281 8.5112C15.5454 7.7935 15.129 7.15708 14.5444 6.70237C13.9599 6.24766 13.2406 6.00056 12.5 6.00007H11.66C11.4582 5.21956 11.0821 4.49496 10.5599 3.88073C10.0378 3.2665 9.3832 2.77864 8.64537 2.45381C7.90754 2.12898 7.10567 1.97564 6.30005 2.00533C5.49443 2.03501 4.70602 2.24694 3.99409 2.62518C3.28216 3.00342 2.66525 3.53814 2.18972 4.18913C1.7142 4.84011 1.39243 5.59043 1.24863 6.38367C1.10482 7.17691 1.14271 7.99242 1.35945 8.76891C1.57619 9.5454 1.96613 10.2626 2.49997 10.8667"
            stroke="#5593F1" stroke-width="2" stroke-linecap="round" stroke-linejoin="round" />
        <path d="M11.1668 10.6667L8.50016 8L5.8335 10.6667" stroke="#5593F1" stroke-width="2" stroke-linecap="round"
            stroke-linejoin="round" />
    </g>
    <defs>
        <clipPath id="clip0_967_5744">
            <rect width="16" height="16" fill="white" transform="translate(0.5)" />
        </clipPath>
    </defs>
</svg>