<svg width="76" height="77" viewBox="0 0 76 77" fill="none" xmlns="http://www.w3.org/2000/svg">
<g clip-path="url(#clip0_240_26262)">
<path fill-rule="evenodd" clip-rule="evenodd" d="M37.9752 0.667969C58.9569 0.667969 75.9498 17.6618 75.9498 38.6426C75.9498 59.6252 58.9569 76.6189 37.9752 76.6189C16.9923 76.6189 0 59.6252 0 38.6426C0 17.6618 16.9923 0.667969 37.9752 0.667969Z" fill="#06A77D"/>
<path fill-rule="evenodd" clip-rule="evenodd" d="M75.0222 30.1193C75.6231 32.8517 75.9504 35.6929 75.9504 38.6426C75.9504 59.0792 59.8856 75.6884 39.6692 76.5646C39.6692 76.1816 15.0255 53.8327 12.459 52.1951C12.459 41.2105 13.004 30.9924 13.004 20.0654L63.4927 19.5195C64.2579 20.5586 74.8035 30.1193 75.0222 30.1193Z" fill="#049771"/>
<path d="M42.4026 52.25H33.6055V55.7455H42.4026V52.25Z" fill="#21313E"/>
<path d="M63.4928 19.5195H12.459V52.4138H63.4928V19.5195Z" fill="#324A5E"/>
<path d="M61.5802 21.4336H14.3711V50.5021H61.5802V21.4336Z" fill="white"/>
<path fill-rule="evenodd" clip-rule="evenodd" d="M28.5215 55.582H47.4809C48.0835 55.582 48.5201 56.0736 48.5201 56.6739C48.5201 57.2756 48.0835 57.7673 47.4809 57.7673H28.5215C27.9201 57.7673 27.4297 57.2758 27.4297 56.6739C27.4297 56.0738 27.9201 55.582 28.5215 55.582Z" fill="#324A5E"/>
<path d="M58.4107 27.7695H32.6211V47.057H58.4107V27.7695Z" fill="white"/>
<path d="M55.8961 29.9023H24.8613V31.1568H55.8961V29.9023Z" fill="#EFEFEF"/>
<path d="M55.8961 35.3633H24.8613V36.621H55.8961V35.3633Z" fill="#EFEFEF"/>
<path d="M23.4962 34.2734H20.1074V37.6604H23.4962V34.2734Z" fill="#90DFAA"/>
<path d="M55.8961 40.8281H24.8613V42.0859H55.8961V40.8281Z" fill="#EFEFEF"/>
<path d="M23.4962 39.7383H20.1074V43.1238H23.4962V39.7383Z" fill="#FFD05B"/>
<path d="M23.4962 28.8633H20.1074V32.1976H23.4962V28.8633Z" fill="#FD8469"/>
<path fill-rule="evenodd" clip-rule="evenodd" d="M43.55 40.0648H32.4023V30.1737C32.4023 27.114 34.917 24.6016 37.9764 24.6016C41.0912 24.6016 43.55 27.1138 43.55 30.1737V40.0648ZM35.0261 37.4392H40.9819V30.1737C40.9819 28.536 39.6149 27.1683 37.9764 27.1683C36.3376 27.1683 35.0261 28.536 35.0261 30.1737V37.4392Z" fill="#FFD15D"/>
<path fill-rule="evenodd" clip-rule="evenodd" d="M29.3965 34.4375H31.0361H44.9699H46.5541V36.0766V45.6916V47.3309H29.3965V45.7475V45.6916V36.0766V34.4375ZM39.6691 39.8468C39.6691 38.9162 38.9045 38.1516 37.9755 38.1516C37.0462 38.1516 36.2808 38.9162 36.2808 39.8468C36.2808 40.4468 36.6089 40.9928 37.1008 41.2672V43.7254H38.9044V41.2672C39.3418 40.9928 39.6691 40.4469 39.6691 39.8468Z" fill="#FC6F58"/>
<path fill-rule="evenodd" clip-rule="evenodd" d="M39.3409 41.4832V44.2158H36.608V41.4832C36.1168 41.1017 35.8438 40.5016 35.8438 39.8457C35.8438 38.6422 36.7723 37.7148 37.9746 37.7148C39.1765 37.7148 40.1596 38.6422 40.1596 39.8457C40.1596 40.5016 39.8325 41.1017 39.3409 41.4832Z" fill="#B85140"/>
<path fill-rule="evenodd" clip-rule="evenodd" d="M39.6695 39.8475C39.6695 38.9169 38.905 38.1523 37.976 38.1523C37.0466 38.1523 36.2812 38.9169 36.2812 39.8475C36.2812 40.4475 36.6093 40.9935 37.1012 41.268V43.7261H38.9048V41.268C39.3423 40.9935 39.6695 40.4477 39.6695 39.8475Z" fill="#324A5E"/>
</g>
<defs>
<clipPath id="clip0_240_26262">
<rect width="75.95" height="75.951" fill="white" transform="translate(0 0.667969)"/>
</clipPath>
</defs>
</svg>
