<svg width="77" height="77" viewBox="0 0 77 77" fill="none" xmlns="http://www.w3.org/2000/svg">
<g clip-path="url(#clip0_240_26238)">
<path fill-rule="evenodd" clip-rule="evenodd" d="M76.907 38.5138C76.907 17.5752 59.9256 0.539062 38.9318 0.539062C17.9931 0.539062 0.957031 17.5752 0.957031 38.5138C0.957031 59.5071 17.9931 76.4902 38.9318 76.4902C59.9256 76.4902 76.907 59.5071 76.907 38.5138Z" fill="#13ADE1"/>
<path fill-rule="evenodd" clip-rule="evenodd" d="M76.9068 38.5146C76.9068 37.7456 76.9068 36.9752 76.8521 36.2068L58.7726 19.5C58.0021 19.5 57.7275 19.9937 56.9585 19.9937C45.3067 19.9937 33.6555 19.9937 22.0593 19.9937C21.2356 19.9937 20.4652 19.9937 19.6425 19.9937C19.6425 20.818 19.6425 21.5878 19.6425 22.4115C19.6425 23.731 19.6425 25.0507 19.6425 26.4232C19.6425 35.1065 19.6425 43.8463 19.6425 52.5286L19.0918 54.452C22.9943 56.2114 42.6693 76.2133 43.5476 76.2133C62.3446 73.9618 76.9068 57.9153 76.9068 38.5146Z" fill="#109DCC"/>
<path fill-rule="evenodd" clip-rule="evenodd" d="M21.511 25.9295H56.408V52.035H21.511V25.9295ZM58.7726 52.035V54.452H56.408H21.511H19.0918V52.035V25.9295V21.8631V19.5H21.511H56.408H58.7726V21.8631V25.9295V52.035Z" fill="#324A5E"/>
<path fill-rule="evenodd" clip-rule="evenodd" d="M48.8789 22.6854C48.8789 23.566 49.595 24.2795 50.4732 24.2795C51.2981 24.2795 52.011 23.566 52.011 22.6854C52.011 21.8066 51.298 21.0938 50.4732 21.0938C49.595 21.0938 48.8789 21.8066 48.8789 22.6854Z" fill="#90DFAA"/>
<path fill-rule="evenodd" clip-rule="evenodd" d="M53.2207 22.6854C53.2207 23.566 53.935 24.2795 54.8148 24.2795C55.693 24.2795 56.4073 23.566 56.4073 22.6854C56.4073 21.8066 55.693 21.0938 54.8148 21.0938C53.935 21.0938 53.2207 21.8066 53.2207 22.6854Z" fill="#FFD05B"/>
<path fill-rule="evenodd" clip-rule="evenodd" d="M44.4844 22.6854C44.4844 23.566 45.1989 24.2795 46.0769 24.2795C46.9566 24.2795 47.6708 23.566 47.6708 22.6854C47.6708 21.8066 46.9566 21.0938 46.0769 21.0938C45.1989 21.0938 44.4844 21.8066 44.4844 22.6854Z" fill="#FD8469"/>
<path d="M56.4087 25.9297H21.5117V52.0352H56.4087V25.9297Z" fill="white"/>
<path d="M51.0228 30.7656H33.3281V32.4689H51.0228V30.7656Z" fill="#E6E6E6"/>
<path d="M51.0228 38.1836H33.3281V39.8869H51.0228V38.1836Z" fill="#E6E6E6"/>
<path d="M31.5119 36.6992H26.8965V41.2606H31.5119V36.6992Z" fill="#90DFAA"/>
<path d="M51.0228 45.5469H33.3281V47.2518H51.0228V45.5469Z" fill="#E6E6E6"/>
<path d="M31.5119 44.0625H26.8965V48.6242H31.5119V44.0625Z" fill="#FFD05B"/>
<path d="M31.5119 29.3359H26.8965V33.8969H31.5119V29.3359Z" fill="#FD8469"/>
<path fill-rule="evenodd" clip-rule="evenodd" d="M53.7168 60.168L48.8798 55.7725C46.4079 53.6279 44.9228 50.9349 44.539 48.1879C44.4844 47.6935 44.4297 47.2528 44.4297 46.7584V39.5591C44.4297 39.5591 52.068 37.8004 53.7715 36.2617C55.4764 37.8004 63.1147 39.5591 63.1147 39.5591V46.7584C63.1147 47.2528 63.0038 47.6935 62.9493 48.1879C62.6186 50.9349 61.1352 53.6279 58.6628 55.7725L53.7168 60.168Z" fill="#253645"/>
<path fill-rule="evenodd" clip-rule="evenodd" d="M61.5188 48.2422C61.575 47.8023 61.575 47.4709 61.575 47.0318V41.0414C61.575 41.0414 55.2001 39.5579 53.7715 38.2383V48.242H61.5188V48.2422Z" fill="white"/>
<path fill-rule="evenodd" clip-rule="evenodd" d="M53.7703 38.1836C52.34 39.5033 45.9668 40.9858 45.9668 40.9858V47.0308C45.9668 47.4699 45.9668 47.8013 46.0211 48.2412H53.7703V38.1836Z" fill="#FD8469"/>
<path fill-rule="evenodd" clip-rule="evenodd" d="M46.0762 48.2422C46.4071 50.6038 47.6701 52.8023 49.7043 54.6157L53.7707 58.189V48.2422H46.0762Z" fill="white"/>
<path fill-rule="evenodd" clip-rule="evenodd" d="M61.4097 48.2422C61.1352 50.6038 59.8172 52.8023 57.8379 54.6157L53.7715 58.189V48.2422H61.4097Z" fill="#FD8469"/>
</g>
<defs>
<clipPath id="clip0_240_26238">
<rect width="75.95" height="75.9511" fill="white" transform="translate(0.957031 0.539062)"/>
</clipPath>
</defs>
</svg>
